<svg width="170%" height="170%" viewBox="0 0 894 497" fill="none" xmlns="http://www.w3.org/2000/svg">
<path d="M197.667 63.4363C199.224 65.2656 203.352 69.143 207.41 70.0187C212.482 71.1134 215.98 70.1375 215.579 74.5306C215.177 78.9238 207.821 75.809 208.13 80.1518C208.438 84.4945 206.617 88.9885 210.166 88.7364C213.716 88.4843 218.634 87.4076 218.48 85.2362C218.325 83.0648 219.539 80.0688 220.805 77.7966C222.071 75.5244 220.497 73.4539 221.608 69.0103C222.719 64.5667 222.514 61.6716 220.888 58.8772C219.263 56.0829 346.692 102.318 507.84 90.8721C507.874 91.3547 508.663 92.4142 511.544 92.7915C515.144 93.2632 512.912 91.9669 518.745 93.7349C524.579 95.5029 522.758 99.9969 528.283 97.4222C533.808 94.8474 532.233 92.7769 535.937 94.6962C539.641 96.6154 539.085 98.8372 541.925 98.6355C544.764 98.4338 544.919 100.605 549.281 101.75C553.643 102.895 554.754 98.4517 559.775 98.8226C564.796 99.1934 569.868 100.288 570.578 100.238C571.288 100.187 562.419 105.909 559.734 108.282C557.048 110.655 547.171 122.269 547.984 123.666C548.796 125.063 559.898 120.637 561.369 121.26C562.84 121.883 558.889 126.528 563.807 125.452C568.725 124.375 584.281 112.358 587.625 109.211C590.969 106.064 586.565 114.378 590.876 114.8C595.187 115.221 597.018 120.91 599.909 121.433C602.8 121.955 610.249 116.333 618.007 115.055C625.764 113.777 623.079 116.15 626.68 116.621C630.281 117.093 636.618 115.915 639.005 119.383C641.392 122.851 633.531 122.682 623.593 123.388C613.654 124.093 618.171 127.41 613.253 128.487C608.335 129.563 602.357 135.807 598.467 151.36C594.578 166.913 606.822 138.4 608.396 140.471C609.97 142.541 600.144 154.878 602.901 173.596C605.657 192.314 609.72 199.299 613.321 199.771C616.922 200.243 625.338 198.19 625.071 184.388C624.805 170.585 620.699 173.059 618.004 165.249C615.309 157.438 619.806 140.388 622.697 140.91C625.588 141.432 623.108 146.7 625.896 145.775C628.684 144.849 626.134 129.027 631.052 127.95C635.97 126.873 651.947 130.83 652.214 144.633C652.481 158.435 644.765 150.254 647.409 157.341C650.053 164.427 652.831 153.318 656.329 152.342C659.827 151.367 668.201 158.774 667.347 166.836C666.493 174.899 653.57 183.818 659.609 188.482C665.648 193.145 673.92 199.104 687.748 182.846C701.577 166.587 714.046 161.337 708.717 156.623C703.388 151.91 712.206 145.464 721.588 146.98C730.971 148.496 736.846 140.804 735.314 129.274C733.782 117.744 738.998 110.826 746.704 108.824C754.41 106.822 771.191 101.993 777.879 95.6982C784.566 89.4036 789.783 82.4861 787.026 63.7684C784.27 45.0507 791.986 53.232 793.354 52.4074C794.723 51.5827 793.602 45.8428 799.332 46.1633C805.063 46.4837 810.762 66.4473 814.517 69.0903C818.272 71.7334 825.474 72.6768 827.305 78.3662C829.136 84.0557 820.02 96.3423 815.709 95.921C811.398 95.4997 813.219 91.0057 811.244 93.3284C809.268 95.651 813.178 100.465 809.885 104.336C806.593 108.208 805.626 104.639 804.206 104.74C802.786 104.841 802.24 117.246 800.471 122.464C798.701 127.682 795.305 130.105 798.906 130.577C802.507 131.048 795.82 137.343 798.762 138.589C801.704 139.835 810.275 139.953 808.505 145.171C806.735 150.389 804.245 145.474 802.877 146.298C801.508 147.123 803.083 149.194 801.159 152.24C799.234 155.286 781.343 164.559 779.47 168.329C777.597 172.1 771.208 172.553 772.381 179.017C773.553 185.481 780.899 178.412 778.78 188.747C776.66 199.081 776.104 201.303 773.367 202.953C770.63 204.602 764.241 205.056 764.591 199.939C764.941 194.822 768.234 190.951 766.763 190.328C765.291 189.705 760.682 195.124 760.99 199.467C761.299 203.81 770.28 209.719 771.854 211.789C773.428 213.86 779.015 222.192 770.701 225.693C762.388 229.193 758.016 217.864 757.759 214.245C757.502 210.626 758.861 199.618 756.278 203.439C753.696 207.259 754.765 212.276 755.074 216.618C755.382 220.961 756.144 221.634 754.117 223.233C752.587 224.44 749.85 222.366 748.466 220.982C750.068 226.005 754.592 234.841 762.192 236.481C770.308 238.232 760.1 240.509 753.982 241.429C757.802 241.643 766.052 242.608 768.489 244.763C771.534 247.457 773.622 256.765 768.755 258.566C763.889 260.366 766.173 262.386 769.722 262.134C773.272 261.882 778.293 262.253 777.181 266.696C776.292 270.251 768.902 270.679 765.319 270.449C768.227 271.212 774.105 273.607 774.351 277.082C774.598 280.556 765.702 282.546 761.223 283.106C761.731 283.555 762.503 285.052 761.532 287.449C760.317 290.445 756.871 292.145 757.128 295.764C757.385 299.383 752.621 302.631 748.259 301.486C748.581 302.675 748.273 305.704 744.462 308.302C739.698 311.55 744.266 315.591 743.001 317.863C741.988 319.681 738.086 322.334 736.262 323.434C736.364 324.881 736.023 328.106 733.833 329.426C731.644 330.745 727.818 331.793 726.179 332.152C726.957 333.066 728.16 335.939 726.744 340.113C724.974 345.331 720.519 352.922 721.537 357.214C722.103 365.176 739.52 389.399 741.454 396.536C743.388 403.673 757.091 415.794 757.708 424.48C758.325 433.165 756.565 448.566 748.098 449.895C744.085 443.633 740.937 439.492 736.019 440.569C735.104 437.724 732.096 431.536 727.388 429.543C721.503 427.051 717.491 420.789 717.635 412.777C715.471 412.446 711.142 409.746 711.134 401.6C711.124 391.416 708.943 390.844 700.774 386.332C692.605 381.82 691.185 381.921 688.346 382.122C685.506 382.324 683.232 390.487 677.553 390.891C671.874 391.294 667.45 379.242 658.17 379.173C648.89 379.105 643.118 388.244 638.097 387.874C633.076 387.503 635.608 382.958 633.478 383.11C631.348 383.261 635.813 385.853 627.294 386.459C618.776 387.064 621.512 385.414 618.066 387.114C614.619 388.814 613.961 389.588 606.1 389.419C598.24 389.25 598.497 392.869 600.02 394.215C601.542 395.562 607.777 392.937 609.403 395.731C611.028 398.526 606.82 399.552 610.472 400.747C614.125 401.943 620.565 402.213 620.822 405.832C621.079 409.451 617.684 411.874 615.349 409.13C613.013 406.386 610.524 401.471 604.896 402.598C599.268 403.725 612.91 404.939 606.676 407.564C600.441 410.189 602.92 404.921 600.132 405.846C597.344 406.772 604.093 411.385 596.943 411.165C589.792 410.945 591.768 408.623 588.722 405.929C585.677 403.236 580.451 399.97 577.714 401.619C574.977 403.268 577.313 406.012 574.524 406.938C571.736 407.863 569.247 402.948 563.567 403.351C557.888 403.755 550.635 402.088 545.367 408.281C540.099 414.475 542.322 405.588 538.772 405.84C535.223 406.092 542.126 412.876 539.389 414.525C536.652 416.175 524.748 429.387 520.993 426.744C517.238 424.1 492 440.442 506.176 469.26C499.162 470.971 482.667 469.766 472.791 451.263C460.446 428.134 451.198 408.423 435.426 407.361C419.654 406.298 430.62 420.068 420.023 421.548C409.426 423.029 403.737 413.248 396.166 397.055C388.594 380.862 380.271 374.178 369.468 372.763C360.826 371.631 352.547 372.268 349.488 372.728L349.241 379.292C338.98 378.808 316.714 377.383 309.734 375.551C302.754 373.719 274.219 357.705 260.824 349.927L260.516 345.585L228.972 343.46C229.425 339.791 228.625 330.537 221.802 322.874C213.273 313.295 216.421 317.436 214.744 313.918L209.775 314.271C207.827 310.287 201.356 302.212 191.051 301.78L189.117 294.643C190.029 294.093 191.529 292.435 190.228 290.199C188.603 287.405 185.506 283.988 182.76 275.453C180.562 268.626 179.066 266.986 178.593 267.02L178.131 260.506L181.68 260.254C181.865 259.513 181.769 257.483 179.9 255.288C177.565 252.544 174.468 249.127 174.818 244.01C175.169 238.893 177.257 248.201 180.045 247.276C182.833 246.35 174.561 240.391 177.35 239.465C180.138 238.54 187.545 242.379 188.862 240.83C190.179 239.282 182.669 233.996 176.938 233.675C177.261 234.865 177.479 237.274 175.776 237.395C173.646 237.546 173.132 230.308 169.83 223.996C166.527 217.683 165.406 211.944 168.647 207.349C171.888 202.754 162.145 196.171 163.36 193.175C164.574 190.179 174.554 180.014 174.143 174.224C173.814 169.591 173.155 167.019 172.867 166.312C172.374 162.71 172.267 153.843 175.79 147.191C180.194 138.877 195.885 108.664 195.474 102.874C197.672 103.688 202.19 105.016 202.676 103.817C203.161 102.619 198.276 98.7953 195.773 97.0333C197.124 95.9674 199.796 93.4013 199.672 91.6642C199.549 89.9272 198.03 88.6287 197.285 88.1966C198.993 88.8027 202.094 89.6009 200.835 87.9445C199.576 86.288 198.198 70.9155 197.667 63.4363Z" fill="#A8F4F6"/>
<path id="midwestRegion" d="M586 187.5L617.5 184C619.5 192.4 623 195.167 624.5 195.5C625.333 195.667 627.4 195.8 629 195C630.6 194.2 631.333 193.667 631.5 193.5C633.167 191 637.5 191.5 636.5 177.5C635.766 167.231 630.5 168 629 158.5C627.5 153.5 631.5 138 634 138C636.5 138 634 142.5 637.5 142.5C641 142.5 639 127 642.5 125.5C646 124 656.5 126.5 661.5 133.5C666.5 140.5 663 147.5 662 149C661 150.5 660 150 659 151C658 152 659.5 156 661 156.5C662.5 157 666.5 149 669 149C675 149 678.5 157.5 679 162C679.5 166.5 672 175.5 670 179.5C668.4 182.7 673 186.167 675.5 187.5L631.5 193.5C631.333 193.667 630.6 194.2 629 195C627.4 195.8 625.333 195.667 624.5 195.5C626.167 208.167 629.5 233.7 629.5 234.5C629.5 235.5 628.5 236.5 628.5 238.5C628.5 240.5 631 243.5 631 246.5C631 249.5 628.5 251 626 253C623.5 255 627.5 254.5 626 257C624.5 259.5 626 260 625.5 262.5C625 265 627.5 266 624 267C620.5 268 624 271.5 621.5 273.5C619 275.5 618.5 272 616 271.5C613.5 271 614.5 274 611 274C607.5 274 608 267 607 263.5C606 260 600.5 261 597.5 258C594.5 255 598 250 597.5 247C597 244 593 246.5 591.5 246.5C590 246.5 590 244 589 241C588 238 584 235.5 582 234.5C580 233.5 579 232 578 228C577 224 579 223 579 221C579 219 579 219 581 218.5C583 218 582 217.5 582 215.5C582 213.5 583 213 583.5 211C584 209 582 207.5 582 205.5C582 203.5 589.5 203 590 202C590.5 201 590 200.5 590 199.5C590 198.5 592 198.5 592.5 195.5C593 192.5 589 192 588.5 191C588 190 588 189.5 587 189C586.2 188.6 586 187.833 586 187.5Z" fill="#CFF4C9"/>
<path d="M771.57 223.589C769.277 221.111 767.467 221.889 766.849 222.588C767.772 226.472 769.14 227.039 773.155 227.429C777.17 227.819 774.435 226.686 771.57 223.589Z" stroke="black"/>
<path id="texasRegion" d="M382 362.5V364.5C394.5 366 402.5 380.5 404.5 383.5C406.5 386.5 416.5 408.5 422 410.5C427.5 412.5 434.5 414.5 436 405.5C437.5 396.5 445 397 455 401C463 404.2 477.333 429.667 483.5 442C485.333 445.333 491.1 453 499.5 457C507.9 461 514.333 460 516.5 459C514 456 509.8 447.1 513 435.5C517 421 528 417.5 530 417C531.6 416.6 532.333 417.5 532.5 418C534.5 418.5 547.5 408 550 404.5C551.768 402.025 546 398 548.5 397C551 396 552 400.5 553 401C554 401.5 556 399 557.5 397.5C558.7 396.3 561.333 395.667 562.5 395.5C562.5 395.5 561.5 389 561.5 387C561.5 385 564 384 564.5 380.5C565 377 563 374.5 562 373C561 371.5 560.5 369.5 559.5 367.5C558.7 365.9 556.833 364.167 556 363.5L554.5 337C553.333 337.167 550.8 337.5 550 337.5C549 337.5 543.5 333 540 332C536.5 331 535.5 332.5 533 332C530.5 331.5 527 334.5 524 335.5C521 336.5 518 333 516.5 333C515.3 333 513 335.333 512 336.5C510.5 335 509.5 334.5 507 334C503.448 333.29 502.5 334.167 502.5 334.5L502.499 334.494C502.332 333.327 502.05 331.35 499.5 330.5C496.5 329.5 495.333 331 494.5 331.5C494.333 331.333 493.4 330.8 491 330C488.6 329.2 486 329.333 485 329.5C485 328.667 484.6 326.8 483 326C481.4 325.2 479.667 326 479 326.5C478.667 326.333 477.8 325.8 477 325C476.2 324.2 474.667 323.667 474 323.5V292H434L431.5 365L382 362.5Z" fill="#6186FF"/>
<path d="M382 364.5V362L431.5 364.5L434 291.5H474V323C474.667 323.167 476.2 323.7 477 324.5C477.8 325.3 478.667 325.833 479 326C479.667 325.5 481.4 324.7 483 325.5C484.6 326.3 485 328.167 485 329C486 328.833 488.6 328.7 491 329.5C493.4 330.3 494.333 330.833 494.5 331C495.333 330.5 496.5 329 499.5 330C502.054 330.851 502.333 332.833 502.5 334C502.5 333.667 503.448 332.79 507 333.5C509.5 334 510.5 334.5 512 336C513 334.833 515.3 332.5 516.5 332.5C518 332.5 521 336 524 335C527 334 530.5 331 533 331.5C535.5 332 536.5 330.5 540 331.5C543.5 332.5 549 337 550 337C550.8 337 553.333 336.667 554.5 336.5L556 363C556.833 363.667 558.7 365.4 559.5 367C560.5 369 561 371 562 372.5C563 374 565 376.5 564.5 380C564 383.5 561.5 384.5 561.5 386.5C561.5 388.5 562.5 395 562.5 395" stroke="black"/>
<path id="newEnglandRegion" d="M775 109.5C774.6 107.9 771.833 104.833 770.5 103.5C758.5 106.5 746.5 109 747 120.5C747.5 132 747.5 135.5 744.5 140C741.5 144.5 737 144 731.5 144C718.5 145 720.5 148 719 150C717.5 152 721.5 154.5 721.5 156.5C721.5 158.1 710.167 168.5 704.5 173.5L714.5 208.5L744.5 200.5C744.333 201.333 744.3 203.4 745.5 205C747 207 751 208 754 210C756.4 211.6 758.333 214.667 759 216C760 217.167 762.7 219.4 765.5 219C769 218.5 766 209.5 766 203.5C766 197.5 768.5 199 769 199.5C769.5 200 768 221 777.5 221.5C787 222 786 216.5 785.5 212.5C785 208.5 773.5 198.5 772.5 195.5C771.5 192.5 776.5 186 778 187C779.5 188 775.5 194 776 197C776.5 200 778 200.5 783.5 199.5C789 198.5 791 183.5 790 180C789 176.5 787.5 179.5 784 176.5C782 171 789 167.5 790 166.5C791 165.5 790.5 165 791.5 164C792.5 163 812.5 149.5 813.5 148.5C814.5 147.5 814 144 814.5 143.5C815 143 817.5 145 818.5 145C819.5 145 820.5 142 820 140C819.5 138 811 136.5 810 135.5C809 134.5 811.5 130 811.5 129C811.5 128.2 810.5 128 810 128L785 135.5C783.5 130.5 781.5 127.5 779 124.5C776.5 121.5 775.5 111.5 775 109.5Z" fill="#E59DCB"/>
<path d="M798.5 164C791.7 168.8 788.667 172.333 788 173.5C791 176.162 795.5 171 798.5 168.5C801.5 166 808.5 158 808 157.5C807.5 157 806.5 158 798.5 164Z" fill="#E59DCB"/>
<path d="M770 222.5C768.4 221.7 767.333 222.167 767 222.5C766.833 223 767 224.4 769 226C771 227.6 773.833 227.333 775 227C774 225.833 771.6 223.3 770 222.5Z" fill="#E59DCB"/>
<path id="washingtonRegion" d="M218.68 103.788C218.416 99.8275 215.898 99.23 215 100C215 98.0001 210.667 94.8333 208.5 93.5C209.667 92.3333 212.1 89.6999 212.5 88.4999C212.9 87.2999 211.333 85.6666 210.5 85C211.333 85.1666 213.1 85.5 213.5 85.5C213.9 85.5 213.667 85.1666 213.5 85C213.5 85 212.5 81 212.5 79.5C212.5 78.3 211.167 66.3333 210.5 60.5C210.833 61 212.4 62.7 216 65.5C220.5 69 226 67.4999 227 68.4999C228 69.4999 228 72.5 227 73.5C226 74.5 222 74.5 221.5 75C221 75.5 220.5 80 220.5 81.5C220.5 83 219.5 85.5 223 85.5C225.8 85.5 229.5 83.8333 231 83C230.5 80.5 232.5 76.5 233.5 75C234.5 73.5 232.882 72.4734 233.5 70C234 67.9999 234.333 63.5 235 61.5C235.5 58.5 233.5 56 234 56C236 56.0002 273.667 66.1667 292.5 70.5C293.067 71.8829 293.246 77.6576 288.746 87.0488C284.246 96.4399 282.582 112.082 282.313 118.729C276.975 116.954 265.156 113.337 260.583 113.073C254.866 112.743 241.449 114.347 234.174 111.99C226.899 109.633 227.655 110.293 224.111 110.529C220.568 110.765 219.01 108.738 218.68 103.788Z" fill="#B2C0F3"/>
<path d="M617.5 184L586 187.5C586 187.833 586.2 188.6 587 189C588 189.5 588 190 588.5 191C589 192 593 192.5 592.5 195.5C592 198.5 590 198.5 590 199.5C590 200.5 590.5 201 590 202C589.5 203 582 203.5 582 205.5C582 207.5 584 209 583.5 211C583 213 582 213.5 582 215.5C582 217.5 583 218 581 218.5C579 219 579 219 579 221C579 223 577 224 578 228C579 232 580 233.5 582 234.5C584 235.5 588 238 589 241C590 244 590 246.5 591.5 246.5C593 246.5 597 244 597.5 247C598 250 594.5 255 597.5 258C600.5 261 606 260 607 263.5C608 267 607.5 274 611 274C614.5 274 613.5 271 616 271.5C618.5 272 619 275.5 621.5 273.5C624 271.5 620.5 268 624 267C627.5 266 625 265 625.5 262.5C626 260 624.5 259.5 626 257C627.5 254.5 623.5 255 626 253C628.5 251 631 249.5 631 246.5C631 243.5 628.5 240.5 628.5 238.5C628.5 236.5 629.5 235.5 629.5 234.5C629.5 233.7 626.167 208.167 624.5 195.5M631.5 193.5L675.5 187.5" stroke="black"/>
<path id="soCalRegion" d="M185.239 161.56L185 161.5C185.08 161.42 185.161 161.443 185.239 161.56L234.5 174C231 189.833 224 221.7 224 222.5C224 223.3 260.667 273.5 279 298.5L285 314C283.667 314.167 280.8 315 280 317C279 319.5 280 319.5 278 323C276 326.5 274.5 329.5 275.5 331C276.5 332.5 278 333 277.5 334.5C277 336 278 337.5 270.5 337C264.5 336.6 247.667 335.5 240 335C239.5 322 235.5 317 227 308L226 306L221 306.5C220.167 304.667 217.5 300.3 213.5 297.5C209.5 294.7 204.5 294 202.5 294L200.5 287C201 286.833 202 286.2 202 285C202 281.5 197.5 276.5 196 272.5C194.833 269.167 192.3 262.3 191.5 261.5L190 260V253.5H193C193.333 253.333 193.8 252.6 193 251C192 249 188.5 244.5 187.5 242.5C186.5 240.5 186 236 187 236C188 236 189 240.5 191.5 240.5C194 240.5 190 236 189.5 235.5C189 235 187.551 233.316 188.5 233C190 232.5 199.5 235.5 200 234.5C200.5 234.5 201.4 234.3 201 233.5C200.5 232.5 193 226.5 188.5 227C188.833 228.167 189.1 230.5 187.5 230.5C185.5 230.5 184.5 224 183 221C181.5 218 177.5 210 178.5 206C179.5 202 181 201.5 181 200C181 196.203 177.236 192.972 175 188.5C174 186.5 186 178.062 186 170C186 165.383 185.648 162.176 185.239 161.56Z" fill="#E5A698"/>
<g filter="url(#filter0_d)">
<path d="M210.376 60.5542C211.921 62.3503 216.022 66.1601 220.07 67.03C225.13 68.1174 228.63 67.1723 228.204 71.4733C227.777 75.7743 220.448 72.7017 220.731 76.9555C221.014 81.2093 219.169 85.6047 222.716 85.3686C226.263 85.1325 231.181 84.093 231.04 81.9661C230.898 79.8392 232.128 76.9089 233.405 74.6876C234.682 72.4662 233.122 70.4338 234.258 66.0856C235.393 61.7374 235.204 58.9015 233.597 56.1601C231.989 53.4187 359.008 99.0837 520.036 88.3646C520.068 88.8373 520.849 89.8772 523.725 90.2555C527.319 90.7284 525.096 89.4521 530.913 91.2012C536.73 92.9504 534.885 97.3458 540.418 94.8411C545.951 92.3365 544.391 90.304 548.08 92.1948C551.768 94.0856 551.2 96.2597 554.038 96.0709C556.875 95.882 557.017 98.0089 561.367 99.1435C565.718 100.278 566.854 95.9299 571.867 96.3083C576.879 96.6867 581.939 97.7741 582.649 97.7269C583.358 97.6796 574.467 103.256 571.771 105.572C569.075 107.888 559.142 119.231 559.946 120.601C560.75 121.972 571.864 117.672 573.33 118.286C574.795 118.901 570.822 123.438 575.741 122.398C580.659 121.359 596.267 109.638 599.625 106.566C602.983 103.494 598.537 111.623 602.84 112.049C607.144 112.475 608.94 118.052 611.825 118.572C614.709 119.092 622.182 113.61 629.938 112.382C637.694 111.153 634.998 113.469 638.592 113.942C642.186 114.415 648.524 113.281 650.888 116.684C653.252 120.087 645.401 119.898 635.47 120.559C625.539 121.22 630.031 124.481 625.113 125.521C620.194 126.56 614.187 132.657 610.213 147.876C606.238 163.095 618.632 135.209 620.193 137.242C621.753 139.274 611.867 151.326 614.513 169.665C617.159 188.003 621.178 194.857 624.772 195.33C628.366 195.803 636.784 193.818 636.597 180.3C636.409 166.783 632.295 169.193 629.648 161.536C627 153.879 631.59 137.195 634.475 137.715C637.359 138.236 634.852 143.387 637.642 142.489C640.433 141.591 637.976 126.089 642.894 125.049C647.813 124.01 663.749 127.934 663.937 141.451C664.124 154.969 656.464 146.933 659.064 153.881C661.664 160.829 664.503 149.959 668.003 149.014C671.502 148.069 679.825 155.348 678.925 163.241C678.025 171.134 665.066 179.83 671.072 184.415C677.077 189 685.305 194.861 699.211 178.981C713.117 163.101 725.602 157.997 720.306 153.365C715.01 148.733 723.855 142.447 733.218 143.96C742.582 145.473 748.494 137.959 747.03 126.663C745.565 115.366 750.815 108.608 758.524 106.671C766.233 104.733 783.022 100.055 789.738 93.9113C796.454 87.7673 801.705 81.0089 799.059 62.6703C796.413 44.3317 804.073 52.367 805.445 51.5636C806.816 50.7602 805.73 45.1357 811.452 45.4669C817.174 45.7981 822.752 65.3658 826.487 67.9656C830.223 70.5653 837.411 71.511 839.207 77.0883C841.004 82.6656 831.827 94.6701 827.524 94.2444C823.221 93.8188 825.066 89.4234 823.079 91.6919C821.092 93.9605 824.97 98.6871 821.659 102.468C818.348 106.249 817.402 102.751 815.984 102.846C814.565 102.94 813.948 115.087 812.151 120.191C810.353 125.296 806.948 127.659 810.542 128.132C814.136 128.605 807.42 134.748 810.351 135.978C813.283 137.207 821.843 137.349 820.045 142.453C818.247 147.558 815.789 142.737 814.417 143.54C813.046 144.343 814.606 146.376 812.667 149.353C810.728 152.331 792.803 161.357 790.911 165.044C789.018 168.73 782.634 169.155 783.768 175.489C784.902 181.822 792.281 174.922 790.104 185.036C787.927 195.151 787.359 197.325 784.616 198.932C781.873 200.538 775.489 200.963 775.868 195.954C776.247 190.944 779.558 187.163 778.092 186.548C776.626 185.934 771.99 191.227 772.274 195.481C772.557 199.734 781.494 205.548 783.054 207.581C784.615 209.613 790.147 217.79 781.823 221.193C773.499 224.595 769.197 213.488 768.961 209.943C768.725 206.398 770.145 195.622 767.544 199.356C764.942 203.09 765.982 208.005 766.265 212.259C766.548 216.513 767.305 217.175 765.271 218.734C763.644 219.982 760.684 217.615 759.407 216.276L759.36 215.567C760.621 220.231 765.166 229.992 773.262 231.732C781.358 233.472 771.149 235.671 765.032 236.553C768.847 236.773 777.082 237.744 779.503 239.862C782.529 242.509 784.562 251.631 779.69 253.38C774.819 255.128 777.089 257.113 780.636 256.877C784.183 256.641 789.195 257.019 788.06 261.368C787.151 264.846 779.767 265.243 776.189 265.006C779.09 265.763 784.947 268.126 785.174 271.529C785.4 274.932 776.503 276.854 772.026 277.389C772.53 277.83 773.293 279.299 772.309 281.643C771.079 284.573 767.626 286.227 767.862 289.772C768.098 293.317 763.322 296.483 758.971 295.349C759.286 296.515 758.961 299.48 755.139 302.013C750.362 305.179 754.902 309.15 753.625 311.371C752.603 313.148 748.69 315.735 746.861 316.806C746.956 318.224 746.596 321.381 744.401 322.666C742.207 323.952 738.379 324.966 736.74 325.313C737.512 326.211 738.697 329.028 737.259 333.111C735.461 338.216 730.967 345.636 731.96 349.843C732.479 357.641 749.737 381.416 751.628 388.411C753.518 395.406 767.137 407.318 767.703 415.825C768.269 424.333 766.423 439.41 757.957 440.686C753.986 434.541 750.865 430.476 745.947 431.516C745.049 428.727 742.08 422.658 737.389 420.692C731.525 418.234 727.553 412.089 727.743 404.243C725.584 403.912 721.274 401.256 721.313 393.278C721.362 383.305 719.187 382.738 711.053 378.294C702.92 373.851 701.501 373.945 698.663 374.134C695.826 374.323 693.507 382.311 687.832 382.688C682.157 383.066 677.808 371.25 668.539 371.155C659.27 371.06 653.452 379.992 648.439 379.614C643.426 379.235 645.981 374.793 643.853 374.934C641.724 375.076 646.169 377.629 637.657 378.195C629.144 378.762 631.888 377.155 628.435 378.809C624.983 380.463 624.32 381.219 616.47 381.03C608.62 380.84 608.856 384.385 610.369 385.708C611.882 387.032 618.125 384.48 619.732 387.221C621.34 389.963 617.131 390.955 620.772 392.137C624.413 393.319 630.845 393.603 631.081 397.148C631.317 400.692 627.911 403.055 625.595 400.361C623.278 397.667 620.819 392.846 615.191 393.933C609.564 395.019 623.183 396.249 616.94 398.801C610.698 401.353 613.205 396.201 610.414 397.099C607.624 397.997 614.339 402.535 607.198 402.298C600.057 402.061 602.044 399.793 599.017 397.146C595.991 394.499 590.789 391.284 588.046 392.891C585.303 394.498 587.62 397.192 584.83 398.09C582.039 398.988 579.581 394.167 573.906 394.545C568.231 394.922 560.995 393.268 555.698 399.317C550.401 405.367 552.672 396.67 549.125 396.906C545.578 397.142 552.434 403.807 549.691 405.414C546.948 407.021 534.982 419.923 531.246 417.323C527.51 414.723 502.207 430.65 516.201 458.915C509.186 460.568 492.716 459.339 482.958 441.189C470.76 418.501 461.635 399.17 445.888 398.082C430.14 396.993 441.015 410.512 430.421 411.929C419.828 413.346 414.202 403.751 406.732 387.87C399.262 371.989 390.987 365.419 380.205 364C371.579 362.865 363.306 363.463 360.248 363.904L359.963 370.332C349.717 369.827 327.484 368.364 320.523 366.549C313.562 364.733 285.151 348.964 271.816 341.307L271.533 337.053L240.037 334.877C240.51 331.285 239.765 322.219 232.993 314.695C224.53 305.288 227.65 309.353 225.996 305.903L221.03 306.234C219.107 302.326 212.689 294.398 202.399 293.944L200.508 286.949C201.422 286.413 202.93 284.793 201.644 282.6C200.036 279.859 196.963 276.503 194.268 268.137C192.113 261.444 190.628 259.834 190.155 259.866L189.73 253.485L193.277 253.249C193.466 252.524 193.382 250.536 191.528 248.381C189.211 245.686 186.138 242.33 186.517 237.32C186.896 232.31 188.928 241.433 191.718 240.535C194.509 239.637 186.281 233.776 189.071 232.878C191.861 231.98 199.238 235.762 200.563 234.249C201.887 232.737 194.416 227.537 188.694 227.206C189.009 228.372 189.213 230.732 187.511 230.845C185.383 230.987 184.911 223.897 181.648 217.706C178.386 211.514 177.299 205.889 180.563 201.399C183.827 196.909 174.133 190.434 175.363 187.503C176.593 184.573 186.62 174.648 186.243 168.977C185.941 164.439 185.298 161.918 185.014 161.225C184.542 157.696 184.486 149.012 188.043 142.509C192.49 134.38 208.337 104.841 207.959 99.1689C210.15 99.9725 214.655 101.287 215.147 100.115C215.639 98.9425 210.781 95.1832 208.291 93.45C209.647 92.4103 212.33 89.9054 212.217 88.2039C212.104 86.5024 210.594 85.2262 209.853 84.8008C211.555 85.3995 214.648 86.1906 213.4 84.5647C212.151 82.9387 210.864 67.8802 210.376 60.5542Z" stroke="black"/>
</g>
<path d="M215 100C215.898 99.2299 218.417 99.8275 218.68 103.788C219.01 108.738 220.568 110.765 224.111 110.529C227.655 110.293 226.899 109.633 234.174 111.99C241.449 114.347 254.866 112.743 260.583 113.073C265.156 113.337 276.975 116.954 282.313 118.729C282.582 112.082 284.246 96.4399 288.746 87.0487C293.246 77.6576 293.067 71.8828 292.5 70.5M271 337C272.5 337 277.084 337.301 277.5 335C278.02 332.124 273.758 332.383 275.601 327.999C277.445 323.615 279.571 323.473 279.288 319.23C279.062 315.836 283.226 314.233 285.337 313.856L279.34 298.629C261.079 273.8 224.396 223.871 223.754 222.777C223.111 221.683 230.801 189.635 234.726 173.748L185.501 161.398M759.304 216.249C758.47 214.411 755.488 210.253 750.235 208.33C744.982 206.406 744.394 202.563 744.757 200.881L714.661 208.567L704.512 173.728M771.047 103.953C772.071 105.069 774.297 107.857 775.014 110.082C775.911 112.863 776.57 122.763 779.593 125.403C782.011 127.515 784.378 133.135 785.26 135.68L809.686 128.372M789.266 174.479C788.069 174.322 786.488 173.386 789.739 170.896C793.803 167.785 803.206 159.346 807.364 157.648C811.522 155.951 798.384 172.452 789.266 174.479Z" stroke="black" stroke-linejoin="round"/>
<g filter="url(#filter1_d)">
<rect x="778" y="154" width="101" height="21" rx="1" fill="#F7D193"/>
<rect x="778.5" y="154.5" width="100" height="20" rx="0.5" stroke="black"/>
</g>
<path d="M789.424 166.437L785.816 160.717L784.067 160.717L784.067 169L785.431 169L785.431 162.796L789.281 169L790.788 169L790.788 160.717L789.424 160.717L789.424 166.437ZM794.426 165.436L798.573 165.436L798.573 164.105L794.426 164.105L794.426 162.081L799.31 162.081L799.31 160.717L792.919 160.717L792.919 169L799.519 169L799.519 167.636L794.426 167.636L794.426 165.436ZM806.006 162.741L807.689 169L809.262 169L811.638 160.717L810.109 160.717L808.481 166.734L806.864 160.717L805.269 160.717L803.63 166.745L802.112 160.717L800.495 160.717L802.695 169L804.334 169L806.006 162.741ZM817.22 165.436L821.367 165.436L821.367 164.105L817.22 164.105L817.22 162.081L822.104 162.081L822.104 160.717L815.713 160.717L815.713 169L822.313 169L822.313 167.636L817.22 167.636L817.22 165.436ZM829.428 166.437L825.82 160.717L824.071 160.717L824.071 169L825.435 169L825.435 162.796L829.285 169L830.792 169L830.792 160.717L829.428 160.717L829.428 166.437ZM839.148 168.098L839.478 169.11L840.215 169.11L840.215 164.534L837.003 164.534L837.003 165.799L838.807 165.799L838.807 166.085C838.807 167.02 838.114 167.812 836.651 167.812C834.792 167.812 834.154 166.668 834.154 164.831C834.154 163.115 834.902 161.927 836.651 161.927C837.828 161.927 838.488 162.378 838.873 163.368L840.193 162.642C839.577 161.245 838.389 160.574 836.695 160.574C834.066 160.574 832.537 162.356 832.537 164.842C832.537 167.35 833.813 169.143 836.53 169.143C837.817 169.143 838.587 168.791 839.148 168.098ZM843.689 167.636L843.689 160.717L842.182 160.717L842.182 169L848.276 169L848.276 167.636L843.689 167.636ZM851.161 167.064L854.197 167.064L854.824 169L856.353 169L853.581 160.717L851.953 160.717L849.082 169L850.512 169L851.161 167.064ZM853.779 165.788L851.59 165.788L852.701 162.499L853.779 165.788ZM863.083 166.437L859.475 160.717L857.726 160.717L857.726 169L859.09 169L859.09 162.796L862.94 169L864.447 169L864.447 160.717L863.083 160.717L863.083 166.437ZM866.578 169L869.889 169C872.87 169 873.761 167.075 873.761 164.842C873.761 162.543 872.496 160.717 869.911 160.717L866.578 160.717L866.578 169ZM868.085 162.059L869.977 162.059C871.407 162.059 872.243 163.104 872.243 164.831C872.243 166.745 871.396 167.669 869.988 167.669L868.085 167.669L868.085 162.059Z" fill="#231F20"/>
<path d="M774 169V161.5L769 165.5L774 169Z" fill="#F7D193" stroke="black"/>
<g filter="url(#filter2_d)">
<rect x="35" y="295" width="160" height="21" rx="1" fill="#F7D193"/>
<rect x="35.5" y="295.5" width="159" height="20" rx="0.5" stroke="black"/>
</g>
<path d="M44.5861 301.574C42.4851 301.574 41.3631 302.542 41.3631 303.983C41.3631 305.82 42.7821 306.183 44.4321 306.458C46.0821 306.733 46.7531 306.887 46.7531 307.745C46.7531 308.471 46.1261 308.801 44.9381 308.801C43.4751 308.801 42.8811 308.251 42.4741 307.349L41.0991 307.965C41.5061 309.285 42.7491 310.143 44.8611 310.143C46.9291 310.143 48.3151 309.461 48.3151 307.745C48.3151 305.831 46.9841 305.336 45.0041 305.017C43.5411 304.786 42.8591 304.709 42.8591 303.895C42.8591 303.213 43.3541 302.883 44.5751 302.883C45.7521 302.883 46.4231 303.422 46.8301 304.203L48.0841 303.4C47.5121 302.256 46.4121 301.574 44.5861 301.574ZM49.5062 305.842C49.5062 308.35 51.1452 310.143 53.6862 310.143C56.3592 310.143 57.7892 308.35 57.7892 305.82C57.7892 303.367 56.1502 301.574 53.6422 301.574C51.1232 301.574 49.5062 303.466 49.5062 305.842ZM53.6422 302.927C55.2702 302.927 56.1722 304.082 56.1722 305.809C56.1722 307.855 55.3472 308.768 53.6532 308.768C52.0142 308.768 51.1232 307.668 51.1232 305.831C51.1232 304.115 52.0142 302.927 53.6422 302.927ZM62.9477 310.143C65.4117 310.143 66.3797 309.098 66.3797 306.854L66.3797 301.717L64.8727 301.717L64.8727 306.975C64.8727 308.35 64.2457 308.823 62.9367 308.823C61.6607 308.823 60.9237 308.383 60.9237 307.052L60.9237 301.717L59.4167 301.717L59.4167 306.788C59.4167 309.164 60.6267 310.143 62.9477 310.143ZM72.1733 303.081L75.0773 303.081L75.0773 301.717L67.8173 301.717L67.8173 303.081L70.6663 303.081L70.6663 310L72.1733 310L72.1733 303.081ZM82.0953 305.072L78.1463 305.072L78.1463 301.717L76.6393 301.717L76.6393 310L78.1463 310L78.1463 306.436L82.0953 306.436L82.0953 310L83.6023 310L83.6023 301.717L82.0953 301.717L82.0953 305.072ZM87.2449 306.436L91.3919 306.436L91.3919 305.105L87.2449 305.105L87.2449 303.081L92.1289 303.081L92.1289 301.717L85.7379 301.717L85.7379 310L92.3379 310L92.3379 308.636L87.2449 308.636L87.2449 306.436ZM99.3533 306.084C100.255 305.831 100.849 305.248 100.849 304.06C100.849 302.41 99.5403 301.717 97.9673 301.717L94.0953 301.717L94.0953 310L95.6023 310L95.6023 306.59L97.4063 306.59C98.6493 306.59 98.9353 307.14 99.0233 308.317C99.1003 309.318 99.1993 309.736 99.3643 310L100.992 310L100.992 309.956C100.772 309.648 100.64 309.153 100.596 308.13C100.541 307.019 100.101 306.37 99.3533 306.084ZM95.6023 305.292L95.6023 303.092L98.0333 303.092C98.7373 303.092 99.3423 303.378 99.3423 304.159C99.3423 304.984 98.8803 305.292 97.9123 305.292L95.6023 305.292ZM108.132 307.437L104.524 301.717L102.775 301.717L102.775 310L104.139 310L104.139 303.796L107.989 310L109.496 310L109.496 301.717L108.132 301.717L108.132 307.437ZM121.428 307.921L120.152 307.228C119.811 308.13 119.25 308.768 118.018 308.768C116.236 308.768 115.576 307.668 115.576 305.831C115.576 304.115 116.269 302.927 118.007 302.927C119.195 302.927 119.756 303.664 120.086 304.566L121.373 303.851C120.878 302.443 119.734 301.574 118.007 301.574C115.4 301.574 113.959 303.411 113.959 305.842C113.959 308.35 115.301 310.143 117.963 310.143C119.954 310.143 120.988 309.12 121.428 307.921ZM124.269 308.064L127.305 308.064L127.932 310L129.461 310L126.689 301.717L125.061 301.717L122.19 310L123.62 310L124.269 308.064ZM126.887 306.788L124.698 306.788L125.809 303.499L126.887 306.788ZM132.341 308.636L132.341 301.717L130.834 301.717L130.834 310L136.928 310L136.928 308.636L132.341 308.636ZM138.625 301.717L138.625 310L140.132 310L140.132 301.717L138.625 301.717ZM143.91 306.48L147.749 306.48L147.749 305.116L143.91 305.116L143.91 303.081L148.442 303.081L148.442 301.717L142.403 301.717L142.403 310L143.91 310L143.91 306.48ZM149.709 305.842C149.709 308.35 151.348 310.143 153.889 310.143C156.562 310.143 157.992 308.35 157.992 305.82C157.992 303.367 156.353 301.574 153.845 301.574C151.326 301.574 149.709 303.466 149.709 305.842ZM153.845 302.927C155.473 302.927 156.375 304.082 156.375 305.809C156.375 307.855 155.55 308.768 153.856 308.768C152.217 308.768 151.326 307.668 151.326 305.831C151.326 304.115 152.217 302.927 153.845 302.927ZM164.999 306.084C165.901 305.831 166.495 305.248 166.495 304.06C166.495 302.41 165.186 301.717 163.613 301.717L159.741 301.717L159.741 310L161.248 310L161.248 306.59L163.052 306.59C164.295 306.59 164.581 307.14 164.669 308.317C164.746 309.318 164.845 309.736 165.01 310L166.638 310L166.638 309.956C166.418 309.648 166.286 309.153 166.242 308.13C166.187 307.019 165.747 306.37 164.999 306.084ZM161.248 305.292L161.248 303.092L163.679 303.092C164.383 303.092 164.988 303.378 164.988 304.159C164.988 304.984 164.526 305.292 163.558 305.292L161.248 305.292ZM173.778 307.437L170.17 301.717L168.421 301.717L168.421 310L169.785 310L169.785 303.796L173.635 310L175.142 310L175.142 301.717L173.778 301.717L173.778 307.437ZM177.404 301.717L177.404 310L178.911 310L178.911 301.717L177.404 301.717ZM182.502 308.064L185.538 308.064L186.165 310L187.694 310L184.922 301.717L183.294 301.717L180.423 310L181.853 310L182.502 308.064ZM185.12 306.788L182.931 306.788L184.042 303.499L185.12 306.788Z" fill="#231F20"/>
<path d="M200 302L200 309.5L205 305.5L200 302Z" fill="#F7D193" stroke="black"/>
<g filter="url(#filter3_d)">
<rect x="427" y="417" width="55" height="21" rx="1" fill="#F7D193"/>
<rect x="427.5" y="417.5" width="54" height="20" rx="0.5" stroke="black"/>
</g>
<path d="M439.686 425.081L442.59 425.081L442.59 423.717L435.33 423.717L435.33 425.081L438.179 425.081L438.179 432L439.686 432L439.686 425.081ZM445.659 428.436L449.806 428.436L449.806 427.105L445.659 427.105L445.659 425.081L450.543 425.081L450.543 423.717L444.152 423.717L444.152 432L450.752 432L450.752 430.636L445.659 430.636L445.659 428.436ZM454.313 427.721L451.761 432L453.323 432L455.094 428.964L456.942 432L458.68 432L456.073 427.754C456.073 427.743 458.46 423.717 458.46 423.717L456.898 423.717L455.281 426.5L453.587 423.717L451.849 423.717L454.313 427.721ZM461.381 430.064L464.417 430.064L465.044 432L466.573 432L463.801 423.717L462.173 423.717L459.302 432L460.732 432L461.381 430.064ZM463.999 428.788L461.81 428.788L462.921 425.499L463.999 428.788ZM470.762 423.574C468.661 423.574 467.539 424.542 467.539 425.983C467.539 427.82 468.958 428.183 470.608 428.458C472.258 428.733 472.929 428.887 472.929 429.745C472.929 430.471 472.302 430.801 471.114 430.801C469.651 430.801 469.057 430.251 468.65 429.349L467.275 429.965C467.682 431.285 468.925 432.143 471.037 432.143C473.105 432.143 474.491 431.461 474.491 429.745C474.491 427.831 473.16 427.336 471.18 427.017C469.717 426.786 469.035 426.709 469.035 425.895C469.035 425.213 469.53 424.883 470.751 424.883C471.928 424.883 472.599 425.422 473.006 426.203L474.26 425.4C473.688 424.256 472.588 423.574 470.762 423.574Z" fill="#231F20"/>
<path d="M486 424L486 431.5L491 427.5L486 424Z" fill="#F7D193" stroke="black"/>
<g filter="url(#filter4_d)">
<rect x="518" y="215" width="68" height="21" rx="1" fill="#F7D193"/>
<rect x="518.5" y="215.5" width="67" height="20" rx="0.5" stroke="black"/>
</g>
<path d="M526.531 221.717L526.531 230L528.038 230L528.038 221.717L526.531 221.717ZM531.816 228.636L531.816 221.717L530.309 221.717L530.309 230L536.403 230L536.403 228.636L531.816 228.636ZM539.475 228.636L539.475 221.717L537.968 221.717L537.968 230L544.062 230L544.062 228.636L539.475 228.636ZM545.76 221.717L545.76 230L547.267 230L547.267 221.717L545.76 221.717ZM554.895 227.437L551.287 221.717L549.538 221.717L549.538 230L550.902 230L550.902 223.796L554.752 230L556.259 230L556.259 221.717L554.895 221.717L554.895 227.437ZM558.004 225.842C558.004 228.35 559.643 230.143 562.184 230.143C564.857 230.143 566.287 228.35 566.287 225.82C566.287 223.367 564.648 221.574 562.14 221.574C559.621 221.574 558.004 223.466 558.004 225.842ZM562.14 222.927C563.768 222.927 564.67 224.082 564.67 225.809C564.67 227.855 563.845 228.768 562.151 228.768C560.512 228.768 559.621 227.668 559.621 225.831C559.621 224.115 560.512 222.927 562.14 222.927ZM568.168 221.717L568.168 230L569.675 230L569.675 221.717L568.168 221.717ZM574.762 221.574C572.661 221.574 571.539 222.542 571.539 223.983C571.539 225.82 572.958 226.183 574.608 226.458C576.258 226.733 576.929 226.887 576.929 227.745C576.929 228.471 576.302 228.801 575.114 228.801C573.651 228.801 573.057 228.251 572.65 227.349L571.275 227.965C571.682 229.285 572.925 230.143 575.037 230.143C577.105 230.143 578.491 229.461 578.491 227.745C578.491 225.831 577.16 225.336 575.18 225.017C573.717 224.786 573.035 224.709 573.035 223.895C573.035 223.213 573.53 222.883 574.751 222.883C575.928 222.883 576.599 223.422 577.006 224.203L578.26 223.4C577.688 222.256 576.588 221.574 574.762 221.574Z" fill="#231F20"/>
<path d="M590 222L590 229.5L595 225.5L590 222Z" fill="#F7D193" stroke="black"/>
<g filter="url(#filter5_d)">
<rect x="668" y="115" width="75" height="21" rx="1" fill="#F7D193"/>
<rect x="668.5" y="115.5" width="74" height="20" rx="0.5" stroke="black"/>
</g>
<path d="M683.411 121.717L681.376 121.717L679.264 127.415L677.196 121.717L675.106 121.717L675.106 130L676.459 130L676.459 123.741L678.692 130L679.682 130L681.97 123.741L681.97 130L683.411 130L683.411 121.717ZM685.679 121.717L685.679 130L687.186 130L687.186 121.717L685.679 121.717ZM696.542 127.921L695.266 127.228C694.925 128.13 694.364 128.768 693.132 128.768C691.35 128.768 690.69 127.668 690.69 125.831C690.69 124.115 691.383 122.927 693.121 122.927C694.309 122.927 694.87 123.664 695.2 124.566L696.487 123.851C695.992 122.443 694.848 121.574 693.121 121.574C690.514 121.574 689.073 123.411 689.073 125.842C689.073 128.35 690.415 130.143 693.077 130.143C695.068 130.143 696.102 129.12 696.542 127.921ZM703.518 125.072L699.569 125.072L699.569 121.717L698.062 121.717L698.062 130L699.569 130L699.569 126.436L703.518 126.436L703.518 130L705.025 130L705.025 121.717L703.518 121.717L703.518 125.072ZM707.293 121.717L707.293 130L708.8 130L708.8 121.717L707.293 121.717ZM717.297 129.098L717.627 130.11L718.364 130.11L718.364 125.534L715.152 125.534L715.152 126.799L716.956 126.799L716.956 127.085C716.956 128.02 716.263 128.812 714.8 128.812C712.941 128.812 712.303 127.668 712.303 125.831C712.303 124.115 713.051 122.927 714.8 122.927C715.977 122.927 716.637 123.378 717.022 124.368L718.342 123.642C717.726 122.245 716.538 121.574 714.844 121.574C712.215 121.574 710.686 123.356 710.686 125.842C710.686 128.35 711.962 130.143 714.679 130.143C715.966 130.143 716.736 129.791 717.297 129.098ZM721.651 128.064L724.687 128.064L725.314 130L726.843 130L724.071 121.717L722.443 121.717L719.572 130L721.002 130L721.651 128.064ZM724.269 126.788L722.08 126.788L723.191 123.499L724.269 126.788ZM733.572 127.437L729.964 121.717L728.215 121.717L728.215 130L729.579 130L729.579 123.796L733.429 130L734.936 130L734.936 121.717L733.572 121.717L733.572 127.437Z" fill="#231F20"/>
<path d="M678.5 141L671 141L675 146L678.5 141Z" fill="#F7D193" stroke="black"/>
<g filter="url(#filter6_d)">
<rect x="123" y="95" width="97" height="21" rx="1" fill="#F7D193"/>
<rect x="123.5" y="95.5" width="96" height="20" rx="0.5" stroke="black"/>
</g>
<path d="M135.406 103.741L137.089 110L138.662 110L141.038 101.717L139.509 101.717L137.881 107.734L136.264 101.717L134.669 101.717L133.03 107.745L131.512 101.717L129.895 101.717L132.095 110L133.734 110L135.406 103.741ZM143.061 108.064L146.097 108.064L146.724 110L148.253 110L145.481 101.717L143.853 101.717L140.982 110L142.412 110L143.061 108.064ZM145.679 106.788L143.49 106.788L144.601 103.499L145.679 106.788ZM152.442 101.574C150.341 101.574 149.219 102.542 149.219 103.983C149.219 105.82 150.638 106.183 152.288 106.458C153.938 106.733 154.609 106.887 154.609 107.745C154.609 108.471 153.982 108.801 152.794 108.801C151.331 108.801 150.737 108.251 150.33 107.349L148.955 107.965C149.362 109.285 150.605 110.143 152.717 110.143C154.785 110.143 156.171 109.461 156.171 107.745C156.171 105.831 154.84 105.336 152.86 105.017C151.397 104.786 150.715 104.709 150.715 103.895C150.715 103.213 151.21 102.883 152.431 102.883C153.608 102.883 154.279 103.422 154.686 104.203L155.94 103.4C155.368 102.256 154.268 101.574 152.442 101.574ZM163.203 105.072L159.254 105.072L159.254 101.717L157.747 101.717L157.747 110L159.254 110L159.254 106.436L163.203 106.436L163.203 110L164.71 110L164.71 101.717L163.203 101.717L163.203 105.072ZM166.977 101.717L166.977 110L168.484 110L168.484 101.717L166.977 101.717ZM176.112 107.437L172.504 101.717L170.755 101.717L170.755 110L172.119 110L172.119 103.796L175.969 110L177.476 110L177.476 101.717L176.112 101.717L176.112 107.437ZM185.833 109.098L186.163 110.11L186.9 110.11L186.9 105.534L183.688 105.534L183.688 106.799L185.492 106.799L185.492 107.085C185.492 108.02 184.799 108.812 183.336 108.812C181.477 108.812 180.839 107.668 180.839 105.831C180.839 104.115 181.587 102.927 183.336 102.927C184.513 102.927 185.173 103.378 185.558 104.368L186.878 103.642C186.262 102.245 185.074 101.574 183.38 101.574C180.751 101.574 179.222 103.356 179.222 105.842C179.222 108.35 180.498 110.143 183.215 110.143C184.502 110.143 185.272 109.791 185.833 109.098ZM192.436 103.081L195.34 103.081L195.34 101.717L188.08 101.717L188.08 103.081L190.929 103.081L190.929 110L192.436 110L192.436 103.081ZM196.184 105.842C196.184 108.35 197.823 110.143 200.364 110.143C203.037 110.143 204.467 108.35 204.467 105.82C204.467 103.367 202.828 101.574 200.32 101.574C197.801 101.574 196.184 103.466 196.184 105.842ZM200.32 102.927C201.948 102.927 202.85 104.082 202.85 105.809C202.85 107.855 202.025 108.768 200.331 108.768C198.692 108.768 197.801 107.668 197.801 105.831C197.801 104.115 198.692 102.927 200.32 102.927ZM211.572 107.437L207.964 101.717L206.215 101.717L206.215 110L207.579 110L207.579 103.796L211.429 110L212.936 110L212.936 101.717L211.572 101.717L211.572 107.437Z" fill="#231F20"/>
<path d="M225 102L225 109.5L230 105.5L225 102Z" fill="#F7D193" stroke="black"/>
<defs>
<filter id="filter0_d" x="151.226" y="0.467903" width="727.547" height="495.635" filterUnits="userSpaceOnUse" color-interpolation-filters="sRGB">
<feFlood flood-opacity="0" result="BackgroundImageFix"/>
<feColorMatrix in="SourceAlpha" type="matrix" values="0 0 0 0 0 0 0 0 0 0 0 0 0 0 0 0 0 0 127 0"/>
<feOffset/>
<feGaussianBlur stdDeviation="7.5"/>
<feColorMatrix type="matrix" values="0 0 0 0 0 0 0 0 0 0 0 0 0 0 0 0 0 0 0.1 0"/>
<feBlend mode="normal" in2="BackgroundImageFix" result="effect1_dropShadow"/>
<feBlend mode="normal" in="SourceGraphic" in2="effect1_dropShadow" result="shape"/>
</filter>
<filter id="filter1_d" x="763" y="139" width="131" height="51" filterUnits="userSpaceOnUse" color-interpolation-filters="sRGB">
<feFlood flood-opacity="0" result="BackgroundImageFix"/>
<feColorMatrix in="SourceAlpha" type="matrix" values="0 0 0 0 0 0 0 0 0 0 0 0 0 0 0 0 0 0 127 0"/>
<feOffset/>
<feGaussianBlur stdDeviation="7.5"/>
<feColorMatrix type="matrix" values="0 0 0 0 0 0 0 0 0 0 0 0 0 0 0 0 0 0 0.1 0"/>
<feBlend mode="normal" in2="BackgroundImageFix" result="effect1_dropShadow"/>
<feBlend mode="normal" in="SourceGraphic" in2="effect1_dropShadow" result="shape"/>
</filter>
<filter id="filter2_d" x="20" y="280" width="190" height="51" filterUnits="userSpaceOnUse" color-interpolation-filters="sRGB">
<feFlood flood-opacity="0" result="BackgroundImageFix"/>
<feColorMatrix in="SourceAlpha" type="matrix" values="0 0 0 0 0 0 0 0 0 0 0 0 0 0 0 0 0 0 127 0"/>
<feOffset/>
<feGaussianBlur stdDeviation="7.5"/>
<feColorMatrix type="matrix" values="0 0 0 0 0 0 0 0 0 0 0 0 0 0 0 0 0 0 0.1 0"/>
<feBlend mode="normal" in2="BackgroundImageFix" result="effect1_dropShadow"/>
<feBlend mode="normal" in="SourceGraphic" in2="effect1_dropShadow" result="shape"/>
</filter>
<filter id="filter3_d" x="412" y="402" width="85" height="51" filterUnits="userSpaceOnUse" color-interpolation-filters="sRGB">
<feFlood flood-opacity="0" result="BackgroundImageFix"/>
<feColorMatrix in="SourceAlpha" type="matrix" values="0 0 0 0 0 0 0 0 0 0 0 0 0 0 0 0 0 0 127 0"/>
<feOffset/>
<feGaussianBlur stdDeviation="7.5"/>
<feColorMatrix type="matrix" values="0 0 0 0 0 0 0 0 0 0 0 0 0 0 0 0 0 0 0.1 0"/>
<feBlend mode="normal" in2="BackgroundImageFix" result="effect1_dropShadow"/>
<feBlend mode="normal" in="SourceGraphic" in2="effect1_dropShadow" result="shape"/>
</filter>
<filter id="filter4_d" x="503" y="200" width="98" height="51" filterUnits="userSpaceOnUse" color-interpolation-filters="sRGB">
<feFlood flood-opacity="0" result="BackgroundImageFix"/>
<feColorMatrix in="SourceAlpha" type="matrix" values="0 0 0 0 0 0 0 0 0 0 0 0 0 0 0 0 0 0 127 0"/>
<feOffset/>
<feGaussianBlur stdDeviation="7.5"/>
<feColorMatrix type="matrix" values="0 0 0 0 0 0 0 0 0 0 0 0 0 0 0 0 0 0 0.1 0"/>
<feBlend mode="normal" in2="BackgroundImageFix" result="effect1_dropShadow"/>
<feBlend mode="normal" in="SourceGraphic" in2="effect1_dropShadow" result="shape"/>
</filter>
<filter id="filter5_d" x="653" y="100" width="105" height="51" filterUnits="userSpaceOnUse" color-interpolation-filters="sRGB">
<feFlood flood-opacity="0" result="BackgroundImageFix"/>
<feColorMatrix in="SourceAlpha" type="matrix" values="0 0 0 0 0 0 0 0 0 0 0 0 0 0 0 0 0 0 127 0"/>
<feOffset/>
<feGaussianBlur stdDeviation="7.5"/>
<feColorMatrix type="matrix" values="0 0 0 0 0 0 0 0 0 0 0 0 0 0 0 0 0 0 0.1 0"/>
<feBlend mode="normal" in2="BackgroundImageFix" result="effect1_dropShadow"/>
<feBlend mode="normal" in="SourceGraphic" in2="effect1_dropShadow" result="shape"/>
</filter>
<filter id="filter6_d" x="108" y="80" width="127" height="51" filterUnits="userSpaceOnUse" color-interpolation-filters="sRGB">
<feFlood flood-opacity="0" result="BackgroundImageFix"/>
<feColorMatrix in="SourceAlpha" type="matrix" values="0 0 0 0 0 0 0 0 0 0 0 0 0 0 0 0 0 0 127 0"/>
<feOffset/>
<feGaussianBlur stdDeviation="7.5"/>
<feColorMatrix type="matrix" values="0 0 0 0 0 0 0 0 0 0 0 0 0 0 0 0 0 0 0.1 0"/>
<feBlend mode="normal" in2="BackgroundImageFix" result="effect1_dropShadow"/>
<feBlend mode="normal" in="SourceGraphic" in2="effect1_dropShadow" result="shape"/>
</filter>
</defs>
</svg>
