<svg width="896" height="497" viewBox="0 0 896 497" fill="none" xmlns="http://www.w3.org/2000/svg">
<path d="M199.667 63.4363C201.224 65.2656 205.352 69.143 209.41 70.0188C214.482 71.1134 217.98 70.1375 217.579 74.5307C217.177 78.9238 209.821 75.8091 210.13 80.1518C210.438 84.4946 208.617 88.9886 212.166 88.7365C215.716 88.4844 220.634 87.4076 220.48 85.2363C220.325 83.0649 221.539 80.0689 222.805 77.7967C224.071 75.5244 222.497 73.4539 223.608 69.0103C224.719 64.5668 224.514 61.6716 222.888 58.8773C221.263 56.0829 348.692 102.318 509.84 90.8722C509.874 91.3547 510.663 92.4142 513.544 92.7916C517.144 93.2632 514.912 91.9669 520.745 93.7349C526.579 95.5029 524.758 99.9969 530.283 97.4222C535.808 94.8474 534.233 92.7769 537.937 94.6962C541.641 96.6155 541.085 98.8372 543.925 98.6356C546.764 98.4339 546.919 100.605 551.281 101.75C555.643 102.895 556.754 98.4518 561.775 98.8226C566.796 99.1935 571.868 100.288 572.578 100.238C573.288 100.187 564.419 105.909 561.734 108.282C559.048 110.655 549.171 122.269 549.984 123.666C550.796 125.063 561.898 120.637 563.369 121.26C564.84 121.883 560.889 126.528 565.807 125.452C570.725 124.375 586.281 112.358 589.625 109.211C592.969 106.064 588.565 114.378 592.876 114.8C597.187 115.221 599.018 120.91 601.909 121.433C604.8 121.955 612.249 116.333 620.007 115.055C627.764 113.777 625.079 116.15 628.68 116.621C632.281 117.093 638.618 115.915 641.005 119.383C643.392 122.851 635.531 122.682 625.593 123.388C615.654 124.093 620.171 127.41 615.253 128.487C610.335 129.563 604.357 135.808 600.467 151.36C596.578 166.913 608.822 138.4 610.396 140.471C611.97 142.541 602.144 154.878 604.901 173.596C607.657 192.314 611.72 199.299 615.321 199.771C618.922 200.243 627.338 198.19 627.071 184.388C626.805 170.585 622.699 173.059 620.004 165.249C617.309 157.438 621.806 140.388 624.697 140.91C627.588 141.432 625.108 146.7 627.896 145.775C630.684 144.849 628.134 129.027 633.052 127.95C637.97 126.873 653.947 130.83 654.214 144.633C654.481 158.435 646.765 150.254 649.409 157.341C652.053 164.427 654.831 153.318 658.329 152.342C661.827 151.367 670.201 158.774 669.347 166.836C668.493 174.899 655.57 183.818 661.609 188.482C667.648 193.145 675.92 199.104 689.748 182.846C703.577 166.587 716.046 161.337 710.717 156.623C705.388 151.91 714.206 145.464 723.588 146.98C732.971 148.496 738.846 140.804 737.314 129.274C735.782 117.744 740.998 110.826 748.704 108.824C756.41 106.822 773.191 101.993 779.879 95.6982C786.566 89.4037 791.783 82.4862 789.026 63.7685C786.27 45.0508 793.986 53.232 795.354 52.4074C796.723 51.5828 795.602 45.8429 801.332 46.1633C807.063 46.4837 812.762 66.4473 816.517 69.0904C820.272 71.7334 827.474 72.6768 829.305 78.3663C831.136 84.0558 822.02 96.3423 817.709 95.921C813.398 95.4998 815.219 91.0058 813.244 93.3284C811.268 95.651 815.178 100.465 811.885 104.337C808.593 108.208 807.626 104.639 806.206 104.74C804.786 104.841 804.24 117.246 802.471 122.464C800.701 127.682 797.305 130.105 800.906 130.577C804.507 131.048 797.82 137.343 800.762 138.589C803.704 139.835 812.275 139.954 810.505 145.171C808.735 150.389 806.245 145.474 804.877 146.298C803.508 147.123 805.083 149.194 803.159 152.24C801.234 155.286 783.343 164.559 781.47 168.329C779.597 172.1 773.208 172.553 774.381 179.017C775.553 185.481 782.899 178.412 780.78 188.747C778.66 199.081 778.104 201.303 775.367 202.953C772.63 204.602 766.241 205.056 766.591 199.939C766.941 194.822 770.234 190.951 768.763 190.328C767.291 189.705 762.682 195.124 762.99 199.467C763.299 203.81 772.28 209.719 773.854 211.789C775.428 213.86 781.015 222.192 772.701 225.693C764.388 229.193 760.016 217.864 759.759 214.245C759.502 210.626 760.861 199.618 758.278 203.439C755.696 207.259 756.765 212.276 757.074 216.618C757.382 220.961 758.144 221.634 756.117 223.233C754.587 224.44 751.85 222.366 750.466 220.982C752.068 226.005 756.592 234.841 764.192 236.481C772.308 238.233 762.1 240.509 755.982 241.429C759.802 241.643 768.052 242.608 770.489 244.763C773.534 247.457 775.622 256.765 770.755 258.566C765.889 260.366 768.173 262.386 771.722 262.134C775.272 261.882 780.293 262.253 779.181 266.697C778.292 270.251 770.902 270.679 767.319 270.449C770.227 271.212 776.105 273.608 776.351 277.082C776.598 280.556 767.702 282.546 763.223 283.106C763.731 283.555 764.503 285.052 763.532 287.449C762.317 290.445 758.871 292.145 759.128 295.764C759.385 299.383 754.621 302.631 750.259 301.486C750.581 302.675 750.273 305.704 746.462 308.302C741.698 311.55 746.266 315.591 745.001 317.863C743.988 319.681 740.086 322.334 738.262 323.434C738.364 324.881 738.023 328.106 735.833 329.426C733.644 330.745 729.818 331.793 728.179 332.152C728.957 333.066 730.16 335.939 728.744 340.113C726.974 345.331 722.519 352.922 723.537 357.214C724.103 365.176 741.52 389.399 743.454 396.536C745.388 403.673 759.091 415.794 759.708 424.48C760.325 433.165 758.565 448.566 750.098 449.895C746.085 443.633 742.937 439.492 738.019 440.569C737.104 437.724 734.096 431.536 729.388 429.543C723.503 427.051 719.491 420.789 719.635 412.777C717.471 412.446 713.142 409.746 713.134 401.6C713.124 391.416 710.943 390.844 702.774 386.332C694.605 381.82 693.185 381.921 690.346 382.122C687.506 382.324 685.232 390.487 679.553 390.891C673.874 391.294 669.45 379.242 660.17 379.174C650.89 379.105 645.118 388.244 640.097 387.874C635.076 387.503 637.608 382.958 635.478 383.11C633.348 383.261 637.813 385.854 629.294 386.459C620.776 387.064 623.512 385.414 620.066 387.114C616.619 388.814 615.961 389.588 608.1 389.419C600.24 389.25 600.497 392.869 602.02 394.215C603.542 395.562 609.777 392.937 611.403 395.731C613.028 398.526 608.82 399.552 612.472 400.747C616.125 401.943 622.565 402.213 622.822 405.832C623.079 409.451 619.684 411.874 617.349 409.13C615.013 406.386 612.524 401.471 606.896 402.598C601.268 403.725 614.91 404.939 608.676 407.564C602.441 410.189 604.92 404.921 602.132 405.846C599.344 406.772 606.093 411.385 598.943 411.165C591.792 410.945 593.768 408.623 590.722 405.929C587.677 403.236 582.451 399.97 579.714 401.619C576.977 403.268 579.313 406.012 576.524 406.938C573.736 407.863 571.247 402.948 565.567 403.351C559.888 403.755 552.635 402.088 547.367 408.281C542.099 414.475 544.322 405.588 540.772 405.84C537.223 406.092 544.126 412.876 541.389 414.525C538.652 416.175 526.748 429.387 522.993 426.744C519.238 424.1 494 440.442 508.176 469.26C501.162 470.971 484.667 469.766 474.791 451.263C462.446 428.134 453.198 408.423 437.426 407.361C421.654 406.298 432.62 420.068 422.023 421.548C411.426 423.029 405.737 413.248 398.166 397.055C390.594 380.862 382.271 374.178 371.468 372.763C362.826 371.631 354.547 372.268 351.488 372.728L351.241 379.292C340.98 378.809 318.714 377.383 311.734 375.551C304.754 373.719 276.219 357.705 262.824 349.927L262.516 345.585L230.972 343.46C231.425 339.791 230.625 330.537 223.802 322.874C215.273 313.295 218.421 317.436 216.744 313.918L211.775 314.271C209.827 310.287 203.356 302.212 193.051 301.78L191.117 294.643C192.029 294.093 193.529 292.435 192.228 290.199C190.603 287.405 187.506 283.988 184.76 275.453C182.562 268.626 181.066 266.986 180.593 267.02L180.131 260.506L183.68 260.254C183.865 259.513 183.769 257.483 181.9 255.288C179.565 252.544 176.468 249.127 176.818 244.01C177.169 238.893 179.257 248.201 182.045 247.276C184.833 246.35 176.561 240.391 179.35 239.466C182.138 238.54 189.545 242.379 190.862 240.83C192.179 239.282 184.669 233.996 178.938 233.675C179.261 234.865 179.479 237.274 177.776 237.395C175.646 237.546 175.132 230.308 171.83 223.996C168.527 217.684 167.406 211.944 170.647 207.349C173.888 202.754 164.145 196.171 165.36 193.175C166.574 190.179 176.554 180.014 176.143 174.224C175.814 169.591 175.155 167.019 174.867 166.312C174.374 162.71 174.267 153.843 177.79 147.191C182.194 138.877 197.885 108.664 197.474 102.874C199.672 103.688 204.19 105.016 204.676 103.817C205.161 102.619 200.276 98.7954 197.773 97.0333C199.124 95.9674 201.796 93.4014 201.672 91.6643C201.549 89.9272 200.03 88.6287 199.285 88.1966C200.993 88.8027 204.094 89.6009 202.835 87.9445C201.576 86.2881 200.198 70.9155 199.667 63.4363Z" fill="#A8F4F6"/>
<path d="M773.57 223.589C771.277 221.111 769.467 221.889 768.849 222.588C769.772 226.472 771.14 227.039 775.155 227.429C779.17 227.819 776.435 226.686 773.57 223.589Z" stroke="black"/>
<a id="england">
<path id="englandRegion" d="M777 109.5C776.6 107.9 773.833 104.833 772.5 103.5C760.5 106.5 748.5 109 749 120.5C749.5 132 749.5 135.5 746.5 140C743.5 144.5 739 144 733.5 144C720.5 145 722.5 148 721 150C719.5 152 723.5 154.5 723.5 156.5C723.5 158.1 712.167 168.5 706.5 173.5L716.5 208.5L746.5 200.5C746.333 201.333 746.3 203.4 747.5 205C749 207 753 208 756 210C758.4 211.6 760.333 214.667 761 216C762 217.167 764.7 219.4 767.5 219C771 218.5 768 209.5 768 203.5C768 197.5 770.5 199 771 199.5C771.5 200 770 221 779.5 221.5C789 222 788 216.5 787.5 212.5C787 208.5 775.5 198.5 774.5 195.5C773.5 192.5 778.5 186 780 187C781.5 188 777.5 194 778 197C778.5 200 780 200.5 785.5 199.5C791 198.5 793 183.5 792 180C791 176.5 789.5 179.5 786 176.5C784 171 791 167.5 792 166.5C793 165.5 792.5 165 793.5 164C794.5 163 814.5 149.5 815.5 148.5C816.5 147.5 816 144 816.5 143.5C817 143 819.5 145 820.5 145C821.5 145 822.5 142 822 140C821.5 138 813 136.5 812 135.5C811 134.5 813.5 130 813.5 129C813.5 128.2 812.5 128 812 128L787 135.5C785.5 130.5 783.5 127.5 781 124.5C778.5 121.5 777.5 111.5 777 109.5Z" fill="#E59DCB"/>
</a>
<path d="M800.5 164C793.7 168.8 790.667 172.333 790 173.5C793 176.162 797.5 171 800.5 168.5C803.5 166 810.5 158 810 157.5C809.5 157 808.5 158 800.5 164Z" fill="#E59DCB"/>
<path d="M772 222.5C770.4 221.7 769.333 222.167 769 222.5C768.833 223 769 224.4 771 226C773 227.6 775.833 227.333 777 227C776 225.833 773.6 223.3 772 222.5Z" fill="#E59DCB"/>
<a id="washington">
<path id="washingtonRegion" d="M220.68 103.788C220.416 99.8276 217.898 99.23 217 100C217 98.0002 212.667 94.8334 210.5 93.5C211.667 92.3333 214.1 89.7 214.5 88.5C214.9 87.3 213.333 85.6667 212.5 85C213.333 85.1667 215.1 85.5 215.5 85.5C215.9 85.5 215.667 85.1667 215.5 85C215.5 85 214.5 81 214.5 79.5C214.5 78.3 213.167 66.3334 212.5 60.5C212.833 61 214.4 62.7 218 65.5C222.5 69 228 67.5 229 68.5C230 69.5 230 72.5 229 73.5C228 74.5 224 74.5 223.5 75C223 75.5 222.5 80 222.5 81.5C222.5 83 221.5 85.5 225 85.5C227.8 85.5 231.5 83.8334 233 83C232.5 80.5 234.5 76.5 235.5 75C236.5 73.5 234.882 72.4734 235.5 70C236 68 236.333 63.5001 237 61.5001C237.5 58.5001 235.5 56 236 56.0001C238 56.0003 275.667 66.1668 294.5 70.5001C295.067 71.8829 295.246 77.6577 290.746 87.0488C286.246 96.44 284.582 112.082 284.313 118.729C278.975 116.954 267.156 113.337 262.583 113.073C256.866 112.743 243.449 114.347 236.174 111.99C228.899 109.633 229.655 110.293 226.111 110.529C222.568 110.765 221.01 108.738 220.68 103.788Z" fill="#B2C0F3"/>
</a>
<a id="socal"><path id="socalRegion" d="M187.239 161.56L187 161.5C187.08 161.42 187.161 161.443 187.239 161.56L236.5 174C233 189.833 226 221.7 226 222.5C226 223.3 262.667 273.5 281 298.5L287 314C285.667 314.167 282.8 315 282 317C281 319.5 282 319.5 280 323C278 326.5 276.5 329.5 277.5 331C278.5 332.5 280 333 279.5 334.5C279 336 280 337.5 272.5 337C266.5 336.6 249.667 335.5 242 335C241.5 322 237.5 317 229 308L228 306L223 306.5C222.167 304.667 219.5 300.3 215.5 297.5C211.5 294.7 206.5 294 204.5 294L202.5 287C203 286.833 204 286.2 204 285C204 281.5 199.5 276.5 198 272.5C196.833 269.167 194.3 262.3 193.5 261.5L192 260V253.5H195C195.333 253.333 195.8 252.6 195 251C194 249 190.5 244.5 189.5 242.5C188.5 240.5 188 236 189 236C190 236 191 240.5 193.5 240.5C196 240.5 192 236 191.5 235.5C191 235 189.551 233.316 190.5 233C192 232.5 201.5 235.5 202 234.5C202.5 234.5 203.4 234.3 203 233.5C202.5 232.5 195 226.5 190.5 227C190.833 228.167 191.1 230.5 189.5 230.5C187.5 230.5 186.5 224 185 221C183.5 218 179.5 210 180.5 206C181.5 202 183 201.5 183 200C183 196.203 179.236 192.972 177 188.5C176 186.5 188 178.062 188 170C188 165.383 187.648 162.176 187.239 161.56Z" fill="#E5A698"/>
</a>
<g filter="url(#filter0_d)">
<path d="M212.376 60.5542C213.921 62.3504 218.022 66.1601 222.07 67.03C227.13 68.1174 230.63 67.1723 230.204 71.4733C229.777 75.7743 222.448 72.7017 222.731 76.9555C223.014 81.2093 221.169 85.6047 224.716 85.3686C228.263 85.1325 233.181 84.093 233.04 81.9661C232.898 79.8393 234.128 76.909 235.405 74.6876C236.682 72.4663 235.122 70.4338 236.258 66.0856C237.393 61.7374 237.204 58.9015 235.597 56.1601C233.989 53.4187 361.008 99.0838 522.036 88.3646C522.068 88.8373 522.849 89.8773 525.725 90.2556C529.319 90.7284 527.096 89.4521 532.913 91.2013C538.73 92.9504 536.885 97.3458 542.418 94.8412C547.951 92.3365 546.391 90.3041 550.08 92.1949C553.768 94.0857 553.2 96.2598 556.038 96.0709C558.875 95.882 559.017 98.0089 563.367 99.1435C567.718 100.278 568.854 95.9299 573.867 96.3083C578.879 96.6867 583.939 97.7741 584.649 97.7269C585.358 97.6797 576.467 103.256 573.771 105.572C571.075 107.888 561.142 119.231 561.946 120.601C562.75 121.972 573.864 117.672 575.33 118.286C576.795 118.901 572.822 123.438 577.741 122.398C582.659 121.359 598.267 109.638 601.625 106.566C604.983 103.494 600.537 111.624 604.84 112.049C609.144 112.475 610.94 118.052 613.825 118.572C616.709 119.092 624.182 113.61 631.938 112.382C639.694 111.153 636.998 113.469 640.592 113.942C644.186 114.415 650.524 113.281 652.888 116.684C655.252 120.087 647.401 119.898 637.47 120.559C627.539 121.22 632.031 124.481 627.113 125.521C622.194 126.56 616.187 132.657 612.213 147.876C608.238 163.095 620.632 135.21 622.193 137.242C623.753 139.274 613.867 151.326 616.513 169.665C619.159 188.003 623.178 194.857 626.772 195.33C630.366 195.803 638.784 193.818 638.597 180.301C638.409 166.783 634.295 169.193 631.648 161.536C629 153.879 633.59 137.195 636.475 137.716C639.359 138.236 636.852 143.387 639.642 142.489C642.433 141.592 639.976 126.089 644.894 125.049C649.813 124.01 665.749 127.934 665.937 141.451C666.124 154.969 658.464 146.933 661.064 153.881C663.664 160.829 666.503 149.959 670.003 149.014C673.502 148.069 681.825 155.348 680.925 163.241C680.025 171.134 667.066 179.83 673.072 184.415C679.077 189 687.305 194.861 701.211 178.981C715.117 163.101 727.602 157.997 722.306 153.365C717.01 148.733 725.855 142.447 735.218 143.96C744.582 145.473 750.494 137.959 749.03 126.663C747.565 115.366 752.815 108.608 760.524 106.671C768.233 104.733 785.022 100.055 791.738 93.9113C798.454 87.7674 803.705 81.009 801.059 62.6703C798.413 44.3317 806.073 52.3671 807.445 51.5637C808.816 50.7603 807.73 45.1358 813.452 45.467C819.174 45.7982 824.752 65.3659 828.487 67.9656C832.223 70.5654 839.411 71.5111 841.207 77.0884C843.004 82.6656 833.827 94.6701 829.524 94.2445C825.221 93.8188 827.066 89.4234 825.079 91.692C823.092 93.9605 826.97 98.6871 823.659 102.468C820.348 106.249 819.402 102.751 817.984 102.846C816.565 102.94 815.948 115.087 814.151 120.192C812.353 125.296 808.948 127.659 812.542 128.132C816.136 128.605 809.42 134.749 812.351 135.978C815.283 137.207 823.843 137.349 822.045 142.453C820.247 147.558 817.789 142.737 816.417 143.54C815.046 144.343 816.606 146.376 814.667 149.353C812.728 152.331 794.803 161.357 792.911 165.044C791.018 168.73 784.634 169.155 785.768 175.489C786.902 181.822 794.281 174.922 792.104 185.036C789.927 195.151 789.359 197.325 786.616 198.932C783.873 200.539 777.489 200.964 777.868 195.954C778.247 190.944 781.558 187.163 780.092 186.548C778.626 185.934 773.99 191.227 774.274 195.481C774.557 199.734 783.494 205.549 785.054 207.581C786.615 209.613 792.147 217.79 783.823 221.193C775.499 224.595 771.197 213.488 770.961 209.943C770.725 206.398 772.145 195.622 769.544 199.356C766.942 203.09 767.982 208.005 768.265 212.259C768.548 216.513 769.305 217.175 767.271 218.734C765.644 219.982 762.684 217.615 761.407 216.276L761.36 215.567C762.621 220.231 767.166 229.992 775.262 231.732C783.358 233.472 773.149 235.671 767.032 236.553C770.847 236.773 779.082 237.744 781.503 239.862C784.529 242.509 786.562 251.631 781.69 253.38C776.819 255.128 779.089 257.113 782.636 256.877C786.183 256.641 791.195 257.02 790.06 261.368C789.151 264.846 781.767 265.243 778.189 265.006C781.09 265.763 786.947 268.126 787.174 271.529C787.4 274.932 778.503 276.854 774.026 277.389C774.53 277.83 775.293 279.299 774.309 281.643C773.079 284.573 769.626 286.227 769.862 289.772C770.098 293.317 765.322 296.483 760.971 295.349C761.286 296.515 760.961 299.48 757.139 302.013C752.362 305.179 756.902 309.15 755.625 311.371C754.603 313.148 750.69 315.735 748.861 316.806C748.956 318.224 748.596 321.381 746.401 322.667C744.207 323.952 740.379 324.966 738.74 325.313C739.512 326.211 740.697 329.028 739.259 333.111C737.461 338.216 732.967 345.636 733.96 349.843C734.479 357.641 751.737 381.416 753.628 388.411C755.518 395.406 769.137 407.318 769.703 415.825C770.269 424.333 768.423 439.41 759.957 440.686C755.986 434.541 752.865 430.476 747.947 431.516C747.049 428.727 744.08 422.658 739.389 420.692C733.525 418.234 729.553 412.089 729.743 404.243C727.584 403.912 723.274 401.256 723.313 393.278C723.362 383.305 721.187 382.738 713.053 378.294C704.92 373.851 703.501 373.945 700.663 374.134C697.826 374.323 695.507 382.311 689.832 382.688C684.157 383.066 679.808 371.25 670.539 371.155C661.27 371.06 655.452 379.992 650.439 379.614C645.426 379.235 647.981 374.793 645.853 374.934C643.724 375.076 648.169 377.629 639.657 378.195C631.144 378.762 633.888 377.155 630.435 378.809C626.983 380.463 626.32 381.219 618.47 381.03C610.62 380.84 610.856 384.385 612.369 385.709C613.882 387.032 620.125 384.48 621.732 387.222C623.34 389.963 619.131 390.955 622.772 392.137C626.413 393.319 632.845 393.603 633.081 397.148C633.317 400.692 629.911 403.055 627.595 400.361C625.278 397.667 622.819 392.846 617.191 393.933C611.564 395.019 625.183 396.249 618.94 398.801C612.698 401.353 615.205 396.201 612.414 397.099C609.624 397.997 616.339 402.535 609.198 402.298C602.057 402.061 604.044 399.793 601.017 397.146C597.991 394.499 592.789 391.284 590.046 392.891C587.303 394.498 589.62 397.192 586.83 398.09C584.039 398.988 581.581 394.167 575.906 394.545C570.231 394.922 562.995 393.268 557.698 399.317C552.401 405.367 554.672 396.67 551.125 396.906C547.578 397.142 554.434 403.807 551.691 405.414C548.948 407.021 536.982 419.923 533.246 417.323C529.51 414.724 504.207 430.65 518.201 458.915C511.186 460.569 494.716 459.339 484.958 441.189C472.76 418.501 463.635 399.17 447.888 398.082C432.14 396.994 443.015 410.512 432.421 411.929C421.828 413.346 416.202 403.751 408.732 387.87C401.262 371.989 392.987 365.419 382.205 364C373.579 362.865 365.306 363.463 362.248 363.904L361.963 370.332C351.717 369.827 329.484 368.364 322.523 366.549C315.562 364.733 287.151 348.964 273.816 341.307L273.533 337.053L242.037 334.877C242.51 331.285 241.765 322.219 234.993 314.695C226.53 305.289 229.65 309.353 227.996 305.903L223.03 306.234C221.107 302.326 214.689 294.398 204.399 293.944L202.508 286.949C203.422 286.413 204.93 284.794 203.644 282.6C202.036 279.859 198.963 276.503 196.268 268.137C194.113 261.444 192.628 259.834 192.155 259.866L191.73 253.485L195.277 253.249C195.466 252.524 195.382 250.536 193.528 248.381C191.211 245.686 188.138 242.33 188.517 237.32C188.896 232.311 190.928 241.433 193.718 240.535C196.509 239.637 188.281 233.776 191.071 232.878C193.861 231.98 201.238 235.762 202.563 234.249C203.887 232.737 196.416 227.537 190.694 227.206C191.009 228.372 191.213 230.732 189.511 230.845C187.383 230.987 186.911 223.897 183.648 217.706C180.386 211.514 179.299 205.889 182.563 201.399C185.827 196.91 176.133 190.434 177.363 187.503C178.593 184.573 188.62 174.648 188.243 168.977C187.941 164.439 187.298 161.918 187.014 161.225C186.542 157.696 186.486 149.012 190.043 142.509C194.49 134.38 210.337 104.841 209.959 99.169C212.15 99.9726 216.655 101.287 217.147 100.115C217.639 98.9426 212.781 95.1832 210.291 93.45C211.647 92.4103 214.33 89.9055 214.217 88.204C214.104 86.5024 212.594 85.2262 211.853 84.8008C213.555 85.3996 216.648 86.1907 215.4 84.5647C214.151 82.9387 212.864 67.8802 212.376 60.5542Z" stroke="black"/>
</g>
<path d="M217 100C217.898 99.23 220.417 99.8275 220.68 103.788C221.01 108.738 222.568 110.765 226.111 110.529C229.655 110.293 228.899 109.633 236.174 111.99C243.449 114.347 256.866 112.743 262.583 113.073C267.156 113.337 278.975 116.954 284.313 118.729C284.582 112.082 286.246 96.4399 290.746 87.0487C295.246 77.6576 295.067 71.8829 294.5 70.5M273 337C274.5 337 279.084 337.301 279.5 335C280.02 332.124 275.758 332.384 277.601 327.999C279.445 323.615 281.571 323.473 281.288 319.23C281.062 315.836 285.226 314.233 287.337 313.856L281.34 298.629C263.079 273.801 226.396 223.871 225.754 222.777C225.111 221.683 232.801 189.635 236.726 173.748L187.501 161.398M761.304 216.249C760.47 214.411 757.488 210.253 752.235 208.33C746.982 206.406 746.394 202.563 746.757 200.881L716.661 208.567L706.512 173.728M773.047 103.953C774.071 105.069 776.297 107.857 777.014 110.082C777.911 112.863 778.57 122.763 781.593 125.403C784.011 127.515 786.378 133.135 787.26 135.68L811.686 128.372M791.266 174.479C790.069 174.322 788.488 173.386 791.739 170.896C795.803 167.785 805.206 159.346 809.364 157.648C813.522 155.951 800.384 172.452 791.266 174.479Z" stroke="black" stroke-linejoin="round"/>
<g filter="url(#filter1_d)">
<rect x="780" y="154" width="101" height="21" rx="1" fill="#F7D193"/>
<rect x="780.5" y="154.5" width="100" height="20" rx="0.5" stroke="black"/>
</g>
<path d="M791.424 166.437L787.816 160.717L786.067 160.717L786.067 169L787.431 169L787.431 162.796L791.281 169L792.788 169L792.788 160.717L791.424 160.717L791.424 166.437ZM796.426 165.436L800.573 165.436L800.573 164.105L796.426 164.105L796.426 162.081L801.31 162.081L801.31 160.717L794.919 160.717L794.919 169L801.519 169L801.519 167.636L796.426 167.636L796.426 165.436ZM808.006 162.741L809.689 169L811.262 169L813.638 160.717L812.109 160.717L810.481 166.734L808.864 160.717L807.269 160.717L805.63 166.745L804.112 160.717L802.495 160.717L804.695 169L806.334 169L808.006 162.741ZM819.22 165.436L823.367 165.436L823.367 164.105L819.22 164.105L819.22 162.081L824.104 162.081L824.104 160.717L817.713 160.717L817.713 169L824.313 169L824.313 167.636L819.22 167.636L819.22 165.436ZM831.428 166.437L827.82 160.717L826.071 160.717L826.071 169L827.435 169L827.435 162.796L831.285 169L832.792 169L832.792 160.717L831.428 160.717L831.428 166.437ZM841.148 168.098L841.478 169.11L842.215 169.11L842.215 164.534L839.003 164.534L839.003 165.799L840.807 165.799L840.807 166.085C840.807 167.02 840.114 167.812 838.651 167.812C836.792 167.812 836.154 166.668 836.154 164.831C836.154 163.115 836.902 161.927 838.651 161.927C839.828 161.927 840.488 162.378 840.873 163.368L842.193 162.642C841.577 161.245 840.389 160.574 838.695 160.574C836.066 160.574 834.537 162.356 834.537 164.842C834.537 167.35 835.813 169.143 838.53 169.143C839.817 169.143 840.587 168.791 841.148 168.098ZM845.689 167.636L845.689 160.717L844.182 160.717L844.182 169L850.276 169L850.276 167.636L845.689 167.636ZM853.161 167.064L856.197 167.064L856.824 169L858.353 169L855.581 160.717L853.953 160.717L851.082 169L852.512 169L853.161 167.064ZM855.779 165.788L853.59 165.788L854.701 162.499L855.779 165.788ZM865.083 166.437L861.475 160.717L859.726 160.717L859.726 169L861.09 169L861.09 162.796L864.94 169L866.447 169L866.447 160.717L865.083 160.717L865.083 166.437ZM868.578 169L871.889 169C874.87 169 875.761 167.075 875.761 164.842C875.761 162.543 874.496 160.717 871.911 160.717L868.578 160.717L868.578 169ZM870.085 162.059L871.977 162.059C873.407 162.059 874.243 163.104 874.243 164.831C874.243 166.745 873.396 167.669 871.988 167.669L870.085 167.669L870.085 162.059Z" fill="#231F20"/>
<path d="M774 169V161.5L769 165.5L774 169Z" fill="#F7D193" stroke="black"/>
<g filter="url(#filter2_d)">
<rect x="51" y="291" width="162" height="21" rx="1" fill="#F7D193"/>
<rect x="51.5" y="291.5" width="161" height="20" rx="0.5" stroke="black"/>
</g>
<path d="M62.5861 297.574C60.4851 297.574 59.3631 298.542 59.3631 299.983C59.3631 301.82 60.7821 302.183 62.4321 302.458C64.0821 302.733 64.7531 302.887 64.7531 303.745C64.7531 304.471 64.1261 304.801 62.9381 304.801C61.4751 304.801 60.8811 304.251 60.4741 303.349L59.0991 303.965C59.5061 305.285 60.7491 306.143 62.8611 306.143C64.9291 306.143 66.3151 305.461 66.3151 303.745C66.3151 301.831 64.9841 301.336 63.0041 301.017C61.5411 300.786 60.8591 300.709 60.8591 299.895C60.8591 299.213 61.3541 298.883 62.5751 298.883C63.7521 298.883 64.4231 299.422 64.8301 300.203L66.0841 299.4C65.5121 298.256 64.4121 297.574 62.5861 297.574ZM67.5062 301.842C67.5062 304.35 69.1452 306.143 71.6862 306.143C74.3592 306.143 75.7892 304.35 75.7892 301.82C75.7892 299.367 74.1502 297.574 71.6422 297.574C69.1232 297.574 67.5062 299.466 67.5062 301.842ZM71.6422 298.927C73.2702 298.927 74.1722 300.082 74.1722 301.809C74.1722 303.855 73.3472 304.768 71.6532 304.768C70.0142 304.768 69.1232 303.668 69.1232 301.831C69.1232 300.115 70.0142 298.927 71.6422 298.927ZM80.9477 306.143C83.4117 306.143 84.3797 305.098 84.3797 302.854L84.3797 297.717L82.8727 297.717L82.8727 302.975C82.8727 304.35 82.2457 304.823 80.9367 304.823C79.6607 304.823 78.9237 304.383 78.9237 303.052L78.9237 297.717L77.4167 297.717L77.4167 302.788C77.4167 305.164 78.6267 306.143 80.9477 306.143ZM90.1733 299.081L93.0773 299.081L93.0773 297.717L85.8173 297.717L85.8173 299.081L88.6663 299.081L88.6663 306L90.1733 306L90.1733 299.081ZM100.095 301.072L96.1463 301.072L96.1463 297.717L94.6393 297.717L94.6393 306L96.1463 306L96.1463 302.436L100.095 302.436L100.095 306L101.602 306L101.602 297.717L100.095 297.717L100.095 301.072ZM105.245 302.436L109.392 302.436L109.392 301.105L105.245 301.105L105.245 299.081L110.129 299.081L110.129 297.717L103.738 297.717L103.738 306L110.338 306L110.338 304.636L105.245 304.636L105.245 302.436ZM117.353 302.084C118.255 301.831 118.849 301.248 118.849 300.06C118.849 298.41 117.54 297.717 115.967 297.717L112.095 297.717L112.095 306L113.602 306L113.602 302.59L115.406 302.59C116.649 302.59 116.935 303.14 117.023 304.317C117.1 305.318 117.199 305.736 117.364 306L118.992 306L118.992 305.956C118.772 305.648 118.64 305.153 118.596 304.13C118.541 303.019 118.101 302.37 117.353 302.084ZM113.602 301.292L113.602 299.092L116.033 299.092C116.737 299.092 117.342 299.378 117.342 300.159C117.342 300.984 116.88 301.292 115.912 301.292L113.602 301.292ZM126.132 303.437L122.524 297.717L120.775 297.717L120.775 306L122.139 306L122.139 299.796L125.989 306L127.496 306L127.496 297.717L126.132 297.717L126.132 303.437ZM139.428 303.921L138.152 303.228C137.811 304.13 137.25 304.768 136.018 304.768C134.236 304.768 133.576 303.668 133.576 301.831C133.576 300.115 134.269 298.927 136.007 298.927C137.195 298.927 137.756 299.664 138.086 300.566L139.373 299.851C138.878 298.443 137.734 297.574 136.007 297.574C133.4 297.574 131.959 299.411 131.959 301.842C131.959 304.35 133.301 306.143 135.963 306.143C137.954 306.143 138.988 305.12 139.428 303.921ZM142.269 304.064L145.305 304.064L145.932 306L147.461 306L144.689 297.717L143.061 297.717L140.19 306L141.62 306L142.269 304.064ZM144.887 302.788L142.698 302.788L143.809 299.499L144.887 302.788ZM150.341 304.636L150.341 297.717L148.834 297.717L148.834 306L154.928 306L154.928 304.636L150.341 304.636ZM156.625 297.717L156.625 306L158.132 306L158.132 297.717L156.625 297.717ZM161.91 302.48L165.749 302.48L165.749 301.116L161.91 301.116L161.91 299.081L166.442 299.081L166.442 297.717L160.403 297.717L160.403 306L161.91 306L161.91 302.48ZM167.709 301.842C167.709 304.35 169.348 306.143 171.889 306.143C174.562 306.143 175.992 304.35 175.992 301.82C175.992 299.367 174.353 297.574 171.845 297.574C169.326 297.574 167.709 299.466 167.709 301.842ZM171.845 298.927C173.473 298.927 174.375 300.082 174.375 301.809C174.375 303.855 173.55 304.768 171.856 304.768C170.217 304.768 169.326 303.668 169.326 301.831C169.326 300.115 170.217 298.927 171.845 298.927ZM182.999 302.084C183.901 301.831 184.495 301.248 184.495 300.06C184.495 298.41 183.186 297.717 181.613 297.717L177.741 297.717L177.741 306L179.248 306L179.248 302.59L181.052 302.59C182.295 302.59 182.581 303.14 182.669 304.317C182.746 305.318 182.845 305.736 183.01 306L184.638 306L184.638 305.956C184.418 305.648 184.286 305.153 184.242 304.13C184.187 303.019 183.747 302.37 182.999 302.084ZM179.248 301.292L179.248 299.092L181.679 299.092C182.383 299.092 182.988 299.378 182.988 300.159C182.988 300.984 182.526 301.292 181.558 301.292L179.248 301.292ZM191.778 303.437L188.17 297.717L186.421 297.717L186.421 306L187.785 306L187.785 299.796L191.635 306L193.142 306L193.142 297.717L191.778 297.717L191.778 303.437ZM195.404 297.717L195.404 306L196.911 306L196.911 297.717L195.404 297.717ZM200.502 304.064L203.538 304.064L204.165 306L205.694 306L202.922 297.717L201.294 297.717L198.423 306L199.853 306L200.502 304.064ZM203.12 302.788L200.931 302.788L202.042 299.499L203.12 302.788Z" fill="#231F20"/>
<path d="M220 298L220 305.5L225 301.5L220 298Z" fill="#F7D193" stroke="black"/>
<g filter="url(#filter3_d)">
<rect x="123" y="95" width="97" height="21" rx="1" fill="#F7D193"/>
<rect x="123.5" y="95.5" width="96" height="20" rx="0.5" stroke="black"/>
</g>
<path d="M135.406 103.741L137.089 110L138.662 110L141.038 101.717L139.509 101.717L137.881 107.734L136.264 101.717L134.669 101.717L133.03 107.745L131.512 101.717L129.895 101.717L132.095 110L133.734 110L135.406 103.741ZM143.061 108.064L146.097 108.064L146.724 110L148.253 110L145.481 101.717L143.853 101.717L140.982 110L142.412 110L143.061 108.064ZM145.679 106.788L143.49 106.788L144.601 103.499L145.679 106.788ZM152.442 101.574C150.341 101.574 149.219 102.542 149.219 103.983C149.219 105.82 150.638 106.183 152.288 106.458C153.938 106.733 154.609 106.887 154.609 107.745C154.609 108.471 153.982 108.801 152.794 108.801C151.331 108.801 150.737 108.251 150.33 107.349L148.955 107.965C149.362 109.285 150.605 110.143 152.717 110.143C154.785 110.143 156.171 109.461 156.171 107.745C156.171 105.831 154.84 105.336 152.86 105.017C151.397 104.786 150.715 104.709 150.715 103.895C150.715 103.213 151.21 102.883 152.431 102.883C153.608 102.883 154.279 103.422 154.686 104.203L155.94 103.4C155.368 102.256 154.268 101.574 152.442 101.574ZM163.203 105.072L159.254 105.072L159.254 101.717L157.747 101.717L157.747 110L159.254 110L159.254 106.436L163.203 106.436L163.203 110L164.71 110L164.71 101.717L163.203 101.717L163.203 105.072ZM166.977 101.717L166.977 110L168.484 110L168.484 101.717L166.977 101.717ZM176.112 107.437L172.504 101.717L170.755 101.717L170.755 110L172.119 110L172.119 103.796L175.969 110L177.476 110L177.476 101.717L176.112 101.717L176.112 107.437ZM185.833 109.098L186.163 110.11L186.9 110.11L186.9 105.534L183.688 105.534L183.688 106.799L185.492 106.799L185.492 107.085C185.492 108.02 184.799 108.812 183.336 108.812C181.477 108.812 180.839 107.668 180.839 105.831C180.839 104.115 181.587 102.927 183.336 102.927C184.513 102.927 185.173 103.378 185.558 104.368L186.878 103.642C186.262 102.245 185.074 101.574 183.38 101.574C180.751 101.574 179.222 103.356 179.222 105.842C179.222 108.35 180.498 110.143 183.215 110.143C184.502 110.143 185.272 109.791 185.833 109.098ZM192.436 103.081L195.34 103.081L195.34 101.717L188.08 101.717L188.08 103.081L190.929 103.081L190.929 110L192.436 110L192.436 103.081ZM196.184 105.842C196.184 108.35 197.823 110.143 200.364 110.143C203.037 110.143 204.467 108.35 204.467 105.82C204.467 103.367 202.828 101.574 200.32 101.574C197.801 101.574 196.184 103.466 196.184 105.842ZM200.32 102.927C201.948 102.927 202.85 104.082 202.85 105.809C202.85 107.855 202.025 108.768 200.331 108.768C198.692 108.768 197.801 107.668 197.801 105.831C197.801 104.115 198.692 102.927 200.32 102.927ZM211.572 107.437L207.964 101.717L206.215 101.717L206.215 110L207.579 110L207.579 103.796L211.429 110L212.936 110L212.936 101.717L211.572 101.717L211.572 107.437Z" fill="#231F20"/>
<path d="M227 102L227 109.5L232 105.5L227 102Z" fill="#F7D193" stroke="black"/>
<defs>
<filter id="filter0_d" x="153.226" y="0.467949" width="727.547" height="495.635" filterUnits="userSpaceOnUse" color-interpolation-filters="sRGB">
<feFlood flood-opacity="0" result="BackgroundImageFix"/>
<feColorMatrix in="SourceAlpha" type="matrix" values="0 0 0 0 0 0 0 0 0 0 0 0 0 0 0 0 0 0 127 0"/>
<feOffset/>
<feGaussianBlur stdDeviation="7.5"/>
<feColorMatrix type="matrix" values="0 0 0 0 0 0 0 0 0 0 0 0 0 0 0 0 0 0 0.1 0"/>
<feBlend mode="normal" in2="BackgroundImageFix" result="effect1_dropShadow"/>
<feBlend mode="normal" in="SourceGraphic" in2="effect1_dropShadow" result="shape"/>
</filter>
<filter id="filter1_d" x="765" y="139" width="131" height="51" filterUnits="userSpaceOnUse" color-interpolation-filters="sRGB">
<feFlood flood-opacity="0" result="BackgroundImageFix"/>
<feColorMatrix in="SourceAlpha" type="matrix" values="0 0 0 0 0 0 0 0 0 0 0 0 0 0 0 0 0 0 127 0"/>
<feOffset/>
<feGaussianBlur stdDeviation="7.5"/>
<feColorMatrix type="matrix" values="0 0 0 0 0 0 0 0 0 0 0 0 0 0 0 0 0 0 0.1 0"/>
<feBlend mode="normal" in2="BackgroundImageFix" result="effect1_dropShadow"/>
<feBlend mode="normal" in="SourceGraphic" in2="effect1_dropShadow" result="shape"/>
</filter>
<filter id="filter2_d" x="36" y="276" width="192" height="51" filterUnits="userSpaceOnUse" color-interpolation-filters="sRGB">
<feFlood flood-opacity="0" result="BackgroundImageFix"/>
<feColorMatrix in="SourceAlpha" type="matrix" values="0 0 0 0 0 0 0 0 0 0 0 0 0 0 0 0 0 0 127 0"/>
<feOffset/>
<feGaussianBlur stdDeviation="7.5"/>
<feColorMatrix type="matrix" values="0 0 0 0 0 0 0 0 0 0 0 0 0 0 0 0 0 0 0.1 0"/>
<feBlend mode="normal" in2="BackgroundImageFix" result="effect1_dropShadow"/>
<feBlend mode="normal" in="SourceGraphic" in2="effect1_dropShadow" result="shape"/>
</filter>
<filter id="filter3_d" x="108" y="80" width="127" height="51" filterUnits="userSpaceOnUse" color-interpolation-filters="sRGB">
<feFlood flood-opacity="0" result="BackgroundImageFix"/>
<feColorMatrix in="SourceAlpha" type="matrix" values="0 0 0 0 0 0 0 0 0 0 0 0 0 0 0 0 0 0 127 0"/>
<feOffset/>
<feGaussianBlur stdDeviation="7.5"/>
<feColorMatrix type="matrix" values="0 0 0 0 0 0 0 0 0 0 0 0 0 0 0 0 0 0 0.1 0"/>
<feBlend mode="normal" in2="BackgroundImageFix" result="effect1_dropShadow"/>
<feBlend mode="normal" in="SourceGraphic" in2="effect1_dropShadow" result="shape"/>
</filter>
</defs>
</svg>
