<svg width="175" height="202" viewBox="0 0 175 202" fill="none" xmlns="http://www.w3.org/2000/svg">
<path d="M4.5 6L5 1.5L76 1.82804V68L165 150L169 162L173.5 166.5C172.5 167.667 169.9 170.4 167.5 172C164.5 174 168 177.5 167 181C166 184.5 162.5 186 166.5 191C169.7 195 166.167 197 164 197.5L123.5 200.5L121 197V189.5L114 181.5L106.5 177H102.5L100.5 171L96 171.5L88 168.5V166.5L83.5 163.5H78L73.5 162L67.5 162.5L65 160L64.5 148.5L61 146.5L60.5 142L53.5 137.5L50.5 131.5L44 124.5L42.5 119L45.5 114L44 111H40.5L36.5 107L33.5 99.5C31.5 94 33.5 94.5 34 94.5C34.8 94.5 38 97.8333 40 99C40 98.8333 39.9 98 39.5 96C39 93.5 36.5 94 36 92.5C35.5 91 43 85.5 38.5 85.5C34 85.5 36.5 96 32 91.5C28.4 87.9 26.1667 88 25.5 88.5C25.6667 88 25.9 86.4 25.5 84C25.1 81.6 17.3333 73.3333 13.5 69.5V68C13.5 66.5 11.5 63 11.5 60C11.5 57 12 61 12 53.5C12 47.5 5.66667 42.3333 2.5 40.5L1.5 36.5C1.83333 35.8333 3.1 33.1 5.5 27.5C7.9 21.9 6.5 23.1667 5.5 24.5L7 17.5C8.2 11.9 5.83333 7.5 4.5 6Z" fill="#A8F4F6"/>
<path d="M83.5 171.5L77 170L79 173.5L83.5 171.5Z" fill="#A8F4F6"/>
<path d="M74 174L74.5 171H71L74 174Z" fill="#A8F4F6"/>
<path d="M100.5 195.5L99 191L103.5 195.5H100.5Z" fill="#A8F4F6"/>
<path d="M4.5 6L5 1.5L76 1.82804V68L165 150L169 162L173.5 166.5C172.5 167.667 169.9 170.4 167.5 172C164.5 174 168 177.5 167 181C166 184.5 162.5 186 166.5 191C169.7 195 166.167 197 164 197.5L123.5 200.5L121 197V189.5L114 181.5L106.5 177H102.5L100.5 171L96 171.5L88 168.5V166.5L83.5 163.5H78L73.5 162L67.5 162.5L65 160L64.5 148.5L61 146.5L60.5 142L53.5 137.5L50.5 131.5L44 124.5L42.5 119L45.5 114L44 111H40.5L36.5 107L33.5 99.5C31.5 94 33.5 94.5 34 94.5C34.8 94.5 38 97.8333 40 99C40 98.8333 39.9 98 39.5 96C39 93.5 36.5 94 36 92.5C35.5 91 43 85.5 38.5 85.5C34 85.5 36.5 96 32 91.5C28.4 87.9 26.1667 88 25.5 88.5C25.6667 88 25.9 86.4 25.5 84C25.1 81.6 17.3333 73.3333 13.5 69.5V68C13.5 66.5 11.5 63 11.5 60C11.5 57 12 61 12 53.5C12 47.5 5.66667 42.3333 2.5 40.5L1.5 36.5C1.83333 35.8333 3.1 33.1 5.5 27.5C7.9 21.9 6.5 23.1667 5.5 24.5L7 17.5C8.2 11.9 5.83333 7.5 4.5 6Z" stroke="black"/>
<path d="M83.5 171.5L77 170L79 173.5L83.5 171.5Z" stroke="black"/>
<path d="M74 174L74.5 171H71L74 174Z" stroke="black"/>
<path d="M100.5 195.5L99 191L103.5 195.5H100.5Z" stroke="black"/>
</svg>
