<svg width="443" height="496" viewBox="0 0 443 496" fill="none" xmlns="http://www.w3.org/2000/svg">
<path d="M144 104L150 111.112V98.5H266.5V0.5H66.5V26L72 33L71.5 36L73.5 38.5L72.5 41C74.8333 42.6667 80.6 47.4 85 53C90.5 60 91.5 55.5 95 59.5C98.5 63.5 91 69 92.5 72C94 75 93.5 78 92 81C90.8 83.4 94.1667 86.3333 96 87.5L102 82L104 84.5L105.5 92L109.5 96V100.5L115 104L120.5 112.5L123.5 110.5L128 111.5L130.5 108.5L142.5 109.5L144 104Z" fill="#F7D193"/>
<path d="M150 98.5H266.5L267 190H150V98.5Z" fill="#F7D193"/>
<path d="M391 155L394 156.5L392 152.5L394 141.5L391 134.5L394 133.5L394 91L390 88.5L388 85L392 80.5V76H266.5L266.754 144.5H360L367.5 150.5L372 147.5L381.5 148.5L389 152.5L391 155Z" fill="#F7D193"/>
<path d="M391 155L394 156.5L397 168L400.5 171.5V178L403 180.5L403.5 197L407.5 201V204.5L411.5 208L413.5 212H300V190H266.754V144.5H360L367.5 150.5L372 147.5L381.5 148.5L389 152.5L391 155Z" fill="#F7D193"/>
<path d="M91.5 357C94.7 361 91.1667 363 89 363.5L87 367.5L149.5 390.5H183.5V276H99V296H88L90 316L94 328L98.5 332.5C97.5 333.667 94.9 336.4 92.5 338C89.5 340 93 343.5 92 347C91 350.5 87.5 352 91.5 357Z" fill="#F7D193"/>
<path d="M1 234L90 316L88 296H99V167.828H1V234Z" fill="#F7D193"/>
<path d="M197.5 390.5H183.5V276H283.5V377H224L226 382H197.5V390.5Z" fill="#F7D193"/>
<path d="M183.5 190V276H300V190H183.5Z" fill="#F7D193"/>
<path d="M183.5 276V190H150V167.756H99V276H183.5Z" fill="#F7D193"/>
<path d="M224 377H283.5V286H335.5V326.5L340 330H344L345.5 328L350 333.5L360 336.5L366.5 334.5L369.5 341L374.5 338.5L378 341L381.5 339.5L383.5 342L384.5 338.5L388 341L391.5 339.5L396 344L402.5 339.5H418L428.5 347H434V378C434.333 378.167 435.2 378.8 436 380C436.8 381.2 440.333 391.167 442 396L440.5 401.5V411L436 419.5L437 422.5L427 425.5H422.5V421L418 425L420.5 428.5L411 438L399.5 443L398.5 440.5L394.5 443.5L390.5 441.5L394.5 446.5L390.5 448.5L388.5 446L389 449.5L385 452.5L384.5 451L381.5 453L384.5 454L381.5 458L377.5 457L381 460.5L379 470L378.5 467.5L376.5 473.5L375.5 474L377.5 484L381 493L378 495L374 491.5H367L354.5 485L349.5 484.5L347 476.5L343.5 473L342.5 462L336.5 458.5L333 452L330 449.5L328 443.5L323.5 437V434L317.5 426.5L313.5 426L311 420.5H300L296 418.5L295 421.5H290C288 424.7 287.167 429.5 287 431.5L282.5 436H279.5L265 428L259 423L256.5 418V412C254.833 409 250.4 402.5 246 400.5C240.5 398 241 391.5 236 391C231 390.5 230 387 229.5 384.5C229.1 382.5 227 382 226 382L224 377Z" fill="#F7D193"/>
<path d="M391.5 449.5L388 453L395.5 448L391.5 449.5Z" fill="#F7D193"/>
<path d="M418 339.5L428.5 347V307L424.5 286V276H283.5V286H335.5V326.5L340 330H344L345.5 328L350 333.5L360 336.5L366.5 334.5L369.5 341L374.5 338.5L378 341L381.5 339.5L383.5 342L384.5 338.5L388 341L391.5 339.5L396 344L402.5 339.5H418Z" fill="#F7D193"/>
<path d="M266.5 76V1H381L388.5 50V58.5L392 76H266.5Z" fill="#F7D193"/>
<path d="M416.5 215L413.5 212H300V276H424.5V230L420 229.5V226L416.5 222L420 218V215H416.5Z" fill="#F7D193"/>
<path d="M150 98.5V111.112L144 104L142.5 109.5L130.5 108.5L128 111.5L123.5 110.5L120.5 112.5L115 104L109.5 100.5V96L105.5 92L104 84.5L102 82L96 87.5C94.1667 86.3333 90.8 83.4 92 81C93.5 78 94 75 92.5 72C91 69 98.5 63.5 95 59.5C91.5 55.5 90.5 60 85 53C80.6 47.4 74.8333 42.6667 72.5 41L73.5 38.5L71.5 36L72 33L66.5 26V0.5H266.5V98.5M150 98.5H266.5M150 98.5V190M266.5 98.5L267 190H150M150 190V167.756H99V276M150 190H183.5M394 156.5L391 155L389 152.5L381.5 148.5L372 147.5L367.5 150.5L360 144.5H266.754M394 156.5L392 152.5L394 141.5L391 134.5L394 133.5L394 91L390 88.5L388 85L392 80.5V76M394 156.5L397 168L400.5 171.5V178L403 180.5L403.5 197L407.5 201V204.5L411.5 208L413.5 212M266.754 144.5L266.5 76M266.754 144.5V190H300M266.5 76H392M266.5 76V1H381L388.5 50V58.5L392 76M413.5 212H300M413.5 212L416.5 215H420V218L416.5 222L420 226V229.5L424.5 230V276M300 212V190M300 212V276M300 190H183.5M300 190V276M90 316L94 328L98.5 332.5C97.5 333.667 94.9 336.4 92.5 338C89.5 340 93 343.5 92 347C91 350.5 87.5 352 91.5 357C94.7 361 91.1667 363 89 363.5L87 367.5L149.5 390.5H183.5M90 316L88 296H99M90 316L1 234V167.828H99V296M99 296V276M99 276H183.5M183.5 276V390.5M183.5 276H283.5M183.5 276V190M183.5 276H300M183.5 390.5H197.5V382H226M226 382L224 377H283.5M226 382C227 382 229.1 382.5 229.5 384.5C230 387 231 390.5 236 391C241 391.5 240.5 398 246 400.5C250.4 402.5 254.833 409 256.5 412V418L259 423L265 428L279.5 436H282.5L287 431.5C287.167 429.5 288 424.7 290 421.5H295L296 418.5L300 420.5H311L313.5 426L317.5 426.5L323.5 434V437L328 443.5L330 449.5L333 452L336.5 458.5L342.5 462L343.5 473L347 476.5L349.5 484.5L354.5 485L367 491.5H374L378 495L381 493L377.5 484L375.5 474L376.5 473.5L378.5 467.5L379 470L381 460.5L377.5 457L381.5 458L384.5 454L381.5 453L384.5 451L385 452.5L389 449.5L388.5 446L390.5 448.5L394.5 446.5L390.5 441.5L394.5 443.5L398.5 440.5L399.5 443L411 438L420.5 428.5L418 425L422.5 421V425.5H427L437 422.5L436 419.5L440.5 411V401.5L442 396C440.333 391.167 436.8 381.2 436 380C435.2 378.8 434.333 378.167 434 378V347H428.5M283.5 377V276M283.5 377V286M283.5 276H424.5M283.5 276V286M300 276H424.5M428.5 347L418 339.5H402.5L396 344L391.5 339.5L388 341L384.5 338.5L383.5 342L381.5 339.5L378 341L374.5 338.5L369.5 341L366.5 334.5L360 336.5L350 333.5L345.5 328L344 330H340L335.5 326.5V286H283.5M428.5 347V307L424.5 286V276M388 453L391.5 449.5L395.5 448L388 453Z" stroke="black"/>
</svg>
