<svg width="184" height="137" viewBox="0 0 184 137" fill="none" xmlns="http://www.w3.org/2000/svg">
<g filter="url(#filter0_d)">
<path d="M50.9794 18.1065C51.7654 16.7393 53.3686 16.0666 54.8948 16.4636L158.33 43.3681C159.823 43.7564 160.886 45.0765 160.946 46.618L163.719 117.191C163.811 119.537 161.612 121.307 159.34 120.716L18.1997 84.0037C15.9647 83.4224 14.8955 80.874 16.0464 78.872L50.9794 18.1065Z" fill="#F8FFF6" stroke="black"/>
<path d="M53.5318 22.2046C54.3232 20.8521 55.9172 20.1904 57.4338 20.5849L154.235 45.7638C155.717 46.1494 156.777 47.4544 156.85 48.9845L159.884 112.704C159.996 115.061 157.791 116.852 155.507 116.258L23.7142 81.9771C21.4685 81.393 20.4025 78.8251 21.5744 76.8223L53.5318 22.2046Z" fill="#E27047" stroke="black"/>
<path d="M66.414 44.9615C67.2202 50.9856 67.2564 54.2225 68.0788 54.4364C68.7012 54.5983 69.2232 53.595 70.3855 52.0462L73.9235 47.2945C76.4401 43.9146 77.7083 41.7764 78.9042 41.3755C79.5022 41.175 80.1246 41.3369 80.2865 40.7145C80.4831 39.9588 79.6722 39.7004 77.7828 39.2089C75.8712 38.7117 75.0207 38.5142 74.8184 39.2922C74.6796 39.8257 75.1068 40.008 75.5158 40.3517C75.947 40.7012 76.0941 41.048 75.9669 41.537C75.7761 42.2705 74.2644 44.2505 71.6579 47.7019C70.7553 48.8911 70.2649 49.4992 69.9981 49.4298C69.7536 49.3662 69.6003 48.4957 69.3933 46.8281C68.8558 42.4165 68.6067 39.9073 68.7686 39.2849C68.8553 38.9515 69.0629 38.7919 69.4755 38.7568C70.1113 38.6849 70.4958 38.6663 70.6172 38.1995C70.8196 37.4215 69.8473 37.1448 67.6467 36.5724C65.4239 35.9943 64.4401 35.7621 64.2377 36.5401C64.0643 37.2069 64.8983 37.3764 65.201 37.7637C65.6962 38.4146 65.9263 39.9933 66.1417 42.5412C63.7486 45.8108 62.6628 47.5218 62.2627 47.4178C61.9515 47.3368 61.8378 46.4054 61.6317 44.6431C61.1155 40.332 60.849 37.8895 61.0109 37.2671C61.1034 36.9114 61.3275 36.7799 61.7179 36.739C62.3758 36.6728 62.7604 36.6542 62.8818 36.1874C63.0842 35.4094 62.1119 35.1328 59.9113 34.5604C57.6885 33.9822 56.7047 33.75 56.5023 34.528C56.3346 35.1726 57.0295 35.3297 57.3331 35.6222C57.7857 36.0722 57.9678 36.8315 58.1184 37.9861C58.5773 41.8789 58.9427 46.222 59.7732 50.8759C59.9051 51.6459 59.8988 52.3088 60.3878 52.436C60.9436 52.5805 61.5158 51.5665 62.5767 50.1337L66.414 44.9615Z" fill="#F8FFF6"/>
<path d="M79.8171 49.5394C79.1725 49.3718 79.1685 49.2046 79.2379 48.9379C79.6195 47.4708 81.02 46.6485 82.3982 47.007C83.8208 47.377 84.6875 48.7891 84.3059 50.2561C84.2366 50.5229 84.1516 50.6669 83.4848 50.4934L79.8171 49.5394ZM85.1277 52.2973C86.1058 52.5517 86.4179 52.5379 86.6896 51.4932C87.4239 48.6702 86.0193 46.4063 83.1518 45.6604C79.7509 44.7758 76.6022 46.6623 75.6829 50.1965C74.8562 53.3752 76.531 56.5163 79.9097 57.3951C80.9322 57.6611 82.2348 57.7626 84.1039 56.8723C85.1896 56.3478 85.4666 55.9215 85.5244 55.6992C85.6169 55.3435 85.38 55.0683 85.091 54.9932C84.7354 54.9007 84.405 55.0758 84.0805 55.2287L83.5994 55.4358C82.9561 55.7194 82.0025 55.8273 81.0911 55.5903C79.135 55.0815 78.0398 53.0879 78.5197 51.2429C78.6874 50.5983 78.8372 50.661 79.5485 50.846L85.1277 52.2973Z" fill="#F8FFF6"/>
<path d="M91.4738 44.2415C91.2656 45.0417 91.5105 45.6512 92.2298 46.1706C92.4676 46.3511 92.6117 46.436 92.5249 46.7695C92.4613 47.014 92.0096 47.6559 91.1048 48.4885C90.762 48.8028 90.4819 48.9672 90.4414 49.1228C90.3952 49.3007 90.6601 49.5594 91.1269 49.6808C91.4159 49.756 91.8311 49.4368 92.4887 48.8247C93.6465 47.7494 94.4237 46.8599 94.7186 45.7263C95.0655 44.3926 94.5246 43.2788 93.5465 43.0245C92.5907 42.7758 91.7166 43.3079 91.4738 44.2415Z" fill="#F8FFF6"/>
<path d="M95.8558 56.1557C95.3759 58.0006 95.021 59 94.6907 59.1751C94.6066 59.2244 94.2772 59.3049 94.1545 59.3204C93.8028 59.3951 93.5245 59.3702 93.4205 59.7703C93.1545 60.7928 94.9288 61.0881 96.0179 61.3714C96.996 61.6258 98.5955 62.1368 98.8268 61.2477C98.9424 60.8031 98.5828 60.5435 98.3392 60.3852C98.112 60.2549 97.9902 60.1757 97.9195 59.9912C97.6746 59.3817 98.1469 57.7484 98.8581 55.0143L99.4536 52.7248C100.124 50.1463 100.474 49.0745 100.906 47.5968C101.165 46.6912 101.251 46.4525 101.326 46.1635C101.506 45.4744 101.582 45.0908 100.982 44.9346C100.226 44.7381 98.4537 44.7992 98.1416 44.813C97.5899 44.8356 96.8043 44.8449 96.654 45.4228C96.5384 45.8674 96.8931 46.0546 97.2092 46.208C97.6858 46.4743 97.8018 46.5757 97.8347 46.6317C98.2747 47.2208 97.6375 49.2147 97.0766 51.3708L95.8558 56.1557Z" fill="#F8FFF6"/>
<path d="M102.639 57.92C102.159 59.7649 101.804 60.7643 101.474 60.9394C101.39 60.9888 101.06 61.0692 100.938 61.0848C100.586 61.1594 100.308 61.1345 100.204 61.5346C99.9376 62.5571 101.712 62.8525 102.801 63.1358C103.779 63.3902 105.379 63.9012 105.61 63.012C105.725 62.5675 105.366 62.3078 105.122 62.1495C104.895 62.0192 104.773 61.9401 104.703 61.7556C104.458 61.146 104.93 59.5127 105.641 56.7786L106.237 54.4891C106.907 51.9107 107.257 50.8388 107.689 49.3611C107.948 48.4555 108.034 48.2168 108.109 47.9278C108.289 47.2388 108.365 46.8551 107.765 46.699C107.009 46.5024 105.237 46.5636 104.925 46.5773C104.373 46.5999 103.587 46.6092 103.437 47.1871C103.321 47.6317 103.676 47.8189 103.992 47.9723C104.469 48.2387 104.585 48.34 104.618 48.3961C105.058 48.9852 104.421 50.979 103.86 53.1352L102.639 57.92Z" fill="#F8FFF6"/>
<path d="M124.107 59.3747C126.595 59.5711 128.209 58.5669 128.735 56.5442C129.383 54.0546 128.003 52.153 124.713 51.2973C123.624 51.014 122.217 50.7667 120.572 50.3388C119.661 50.1018 118.844 49.8656 118.088 49.669C117.155 49.4262 116.641 49.5773 116.496 50.133C116.305 50.8665 117.329 51.0378 117.524 51.5633C117.638 51.8541 117.262 53.9395 116.268 57.7628C115.25 61.675 114.567 63.7519 114.286 64.0111C113.86 64.3747 112.888 64.0034 112.697 64.7369C112.553 65.2926 113.011 65.7204 114.056 65.9921C114.967 66.2292 115.785 66.3706 116.452 66.5441C117.941 66.9315 119.368 67.4686 120.79 67.8387C124.458 68.7927 126.942 67.6353 127.665 64.8567C128.313 62.3672 127.061 60.4278 124.107 59.3747ZM119.529 56.9024C120.217 54.2573 120.677 52.7631 121.009 52.3986C121.206 52.1888 121.752 52.1884 122.619 52.4139C125.086 53.0556 126.027 54.2734 125.519 56.2295C124.969 58.3412 123.467 58.7336 120.689 58.0109C120.222 57.8895 119.783 57.7516 119.35 57.5915L119.529 56.9024ZM118.922 59.2364C119.651 59.3547 120.257 59.4886 120.746 59.6158C123.791 60.4079 125.009 61.7453 124.443 63.9237C123.934 65.8798 122.345 66.6056 119.878 65.9638C118.566 65.6227 117.857 65.2483 117.766 64.8686C117.632 64.288 117.876 63.2597 118.292 61.6593L118.922 59.2364Z" fill="#F8FFF6"/>
<path d="M134.061 63.6488C133.416 63.4811 133.412 63.314 133.482 63.0472C133.863 61.5802 135.264 60.7578 136.642 61.1163C138.065 61.4863 138.931 62.8984 138.55 64.3655C138.48 64.6322 138.395 64.7762 137.729 64.6028L134.061 63.6488ZM139.372 66.4066C140.35 66.661 140.662 66.6472 140.933 65.6025C141.668 62.7795 140.263 60.5156 137.396 59.7698C133.995 58.8851 130.846 60.7716 129.927 64.3059C129.1 67.4845 130.775 70.6256 134.153 71.5045C135.176 71.7704 136.479 71.8719 138.348 70.9816C139.433 70.4571 139.71 70.0308 139.768 69.8085C139.861 69.4529 139.624 69.1777 139.335 69.1025C138.979 69.01 138.649 69.1851 138.324 69.338L137.843 69.5451C137.2 69.8287 136.246 69.9367 135.335 69.6996C133.379 69.1908 132.284 67.1972 132.763 65.3523C132.931 64.7077 133.081 64.7704 133.792 64.9554L139.372 66.4066Z" fill="#F8FFF6"/>
<path d="M52.9364 65.9038C53.3122 64.459 54.1034 61.5084 54.5738 61.2511C54.7418 61.1524 54.9312 61.1542 55.1264 61.1338C55.6114 61.0938 55.9244 60.9854 56.0343 60.563C56.2598 59.6961 54.786 59.4315 53.2078 59.0209C51.4074 58.5526 50.1799 58.1622 49.9602 59.0068C49.833 59.4958 50.1375 59.6937 50.4972 59.9534C50.6354 60.0605 50.9177 60.2526 50.9826 60.4594C51.0475 60.6661 51.0732 61.4797 49.2114 68.6372C48.668 70.7266 48.3962 71.7713 47.984 72.3524C47.6452 72.8338 46.8591 73.4837 45.6366 73.1657C44.6808 72.9171 43.9806 72.1417 44.1946 71.3192C44.2524 71.0969 44.3595 70.9587 44.4387 70.8369C44.5574 70.6542 44.6993 70.3825 44.7571 70.1603C44.9132 69.5601 44.7279 68.5389 43.6387 68.2556C42.5495 67.9723 41.6843 68.744 41.401 69.8332C40.9616 71.5225 42.0368 73.8669 45.3043 74.7168C47.5716 75.3065 49.177 74.6087 49.912 74.0642C51.1182 73.1676 51.4669 71.6445 51.8716 70.0885L52.9364 65.9038Z" fill="#F8FFF6"/>
<path d="M62.1788 78.2516C62.0978 78.5628 62.0604 78.9803 62.705 79.148C63.283 79.2983 64.0743 79.2668 65.5797 79.1362C65.9198 79.106 66.572 79.0621 66.705 78.5509C66.8148 78.1285 66.4823 77.9471 66.2164 77.783L66.0337 77.6643C65.5465 77.3477 65.5154 77.1023 65.5461 76.8018C65.5653 76.5457 65.7232 75.7561 65.7983 75.4672L66.151 74.1113C66.4979 72.7776 66.7408 71.844 67.2518 70.2445C67.487 69.5225 67.5902 69.2171 67.6653 68.9281C67.8446 68.239 67.8868 67.894 67.22 67.7206C66.4865 67.5298 65.2603 67.5906 64.469 67.6221C63.9173 67.6447 63.1317 67.6539 62.9814 68.2319C62.8715 68.6542 63.1876 68.8076 63.4534 68.9717L63.8855 69.2265C64.5448 69.6115 64.3162 70.2166 64.1254 70.9501L63.8305 72.0838C63.3969 73.7509 62.5208 76.8455 60.1646 76.2326C58.1196 75.7007 58.608 73.5494 59.111 71.6156L59.3018 70.882C59.666 69.4817 60.2966 67.6047 60.447 67.0268C60.6667 66.1821 60.4404 65.9571 60.0181 65.8473C59.6624 65.7548 58.8835 65.6471 57.2448 65.743C56.0631 65.8153 55.8439 66.0194 55.7572 66.3528C55.6358 66.8196 55.9692 66.9063 56.2737 67.1042L56.6614 67.3474C57.3148 67.7547 57.1712 68.2157 56.9119 69.1213L56.4156 70.9382C55.9193 72.7551 55.4171 74.5943 56.1216 76.0828C56.411 76.7039 57.1151 77.6465 58.6488 78.0454C59.3379 78.2247 60.4618 78.3746 61.6662 77.6674L61.8623 77.5523C61.9743 77.4865 62.2042 77.3327 62.3153 77.3616C62.3598 77.3732 62.3985 77.407 62.3869 77.4514L62.1788 78.2516Z" fill="#F8FFF6"/>
<path d="M74.6461 74.6122C73.8948 73.9421 72.6496 73.0724 72.9271 72.0055C73.089 71.3831 73.7186 70.7874 74.7411 71.0534C75.8081 71.3309 76.1681 72.1365 76.3734 72.8069C76.5303 73.2987 76.697 73.9353 77.2304 74.0741C77.4527 74.1319 77.9204 74.1586 78.117 73.4029C78.3714 72.4248 78.1226 70.4615 77.189 70.2187C76.9668 70.1609 76.5484 70.2182 76.275 70.2657C76.0034 70.1239 75.4766 69.8682 74.6097 69.6427C72.6536 69.1339 70.6956 70.0011 70.1637 72.0461C69.678 73.9132 70.8431 74.9995 72.2741 76.2498L72.8542 76.7566C73.6828 77.4943 74.5354 78.0483 74.2753 79.0486C74.0902 79.7599 73.4607 80.3555 72.2603 80.0433C71.8158 79.9277 70.8222 79.5506 70.3528 78.5267C70.2328 78.2581 70.163 77.9789 70.0875 77.722C69.9528 77.236 69.8133 76.6776 69.2798 76.5389C68.8353 76.4232 68.4973 76.81 68.347 77.3879C68.1389 78.1881 68.2125 79.8211 68.641 80.4546C68.7726 80.6787 68.9669 80.753 69.0558 80.7761C69.4559 80.8802 69.6808 80.6539 69.9031 80.7117C70.1699 80.7811 70.7673 81.2213 71.8343 81.4988C74.1016 82.0886 76.4392 81.1303 77.0406 78.8186C77.4742 77.1515 76.5411 76.268 75.2648 75.1529L74.6461 74.6122Z" fill="#F8FFF6"/>
<path d="M84.6743 72.5929L85.2236 70.4812C85.2988 70.1922 85.0774 70.0397 84.8996 69.9935C84.3439 69.8489 83.5316 70.3259 82.9607 70.6046L81.847 71.1455C81.2201 71.4571 80.4434 71.706 80.3104 72.2172L80.241 72.4839C80.1948 72.6618 80.165 72.8676 80.5651 72.9717L81.6098 73.2434L80.0314 79.3117C79.6729 80.6899 79.3056 81.8284 79.9034 82.8145C80.3204 83.4925 81.113 83.9123 81.9577 84.132C83.5803 84.5541 85.3356 83.919 85.5322 83.1632C85.5784 82.9854 85.5598 82.6008 85.093 82.4794C84.9152 82.4332 84.748 82.4371 84.3857 82.4616C84.1238 82.4646 83.7277 82.5277 83.3054 82.4179C83.0609 82.3543 82.6221 82.2164 82.4594 81.7469C82.3567 81.4117 82.4444 80.9836 82.7219 79.9166L84.1847 74.2929C84.202 74.2262 84.2772 73.9372 84.5217 74.0008L86.8557 74.6079C87.3002 74.7236 87.4314 74.4017 87.4892 74.1794L87.5586 73.9127C87.6685 73.4903 87.6307 73.3619 87.2083 73.252L84.6743 72.5929Z" fill="#F8FFF6"/>
<path d="M99.4311 78.4248C98.9643 78.3034 98.9546 78.1584 99.128 77.4916L99.3651 76.5802C99.8276 74.802 100.188 73.7804 100.536 73.5385C100.951 73.2194 101.78 73.3164 103.092 73.6575L104.648 74.0622C105.648 74.3224 106.274 74.7462 106.463 75.2939C106.784 76.1604 106.789 76.7788 107.323 76.9176C107.767 77.0332 108.132 76.7247 108.306 76.0579C108.508 75.2799 108.476 73.9426 108.314 73.3784C108.249 73.1717 108.095 73.0365 107.895 72.9845C107.672 72.9267 107.031 73.0208 106.119 72.7838L99.1843 70.9799C97.1171 70.4422 96.1941 70.2496 96.0091 70.9609C95.801 71.7611 96.8302 71.9101 97.0257 72.4356C97.1013 72.6926 96.7752 74.7674 95.7691 78.6351C94.7458 82.5695 94.0351 84.663 93.7879 84.8834C93.3611 85.2471 92.3897 84.8757 92.1989 85.6093C91.9966 86.3873 92.8955 86.7635 95.0071 87.3127C97.0966 87.8562 98.0706 87.9434 98.2614 87.2099C98.4407 86.5208 97.6511 86.3629 97.3155 85.9197C97.0292 85.5604 97.3646 84.2712 98.0006 81.8261L98.2261 80.9592C98.44 80.1367 98.5538 79.8816 99.0429 80.0088L100.888 80.4886C102.066 80.7951 102.397 81.1659 102.281 82.1564C102.189 83.058 102.078 83.575 102.723 83.7427C103.523 83.9508 103.856 82.9457 104.469 80.5895C105.082 78.2333 105.287 77.1712 104.487 76.9631C103.842 76.7954 103.687 77.3009 103.328 78.1331C102.946 79.0542 102.476 79.2169 101.298 78.9104L99.4311 78.4248Z" fill="#F8FFF6"/>
<path d="M110.619 75.4018C110.44 76.0908 110.838 76.9302 111.95 77.2193C113.172 77.5373 114.009 76.8768 114.182 76.2099C114.402 75.3653 113.78 74.5627 112.846 74.3199C111.668 74.0135 110.792 74.7349 110.619 75.4018ZM108.268 87.1783C107.944 88.4231 107.745 88.8223 106.97 88.8818C106.702 88.9071 106.368 88.9151 106.264 89.3152C105.998 90.3377 107.772 90.6331 108.884 90.9222C111.04 91.483 111.532 91.3261 111.67 90.7926C111.78 90.3703 111.565 90.1956 111.26 89.9977C110.69 89.6358 110.451 89.5499 110.983 87.5049C111.579 85.2154 112.324 82.9886 112.937 80.6324C113.047 80.2101 113.163 79.6708 112.607 79.5263C112.141 79.4049 110.738 79.3247 109.499 79.5246C109.053 79.5984 108.478 79.7099 108.368 80.1323C108.27 80.5101 108.574 80.708 108.901 80.9117C109.084 81.0304 109.272 81.1269 109.382 81.2505C109.674 81.5875 109.557 82.2214 109.008 84.3331L108.268 87.1783Z" fill="#F8FFF6"/>
<path d="M119.77 82.1962C119.833 81.9517 119.933 81.4791 119.355 81.3288C118.932 81.2189 117.551 81.1445 116.369 81.3116C115.928 81.3631 115.348 81.4969 115.238 81.9192C115.139 82.2971 115.444 82.4949 115.771 82.6986C115.953 82.8173 116.142 82.9138 116.252 83.0374C116.561 83.4024 116.405 84.0026 115.878 86.1201L115.16 88.9711C114.813 90.3047 114.52 90.6084 113.84 90.6687C113.572 90.6941 113.238 90.702 113.134 91.1021C112.891 92.0357 114.553 92.3969 115.754 92.7091C117.91 93.2699 118.396 93.1353 118.54 92.5796C118.65 92.1572 118.457 91.9883 118.13 91.7846C117.864 91.6206 117.643 91.468 117.568 91.1164C117.526 90.9154 117.546 90.5647 117.875 89.2976C118.54 86.7414 118.912 85.6754 119.453 85.0566C120.022 84.4213 120.933 84.0177 121.823 84.249C123.067 84.5728 123.243 85.4491 123.276 86.051C123.289 86.4578 123.259 87.3043 122.484 90.2829C122.154 91.5499 121.972 91.9771 121.741 92.2256C121.477 92.5127 121.243 92.4994 120.953 92.5189C120.54 92.554 120.306 92.6353 120.207 93.0132C120.057 93.5911 120.494 93.9184 122.672 94.485C123.962 94.8204 125.428 95.2966 125.671 94.3631C125.781 93.9407 125.487 93.7931 125.265 93.6406C124.518 93.1377 124.691 92.5655 124.922 91.6764L125.701 88.7703C126.111 87.2868 126.471 85.7193 125.827 84.365C125.368 83.3913 124.412 82.5968 123.234 82.2903C122.189 82.0186 121.363 82.1835 120.355 82.7755C119.879 83.0551 119.716 83.1316 119.627 83.1084C119.538 83.0853 119.556 83.0186 119.573 82.9519L119.77 82.1962Z" fill="#F8FFF6"/>
<path d="M132.49 89.4444C131.846 89.2768 131.842 89.1096 131.911 88.8429C132.293 87.3758 133.693 86.5535 135.071 86.9119C136.494 87.282 137.361 88.694 136.979 90.1611C136.91 90.4278 136.825 90.5719 136.158 90.3984L132.49 89.4444ZM137.801 92.2022C138.779 92.4566 139.091 92.4429 139.363 91.3982C140.097 88.5752 138.692 86.3113 135.825 85.5654C132.424 84.6808 129.275 86.5673 128.356 90.1015C127.529 93.2802 129.204 96.4213 132.583 97.3001C133.605 97.5661 134.908 97.6676 136.777 96.7773C137.863 96.2528 138.14 95.8265 138.197 95.6042C138.29 95.2485 138.053 94.9733 137.764 94.8981C137.408 94.8056 137.078 94.9808 136.754 95.1337L136.272 95.3408C135.629 95.6244 134.676 95.7323 133.764 95.4952C131.808 94.9865 130.713 92.9929 131.193 91.1479C131.36 90.5033 131.51 90.566 132.222 90.751L137.801 92.2022Z" fill="#F8FFF6"/>
<path d="M140.422 97.4643C140.167 98.4423 140.743 99.4226 141.721 99.677C142.699 99.9314 143.657 99.35 143.912 98.372C144.172 97.3717 143.613 96.4194 142.635 96.165C141.656 95.9106 140.682 96.464 140.422 97.4643ZM143.01 94.7202C143.433 94.83 143.76 94.393 144.232 93.4003C145.403 90.9046 146.404 88.151 147.052 85.6614C147.468 84.061 147.231 83.2399 146.075 82.9392C144.919 82.6386 144.311 83.24 143.895 84.8404C143.277 87.2189 142.793 90.0832 142.587 92.9725C142.515 94.0692 142.588 94.6103 143.01 94.7202Z" fill="#F8FFF6"/>
<path fill-rule="evenodd" clip-rule="evenodd" d="M70.3855 52.0462C70.1408 52.3723 69.9245 52.6742 69.7296 52.9461C68.999 53.9658 68.5701 54.5643 68.0788 54.4365C67.4946 54.2845 67.3072 52.6075 66.9587 49.4899C66.8354 48.3869 66.6919 47.1036 66.5036 45.6437C66.4748 45.4204 66.4449 45.193 66.4139 44.9615L62.5767 50.1337C62.3765 50.4041 62.1937 50.6596 62.0251 50.8952C61.3004 51.908 60.8387 52.5532 60.3878 52.436C59.9853 52.3313 59.9184 51.8636 59.8337 51.2721C59.8155 51.1449 59.7965 51.0121 59.7731 50.8759C59.1489 47.3774 58.7874 44.0545 58.4514 40.9666C58.3405 39.9467 58.2323 38.9526 58.1184 37.9861C57.9678 36.8315 57.7856 36.0722 57.3331 35.6222C57.2511 35.5432 57.1405 35.474 57.026 35.4025C56.717 35.2092 56.3799 34.9985 56.5023 34.528C56.7047 33.7501 57.6885 33.9822 59.9113 34.5604C62.1119 35.1328 63.0842 35.4094 62.8818 36.1874C62.7654 36.635 62.4071 36.6705 61.7978 36.731C61.7716 36.7336 61.745 36.7363 61.7178 36.739C61.3275 36.7799 61.1034 36.9114 61.0109 37.2671C60.849 37.8895 61.1155 40.332 61.6317 44.6431C61.8378 46.4054 61.9515 47.3368 62.2627 47.4178C62.5698 47.4977 63.2811 46.5079 64.6775 44.5646C65.1002 43.9764 65.5856 43.3009 66.1417 42.5412C65.9263 39.9933 65.6962 38.4146 65.201 37.7637C65.1016 37.6365 64.9448 37.5328 64.7853 37.4272C64.4591 37.2114 64.1212 36.9879 64.2377 36.5401C64.4401 35.7621 65.4239 35.9943 67.6467 36.5725C69.8473 37.1449 70.8196 37.4215 70.6172 38.1995C70.5019 38.6427 70.1494 38.6819 69.5699 38.7463C69.5391 38.7497 69.5076 38.7532 69.4755 38.7569C69.0629 38.7919 68.8553 38.9515 68.7686 39.2849C68.6067 39.9073 68.8558 42.4165 69.3933 46.8281C69.6003 48.4957 69.7536 49.3662 69.9981 49.4298C70.2648 49.4992 70.7553 48.8911 71.6579 47.7019C71.7685 47.5555 71.8771 47.4117 71.9837 47.2706C74.3902 44.0848 75.7842 42.2394 75.9669 41.537C76.0941 41.048 75.947 40.7012 75.5158 40.3517C75.4409 40.2888 75.3655 40.2313 75.293 40.1761C74.9694 39.9295 74.705 39.7281 74.8183 39.2922C75.0207 38.5142 75.8712 38.7117 77.7828 39.209C79.6722 39.7004 80.4831 39.9588 80.2865 40.7145C80.1732 41.1502 79.8342 41.2016 79.4359 41.262C79.2652 41.2878 79.0836 41.3154 78.9042 41.3755C77.9844 41.6838 77.0218 43.0199 75.4814 45.1582C75.019 45.8 74.5045 46.5142 73.9235 47.2945L70.3855 52.0462ZM69.8682 46.7697C69.9719 47.6053 70.0597 48.2189 70.1491 48.6284C70.1607 48.6813 70.1719 48.7291 70.1827 48.7721C70.2 48.7541 70.2183 48.7347 70.2375 48.7138C70.4878 48.4418 70.8217 48.0121 71.2765 47.413C71.3864 47.2674 71.4944 47.1244 71.6004 46.9842C72.7522 45.4593 73.667 44.2483 74.329 43.3221C74.6904 42.8163 74.9709 42.4031 75.1713 42.075C75.379 41.7349 75.4754 41.5258 75.5038 41.4166C75.5481 41.2463 75.5352 41.1435 75.505 41.0661C75.4714 40.98 75.394 40.869 75.2145 40.7235L75.2112 40.7208L75.2079 40.718C75.1424 40.663 75.0802 40.6156 75.0111 40.563C74.9828 40.5414 74.9534 40.519 74.9221 40.4947C74.8242 40.4191 74.7078 40.3256 74.607 40.2143C74.5025 40.099 74.4024 39.9513 74.35 39.7619C74.2971 39.5702 74.3031 39.3721 74.3553 39.1718C74.4293 38.8871 74.5815 38.6335 74.8513 38.4711C75.1026 38.3198 75.3947 38.2857 75.6739 38.2941C76.2179 38.3104 76.9711 38.5034 77.9032 38.7459C78.8271 38.9862 79.5662 39.1872 80.0417 39.4402C80.2857 39.5701 80.5187 39.7426 80.6607 39.9946C80.8129 40.2646 80.8223 40.5554 80.7496 40.835C80.6874 41.074 80.5698 41.2719 80.3929 41.4196C80.2241 41.5604 80.034 41.6279 79.8745 41.6676C79.75 41.6986 79.612 41.7194 79.4972 41.7367C79.4714 41.7406 79.4469 41.7443 79.4238 41.7479C79.2843 41.7698 79.166 41.7924 79.0563 41.8292C78.851 41.898 78.6069 42.0546 78.3047 42.3413C78.0046 42.626 77.6727 43.0141 77.2872 43.5111C76.8682 44.0514 76.4098 44.6879 75.8779 45.4265C75.417 46.0665 74.9009 46.7831 74.3073 47.5803L70.7682 52.3334C70.5418 52.6351 70.3312 52.9287 70.1365 53.2C69.8566 53.5902 69.6099 53.9341 69.3972 54.1892C69.2113 54.4122 69.0116 54.6192 68.7898 54.7562C68.5518 54.9031 68.2688 54.9803 67.9583 54.8995C67.704 54.8334 67.5273 54.6606 67.4072 54.4822C67.2885 54.3058 67.1999 54.0879 67.1278 53.8537C66.9833 53.3844 66.8724 52.7365 66.766 51.9412C66.6759 51.2674 66.5861 50.4644 66.483 49.5418C66.4635 49.3677 66.4436 49.1893 66.4231 49.0067C66.3284 48.1639 66.2212 47.2277 66.0919 46.1987L62.9613 50.4185C62.7749 50.6702 62.5979 50.9173 62.431 51.1505C62.1433 51.5523 61.8854 51.9124 61.6605 52.1825C61.4796 52.3999 61.2862 52.6022 61.0772 52.7391C60.859 52.8819 60.5797 52.9803 60.2674 52.8991C59.7696 52.7696 59.5759 52.3552 59.4851 52.0233C59.4389 51.8545 59.4086 51.6709 59.3828 51.4969C59.3745 51.4414 59.3667 51.3869 59.359 51.3328C59.3413 51.2091 59.3239 51.0872 59.3018 50.9584C58.6746 47.4428 58.3106 44.0973 57.9744 41.0064C57.8639 39.9908 57.7564 39.0027 57.6436 38.0451C57.5691 37.4748 57.4901 37.0307 57.3819 36.6815C57.2752 36.3369 57.1489 36.1152 56.9987 35.9645C56.964 35.9318 56.9064 35.8922 56.7975 35.824C56.7888 35.8185 56.7797 35.8128 56.7702 35.8069C56.6767 35.7485 56.5504 35.6697 56.4375 35.5771C56.3096 35.4722 56.1655 35.3241 56.0777 35.1156C55.9858 34.8974 55.9741 34.6578 56.0392 34.4076C56.1186 34.1022 56.2949 33.8468 56.5918 33.6966C56.8594 33.5612 57.172 33.5396 57.4779 33.558C58.085 33.5946 58.941 33.8136 60.0318 34.0973C61.1114 34.3782 61.9603 34.6026 62.5057 34.8659C62.7806 34.9986 63.0423 35.1698 63.2095 35.4184C63.3949 35.6939 63.4243 36.0026 63.3449 36.3079C63.2988 36.4851 63.2195 36.6491 63.0922 36.7865C62.9654 36.9233 62.815 37.0077 62.6664 37.0625C62.4273 37.1505 62.1281 37.1797 61.856 37.2062C61.8259 37.2092 61.7961 37.2121 61.7668 37.215C61.6071 37.2318 61.5485 37.2618 61.5293 37.2754L61.5286 37.2759C61.5224 37.2801 61.4976 37.297 61.474 37.3876C61.4525 37.47 61.435 37.6769 61.4453 38.0631C61.4552 38.4321 61.4885 38.9188 61.5436 39.5288C61.6538 40.748 61.8485 42.4294 62.1068 44.5862L62.1069 44.5875C62.211 45.4773 62.2886 46.1273 62.3769 46.5667C62.3918 46.6409 62.4063 46.7054 62.4204 46.7612C62.5841 46.5864 62.7974 46.3219 63.0727 45.9566C63.4035 45.5177 63.8012 44.9641 64.2838 44.2926C64.6789 43.7426 65.131 43.1135 65.6496 42.4034C65.5469 41.2144 65.4408 40.2613 65.3057 39.5277C65.1609 38.7416 64.9949 38.2851 64.8224 38.0563C64.795 38.0221 64.7397 37.9741 64.6282 37.8978C64.6034 37.8809 64.5733 37.8609 64.54 37.8389C64.4511 37.78 64.3396 37.7062 64.2477 37.6349C64.113 37.5306 63.9509 37.3826 63.8455 37.1741C63.7316 36.949 63.7035 36.6931 63.7746 36.4197C63.8541 36.1143 64.0303 35.8588 64.3272 35.7086C64.5948 35.5733 64.9074 35.5517 65.2133 35.5701C65.8204 35.6066 66.6764 35.8256 67.7672 36.1094C68.8469 36.3902 69.6957 36.6146 70.2411 36.878C70.516 37.0107 70.7777 37.1819 70.9449 37.4304C71.1303 37.706 71.1597 38.0146 71.0803 38.3199C71.0342 38.4972 70.955 38.6605 70.8291 38.7974C70.7036 38.9338 70.5549 39.0185 70.4082 39.0739C70.1757 39.1616 69.8858 39.1933 69.6265 39.2216C69.5935 39.2252 69.5611 39.2287 69.5293 39.2323L69.5227 39.2331L69.516 39.2336C69.3583 39.247 69.3028 39.2798 69.2874 39.2915C69.2803 39.2968 69.255 39.3158 69.2316 39.4054C69.21 39.4887 69.1916 39.7004 69.2007 40.0948C69.2093 40.4716 69.2411 40.97 69.2954 41.5941C69.4038 42.8416 69.5995 44.5643 69.8682 46.7697ZM62.5134 47.0312C62.5165 47.0352 62.5179 47.0379 62.5179 47.0379C62.5179 47.0379 62.5163 47.0362 62.5134 47.0312ZM69.9506 48.9744C69.9506 48.9744 69.9531 48.9728 69.9577 48.9708C69.9529 48.9736 69.9506 48.9744 69.9506 48.9744ZM84.312 57.3032L84.3096 57.3043C82.3278 58.2483 80.9082 58.1493 79.7892 57.8582C76.1441 56.9101 74.3293 53.4997 75.2198 50.0761C76.2027 46.2976 79.6043 44.2433 83.2723 45.1973C84.8021 45.5953 85.9855 46.4112 86.6798 47.5486C87.3754 48.6882 87.5472 50.097 87.1527 51.6136C87.0192 52.1268 86.8309 52.6176 86.3649 52.821C86.1406 52.9188 85.9071 52.9241 85.6956 52.9017C85.4857 52.8794 85.2522 52.8241 85.0073 52.7604L79.428 51.3091C79.4037 51.3028 79.3806 51.2968 79.3585 51.291C79.2113 51.2526 79.1102 51.2262 79.0277 51.2105C79.0153 51.2468 79.0002 51.2963 78.9827 51.3634C78.5679 52.9584 79.517 54.6864 81.2115 55.1272C82.0216 55.3379 82.8646 55.2368 83.4064 54.998L83.4102 54.9963L83.8837 54.7925C83.9001 54.7847 83.9173 54.7765 83.9351 54.768C84.0737 54.702 84.2516 54.6172 84.4339 54.5614C84.6548 54.4938 84.9209 54.4545 85.2115 54.5301C85.6945 54.6557 86.1615 55.1506 85.9875 55.8197C85.8749 56.2524 85.4325 56.7619 84.312 57.3032ZM84.0805 55.2287C84.1016 55.2187 84.1228 55.2087 84.1439 55.1986C84.4481 55.0541 84.7585 54.9067 85.091 54.9932C85.38 55.0683 85.6169 55.3436 85.5244 55.6992C85.4666 55.9215 85.1896 56.3478 84.1038 56.8723C82.2348 57.7626 80.9322 57.6611 79.9097 57.3951C76.531 56.5163 74.8561 53.3752 75.6829 50.1966C76.6022 46.6623 79.7509 44.7758 83.1518 45.6604C86.0193 46.4063 87.4239 48.6702 86.6896 51.4932C86.4179 52.5379 86.1058 52.5517 85.1277 52.2973L79.5485 50.846C79.5249 50.8399 79.502 50.8339 79.4797 50.8281C78.8272 50.6577 78.6818 50.6197 78.5197 51.2429C78.0398 53.0879 79.135 55.0815 81.0911 55.5903C82.0024 55.8273 82.9561 55.7194 83.5994 55.4358L84.0805 55.2287ZM79.7147 49.0076C79.7668 49.0275 79.8389 49.0507 79.9376 49.0764L83.6052 50.0304C83.7148 50.0589 83.7962 50.075 83.8558 50.0832C84.1359 48.8963 83.4328 47.7705 82.2777 47.4701C81.1814 47.1849 80.0508 47.8183 79.7147 49.0076ZM91.0588 45.4869C90.8889 45.0558 90.8869 44.5968 91.0107 44.121C91.3189 42.9359 92.4513 42.2452 93.6669 42.5614C94.9905 42.9056 95.569 44.3574 95.1817 45.8467C94.8492 47.125 93.9769 48.0956 92.8143 49.1753L92.4893 48.8254L92.8147 49.175L92.8143 49.1753C92.4859 49.481 92.1921 49.7386 91.9335 49.9096C91.6971 50.066 91.3647 50.2371 91.0064 50.1439C90.7194 50.0693 90.4659 49.9458 90.2799 49.7859C90.1259 49.6536 89.8828 49.3697 89.9783 49.0024C90.0158 48.8581 90.0968 48.7516 90.1554 48.6854C90.2166 48.6162 90.2879 48.553 90.3505 48.5C90.398 48.4598 90.4438 48.4224 90.49 48.3847C90.5807 48.3106 90.6726 48.2355 90.7812 48.136L90.7808 48.1364L91.1048 48.4885L90.7812 48.136C91.2184 47.7337 91.5396 47.3833 91.7553 47.1112C91.8634 46.9748 91.942 46.8621 91.9946 46.7755C92.0414 46.6986 92.0577 46.6587 92.0612 46.6501C92.062 46.6481 92.0622 46.6477 92.0618 46.649C92.0622 46.6477 92.0625 46.6464 92.0628 46.6451C92.0654 46.6472 92.0679 46.6493 92.0703 46.6512C92.0736 46.6539 92.0766 46.6564 92.0794 46.6588C92.0971 46.6737 92.1029 46.6803 92.1029 46.6803C92.1029 46.6803 92.1001 46.677 92.0964 46.6713C92.0936 46.6669 92.0907 46.6617 92.0878 46.6558C92.085 46.65 92.0822 46.6435 92.0798 46.6364C92.0748 46.622 92.0728 46.6099 92.0721 46.6021C92.0718 46.5986 92.0719 46.5968 92.0719 46.5968C92.0719 46.5968 92.0715 46.611 92.0628 46.6451C92.0521 46.6365 92.0394 46.6266 92.024 46.6148C92.0121 46.6057 91.9995 46.5962 91.9853 46.5856L91.9811 46.5824C91.9697 46.5739 91.9575 46.5647 91.945 46.5551C91.9465 46.5563 91.9481 46.5574 91.9497 46.5585L92.2298 46.1706L91.9405 46.5517C91.942 46.5529 91.9435 46.554 91.945 46.5551C91.5379 46.2602 91.2264 45.912 91.0588 45.4869ZM94.6907 59.1751C95.021 59 95.3759 58.0006 95.8558 56.1557L97.0766 51.3708C97.1586 51.0555 97.2423 50.7437 97.3239 50.4393C97.8008 48.6616 98.2104 47.1347 97.8347 46.6317C97.8018 46.5757 97.6857 46.4743 97.2092 46.208C96.8931 46.0546 96.5383 45.8674 96.654 45.4228C96.7988 44.8661 97.5331 44.8371 98.08 44.8155C98.1008 44.8146 98.1214 44.8138 98.1416 44.813C98.4537 44.7992 100.226 44.7381 100.982 44.9347C101.582 45.0908 101.506 45.4744 101.326 46.1635C101.291 46.3012 101.252 46.4274 101.194 46.6198C101.13 46.8312 101.042 47.1226 100.906 47.5968C100.805 47.9419 100.709 48.2649 100.612 48.5901C100.293 49.6573 99.9677 50.7485 99.4536 52.7248L98.8581 55.0143C98.7876 55.2855 98.7194 55.5458 98.654 55.7953C98.0603 58.0623 97.6989 59.4422 97.9195 59.9912C97.9902 60.1758 98.112 60.2549 98.3392 60.3852C98.5828 60.5435 98.9424 60.8031 98.8268 61.2477C98.6141 62.0654 97.2441 61.6989 96.2646 61.4369C96.1791 61.414 96.0965 61.3919 96.0179 61.3715C95.8955 61.3396 95.7644 61.3076 95.6285 61.2745C94.5556 61.0126 93.1844 60.6778 93.4204 59.7703C93.5078 59.4343 93.718 59.398 93.9914 59.3508C94.0436 59.3418 94.0981 59.3324 94.1545 59.3204C94.2772 59.3049 94.6066 59.2245 94.6907 59.1751ZM96.9877 46.6324C96.8404 46.5609 96.5991 46.4425 96.4203 46.2515C96.3205 46.1448 96.2311 46.0073 96.1851 45.8345C96.1389 45.661 96.1444 45.4812 96.1909 45.3024C96.3288 44.7721 96.764 44.5453 97.1215 44.448C97.4407 44.3611 97.8012 44.3473 98.0551 44.3375C98.0781 44.3366 98.1002 44.3358 98.1214 44.3349C98.2839 44.3278 98.8139 44.3088 99.4015 44.3165C99.9725 44.324 100.66 44.3566 101.102 44.4716C101.296 44.5219 101.485 44.603 101.638 44.7439C101.801 44.8939 101.886 45.0791 101.918 45.2705C101.948 45.4481 101.931 45.6264 101.904 45.7828C101.877 45.9413 101.834 46.1135 101.789 46.284C101.753 46.4249 101.711 46.5633 101.649 46.7682C101.583 46.9858 101.495 47.2783 101.366 47.7285L101.365 47.731C101.264 48.0789 101.167 48.4035 101.07 48.7296C100.751 49.7956 100.428 50.8779 99.9167 52.8453L99.3212 55.1348C99.2498 55.4093 99.181 55.6719 99.1153 55.9227C98.8515 56.93 98.6371 57.7488 98.4982 58.3994C98.4117 58.8048 98.3586 59.1269 98.34 59.3764C98.3206 59.6375 98.344 59.7643 98.3635 59.8129L98.365 59.8165L98.3664 59.8201C98.369 59.827 98.371 59.8312 98.3722 59.8334C98.3729 59.8348 98.3739 59.8363 98.3739 59.8363L98.3743 59.837C98.3743 59.837 98.3752 59.8382 98.3765 59.8396C98.3779 59.8411 98.3806 59.844 98.3855 59.8482C98.3959 59.8573 98.4139 59.8712 98.4467 59.8923C98.48 59.9137 98.5211 59.9379 98.5772 59.9701L98.5887 59.9767L98.5999 59.984C98.7229 60.0639 98.9383 60.2072 99.0996 60.4208C99.2769 60.6557 99.3909 60.9796 99.2899 61.3682C99.1875 61.7618 98.918 62.0068 98.5939 62.1267C98.298 62.2362 97.9624 62.2416 97.6605 62.2151C97.1518 62.1704 96.5735 62.0153 96.1291 61.8961C96.0469 61.874 95.9692 61.8532 95.8975 61.8345C95.7903 61.8067 95.6703 61.7774 95.5421 61.7462C95.0698 61.6312 94.486 61.489 94.0206 61.287C93.7215 61.1573 93.4096 60.979 93.1927 60.7175C92.9545 60.4305 92.8498 60.0635 92.9573 59.6498C92.9967 59.4983 93.0609 59.3559 93.163 59.2342C93.2671 59.1101 93.3899 59.0322 93.5094 58.9821C93.6216 58.935 93.7339 58.9113 93.8182 58.8956C93.8601 58.8878 93.8933 58.8821 93.9235 58.8769C93.9676 58.8694 94.0055 58.8629 94.0551 58.8524L94.0746 58.8482L94.0943 58.8457C94.1252 58.8418 94.2149 58.8239 94.3163 58.7974C94.3641 58.785 94.4067 58.7726 94.4388 58.7621C94.4451 58.76 94.4505 58.7581 94.455 58.7565C94.4652 58.7452 94.4922 58.7136 94.533 58.6449C94.6001 58.5316 94.6791 58.3615 94.7696 58.1223C94.95 57.6453 95.1534 56.9551 95.3925 56.0359L95.3927 56.0352L96.6135 51.2504C96.6982 50.9249 96.7834 50.6072 96.8659 50.2998C97.0617 49.5699 97.242 48.8978 97.3624 48.3165C97.4476 47.9055 97.4967 47.5671 97.5023 47.3071C97.5052 47.178 97.4969 47.0814 97.4827 47.0121C97.4758 46.9784 97.4681 46.9547 97.4618 46.939C97.4573 46.9282 97.4539 46.9221 97.4523 46.9196C97.4442 46.913 97.4312 46.903 97.4117 46.8892C97.3409 46.8391 97.2133 46.7588 96.9877 46.6324ZM101.474 60.9395C101.804 60.7643 102.159 59.765 102.639 57.92L103.86 53.1352C103.942 52.8199 104.025 52.5081 104.107 52.2036C104.584 50.426 104.993 48.899 104.618 48.3961C104.585 48.3401 104.469 48.2387 103.992 47.9723C103.676 47.8189 103.321 47.6317 103.437 47.1871C103.582 46.6304 104.316 46.6014 104.863 46.5798C104.884 46.579 104.904 46.5782 104.925 46.5773C105.237 46.5636 107.009 46.5024 107.765 46.699C108.365 46.8551 108.289 47.2388 108.109 47.9279C108.074 48.0655 108.035 48.1918 107.977 48.3841C107.913 48.5956 107.825 48.8869 107.689 49.3611C107.588 49.7062 107.492 50.0292 107.395 50.3544C107.076 51.4217 106.751 52.5129 106.237 54.4892L105.641 56.7787C105.571 57.0498 105.502 57.3102 105.437 57.5597C104.843 59.8266 104.482 61.2065 104.703 61.7556C104.773 61.9401 104.895 62.0192 105.122 62.1495C105.366 62.3078 105.725 62.5675 105.61 63.0121C105.397 63.8298 104.027 63.4633 103.048 63.2012C102.962 63.1783 102.88 63.1562 102.801 63.1358C102.679 63.104 102.547 63.072 102.412 63.0388C101.339 62.7769 99.9674 62.4422 100.204 61.5346C100.291 61.1987 100.501 61.1624 100.774 61.1152C100.827 61.1062 100.881 61.0968 100.938 61.0848C101.06 61.0692 101.39 60.9888 101.474 60.9395ZM103.771 48.3967C103.623 48.3252 103.382 48.2069 103.203 48.0159C103.104 47.9092 103.014 47.7716 102.968 47.5988C102.922 47.4253 102.927 47.2456 102.974 47.0667C103.112 46.5364 103.547 46.3097 103.905 46.2123C104.224 46.1254 104.584 46.1116 104.838 46.1019C104.861 46.101 104.883 46.1001 104.904 46.0993C105.067 46.0921 105.597 46.0731 106.185 46.0808C106.756 46.0883 107.443 46.121 107.885 46.2359C108.079 46.2863 108.269 46.3674 108.421 46.5082C108.584 46.6582 108.669 46.8434 108.701 47.0349C108.731 47.2125 108.714 47.3908 108.687 47.5471C108.66 47.7057 108.617 47.8778 108.573 48.0483C108.536 48.1893 108.494 48.3277 108.432 48.5325C108.366 48.7501 108.278 49.0427 108.149 49.4928L108.148 49.4953C108.047 49.8433 107.95 50.1678 107.853 50.4939C107.535 51.5599 107.212 52.6422 106.7 54.6096L106.104 56.8991C106.033 57.1737 105.964 57.4363 105.898 57.6872C105.635 58.6944 105.42 59.5131 105.281 60.1637C105.195 60.5691 105.142 60.8913 105.123 61.1408C105.104 61.4018 105.127 61.5286 105.147 61.5772L105.148 61.5808L105.149 61.5844C105.152 61.5913 105.154 61.5955 105.155 61.5978C105.156 61.5991 105.157 61.6005 105.157 61.6005L105.157 61.6013C105.157 61.6013 105.158 61.6025 105.16 61.604C105.161 61.6055 105.164 61.6083 105.169 61.6126C105.179 61.6216 105.197 61.6355 105.23 61.6566C105.263 61.6781 105.304 61.7022 105.36 61.7345L105.372 61.7411L105.383 61.7483C105.506 61.8283 105.721 61.9716 105.883 62.1851C106.06 62.42 106.174 62.744 106.073 63.1325C105.971 63.5261 105.701 63.7711 105.377 63.891C105.081 64.0005 104.745 64.0059 104.444 63.9794C103.935 63.9347 103.357 63.7796 102.912 63.6604C102.83 63.6384 102.752 63.6176 102.681 63.5989C102.573 63.571 102.453 63.5418 102.325 63.5106C101.853 63.3955 101.269 63.2533 100.804 63.0514C100.505 62.9217 100.193 62.7433 99.9758 62.4819C99.7376 62.1949 99.6328 61.8278 99.7404 61.4142C99.7798 61.2627 99.844 61.1202 99.9461 60.9985C100.05 60.8744 100.173 60.7966 100.292 60.7464C100.405 60.6994 100.517 60.6757 100.601 60.6599C100.643 60.6521 100.676 60.6464 100.707 60.6413C100.751 60.6337 100.789 60.6273 100.838 60.6167L100.858 60.6126L100.877 60.6101C100.908 60.6062 100.998 60.5882 101.099 60.5618C101.147 60.5493 101.19 60.537 101.222 60.5264C101.228 60.5243 101.234 60.5225 101.238 60.5209C101.248 60.5095 101.275 60.4779 101.316 60.4092C101.383 60.296 101.462 60.1258 101.553 59.8866C101.733 59.4096 101.936 58.7194 102.176 57.8002L102.176 57.7996L103.397 53.0147C103.481 52.6893 103.566 52.3716 103.649 52.0641C103.845 51.3343 104.025 50.6621 104.145 50.0809C104.231 49.6699 104.28 49.3314 104.285 49.0714C104.288 48.9424 104.28 48.8457 104.266 48.7765C104.259 48.7427 104.251 48.719 104.245 48.7034C104.24 48.6925 104.237 48.6865 104.235 48.6839C104.227 48.6774 104.214 48.6673 104.195 48.6536C104.124 48.6034 103.996 48.5231 103.771 48.3967ZM117.524 51.5633C117.446 51.3541 117.237 51.201 117.026 51.0462C116.706 50.8122 116.381 50.5744 116.496 50.133C116.641 49.5773 117.155 49.4262 118.088 49.669C118.448 49.7627 118.822 49.8654 119.214 49.9729C119.644 50.0909 120.095 50.2148 120.572 50.3388C121.479 50.5747 122.313 50.7557 123.062 50.9182C123.672 51.0503 124.224 51.1702 124.713 51.2973C128.003 52.153 129.383 54.0546 128.735 56.5442C128.301 58.216 127.123 59.1919 125.322 59.3695C124.944 59.4067 124.539 59.4088 124.107 59.3748C124.513 59.5194 124.886 59.6808 125.227 59.858C127.369 60.971 128.224 62.7091 127.665 64.8567C126.942 67.6353 124.458 68.7927 120.79 67.8387C120.087 67.6558 119.383 67.4321 118.671 67.2058C117.942 66.9742 117.205 66.74 116.452 66.5441C116.144 66.4641 115.805 66.391 115.439 66.3121C115.011 66.2199 114.547 66.1199 114.056 65.9921C113.011 65.7204 112.553 65.2927 112.697 64.7369C112.812 64.297 113.207 64.2545 113.597 64.2125C113.857 64.1845 114.116 64.1567 114.286 64.0111C114.567 63.752 115.25 61.675 116.268 57.7628C117.262 53.9396 117.638 51.8541 117.524 51.5633ZM113.957 63.6591C113.964 63.6479 113.974 63.6301 113.988 63.6037C114.025 63.5343 114.072 63.4329 114.128 63.2947C114.241 63.019 114.38 62.6262 114.545 62.111C114.874 61.0824 115.297 59.5947 115.805 57.6424C116.301 55.7357 116.641 54.2686 116.842 53.2459C116.943 52.7335 117.008 52.3398 117.041 52.0612C117.057 51.9213 117.064 51.819 117.065 51.7496C117.066 51.7328 117.065 51.7198 117.065 51.7101C117.05 51.687 117.017 51.6473 116.946 51.5873C116.899 51.5477 116.845 51.5069 116.779 51.4589C116.768 51.4509 116.757 51.4425 116.745 51.4339C116.691 51.3942 116.629 51.3491 116.571 51.3034C116.432 51.1946 116.253 51.0405 116.132 50.8279C116 50.5934 115.954 50.3175 116.033 50.0126C116.144 49.5838 116.426 49.2697 116.862 49.1423C117.25 49.0289 117.714 49.0774 118.209 49.206C118.572 49.3005 118.949 49.404 119.339 49.5112L119.398 49.5273C119.811 49.6406 120.24 49.7581 120.692 49.8757C121.505 50.0871 122.26 50.2542 122.952 50.4047C123.024 50.4202 123.095 50.4355 123.165 50.4507C123.772 50.5824 124.335 50.7045 124.833 50.8342C126.537 51.2774 127.819 52.009 128.582 53.0195C129.359 54.0474 129.553 55.3011 129.199 56.6646C128.909 57.7791 128.307 58.6469 127.408 59.1993C126.989 59.4563 126.517 59.6386 125.998 59.749C126.693 60.1887 127.246 60.7118 127.638 61.3168C128.323 62.3735 128.48 63.6227 128.128 64.9772C127.734 66.4908 126.844 67.6018 125.525 68.185C124.224 68.7606 122.567 68.7954 120.67 68.3018C119.954 68.1157 119.24 67.8886 118.532 67.6636L118.501 67.6539C117.779 67.4244 117.062 67.1972 116.331 67.0072C116.034 66.9299 115.704 66.8588 115.336 66.7793L115.245 66.7597C114.843 66.6729 114.402 66.5765 113.935 66.4552C113.385 66.3119 112.918 66.1119 112.606 65.8221C112.444 65.6721 112.315 65.4903 112.246 65.2743C112.176 65.0563 112.178 64.8326 112.234 64.6165C112.314 64.3112 112.489 64.0923 112.722 63.9539C112.932 63.8288 113.164 63.7854 113.338 63.7613C113.41 63.7514 113.484 63.7434 113.549 63.7364C113.565 63.7347 113.58 63.7331 113.594 63.7315C113.674 63.7228 113.74 63.7146 113.8 63.7039C113.887 63.6882 113.933 63.6711 113.957 63.6591ZM120.858 53.9425C120.62 54.6782 120.336 55.7017 119.992 57.0229L119.924 57.2861C120.211 57.3817 120.503 57.4683 120.809 57.5478C122.18 57.9044 123.133 57.9542 123.784 57.7305C124.382 57.5255 124.808 57.0586 125.055 56.1091C125.284 55.2287 125.171 54.599 124.804 54.1191C124.419 53.6145 123.69 53.1869 122.499 52.877C122.083 52.7689 121.773 52.723 121.56 52.7215C121.428 52.7206 121.366 52.7366 121.345 52.7433C121.312 52.7889 121.254 52.8887 121.174 53.074C121.082 53.2868 120.977 53.5743 120.858 53.9425ZM119.35 57.5915C119.783 57.7516 120.222 57.8895 120.688 58.0109C123.467 58.7336 124.969 58.3412 125.519 56.2295C126.027 54.2734 125.086 53.0557 122.619 52.4139C121.752 52.1884 121.206 52.1888 121.009 52.3986C120.677 52.7631 120.217 54.2573 119.529 56.9024L119.35 57.5915ZM119.274 59.7827L118.755 61.7797C118.546 62.5825 118.386 63.2226 118.293 63.7319C118.2 64.2432 118.189 64.5591 118.229 64.7487C118.233 64.7557 118.246 64.7742 118.277 64.8033C118.335 64.8571 118.432 64.9265 118.585 65.0063C118.892 65.166 119.357 65.3341 119.998 65.5007C121.175 65.8067 122.066 65.7657 122.699 65.4815C123.311 65.2064 123.754 64.6698 123.98 63.8032C124.232 62.8318 124.077 62.1257 123.588 61.5641C123.069 60.968 122.117 60.4669 120.625 60.0789C120.249 59.981 119.8 59.8786 119.274 59.7827ZM117.766 64.8686C117.857 65.2483 118.566 65.6227 119.878 65.9638C122.345 66.6056 123.934 65.8798 124.443 63.9237C125.009 61.7453 123.791 60.4079 120.746 59.6158C120.257 59.4886 119.651 59.3547 118.922 59.2364L118.292 61.6593C117.876 63.2597 117.632 64.288 117.766 64.8686ZM138.556 71.4125L138.553 71.4136C136.572 72.3576 135.152 72.2586 134.033 71.9676C130.388 71.0194 128.573 67.6091 129.464 64.1855C130.446 60.4069 133.848 58.3526 137.516 59.3067C139.046 59.7046 140.229 60.5205 140.924 61.6579C141.619 62.7975 141.791 64.2063 141.396 65.723C141.263 66.2362 141.075 66.7269 140.609 66.9303C140.384 67.0282 140.151 67.0335 139.939 67.011C139.729 66.9887 139.496 66.9334 139.251 66.8697L133.672 65.4185C133.648 65.4122 133.624 65.4061 133.602 65.4004C133.455 65.3619 133.354 65.3356 133.271 65.3199C133.259 65.3561 133.244 65.4057 133.227 65.4727C132.812 67.0678 133.761 68.7958 135.455 69.2365C136.265 69.4472 137.108 69.3461 137.65 69.1073L137.654 69.1057L138.128 68.9018C138.144 68.894 138.161 68.8859 138.179 68.8774C138.317 68.8114 138.495 68.7266 138.678 68.6707C138.899 68.6031 139.165 68.5638 139.455 68.6394C139.938 68.7651 140.405 69.26 140.231 69.929C140.119 70.3617 139.676 70.8712 138.556 71.4125ZM137.843 69.5452L138.324 69.338C138.345 69.3281 138.367 69.318 138.388 69.308C138.692 69.1635 139.002 69.016 139.335 69.1025C139.624 69.1777 139.861 69.4529 139.768 69.8085C139.71 70.0308 139.433 70.4571 138.348 70.9816C136.479 71.8719 135.176 71.7704 134.153 71.5045C130.775 70.6256 129.1 67.4845 129.927 64.3059C130.846 60.7716 133.995 58.8852 137.396 59.7698C140.263 60.5156 141.668 62.7796 140.933 65.6025C140.662 66.6473 140.35 66.661 139.371 66.4066L133.792 64.9554C133.769 64.9493 133.746 64.9433 133.723 64.9374C133.071 64.767 132.926 64.729 132.763 65.3523C132.284 67.1972 133.379 69.1908 135.335 69.6996C136.246 69.9367 137.2 69.8287 137.843 69.5452ZM133.959 63.117C134.011 63.1369 134.083 63.1601 134.181 63.1857L137.849 64.1397C137.959 64.1682 138.04 64.1843 138.1 64.1926C138.38 63.0056 137.677 61.8799 136.521 61.5794C135.425 61.2942 134.295 61.9276 133.959 63.117ZM47.984 72.3524C48.3962 71.7714 48.6679 70.7266 49.2114 68.6372C51.0732 61.4797 51.0475 60.6661 50.9826 60.4594C50.9253 60.2769 50.6987 60.1059 50.5513 59.9946C50.5316 59.9798 50.5134 59.966 50.4971 59.9534C50.4844 59.9442 50.4717 59.9351 50.4591 59.926C50.1165 59.6793 49.8375 59.4785 49.9602 59.0068C50.1646 58.2211 51.2409 58.5041 52.8392 58.9244C52.9592 58.9559 53.0821 58.9883 53.2078 59.021C53.3717 59.0636 53.5345 59.1047 53.6944 59.145C55.0738 59.4929 56.2363 59.7862 56.0343 60.563C55.9244 60.9854 55.6114 61.0938 55.1264 61.1338C55.0922 61.1374 55.0582 61.1403 55.0244 61.1431C54.8655 61.1567 54.7124 61.1697 54.5738 61.2511C54.1034 61.5085 53.3122 64.459 52.9364 65.9039L51.8716 70.0885C51.8536 70.1578 51.8357 70.227 51.8178 70.2961C51.4341 71.7789 51.0645 73.2075 49.912 74.0642C49.177 74.6087 47.5716 75.3065 45.3043 74.7168C42.0368 73.8669 40.9616 71.5225 41.401 69.8332C41.6843 68.744 42.5495 67.9723 43.6387 68.2556C44.7279 68.5389 44.9132 69.5601 44.7571 70.1603C44.6992 70.3826 44.5574 70.6542 44.4387 70.8369C44.4277 70.8538 44.4162 70.871 44.4043 70.8887C44.3307 70.9987 44.2443 71.1278 44.1946 71.3192C43.9806 72.1417 44.6808 72.9171 45.6366 73.1657C46.8591 73.4837 47.6452 72.8338 47.984 72.3524ZM53.3997 66.0232L53.3995 66.0243L52.3347 70.209C52.3165 70.279 52.2983 70.3493 52.2801 70.4199C52.099 71.1203 51.9106 71.8489 51.6335 72.5088C51.3246 73.2448 50.8917 73.9322 50.1974 74.4482L50.1968 74.4487C49.3587 75.0697 47.6062 75.8099 45.1839 75.1799C41.7258 74.2804 40.4162 71.7186 40.9379 69.7127C41.1012 69.0849 41.4394 68.5188 41.9288 68.1482C42.429 67.7695 43.0675 67.6126 43.7592 67.7925C44.4504 67.9723 44.8822 68.4013 45.1019 68.8944C45.3131 69.3683 45.3229 69.8857 45.2201 70.2807C45.1441 70.5731 44.9723 70.8938 44.8399 71.0976C44.8247 71.121 44.8107 71.1422 44.7976 71.162C44.7272 71.2683 44.686 71.3306 44.6576 71.4397C44.5963 71.6756 44.6567 71.9214 44.8475 72.1549C45.0426 72.3937 45.3637 72.6003 45.757 72.7026C46.7265 72.9548 47.3283 72.4527 47.5927 72.077L47.5937 72.0755C47.7547 71.8486 47.9078 71.5018 48.0921 70.9167C48.275 70.336 48.4753 69.5664 48.7483 68.5167C49.6786 64.9401 50.1345 62.9592 50.3497 61.8506C50.4576 61.295 50.5026 60.9704 50.5181 60.7793C50.5258 60.6832 50.5252 60.6303 50.5238 60.6056C50.5228 60.6042 50.5217 60.6027 50.5204 60.6011C50.5052 60.5814 50.4808 60.5552 50.4455 60.5231C50.3896 60.4723 50.3353 60.4313 50.2757 60.3862C50.2548 60.3705 50.2333 60.3542 50.2108 60.3368C50.1984 60.3279 50.1855 60.3187 50.1722 60.3092C50.0198 60.2003 49.8061 60.0475 49.6606 59.8496C49.4645 59.5829 49.3997 59.261 49.4971 58.8864C49.5872 58.5402 49.8009 58.2837 50.1181 58.1473C50.4016 58.0254 50.7272 58.0172 51.0343 58.045C51.5592 58.0924 52.2335 58.27 52.9662 58.4629C53.0855 58.4943 53.2063 58.5261 53.3283 58.5579C53.4803 58.5974 53.635 58.6364 53.7899 58.6754C54.4039 58.8301 55.02 58.9853 55.4828 59.1797C55.7738 59.302 56.069 59.4644 56.2732 59.7029C56.5022 59.9704 56.5946 60.3095 56.4974 60.6835C56.4127 61.0091 56.2311 61.2556 55.9536 61.4099C55.7086 61.5463 55.4244 61.5891 55.1709 61.6102C55.1333 61.6141 55.0936 61.6175 55.0598 61.6204C55.0467 61.6215 55.0345 61.6225 55.0237 61.6235C54.9785 61.6275 54.9439 61.6312 54.9135 61.6359C54.8736 61.6421 54.8493 61.649 54.8336 61.6553C54.8252 61.6659 54.8105 61.6857 54.7899 61.7187C54.7399 61.7989 54.6796 61.9173 54.611 62.0747C54.4744 62.3879 54.3255 62.808 54.1754 63.2778C53.8763 64.2141 53.5876 65.3011 53.3997 66.0232ZM65.622 79.6129L65.621 79.613C64.1402 79.7414 63.2585 79.7863 62.5846 79.6111C62.1614 79.501 61.8528 79.2738 61.7213 78.9205C61.6187 78.6448 61.6586 78.3721 61.6998 78.1955C60.4208 78.8597 59.2405 78.6938 58.5284 78.5085C56.8329 78.0675 56.0268 77.0116 55.6885 76.2862C55.2842 75.4311 55.238 74.4994 55.3429 73.5795C55.4466 72.6695 55.7045 71.7255 55.949 70.8303L56.4519 68.9896C56.5918 68.5008 56.6596 68.2514 56.651 68.0704C56.6477 68.0023 56.633 67.963 56.6112 67.9295C56.586 67.8907 56.5321 67.8307 56.4082 67.7535L56.407 67.7527L56.0162 67.5075L56.013 67.5054C55.9715 67.4785 55.9377 67.4589 55.896 67.4348C55.8692 67.4193 55.8391 67.4019 55.8015 67.3794C55.7231 67.3324 55.6155 67.2645 55.5197 67.17C55.417 67.0687 55.3234 66.933 55.2792 66.7538C55.2363 66.5796 55.2497 66.4031 55.2941 66.2323C55.3251 66.1133 55.3764 65.9721 55.4796 65.8369C55.5845 65.6993 55.7214 65.5958 55.8844 65.5181C56.1874 65.3736 56.6184 65.3019 57.2156 65.2654L57.2168 65.2653C58.8777 65.1682 59.7134 65.2736 60.1385 65.3842C60.394 65.4507 60.7332 65.5868 60.9069 65.9592C61.0631 66.294 61.0257 66.7026 60.91 67.1473C60.8481 67.3854 60.7105 67.8271 60.5486 68.3472C60.5044 68.489 60.4584 68.6367 60.4116 68.7876C60.1897 69.5041 59.9439 70.3141 59.7648 71.0025L59.5741 71.736C59.3181 72.7201 59.0965 73.6599 59.1591 74.41C59.1894 74.7733 59.2847 75.0558 59.4469 75.2686C59.6051 75.4759 59.8586 75.6586 60.285 75.7695C60.7607 75.8933 61.1315 75.8268 61.4407 75.6576C61.7638 75.4808 62.0541 75.172 62.3131 74.759C62.8362 73.9248 63.1487 72.8043 63.3674 71.9633L63.6623 70.8297C63.6804 70.7603 63.6975 70.6956 63.7136 70.635C63.7934 70.3349 63.8466 70.1347 63.8457 69.96C63.8453 69.8737 63.8297 69.8233 63.8102 69.7884C63.7911 69.7542 63.7498 69.7013 63.6442 69.6397L63.6425 69.6387L63.2062 69.3814L63.2021 69.3789C63.19 69.3714 63.1757 69.3629 63.1595 69.3532C63.05 69.2878 62.856 69.172 62.7177 69.0152C62.627 68.9124 62.546 68.7803 62.5061 68.6143C62.4664 68.4489 62.4746 68.2793 62.5183 68.1114C62.6562 67.5812 63.0913 67.3544 63.4489 67.257C63.768 67.1701 64.1285 67.1563 64.3824 67.1466C64.4057 67.1457 64.428 67.1448 64.4494 67.144L64.4499 67.1439C64.4878 67.1424 64.5269 67.1409 64.5671 67.1392C64.9414 67.1241 65.4086 67.1051 65.8707 67.1095C66.3748 67.1143 66.9139 67.1466 67.3404 67.2575C67.7423 67.362 68.1083 67.5685 68.2231 68.0108C68.271 68.1955 68.2616 68.3803 68.2389 68.5404C68.2159 68.7019 68.1733 68.876 68.1284 69.0486C68.0606 69.3095 67.9709 69.5838 67.8035 70.096C67.7739 70.1866 67.7419 70.2846 67.7072 70.3912C67.2006 71.9772 66.9604 72.9004 66.6141 74.2317L66.2614 75.5876C66.1886 75.8674 66.0392 76.6243 66.0233 76.8375L66.0228 76.8439L66.0221 76.8504C66.0094 76.9746 66.0201 77.005 66.0291 77.0241C66.0408 77.0493 66.0887 77.1294 66.2944 77.2631L66.4723 77.3786C66.4816 77.3843 66.4917 77.3905 66.5026 77.3971C66.6179 77.4671 66.8174 77.5881 66.9635 77.7571C67.1608 77.9852 67.2657 78.2959 67.168 78.6713C67.0456 79.1419 66.68 79.3687 66.3797 79.475C66.1089 79.5709 65.8185 79.5959 65.6552 79.61C65.6435 79.611 65.6324 79.612 65.622 79.6129ZM66.2164 77.783C66.2281 77.7902 66.2399 77.7975 66.2518 77.8048C66.5107 77.9635 66.81 78.1471 66.7049 78.5509C66.5754 79.0489 65.9532 79.1035 65.6067 79.1339C65.5975 79.1347 65.5885 79.1355 65.5797 79.1363C64.0743 79.2668 63.283 79.2983 62.705 79.148C62.0604 78.9803 62.0978 78.5628 62.1787 78.2516L62.3869 77.4514C62.3985 77.407 62.3598 77.3732 62.3153 77.3616C62.2741 77.3509 62.2165 77.3653 62.1547 77.391C62.0744 77.4245 61.9868 77.4771 61.9185 77.5185C61.9162 77.5199 61.9138 77.5213 61.9115 77.5227C61.8953 77.5325 61.8804 77.5416 61.8669 77.5495C61.8654 77.5505 61.8638 77.5514 61.8623 77.5523L61.6662 77.6674C60.4618 78.3746 59.3379 78.2247 58.6488 78.0454C57.1151 77.6465 56.411 76.7039 56.1216 76.0828C55.4171 74.5943 55.9192 72.7552 56.4156 70.9382L56.9119 69.1213L56.9233 69.0814C57.1753 68.2021 57.3052 67.7487 56.6613 67.3474L56.2737 67.1042C56.2232 67.0714 56.172 67.0417 56.1221 67.0127C55.8712 66.8671 55.6559 66.7422 55.7572 66.3528C55.8439 66.0194 56.0631 65.8153 57.2448 65.743C58.8835 65.6471 59.6624 65.7548 60.018 65.8473C60.4404 65.9572 60.6666 66.1821 60.4469 67.0268C60.3881 67.2529 60.2559 67.6777 60.0948 68.1949C59.8441 69.0001 59.5235 70.0294 59.3018 70.8821L59.111 71.6156C58.6079 73.5494 58.1196 75.7007 60.1646 76.2326C62.5208 76.8455 63.3969 73.7509 63.8305 72.0838L64.1254 70.9501C64.1407 70.8913 64.1562 70.8334 64.1715 70.7763C64.3471 70.121 64.4919 69.5807 63.8855 69.2265L63.4534 68.9717C63.4342 68.9598 63.4147 68.948 63.3951 68.9361C63.1441 68.784 62.8794 68.6237 62.9813 68.2319C63.1262 67.6751 63.8605 67.6461 64.4074 67.6245C64.4282 67.6237 64.4487 67.6229 64.469 67.6221C64.507 67.6206 64.546 67.619 64.586 67.6174C65.377 67.5853 66.5217 67.539 67.22 67.7206C67.8868 67.8941 67.8446 68.239 67.6653 68.9281C67.6014 69.1737 67.5173 69.4312 67.3491 69.9462C67.3194 70.0371 67.287 70.1361 67.2517 70.2445C66.7408 71.844 66.4979 72.7776 66.151 74.1113L65.7983 75.4672C65.7232 75.7562 65.5653 76.5457 65.5461 76.8018C65.5154 77.1023 65.5465 77.3477 66.0337 77.6643L66.2164 77.783ZM76.3734 72.807C76.1681 72.1365 75.8081 71.3309 74.7411 71.0534C73.7186 70.7874 73.089 71.3831 72.9271 72.0055C72.6854 72.9347 73.5986 73.7142 74.3346 74.3427C74.4438 74.4358 74.549 74.5257 74.646 74.6122L75.2648 75.1529C76.5411 76.268 77.4742 77.1515 77.0405 78.8186C76.4392 81.1303 74.1016 82.0886 71.8343 81.4988C71.123 81.3138 70.6203 81.0565 70.2852 80.885C70.1177 80.7992 69.992 80.7349 69.9031 80.7117C69.8082 80.687 69.7128 80.7142 69.6034 80.7452C69.4567 80.7869 69.285 80.8357 69.0557 80.7761C68.9668 80.753 68.7726 80.6787 68.641 80.4546C68.2125 79.8211 68.1389 78.1881 68.347 77.3879C68.4973 76.81 68.8352 76.4232 69.2798 76.5389C69.7979 76.6736 69.9445 77.2042 70.0758 77.6798C70.0797 77.6939 70.0836 77.708 70.0875 77.722C70.1015 77.7696 70.1153 77.818 70.1293 77.867C70.1906 78.0821 70.255 78.3079 70.3528 78.5267C70.8222 79.5506 71.8158 79.9277 72.2603 80.0433C73.4607 80.3556 74.0902 79.7599 74.2752 79.0486C74.5023 78.1755 73.8816 77.6424 73.1691 77.0304C73.0653 76.9413 72.9595 76.8504 72.8542 76.7566L72.2741 76.2498C70.8431 74.9995 69.678 73.9133 70.1636 72.0461C70.6956 70.0011 72.6536 69.1339 74.6096 69.6427C75.4765 69.8682 76.0033 70.1239 76.275 70.2657C76.5484 70.2182 76.9667 70.1609 77.189 70.2187C78.1226 70.4616 78.3714 72.4248 78.117 73.4029C77.9204 74.1586 77.4527 74.1319 77.2304 74.0741C76.7311 73.9442 76.5531 73.3782 76.4037 72.903C76.3935 72.8705 76.3834 72.8384 76.3734 72.807ZM76.3525 69.7683C76.4644 69.7514 76.5895 69.7354 76.7138 69.7257C76.8867 69.7121 77.1156 69.7052 77.3095 69.7556C77.6974 69.8565 77.9754 70.1267 78.1657 70.4218C78.3562 70.717 78.4837 71.073 78.565 71.4285C78.7259 72.1324 78.73 72.947 78.5801 73.5233C78.4576 73.9939 78.222 74.3171 77.889 74.4756C77.5745 74.6253 77.2719 74.5793 77.11 74.5372C76.6628 74.4209 76.3996 74.0977 76.2392 73.7995C76.1043 73.5484 76.0137 73.2591 75.9457 73.0418C75.9359 73.0104 75.9265 72.9805 75.9175 72.9524L75.9158 72.9471C75.7242 72.3212 75.4377 71.729 74.6206 71.5165C74.2247 71.4135 73.9502 71.4848 73.7674 71.6005C73.5747 71.7226 73.4438 71.9199 73.3902 72.1259C73.3111 72.4302 73.4287 72.7529 73.7649 73.1472C74.0131 73.4383 74.3148 73.696 74.6195 73.9561C74.7344 74.0542 74.8497 74.1527 74.9627 74.2535L74.9645 74.2551L75.5797 74.7925C76.2071 75.3408 76.8208 75.8887 77.205 76.5339C77.6103 77.2145 77.752 77.984 77.5036 78.939C76.818 81.5747 74.1628 82.5989 71.7138 81.9619C71.1406 81.8128 70.694 81.62 70.3597 81.4577C70.2502 81.4046 70.1461 81.3513 70.0599 81.3072C70.0198 81.2867 69.9836 81.2682 69.9525 81.2525C69.8997 81.226 69.8593 81.2066 69.8272 81.1925C69.8205 81.1896 69.8146 81.1871 69.8095 81.185C69.7942 81.1885 69.7793 81.1927 69.7566 81.1993C69.7364 81.2051 69.7099 81.2127 69.6713 81.2231C69.5033 81.2686 69.2523 81.3217 68.9353 81.2392C68.7769 81.198 68.4548 81.0721 68.2363 80.7103C67.9538 80.2834 67.8247 79.6157 67.7782 79.0211C67.7298 78.4028 67.7618 77.7368 67.8839 77.2675C67.972 76.9289 68.1263 76.5968 68.3695 76.3603C68.6301 76.1068 68.993 75.9699 69.4003 76.0758C69.8318 76.188 70.0927 76.4758 70.2535 76.7716C70.3927 77.0275 70.4738 77.3224 70.5345 77.5429C70.539 77.5593 70.5434 77.5753 70.5477 77.5908C70.5636 77.6451 70.5786 77.6976 70.5932 77.7486C70.6536 77.9599 70.7067 78.1453 70.7887 78.3294C71.168 79.1542 71.984 79.477 72.3808 79.5803C72.8874 79.712 73.2063 79.6374 73.4019 79.5197C73.6029 79.3988 73.7439 79.1904 73.8122 78.9281C73.8943 78.6125 73.8172 78.3757 73.5992 78.1028C73.4174 77.8753 73.179 77.6705 72.8881 77.4205C72.7786 77.3264 72.6617 77.2259 72.5375 77.1154L72.536 77.1141L71.9592 76.6101C71.2536 75.9936 70.547 75.3639 70.0933 74.6312C69.62 73.8667 69.4225 72.9947 69.7006 71.9256C70.3119 69.5751 72.571 68.618 74.7301 69.1796C75.5093 69.3823 76.0325 69.6101 76.3525 69.7683ZM81.847 71.1455L82.9607 70.6046C83.0372 70.5672 83.118 70.5263 83.202 70.4838C83.7446 70.2092 84.4183 69.8683 84.8995 69.9935C85.0774 70.0397 85.2987 70.1922 85.2236 70.4812L84.6743 72.5929L87.2083 73.252C87.6307 73.3619 87.6684 73.4904 87.5586 73.9127L87.4892 74.1794C87.4314 74.4017 87.3002 74.7236 86.8556 74.6079L84.5217 74.0009C84.2772 73.9373 84.202 74.2262 84.1847 74.2929L82.7219 79.9166C82.4443 80.9836 82.3567 81.4117 82.4594 81.7469C82.622 82.2164 83.0608 82.3543 83.3053 82.4179C83.6303 82.5024 83.9398 82.4845 84.1845 82.4704C84.2578 82.4662 84.3253 82.4623 84.3857 82.4616C84.748 82.4372 84.9152 82.4332 85.093 82.4794C85.5598 82.6008 85.5784 82.9854 85.5321 83.1632C85.3356 83.919 83.5803 84.5541 81.9577 84.132C81.113 83.9123 80.3204 83.4926 79.9034 82.8145C79.3488 81.8997 79.6248 80.8538 79.9538 79.607C79.9795 79.5098 80.0054 79.4114 80.0314 79.3117L81.6098 73.2434L80.5651 72.9717C80.165 72.8676 80.1948 72.6618 80.241 72.484L80.3104 72.2172C80.418 71.8035 80.9472 71.5616 81.4774 71.3192C81.6024 71.2621 81.7274 71.2049 81.847 71.1455ZM81.0262 73.5861L80.4446 73.4348C80.1798 73.3659 79.9157 73.2266 79.7952 72.9424C79.6908 72.6964 79.7533 72.4578 79.7762 72.3702L79.7779 72.3635L79.8473 72.0968C79.9663 71.6392 80.3515 71.3649 80.6562 71.1909C80.8202 71.0974 80.9963 71.0138 81.1608 70.9379C81.2027 70.9186 81.2437 70.8999 81.2837 70.8816C81.4069 70.8253 81.5221 70.7726 81.634 70.717L81.6379 70.7151L82.7508 70.1746C82.8156 70.1429 82.8887 70.1059 82.9675 70.066C83.2011 69.9478 83.4856 69.8038 83.7598 69.6954C84.1153 69.5548 84.5833 69.4168 85.02 69.5304C85.1739 69.5704 85.3713 69.6607 85.5207 69.836C85.6886 70.0331 85.7642 70.3038 85.6867 70.6017L85.2579 72.2503L87.3288 72.7889C87.5329 72.842 87.8587 72.9414 88.0124 73.254C88.0877 73.4071 88.0956 73.5604 88.0868 73.6814C88.0783 73.7996 88.0508 73.9212 88.0217 74.0331L87.9523 74.2999C87.9199 74.4244 87.847 74.6712 87.6526 74.8619C87.4193 75.0909 87.0945 75.1645 86.7352 75.071L84.6198 74.5208L83.185 80.0371C83.0452 80.5746 82.9604 80.925 82.9209 81.1795C82.8837 81.4194 82.8948 81.5293 82.9145 81.5986C82.9912 81.8073 83.189 81.8932 83.4258 81.9548C83.6718 82.0188 83.8789 82.0071 84.107 81.9942C84.1897 81.9895 84.2752 81.9847 84.3662 81.9833C84.711 81.9602 84.9521 81.9484 85.2134 82.0163C85.5814 82.112 85.8259 82.3342 85.9448 82.6117C86.0526 82.8633 86.0388 83.116 85.9952 83.2837C85.9075 83.6208 85.6658 83.8854 85.4015 84.0789C85.1302 84.2774 84.7894 84.4356 84.4176 84.5475C83.6747 84.7711 82.7406 84.8301 81.8372 84.5951C80.9387 84.3614 80.006 83.8948 79.4958 83.0652L79.4942 83.0626C79.1231 82.4504 79.0643 81.8033 79.133 81.1594C79.1901 80.6237 79.3416 80.0507 79.4927 79.4788C79.518 79.3828 79.5434 79.287 79.5683 79.1913L81.0262 73.5861ZM100.819 73.9249L100.809 73.9314C100.809 73.9314 100.764 73.9674 100.687 74.103C100.614 74.23 100.532 74.4102 100.441 74.652C100.259 75.1353 100.058 75.8153 99.8282 76.7007L99.5911 77.612C99.5513 77.7651 99.5263 77.8719 99.5131 77.9512C99.5246 77.9545 99.5374 77.958 99.5516 77.9617L101.419 78.4474C102 78.5986 102.282 78.5949 102.443 78.5342C102.57 78.4867 102.713 78.3672 102.886 77.9498L102.888 77.9436C102.914 77.8854 102.939 77.8265 102.963 77.768C103.022 77.6295 103.08 77.4934 103.136 77.3742C103.215 77.2035 103.307 77.027 103.424 76.8779C103.545 76.723 103.708 76.5788 103.933 76.504C104.156 76.4299 104.385 76.4424 104.607 76.5C104.923 76.5823 105.182 76.7675 105.335 77.0703C105.473 77.3447 105.501 77.6685 105.486 77.9935C105.455 78.6398 105.234 79.5477 104.932 80.71C104.63 81.8718 104.381 82.7673 104.094 83.3416C103.95 83.6307 103.768 83.898 103.512 84.0678C103.23 84.2548 102.916 84.2872 102.603 84.2058C102.381 84.1482 102.175 84.0474 102.016 83.8739C101.856 83.6991 101.784 83.4936 101.753 83.2992C101.724 83.1119 101.73 82.9131 101.744 82.7255C101.753 82.5943 101.769 82.4474 101.785 82.2977C101.792 82.2345 101.799 82.1709 101.805 82.1078L101.806 82.1011C101.858 81.6522 101.791 81.4781 101.704 81.375C101.593 81.2436 101.349 81.1029 100.767 80.9517L98.9224 80.4719C98.9078 80.4681 98.8953 80.4652 98.8847 80.4631C98.87 80.4922 98.8503 80.5371 98.8266 80.6046C98.7854 80.7216 98.7425 80.8746 98.6891 81.0796L98.4637 81.9465C98.1437 83.1765 97.9061 84.0911 97.7823 84.7442C97.7203 85.0715 97.6917 85.309 97.6908 85.4749C97.6903 85.5803 97.7014 85.6276 97.7046 85.6406C97.7463 85.6925 97.8115 85.7501 97.9153 85.8272C97.9409 85.8462 97.9724 85.8687 98.0072 85.8937C98.0942 85.956 98.2017 86.0331 98.2881 86.1052C98.4196 86.215 98.5746 86.3681 98.6719 86.5815C98.7756 86.8092 98.7943 87.0619 98.7245 87.3304C98.6479 87.625 98.478 87.87 98.2043 88.027C97.9512 88.1721 97.6513 88.2176 97.348 88.2187C96.7483 88.2209 95.9245 88.0458 94.8867 87.7758C93.8411 87.5039 93.0274 87.2593 92.5011 86.9641C92.2339 86.8142 91.9912 86.6249 91.8414 86.3663C91.6804 86.0885 91.6584 85.7866 91.7358 85.4888C91.8152 85.1836 91.9902 84.9647 92.2232 84.8262C92.4336 84.7012 92.6658 84.6577 92.8393 84.6337C92.9281 84.6214 93.0209 84.612 93.0957 84.6038C93.1756 84.5951 93.2419 84.5869 93.3015 84.5762C93.3849 84.5612 93.4307 84.5448 93.455 84.533C93.4608 84.5231 93.4686 84.5093 93.4782 84.4909C93.5133 84.4239 93.5588 84.3244 93.6146 84.1872C93.7256 83.9141 93.8655 83.5213 94.0321 83.0051C94.3647 81.9743 94.7956 80.477 95.306 78.5147C95.8072 76.588 96.1377 75.1129 96.333 74.0915C96.4308 73.5801 96.4939 73.1872 96.5278 72.9106C96.5448 72.7718 96.5536 72.6686 96.5566 72.5975C96.557 72.5871 96.5573 72.578 96.5574 72.5701C96.5398 72.5472 96.5076 72.5126 96.4492 72.464C96.4015 72.4243 96.3471 72.3839 96.2806 72.3352L96.26 72.3202C96.2015 72.2774 96.1338 72.2278 96.0685 72.1761C95.9255 72.0626 95.746 71.9018 95.6284 71.6763C95.5007 71.4315 95.4655 71.1498 95.546 70.8404C95.6218 70.549 95.7923 70.3056 96.0759 70.1615C96.3308 70.032 96.6275 70.0093 96.9155 70.0241C97.4874 70.0537 98.2888 70.2525 99.3047 70.5168L106.24 72.3207C106.653 72.4282 107.006 72.461 107.287 72.4733C107.384 72.4776 107.466 72.4793 107.544 72.4809C107.585 72.4818 107.625 72.4826 107.665 72.4838C107.761 72.4865 107.898 72.4909 108.015 72.5214C108.363 72.612 108.653 72.8599 108.771 73.2351L108.773 73.2408L108.774 73.2465C108.873 73.5912 108.922 74.1179 108.925 74.6352C108.928 75.157 108.885 75.7324 108.769 76.1783C108.668 76.5639 108.498 76.9101 108.229 77.1428C107.941 77.3928 107.576 77.4778 107.202 77.3807C106.714 77.2537 106.496 76.8871 106.367 76.5508C106.309 76.4004 106.258 76.2307 106.21 76.0678L106.199 76.0295C106.145 75.8482 106.089 75.6603 106.015 75.4599L106.013 75.4552L106.011 75.4506C105.904 75.1418 105.492 74.7763 104.527 74.5253L102.971 74.1206C102.322 73.9516 101.823 73.8519 101.447 73.828C101.06 73.8032 100.895 73.8661 100.828 73.9179L100.819 73.9249ZM97.0257 72.4356C97.1012 72.6926 96.7752 74.7674 95.7691 78.6351C94.7458 82.5695 94.0351 84.663 93.7879 84.8834C93.617 85.029 93.3589 85.0568 93.0986 85.0848C92.7085 85.1268 92.3133 85.1694 92.1989 85.6093C91.9965 86.3873 92.8954 86.7635 95.0071 87.3127C97.0966 87.8562 98.0706 87.9435 98.2614 87.2099C98.381 86.75 98.0692 86.5267 97.7487 86.2973C97.589 86.183 97.4271 86.0671 97.3155 85.9197C97.0292 85.5604 97.3646 84.2712 98.0006 81.8261L98.2261 80.9592C98.44 80.1367 98.5538 79.8816 99.0428 80.0088L100.888 80.4887C102.066 80.7951 102.397 81.1659 102.281 82.1564C102.274 82.2258 102.267 82.293 102.26 82.3579C102.177 83.1356 102.128 83.5879 102.723 83.7427C103.523 83.9508 103.856 82.9457 104.469 80.5895C105.082 78.2333 105.287 77.1712 104.487 76.9631C103.892 76.8083 103.714 77.227 103.407 77.9468C103.382 78.0069 103.355 78.069 103.328 78.1331C102.946 79.0542 102.476 79.2169 101.298 78.9105L99.4311 78.4248C98.9643 78.3034 98.9546 78.1584 99.128 77.4916L99.3651 76.5802C99.8276 74.802 100.188 73.7804 100.536 73.5386C100.951 73.2194 101.78 73.3164 103.092 73.6575L104.648 74.0622C105.648 74.3224 106.274 74.7462 106.463 75.2939C106.548 75.5237 106.611 75.736 106.667 75.9265C106.824 76.4546 106.93 76.8156 107.323 76.9176C107.767 77.0332 108.132 76.7247 108.306 76.0579C108.508 75.2799 108.476 73.9426 108.314 73.3784C108.249 73.1717 108.095 73.0365 107.895 72.9845C107.821 72.9654 107.702 72.9629 107.542 72.9595C107.219 72.9527 106.73 72.9425 106.119 72.7838L99.1843 70.9799C97.117 70.4422 96.1941 70.2496 96.0091 70.9609C95.8817 71.4507 96.2179 71.6965 96.5427 71.9341C96.7485 72.0846 96.9498 72.2318 97.0257 72.4356ZM106.929 88.4051L106.933 88.4047C107.09 88.3927 107.183 88.3658 107.243 88.3362C107.297 88.3097 107.346 88.2711 107.398 88.1972C107.525 88.0185 107.638 87.6972 107.804 87.0579L108.545 84.2127C108.821 83.1486 108.979 82.493 109.036 82.0635C109.087 81.6803 109.039 81.5879 109.025 81.5684C109.013 81.5557 108.982 81.5289 108.908 81.4805C108.894 81.4713 108.879 81.4621 108.864 81.4526C108.841 81.4379 108.815 81.4224 108.787 81.4051C108.744 81.3785 108.694 81.348 108.644 81.3155C108.643 81.3146 108.641 81.3138 108.64 81.3129L108.634 81.3094C108.486 81.2168 108.268 81.0814 108.112 80.8987C107.92 80.6755 107.811 80.3739 107.905 80.0118C108.014 79.5902 108.349 79.3714 108.621 79.2568C108.894 79.142 109.202 79.0887 109.421 79.0526L109.423 79.0523C110.077 78.9467 110.767 78.916 111.351 78.9266C111.925 78.937 112.438 78.9879 112.728 79.0632C112.943 79.1193 113.133 79.2251 113.274 79.3918C113.413 79.5567 113.474 79.7447 113.496 79.9138C113.537 80.2259 113.451 80.5553 113.4 80.7529C113.091 81.9401 112.749 83.0934 112.412 84.2298L112.406 84.2507C112.07 85.3823 111.74 86.4968 111.446 87.6254C111.315 88.1303 111.235 88.4993 111.195 88.7747C111.155 89.0543 111.161 89.2055 111.177 89.2886L111.178 89.2902C111.195 89.3788 111.198 89.3916 111.517 89.5937L111.521 89.5965C111.666 89.691 111.882 89.8332 112.023 90.0515C112.188 90.3072 112.215 90.5999 112.133 90.9131C112.083 91.1082 111.985 91.322 111.782 91.4877C111.583 91.6497 111.337 91.7216 111.075 91.7445C110.574 91.7883 109.838 91.6648 108.763 91.3853C108.653 91.3567 108.531 91.3268 108.4 91.2949C107.921 91.1781 107.334 91.0351 106.867 90.8328C106.567 90.7028 106.254 90.5244 106.037 90.2629C105.798 89.9757 105.693 89.6085 105.801 89.1948C105.891 88.8468 106.106 88.629 106.369 88.5175C106.561 88.4361 106.774 88.4182 106.888 88.4087C106.902 88.4075 106.914 88.4065 106.925 88.4055L106.929 88.4051ZM106.97 88.8818C107.745 88.8223 107.944 88.4231 108.268 87.1783L109.008 84.3331C109.557 82.2215 109.674 81.5875 109.382 81.2505C109.3 81.1585 109.175 81.0815 109.041 80.9991C108.995 80.9709 108.947 80.942 108.901 80.9117C108.574 80.708 108.27 80.5102 108.368 80.1323C108.478 79.7099 109.053 79.5984 109.499 79.5247C110.738 79.3247 112.141 79.4049 112.607 79.5263C113.163 79.6709 113.047 80.2101 112.937 80.6324C112.628 81.819 112.286 82.9727 111.946 84.1182C111.611 85.2473 111.279 86.3684 110.983 87.5049C110.465 89.4957 110.678 89.6298 111.215 89.9694C111.23 89.9787 111.245 89.9881 111.26 89.9977C111.565 90.1956 111.78 90.3703 111.67 90.7927C111.532 91.3261 111.04 91.483 108.884 90.9222C108.759 90.8896 108.625 90.857 108.487 90.8232C107.398 90.5573 106.028 90.2225 106.264 89.3152C106.363 88.9365 106.667 88.9091 106.927 88.8858C106.941 88.8845 106.956 88.8832 106.97 88.8818ZM111.829 77.6824C110.503 77.3375 109.9 76.2655 110.156 75.2813C110.397 74.3548 111.537 73.4849 112.967 73.8568C114.067 74.1429 114.952 75.1489 114.645 76.3304C114.398 77.2809 113.279 78.0594 111.829 77.6824ZM113.84 90.6688C114.52 90.6084 114.813 90.3048 115.16 88.9711L115.877 86.1201L115.903 86.0166C116.41 83.9829 116.556 83.3964 116.252 83.0374C116.17 82.9454 116.045 82.8684 115.91 82.7861C115.864 82.7578 115.817 82.7289 115.771 82.6986C115.444 82.495 115.139 82.2971 115.238 81.9192C115.348 81.4969 115.928 81.3631 116.369 81.3116C117.551 81.1445 118.932 81.2189 119.355 81.3288C119.933 81.4791 119.833 81.9517 119.77 82.1962L119.573 82.952C119.556 83.0186 119.538 83.0853 119.627 83.1085C119.677 83.1215 119.751 83.1029 119.89 83.0344C119.931 83.0143 119.978 82.9898 120.031 82.9606C120.044 82.9536 120.057 82.9462 120.071 82.9386C120.151 82.8943 120.244 82.8404 120.355 82.7755C121.363 82.1835 122.189 82.0186 123.234 82.2904C124.412 82.5968 125.368 83.3914 125.827 84.365C126.471 85.7193 126.111 87.2868 125.701 88.7703L124.922 91.6764L124.904 91.7448C124.682 92.5951 124.537 93.1507 125.265 93.6406C125.285 93.6542 125.305 93.6677 125.326 93.6815C125.536 93.8216 125.771 93.9784 125.671 94.3631C125.447 95.2223 124.188 94.8873 122.983 94.5671C122.879 94.5394 122.775 94.5117 122.672 94.485C120.494 93.9184 120.057 93.5912 120.207 93.0132C120.306 92.6353 120.54 92.554 120.953 92.5189C120.979 92.5172 121.005 92.5157 121.03 92.5142C121.285 92.4994 121.501 92.4868 121.741 92.2256C121.972 91.9771 122.154 91.5499 122.484 90.2829C123.259 87.3043 123.289 86.4578 123.276 86.051C123.243 85.4491 123.067 84.5728 121.823 84.249C120.933 84.0177 120.022 84.4213 119.453 85.0566C118.912 85.6754 118.54 86.7414 117.875 89.2977C117.546 90.5647 117.525 90.9154 117.568 91.1164C117.643 91.4681 117.864 91.6206 118.13 91.7846C118.457 91.9883 118.65 92.1573 118.54 92.5796C118.396 93.1353 117.91 93.27 115.754 92.7091C115.68 92.6899 115.604 92.6705 115.527 92.6508C114.356 92.3503 112.906 91.9783 113.134 91.1022C113.232 90.7235 113.537 90.6961 113.797 90.6727C113.811 90.6714 113.826 90.6701 113.84 90.6688ZM126.163 88.8964L126.163 88.8977L125.385 91.7969L125.384 91.7986C125.26 92.2764 125.189 92.5508 125.204 92.7712C125.21 92.863 125.232 92.932 125.271 92.9953C125.312 93.0619 125.387 93.1458 125.532 93.2436L125.537 93.2465C125.546 93.2527 125.558 93.2605 125.572 93.2698C125.66 93.3278 125.841 93.4459 125.965 93.6009C126.151 93.8322 126.225 94.1317 126.134 94.4835C126.035 94.8635 125.794 95.1253 125.468 95.2636C125.172 95.3893 124.835 95.4014 124.526 95.3769C124.009 95.3359 123.396 95.1723 122.848 95.0264C122.747 94.9994 122.648 94.973 122.552 94.9481C121.471 94.6671 120.748 94.4288 120.315 94.1601C120.09 94.0206 119.894 93.8439 119.786 93.6022C119.674 93.3512 119.689 93.1037 119.744 92.8928C119.817 92.6116 119.964 92.3755 120.22 92.2249C120.443 92.0939 120.701 92.0601 120.912 92.0422L120.917 92.0418L120.921 92.0415C121.012 92.0354 121.057 92.0342 121.119 92.0286C121.171 92.024 121.204 92.0182 121.23 92.0111C121.267 92.0012 121.314 91.9828 121.389 91.9014L121.391 91.9C121.525 91.7557 121.684 91.456 122.021 90.1624C122.789 87.2087 122.808 86.4099 122.798 86.0718C122.783 85.7998 122.736 85.5269 122.595 85.2944C122.463 85.0769 122.217 84.8461 121.702 84.7121C121.029 84.537 120.292 84.8378 119.812 85.3733C119.597 85.6196 119.394 85.9788 119.16 86.6156C118.925 87.255 118.67 88.1407 118.338 89.4181C118.175 90.0472 118.092 90.4322 118.055 90.6781C118.018 90.923 118.032 90.9965 118.036 91.017C118.054 91.103 118.085 91.1498 118.124 91.1905C118.174 91.2434 118.247 91.2943 118.381 91.3775L118.383 91.3786C118.542 91.4777 118.764 91.6212 118.904 91.8461C119.068 92.1078 119.082 92.3997 119.003 92.7C118.952 92.8969 118.855 93.1144 118.651 93.2825C118.451 93.4478 118.202 93.5188 117.94 93.54C117.44 93.5804 116.705 93.4511 115.633 93.1722C115.562 93.1537 115.488 93.1348 115.412 93.1153C114.871 92.9767 114.215 92.8088 113.703 92.5734C113.41 92.439 113.111 92.2598 112.903 92.0079C112.676 91.7326 112.567 91.3795 112.671 90.9817C112.761 90.6337 112.976 90.4159 113.239 90.3044C113.431 90.223 113.644 90.2051 113.758 90.1956C113.772 90.1944 113.784 90.1934 113.795 90.1924L113.798 90.1921C114.059 90.1689 114.159 90.1124 114.252 89.9972C114.383 89.8348 114.523 89.5171 114.696 88.8524L114.697 88.8506L115.413 86.0045L115.43 85.9368C115.687 84.9041 115.844 84.2741 115.905 83.8533C115.96 83.4664 115.913 83.3795 115.893 83.3533C115.88 83.3398 115.849 83.3133 115.778 83.2674C115.742 83.2442 115.704 83.2205 115.657 83.1921C115.614 83.1654 115.564 83.135 115.514 83.1024C115.513 83.1015 115.511 83.1007 115.51 83.0998L115.504 83.0964C115.355 83.0037 115.138 82.8684 114.982 82.6856C114.79 82.4625 114.68 82.1608 114.775 81.7988C114.883 81.3813 115.215 81.156 115.489 81.0373C115.765 80.9176 116.073 80.8647 116.308 80.837C116.929 80.7496 117.594 80.7262 118.157 80.738C118.708 80.7495 119.206 80.7958 119.475 80.8657C119.682 80.9195 119.864 81.0118 120.006 81.1509C120.151 81.2919 120.231 81.4574 120.268 81.6174C120.333 81.8921 120.273 82.1579 120.24 82.2898C120.73 82.0147 121.204 81.8244 121.698 81.7377C122.238 81.6429 122.776 81.6768 123.354 81.8273C124.661 82.1671 125.736 83.0507 126.259 84.1605C126.99 85.6977 126.566 87.4376 126.163 88.8964ZM136.985 97.2081L136.983 97.2093C135.001 98.1533 133.581 98.0543 132.462 97.7632C128.817 96.8151 127.002 93.4047 127.893 89.9811C128.876 86.2026 132.277 84.1482 135.945 85.1023C137.475 85.5002 138.659 86.3162 139.353 87.4536C140.048 88.5932 140.22 90.002 139.826 91.5186C139.692 92.0318 139.504 92.5226 139.038 92.7259C138.814 92.8238 138.58 92.8291 138.369 92.8067C138.159 92.7844 137.925 92.729 137.68 92.6653L132.101 91.2141C132.077 91.2078 132.054 91.2018 132.032 91.196C131.884 91.1576 131.783 91.1312 131.701 91.1155C131.688 91.1518 131.673 91.2013 131.656 91.2684C131.241 92.8634 132.19 94.5914 133.885 95.0322C134.695 95.2429 135.538 95.1418 136.079 94.903L136.083 94.9013L136.557 94.6974C136.573 94.6896 136.59 94.6815 136.608 94.673C136.747 94.607 136.925 94.5222 137.107 94.4664C137.328 94.3987 137.594 94.3595 137.885 94.4351C138.368 94.5607 138.835 95.0556 138.661 95.7246C138.548 96.1574 138.106 96.6668 136.985 97.2081ZM132.388 88.9126C132.44 88.9325 132.512 88.9557 132.611 88.9814L136.278 89.9354C136.388 89.9639 136.469 89.98 136.529 89.9882C136.809 88.8013 136.106 87.6755 134.951 87.375C133.854 87.0899 132.724 87.7232 132.388 88.9126ZM144.665 93.6036L144.664 93.6058C144.428 94.1017 144.204 94.5149 143.961 94.7901C143.836 94.9318 143.685 95.0624 143.499 95.1409C143.301 95.224 143.094 95.2363 142.89 95.1833C142.686 95.1302 142.511 95.0184 142.379 94.8496C142.254 94.6902 142.186 94.5025 142.146 94.3178C142.068 93.9593 142.074 93.4892 142.109 92.9413L142.11 92.9385C142.317 90.0208 142.806 87.1275 143.432 84.72C143.645 83.9016 143.929 83.2327 144.388 82.8209C144.89 82.3703 145.512 82.2984 146.195 82.4761C146.878 82.6539 147.387 83.0198 147.605 83.6578C147.805 84.2409 147.728 84.9635 147.515 85.7819C146.859 88.3015 145.848 91.0828 144.665 93.6036ZM141.601 100.14C140.367 99.8192 139.638 98.5776 139.959 97.3438C140.286 96.084 141.525 95.382 142.755 95.7019C143.993 96.0238 144.7 97.2403 144.375 98.4925C144.056 99.7185 142.842 100.463 141.601 100.14ZM144.232 93.4004C145.403 90.9046 146.404 88.151 147.052 85.6615C147.468 84.061 147.231 83.2399 146.075 82.9392C144.919 82.6386 144.311 83.24 143.895 84.8404C143.276 87.2189 142.792 90.0832 142.587 92.9725C142.515 94.0693 142.588 94.6103 143.01 94.7202C143.433 94.83 143.76 94.393 144.232 93.4004ZM79.2379 48.9379C79.1685 49.2046 79.1725 49.3718 79.8171 49.5395L83.4848 50.4935C84.1516 50.6669 84.2365 50.5229 84.3059 50.2561C84.6875 48.7891 83.8207 47.377 82.3981 47.007C81.02 46.6485 79.6195 47.4708 79.2379 48.9379ZM133.482 63.0472C133.412 63.314 133.416 63.4811 134.061 63.6488L137.729 64.6028C138.395 64.7762 138.48 64.6322 138.55 64.3655C138.931 62.8984 138.065 61.4864 136.642 61.1163C135.264 60.7578 133.863 61.5802 133.482 63.0472ZM111.95 77.2193C110.838 76.9302 110.44 76.0908 110.619 75.4018C110.792 74.7349 111.668 74.0135 112.846 74.3199C113.78 74.5627 114.402 75.3653 114.182 76.2099C114.009 76.8768 113.172 77.5373 111.95 77.2193ZM131.911 88.8429C131.842 89.1096 131.846 89.2768 132.49 89.4444L136.158 90.3984C136.825 90.5719 136.91 90.4279 136.979 90.1611C137.361 88.6941 136.494 87.282 135.071 86.912C133.693 86.5535 132.293 87.3758 131.911 88.8429ZM139.363 91.3982C139.091 92.4429 138.779 92.4566 137.801 92.2023L132.222 90.751C132.198 90.7449 132.175 90.7389 132.153 90.7331C131.5 90.5626 131.355 90.5246 131.193 91.1479C130.713 92.9929 131.808 94.9865 133.764 95.4953C134.676 95.7323 135.629 95.6244 136.272 95.3408L136.754 95.1337C136.775 95.1237 136.796 95.1137 136.817 95.1036C137.121 94.9591 137.432 94.8117 137.764 94.8982C138.053 94.9733 138.29 95.2485 138.197 95.6042C138.14 95.8265 137.863 96.2528 136.777 96.7773C134.908 97.6676 133.605 97.5661 132.583 97.3001C129.204 96.4213 127.529 93.2802 128.356 90.1016C129.275 86.5673 132.424 84.6808 135.825 85.5654C138.692 86.3113 140.097 88.5752 139.363 91.3982ZM141.721 99.6771C140.743 99.4227 140.167 98.4423 140.422 97.4643C140.682 96.464 141.656 95.9106 142.634 96.165C143.613 96.4194 144.172 97.3717 143.912 98.372C143.657 99.3501 142.699 99.9315 141.721 99.6771Z" fill="black"/>
<path d="M95.1764 45.7069C95.8434 43.9027 94.4316 42.868 93.755 42.6178C93.0784 42.3677 91.9003 42.3826 91.3097 43.4651C90.3648 45.197 91.2847 46.0955 91.9763 46.6049C91.6814 47.1051 90.9045 48.2544 90.1561 48.8508C89.2205 49.5963 91.2442 50.3699 91.8277 50.0272C92.4113 49.6846 94.3426 47.9621 95.1764 45.7069Z" fill="#F8FFF6"/>
<path fill-rule="evenodd" clip-rule="evenodd" d="M93.672 42.8423C93.0539 42.6138 92.03 42.6443 91.5197 43.5797C91.0735 44.3976 91.0849 44.9807 91.252 45.4059C91.4246 45.8454 91.7809 46.1639 92.1182 46.4123L92.292 46.5404L92.1823 46.7265C91.8846 47.2314 91.0896 48.4129 90.3052 49.0379C90.2111 49.1129 90.1741 49.1726 90.1605 49.2105C90.1486 49.2436 90.1491 49.2737 90.1633 49.3102C90.1987 49.4006 90.3184 49.5218 90.5339 49.6355C90.7394 49.7439 90.9912 49.8236 91.2219 49.8559C91.4652 49.8899 91.6327 49.8643 91.7066 49.8209C91.9678 49.6676 92.577 49.1719 93.228 48.4269C93.8757 47.6856 94.5482 46.7159 94.952 45.6239C95.2569 44.7993 95.0853 44.1706 94.7724 43.7151C94.4508 43.247 93.9722 42.9532 93.672 42.8423ZM91.0997 43.3505C91.7705 42.121 93.1029 42.1217 93.8379 42.3935C94.2144 42.5326 94.78 42.8812 95.1667 43.4441C95.5621 44.0195 95.763 44.8103 95.4008 45.7898C94.9707 46.9531 94.2606 47.9723 93.5884 48.7417C92.9194 49.5074 92.2712 50.0443 91.9489 50.2336C91.7309 50.3615 91.4267 50.3677 91.1556 50.3298C90.8721 50.2901 90.567 50.194 90.3106 50.0587C90.0641 49.9286 89.8169 49.7381 89.7177 49.4845C89.6647 49.3489 89.656 49.199 89.7102 49.0484C89.7627 48.9026 89.8671 48.7751 90.007 48.6637C90.6426 48.1572 91.315 47.2133 91.66 46.6639C91.3433 46.4098 90.9951 46.0607 90.8066 45.5809C90.5771 44.9965 90.601 44.2645 91.0997 43.3505Z" fill="black"/>
</g>
<defs>
<filter id="filter0_d" x="0.0783691" y="0.850494" width="179.143" height="135.48" filterUnits="userSpaceOnUse" color-interpolation-filters="sRGB">
<feFlood flood-opacity="0" result="BackgroundImageFix"/>
<feColorMatrix in="SourceAlpha" type="matrix" values="0 0 0 0 0 0 0 0 0 0 0 0 0 0 0 0 0 0 127 0"/>
<feOffset/>
<feGaussianBlur stdDeviation="7.5"/>
<feColorMatrix type="matrix" values="0 0 0 0 0 0 0 0 0 0 0 0 0 0 0 0 0 0 0.1 0"/>
<feBlend mode="normal" in2="BackgroundImageFix" result="effect1_dropShadow"/>
<feBlend mode="normal" in="SourceGraphic" in2="effect1_dropShadow" result="shape"/>
</filter>
</defs>
</svg>
