<svg width="124" height="83" viewBox="0 0 124 83" fill="none" xmlns="http://www.w3.org/2000/svg">
<g filter="url(#filter0_d)">
<path d="M25.973 30.0135C26.1535 28.4469 27.3594 27.1945 28.9181 26.9548L87.4579 17.954C88.9827 17.7196 90.4811 18.5111 91.147 19.9027L107.243 53.5413C108.256 55.6592 106.938 58.1545 104.618 58.5113L25.7458 70.6383C23.4634 70.9892 21.4726 69.0724 21.737 66.7783L25.973 30.0135Z" fill="#F8FFF6" stroke="black"/>
<path d="M28.2564 31.595C28.4476 30.0396 29.6494 28.801 31.1983 28.5629L85.843 20.1609C87.3571 19.9281 88.8467 20.707 89.5194 22.0834L104.156 52.0293C105.192 54.1496 103.876 56.6669 101.543 57.0255L28.2261 68.2984C25.9327 68.6511 23.9372 66.7149 24.2204 64.4119L28.2564 31.595Z" fill="#6186FF" stroke="black"/>
<path d="M40.2466 39.4308C42.0529 42.4435 42.8126 44.1532 43.2981 44.0785C43.6654 44.022 43.7129 43.3701 43.9754 42.2822L44.7659 38.9508C45.3283 36.5813 45.5121 35.1563 46.0551 34.6699C46.3266 34.4267 46.6939 34.3702 46.6374 34.0028C46.5689 33.5568 46.0794 33.6052 44.9642 33.7766C43.8359 33.9501 43.3393 34.0399 43.4099 34.4991C43.4584 34.814 43.7268 34.813 44.0225 34.9018C44.3313 34.9886 44.4887 35.139 44.5331 35.4277C44.5997 35.8606 44.2504 37.2573 43.6567 39.6855C43.4498 40.5231 43.3286 40.958 43.1712 40.9823C43.0269 41.0044 42.7463 40.5775 42.2549 39.7398C40.9603 37.5215 40.254 36.2468 40.1975 35.8794C40.1672 35.6826 40.2409 35.5504 40.4518 35.4374C40.7728 35.2537 40.9726 35.1559 40.9303 34.8804C40.8597 34.4212 40.2804 34.4968 38.9815 34.6965C37.6695 34.8982 37.0942 35.0001 37.1648 35.4593C37.2254 35.8529 37.7068 35.752 37.956 35.8883C38.3678 36.1204 38.8511 36.9057 39.5484 38.2086C39.0264 40.4914 38.8416 41.648 38.6054 41.6843C38.4218 41.7125 38.1483 41.2442 37.6357 40.3561C36.3754 38.1861 35.6751 36.9508 35.6186 36.5834C35.5864 36.3735 35.6752 36.2524 35.873 36.1414C36.2071 35.9558 36.4069 35.8579 36.3645 35.5824C36.2939 35.1232 35.7146 35.1988 34.4157 35.3985C33.1038 35.6002 32.5285 35.7021 32.5991 36.1613C32.6576 36.5418 33.0623 36.4661 33.2904 36.5519C33.6335 36.6872 33.9039 37.0485 34.248 37.6268C35.3822 39.5878 36.5699 41.8092 38.0754 44.0892C38.3216 44.4676 38.4699 44.8209 38.7586 44.7765C39.0866 44.7261 39.1583 44.057 39.3935 43.0538L40.2466 39.4308Z" fill="#F8FFF6"/>
<path d="M48.4075 38.7938C48.027 38.8523 47.9866 38.7645 47.9624 38.6071C47.8293 37.7412 48.3844 36.9843 49.1979 36.8593C50.0375 36.7301 50.8206 37.2812 50.9538 38.1472C50.978 38.3046 50.9659 38.4005 50.5723 38.461L48.4075 38.7938ZM51.8569 39.0424C52.4342 38.9537 52.5967 38.875 52.5019 38.2583C52.2457 36.5921 50.9822 35.7119 49.2898 35.9722C47.2824 36.2808 46.043 38.0024 46.3637 40.0885C46.6522 41.9646 48.2597 43.2485 50.254 42.9419C50.8575 42.8491 51.572 42.6049 52.3603 41.7048C52.8165 41.178 52.866 40.8884 52.8458 40.7572C52.8135 40.5472 52.6248 40.4554 52.4543 40.4816C52.2443 40.5139 52.1091 40.6824 51.9718 40.8378L51.7639 41.0578C51.4874 41.3555 51.0059 41.631 50.468 41.7137C49.3135 41.8912 48.2761 41.0837 48.1086 39.9948C48.0501 39.6143 48.144 39.6133 48.5638 39.5488L51.8569 39.0424Z" fill="#F8FFF6"/>
<path d="M53.3818 33.315C53.4544 33.7874 53.7238 34.0548 54.2244 34.1659C54.3919 34.2073 54.4878 34.2194 54.5181 34.4162C54.5403 34.5605 54.4474 35.0046 54.1577 35.6535C54.0476 35.8987 53.9366 36.0501 53.9507 36.1419C53.9669 36.2469 54.1667 36.3236 54.4422 36.2812C54.6128 36.255 54.7601 35.9906 54.9691 35.5153C55.3375 34.6797 55.5465 34.0298 55.4436 33.3606C55.3226 32.5734 54.7807 32.1061 54.2034 32.1949C53.6392 32.2816 53.2971 32.764 53.3818 33.315Z" fill="#F8FFF6"/>
<path d="M58.4334 38.6356C58.6008 39.7246 58.6411 40.3362 58.5059 40.5047C58.4726 40.5501 58.3161 40.6682 58.2546 40.7045C58.085 40.8246 57.9316 40.875 57.9679 41.1112C58.0607 41.7147 59.0699 41.4655 59.7128 41.3667C60.2901 41.2779 61.2559 41.1831 61.1752 40.6583C61.1349 40.3959 60.8846 40.3404 60.7191 40.3121C60.5687 40.2949 60.486 40.2808 60.4063 40.1991C60.1368 39.9316 60.0138 38.9567 59.7657 37.3429L59.5579 35.9916C59.3239 34.4697 59.2644 33.8207 59.1555 32.9377C59.0859 32.3977 59.0768 32.2514 59.0506 32.0808C58.9881 31.6741 58.9406 31.4531 58.5864 31.5076C58.1403 31.5761 57.2138 32.0141 57.0513 32.0928C56.7637 32.231 56.3489 32.4156 56.4013 32.7568C56.4417 33.0192 56.6728 33.0373 56.8757 33.0464C57.1895 33.0788 57.2743 33.106 57.3046 33.1282C57.6729 33.3402 57.7909 34.5442 57.9865 35.8168L58.4334 38.6356Z" fill="#F8FFF6"/>
<path d="M62.437 38.02C62.6044 39.109 62.6448 39.7206 62.5095 39.8891C62.4762 39.9345 62.3198 40.0526 62.2582 40.0889C62.0886 40.209 61.9352 40.2594 61.9715 40.4956C62.0643 41.0991 63.0736 40.8499 63.7165 40.7511C64.2937 40.6623 65.2596 40.5675 65.1789 40.0427C65.1385 39.7803 64.8882 39.7248 64.7227 39.6965C64.5724 39.6794 64.4896 39.6652 64.4099 39.5835C64.1405 39.316 64.0174 38.3411 63.7693 36.7273L63.5615 35.376C63.3275 33.8541 63.268 33.2051 63.1591 32.3221C63.0895 31.7821 63.0804 31.6358 63.0542 31.4652C62.9917 31.0585 62.9443 30.8375 62.59 30.892C62.144 30.9606 61.2175 31.3985 61.055 31.4772C60.7673 31.6154 60.3525 31.8001 60.405 32.1412C60.4453 32.4036 60.6764 32.4218 60.8793 32.4309C61.1931 32.4632 61.2779 32.4904 61.3082 32.5127C61.6765 32.7246 61.7945 33.9286 61.9902 35.2013L62.437 38.02Z" fill="#F8FFF6"/>
<path d="M74.1636 33.8802C75.5291 33.415 76.156 32.5128 75.9724 31.3189C75.7465 29.8495 74.5788 29.1561 72.6371 29.4546C71.9942 29.5535 71.1909 29.7441 70.22 29.8934C69.6821 29.9761 69.1946 30.0376 68.7485 30.1062C68.1975 30.191 67.9593 30.3887 68.0097 30.7167C68.0763 31.1497 68.6586 31.0064 68.8827 31.2406C69.0098 31.3688 69.2872 32.5617 69.6342 34.8183C69.9892 37.1274 70.1022 38.3859 70.0123 38.5878C69.869 38.8784 69.2685 38.9036 69.3351 39.3365C69.3855 39.6645 69.7266 39.7867 70.3433 39.6919C70.8812 39.6092 71.3474 39.4972 71.741 39.4367C72.6201 39.3015 73.5001 39.2602 74.3398 39.1311C76.5046 38.7983 77.5583 37.6156 77.3061 35.9756C77.0802 34.5061 75.9722 33.7632 74.1636 33.8802ZM71.1683 33.6155C70.9283 32.0542 70.8305 31.156 70.9233 30.8865C70.9799 30.7301 71.2695 30.605 71.7812 30.5263C73.2375 30.3024 74.0156 30.7334 74.1931 31.888C74.3847 33.1344 73.6772 33.6863 72.0372 33.9385C71.7617 33.9809 71.4973 34.0081 71.2309 34.0222L71.1683 33.6155ZM71.3801 34.9931C71.7939 34.8892 72.1461 34.8216 72.4348 34.7772C74.2322 34.5008 75.1849 34.9318 75.3826 36.2176C75.5601 37.3722 74.8828 38.1209 73.4265 38.3449C72.6524 38.4639 72.1902 38.4275 72.055 38.2468C71.8512 37.9693 71.7453 37.3678 71.6 36.4231L71.3801 34.9931Z" fill="#F8FFF6"/>
<path d="M80.4242 33.8711C80.0438 33.9296 80.0034 33.8418 79.9792 33.6843C79.8461 32.8184 80.4012 32.0616 81.2146 31.9365C82.0543 31.8074 82.8374 32.3585 82.9706 33.2244C82.9948 33.3819 82.9826 33.4777 82.589 33.5382L80.4242 33.8711ZM83.8737 34.1197C84.451 34.0309 84.6135 33.9522 84.5187 33.3356C84.2625 31.6693 82.999 30.7892 81.3066 31.0494C79.2992 31.3581 78.0597 33.0797 78.3805 35.1657C78.6689 37.0419 80.2765 38.3257 82.2707 38.0191C82.8743 37.9263 83.5888 37.6822 84.3771 36.782C84.8333 36.2552 84.8828 35.9656 84.8626 35.8344C84.8303 35.6245 84.6416 35.5326 84.471 35.5589C84.2611 35.5911 84.1259 35.7597 83.9886 35.9151L83.7807 36.1351C83.5041 36.4327 83.0227 36.7082 82.4848 36.7909C81.3302 36.9684 80.2928 36.161 80.1254 35.072C80.0669 34.6916 80.1608 34.6906 80.5806 34.626L83.8737 34.1197Z" fill="#F8FFF6"/>
<path d="M37.8853 53.6292C37.7542 52.7764 37.499 51.0294 37.6898 50.7852C37.7564 50.6944 37.8573 50.652 37.9562 50.5965C38.2045 50.4643 38.3458 50.3351 38.3075 50.0858C38.2288 49.5742 37.3861 49.7709 36.4546 49.9141C35.3919 50.0775 34.6511 50.1511 34.7278 50.6497C34.7721 50.9383 34.979 50.9737 35.2293 51.0292C35.3272 51.0544 35.521 51.0918 35.6027 51.1867C35.6844 51.2815 35.8842 51.7074 36.5338 55.9321C36.7234 57.1653 36.8182 57.782 36.7324 58.1846C36.6627 58.5177 36.3942 59.0424 35.6726 59.1534C35.1085 59.2401 34.5595 58.9888 34.4849 58.5034C34.4647 58.3722 34.4899 58.2743 34.5041 58.1915C34.5253 58.0674 34.5384 57.8908 34.5182 57.7596C34.4638 57.4053 34.1318 56.9057 33.4889 57.0046C32.846 57.1034 32.5634 57.711 32.6622 58.3538C32.8155 59.3509 33.9226 60.3492 35.8512 60.0526C37.1894 59.8469 37.8818 59.1092 38.1473 58.652C38.5823 57.9002 38.4189 57.0121 38.2777 56.0937L37.8853 53.6292Z" fill="#F8FFF6"/>
<path d="M45.6157 58.0678C45.6439 58.2515 45.7196 58.4816 46.1001 58.4231C46.4412 58.3706 46.854 58.1729 47.623 57.7592C47.7966 57.6653 48.1327 57.4928 48.0863 57.191C48.048 56.9417 47.83 56.9215 47.6514 56.8953L47.5272 56.8741C47.1962 56.8175 47.1236 56.6944 47.0711 56.5279C47.0227 56.3876 46.9258 55.9324 46.8996 55.7619L46.7765 54.9615C46.6555 54.1743 46.5708 53.6233 46.476 52.6575C46.4357 52.2205 46.4205 52.0348 46.3943 51.8642C46.3318 51.4575 46.2753 51.2647 45.8817 51.3253C45.4487 51.3918 44.8119 51.7046 44.3991 51.9024C44.1115 52.0406 43.6967 52.2253 43.7491 52.5664C43.7874 52.8157 43.9903 52.8248 44.1689 52.851L44.4565 52.8874C44.8945 52.9409 44.9117 53.3143 44.9782 53.7473L45.0811 54.4164C45.2324 55.4004 45.4755 57.2433 44.0847 57.4571C42.8777 57.6427 42.6447 56.3892 42.4692 55.2478L42.4026 54.8148C42.2755 53.9883 42.1808 52.8478 42.1283 52.5067C42.0517 52.0082 41.8801 51.9405 41.6308 51.9789C41.4209 52.0111 40.9829 52.1322 40.1351 52.558C39.5245 52.8668 39.4549 53.0252 39.4851 53.222C39.5275 53.4975 39.7243 53.4673 39.9312 53.5026L40.1926 53.543C40.6326 53.6097 40.6618 53.8872 40.7314 54.4271L40.8837 55.505C41.036 56.5828 41.1903 57.6738 41.9048 58.3026C42.2004 58.566 42.7898 58.9052 43.6951 58.766C44.1018 58.7035 44.7326 58.5259 45.21 57.875L45.2877 57.769C45.3321 57.7085 45.4189 57.5743 45.4845 57.5642C45.5108 57.5601 45.539 57.5692 45.543 57.5955L45.6157 58.0678Z" fill="#F8FFF6"/>
<path d="M51.3997 53.2837C50.8477 53.1 49.9878 52.9233 49.891 52.2936C49.8345 51.9262 50.0324 51.466 50.6359 51.3732C51.2656 51.2764 51.641 51.6216 51.9034 51.9304C52.0992 52.1555 52.3333 52.4553 52.6482 52.4068C52.7794 52.3867 53.0337 52.2938 52.9651 51.8478C52.8763 51.2705 52.2951 50.2854 51.7441 50.3702C51.6129 50.3903 51.404 50.5165 51.2697 50.6043C51.0931 50.5911 50.755 50.576 50.2434 50.6546C49.0888 50.8321 48.248 51.7404 48.4336 52.9474C48.6031 54.0495 49.47 54.3594 50.5155 54.6955L50.9393 54.8318C51.5479 55.0337 52.1272 55.1327 52.2179 55.7231C52.2825 56.1429 52.0846 56.6031 51.3762 56.712C51.1138 56.7524 50.5002 56.7796 50.0168 56.3435C49.8917 56.2285 49.7907 56.0963 49.6919 55.9772C49.5092 55.7501 49.3074 55.4857 48.9925 55.5341C48.7301 55.5744 48.6393 55.857 48.6917 56.1981C48.7643 56.6704 49.177 57.5202 49.5494 57.7584C49.6705 57.8472 49.7906 57.8422 49.8431 57.8341C50.0792 57.7978 50.1469 57.6263 50.2781 57.6061C50.4355 57.5819 50.8533 57.6788 51.4831 57.582C52.8213 57.3762 53.8427 56.3328 53.6329 54.9683C53.4816 53.9843 52.7843 53.7289 51.8518 53.4291L51.3997 53.2837Z" fill="#F8FFF6"/>
<path d="M56.2599 49.9176L56.0683 48.6712C56.0421 48.5006 55.8897 48.4703 55.7847 48.4865C55.4567 48.5369 55.1347 48.9759 54.8955 49.2544L54.4282 49.7963C54.1668 50.1051 53.8115 50.4149 53.8579 50.7167L53.8821 50.8741C53.8983 50.9791 53.9296 51.0951 54.1657 51.0588L54.7823 50.964L55.3331 54.5457C55.4581 55.3592 55.5237 56.0475 56.0666 56.434C56.443 56.6985 56.9597 56.7399 57.4583 56.6633C58.416 56.516 59.2023 55.7773 59.1337 55.3312C59.1176 55.2263 59.0197 55.0265 58.7442 55.0688C58.6392 55.085 58.5514 55.1253 58.3647 55.2212C58.2264 55.2827 58.0306 55.4068 57.7813 55.4452C57.637 55.4674 57.3726 55.4946 57.1788 55.2826C57.0477 55.1282 56.9962 54.881 56.8994 54.2512L56.389 50.9318C56.383 50.8925 56.3567 50.7219 56.5011 50.6997L57.8787 50.4879C58.1411 50.4476 58.137 50.2467 58.1169 50.1155L58.0927 49.9581C58.0543 49.7088 58.0049 49.6493 57.7556 49.6876L56.2599 49.9176Z" fill="#F8FFF6"/>
<path d="M65.4261 49.6364C65.1506 49.6787 65.1122 49.604 65.0517 49.2104L64.969 48.6725C64.8076 47.6229 64.7653 46.9982 64.8945 46.7903C65.0418 46.5259 65.5041 46.3877 66.2782 46.2687L67.1965 46.1275C67.7869 46.0367 68.2159 46.1185 68.4419 46.3658C68.8102 46.7523 68.9545 47.0793 69.2694 47.0309C69.5318 46.9906 69.6549 46.7433 69.5944 46.3497C69.5238 45.8905 69.2009 45.1881 68.986 44.9257C68.9043 44.8308 68.7912 44.7945 68.6731 44.8126C68.5419 44.8328 68.223 45.0295 67.6851 45.1123L63.5917 45.7416C62.3715 45.9292 61.8376 46.0382 61.9022 46.458C61.9748 46.9304 62.5551 46.774 62.7791 47.0081C62.878 47.1272 63.1797 48.303 63.5307 50.5859C63.8878 52.9081 63.9896 54.1817 63.9088 54.3553C63.7655 54.6459 63.165 54.6711 63.2316 55.1041C63.3022 55.5633 63.8653 55.5573 65.1117 55.3656C66.345 55.176 66.8819 54.9994 66.8153 54.5665C66.7528 54.1598 66.2976 54.2566 66.0181 54.0981C65.784 53.973 65.667 53.212 65.4451 51.7688L65.3664 51.2571C65.2918 50.7717 65.2938 50.6102 65.5824 50.5659L66.6714 50.3984C67.3667 50.2915 67.6271 50.4126 67.7926 50.9647C67.95 51.4643 68.0095 51.764 68.39 51.7055C68.8623 51.6329 68.8088 51.0233 68.595 49.6326C68.3812 48.2419 68.247 47.6313 67.7747 47.7039C67.3942 47.7624 67.4275 48.0662 67.4274 48.59C67.4355 49.1662 67.2235 49.36 66.5282 49.4669L65.4261 49.6364Z" fill="#F8FFF6"/>
<path d="M70.672 45.4722C70.7345 45.879 71.1382 46.2332 71.7942 46.1324C72.5158 46.0214 72.8085 45.4795 72.748 45.0859C72.6713 44.5873 72.1577 44.3037 71.6066 44.3884C70.9113 44.4953 70.6115 45.0786 70.672 45.4722ZM72.1186 52.2603C72.2316 52.9951 72.2174 53.2524 71.8198 53.4613C71.6835 53.5359 71.5079 53.6167 71.5442 53.8528C71.637 54.4563 72.6462 54.2072 73.3022 54.1063C74.5749 53.9106 74.8 53.7149 74.7515 53.4C74.7132 53.1507 74.5588 53.1073 74.3519 53.0719C73.9664 53.0103 73.8201 53.0194 73.6345 51.8124C73.4267 50.461 73.3128 49.1087 73.0989 47.718C73.0606 47.4687 72.9991 47.1558 72.6711 47.2062C72.3956 47.2486 71.6326 47.5271 71.021 47.9166C70.8009 48.0579 70.5214 48.2486 70.5597 48.4979C70.594 48.7209 70.8009 48.7562 71.0209 48.7896C71.145 48.8108 71.2671 48.8188 71.3539 48.8592C71.586 48.9713 71.6688 49.3346 71.8604 50.581L72.1186 52.2603Z" fill="#F8FFF6"/>
<path d="M77.0832 46.9845C77.061 46.8402 77.0055 46.5667 76.6644 46.6191C76.4151 46.6574 75.6653 46.9339 75.0758 47.2931C74.8538 47.4213 74.5763 47.6251 74.6146 47.8744C74.6489 48.0974 74.8558 48.1328 75.0758 48.1661C75.1999 48.1873 75.322 48.1954 75.4088 48.2358C75.656 48.3589 75.7105 48.7131 75.9153 49.9575L76.1866 51.6349C76.3076 52.4221 76.2218 52.6501 75.8747 52.8378C75.7384 52.9125 75.5628 52.9932 75.5991 53.2294C75.6838 53.7804 76.6487 53.5918 77.3571 53.4828C78.6298 53.2872 78.8569 53.1045 78.8064 52.7765C78.7681 52.5272 78.6268 52.4818 78.4068 52.4485C78.2282 52.4222 78.0758 52.3919 77.9557 52.2224C77.8871 52.1255 77.8175 51.9347 77.7025 51.1869C77.4705 49.6781 77.4241 49.0272 77.5695 48.575C77.726 48.1078 78.1176 47.685 78.6424 47.6043C79.3771 47.4913 79.6707 47.9162 79.8261 48.2281C79.926 48.441 80.1036 48.8972 80.3739 50.6553C80.4889 51.4031 80.4899 51.6716 80.4243 51.8563C80.3496 52.0692 80.2224 52.1156 80.073 52.1923C79.8621 52.3053 79.7561 52.4022 79.7904 52.6252C79.8429 52.9663 80.1497 53.04 81.4354 52.8423C82.1964 52.7253 83.0835 52.6427 82.9988 52.0916C82.9604 51.8423 82.7707 51.8312 82.6183 51.8009C82.1066 51.705 82.0673 51.3619 81.9866 50.8371L81.7355 49.1164C81.6134 48.2353 81.446 47.3209 80.7941 46.7497C80.3279 46.3379 79.6386 46.135 78.9432 46.2419C78.3266 46.3367 77.9259 46.6132 77.5262 47.1581C77.3375 47.4154 77.2688 47.4931 77.2164 47.5012C77.1639 47.5093 77.1578 47.4699 77.1518 47.4306L77.0832 46.9845Z" fill="#F8FFF6"/>
<path d="M85.4927 47.9209C85.1122 47.9794 85.0718 47.8916 85.0476 47.7341C84.9145 46.8682 85.4696 46.1114 86.2831 45.9863C87.1227 45.8572 87.9058 46.4083 88.039 47.2742C88.0632 47.4316 88.0511 47.5275 87.6575 47.588L85.4927 47.9209ZM88.9421 48.1695C89.5194 48.0807 89.6819 48.002 89.5871 47.3854C89.3309 45.7191 88.0674 44.839 86.375 45.0992C84.3676 45.4078 83.1282 47.1294 83.4489 49.2155C83.7374 51.0917 85.3449 52.3755 87.3392 52.0689C87.9427 51.9761 88.6572 51.732 89.4455 50.8318C89.9017 50.305 89.9512 50.0154 89.931 49.8842C89.8987 49.6743 89.71 49.5824 89.5395 49.6086C89.3295 49.6409 89.1943 49.8094 89.057 49.9649L88.8491 50.1848C88.5726 50.4825 88.0911 50.758 87.5532 50.8407C86.3987 51.0182 85.3613 50.2108 85.1938 49.1218C85.1353 48.7413 85.2292 48.7403 85.649 48.6758L88.9421 48.1695Z" fill="#F8FFF6"/>
<path d="M91.5371 50.3625C91.6258 50.9398 92.1556 51.3284 92.7329 51.2396C93.3102 51.1508 93.6857 50.6231 93.5969 50.0458C93.5061 49.4554 92.9915 49.0779 92.4142 49.1666C91.8369 49.2554 91.4463 49.7721 91.5371 50.3625ZM92.2831 48.3138C92.5323 48.2755 92.606 47.9687 92.6293 47.3339C92.6799 45.7414 92.5811 44.051 92.3552 42.5815C92.21 41.6369 91.8961 41.2554 91.2139 41.3603C90.5317 41.4652 90.3469 41.9233 90.4922 42.868C90.708 44.2718 91.1065 45.9027 91.6584 47.4832C91.8713 48.0817 92.0338 48.3522 92.2831 48.3138Z" fill="#F8FFF6"/>
<path fill-rule="evenodd" clip-rule="evenodd" d="M43.9753 42.2821C43.9201 42.5111 43.8744 42.7208 43.8332 42.9097C43.6787 43.6181 43.588 44.0338 43.298 44.0784C42.9532 44.1314 42.47 43.2843 41.5718 41.7094C41.2539 41.1522 40.8842 40.504 40.4502 39.7723C40.3839 39.6604 40.316 39.5465 40.2466 39.4307L39.3934 43.0537C39.3491 43.243 39.3105 43.4204 39.2749 43.584C39.122 44.2873 39.0246 44.7355 38.7585 44.7764C38.5209 44.8129 38.3784 44.58 38.1981 44.2854C38.1594 44.2221 38.1189 44.156 38.0753 44.089C36.9436 42.3751 35.9914 40.6943 35.1066 39.1323C34.8144 38.6164 34.5295 38.1135 34.248 37.6267C33.9039 37.0484 33.6334 36.6871 33.2903 36.5518C33.2287 36.5286 33.1542 36.5172 33.0771 36.5054C32.8688 36.4736 32.6417 36.4389 32.599 36.1612C32.5284 35.702 33.1037 35.6001 34.4157 35.3984C35.7146 35.1987 36.2938 35.123 36.3645 35.5822C36.4051 35.8464 36.223 35.9472 35.9135 36.1187C35.9002 36.1261 35.8867 36.1336 35.8729 36.1413C35.6751 36.2523 35.5863 36.3734 35.6186 36.5833C35.675 36.9507 36.3753 38.186 37.6356 40.3559C38.1482 41.2441 38.4217 41.7124 38.6054 41.6841C38.7867 41.6562 38.9377 40.9682 39.2342 39.6174C39.3239 39.2085 39.427 38.7389 39.5483 38.2085C38.851 36.9055 38.3677 36.1203 37.956 35.8882C37.8741 35.8434 37.7672 35.8242 37.6583 35.8047C37.4359 35.7648 37.2054 35.7235 37.1648 35.4592C37.0942 35 37.6694 34.8981 38.9814 34.6964C40.2803 34.4967 40.8596 34.421 40.9302 34.8802C40.9704 35.1418 40.7923 35.2433 40.4995 35.41C40.4839 35.4189 40.468 35.428 40.4518 35.4373C40.2408 35.5503 40.1672 35.6825 40.1974 35.8793C40.2539 36.2466 40.9602 37.5213 42.2549 39.7397C42.7463 40.5774 43.0268 41.0043 43.1711 40.9821C43.3286 40.9579 43.4497 40.5229 43.6567 39.6853C43.6818 39.5823 43.7066 39.4811 43.7309 39.3818C44.2792 37.1404 44.5968 35.8421 44.533 35.4275C44.4887 35.1389 44.3312 34.9885 44.0224 34.9017C43.9683 34.8854 43.9151 34.8722 43.864 34.8594C43.6358 34.8026 43.4494 34.7562 43.4099 34.499C43.3393 34.0398 43.8358 33.95 44.9641 33.7765C46.0793 33.605 46.5688 33.5566 46.6374 34.0027C46.6769 34.2599 46.5088 34.3647 46.3112 34.4878C46.2265 34.5406 46.1364 34.5968 46.055 34.6697C45.6374 35.0438 45.4322 35.9732 45.1039 37.4605C45.0053 37.9069 44.8957 38.4036 44.7659 38.9507L43.9753 42.2821ZM42.4935 39.6C42.7398 40.0197 42.9267 40.3253 43.0679 40.5222C43.0861 40.5476 43.103 40.5704 43.1186 40.5908C43.1237 40.5773 43.1289 40.5628 43.1343 40.5473C43.205 40.3457 43.2839 40.0412 43.3881 39.6192C43.4132 39.5168 43.4378 39.4162 43.4619 39.3175C43.7244 38.2447 43.9328 37.3927 44.0722 36.7497C44.1483 36.3985 44.2026 36.115 44.2339 35.8951C44.2663 35.6671 44.2696 35.534 44.2597 35.4696C44.2443 35.369 44.2139 35.3174 44.1802 35.2833C44.1426 35.2453 44.0761 35.204 43.9476 35.1679L43.9452 35.1672L43.9429 35.1665C43.8955 35.1523 43.8516 35.1414 43.8029 35.1293C43.783 35.1243 43.7622 35.1191 43.74 35.1134C43.6708 35.0957 43.5876 35.0727 43.5087 35.0367C43.4269 34.9994 43.3399 34.9439 43.2688 34.8554C43.1968 34.7657 43.1547 34.6592 43.1365 34.541C43.1107 34.3729 43.1335 34.2035 43.2395 34.0556C43.3382 33.9178 43.4855 33.8329 43.6356 33.7735C43.928 33.6576 44.3719 33.5878 44.9221 33.5032C45.4674 33.4193 45.9057 33.3569 46.2159 33.3824C46.3751 33.3955 46.5382 33.4337 46.6713 33.535C46.8138 33.6435 46.8853 33.7957 46.9107 33.9607C46.9324 34.1018 46.9153 34.2337 46.8551 34.3526C46.7978 34.4659 46.7123 34.5452 46.6368 34.6028C46.5778 34.6477 46.5093 34.6903 46.4523 34.7258C46.4396 34.7337 46.4274 34.7413 46.416 34.7485C46.3469 34.792 46.2893 34.8311 46.2395 34.8757C46.1463 34.9592 46.0526 35.0982 45.9578 35.3195C45.8637 35.5393 45.7763 35.8212 45.6854 36.1732C45.5867 36.5558 45.489 36.9985 45.3757 37.5122C45.2775 37.9572 45.1676 38.4557 45.0349 39.0146L44.2442 42.3469C44.1931 42.5588 44.1484 42.7629 44.1072 42.9514C44.0479 43.2225 43.9956 43.4615 43.9412 43.6455C43.8935 43.8064 43.8349 43.9619 43.7485 44.0854C43.6558 44.2178 43.5233 44.3235 43.34 44.3517C43.1899 44.3748 43.0566 44.3235 42.9521 44.2563C42.8487 44.1899 42.7518 44.0945 42.6599 43.9867C42.4759 43.7707 42.2688 43.4522 42.0304 43.0545C41.8284 42.7175 41.597 42.3119 41.3312 41.8458C41.281 41.7578 41.2296 41.6677 41.1769 41.5755C40.9339 41.1499 40.6628 40.6775 40.3587 40.161L39.6627 43.1168C39.6214 43.2931 39.584 43.4647 39.5487 43.6267C39.488 43.9057 39.4335 44.1559 39.376 44.3507C39.3297 44.5074 39.2733 44.659 39.1937 44.7795C39.1106 44.9052 38.9849 45.0214 38.8005 45.0497C38.5067 45.0949 38.3091 44.9192 38.185 44.7639C38.1218 44.6849 38.0638 44.5944 38.0102 44.5079C37.9932 44.4803 37.9766 44.4532 37.9601 44.4263C37.9224 44.3647 37.8852 44.304 37.8441 44.2407C36.7068 42.5184 35.7482 40.8261 34.8626 39.2626C34.5716 38.7489 34.2884 38.2491 34.0094 37.7666C33.8394 37.481 33.6959 37.2634 33.5586 37.1028C33.4231 36.9444 33.3053 36.8556 33.1912 36.81C33.1653 36.8005 33.1256 36.7927 33.0522 36.7814C33.0463 36.7805 33.0402 36.7796 33.0338 36.7786C32.9708 36.769 32.8858 36.7561 32.8047 36.7328C32.7128 36.7064 32.6024 36.6607 32.5081 36.5701C32.4094 36.4754 32.3484 36.3509 32.3257 36.2032C32.298 36.023 32.3331 35.8471 32.4563 35.6994C32.5673 35.5664 32.7283 35.4834 32.8949 35.4231C33.2254 35.3036 33.7298 35.224 34.3737 35.125C35.0109 35.0271 35.5128 34.9519 35.8625 34.9669C36.0388 34.9745 36.2168 35.0054 36.3624 35.0991C36.5238 35.2029 36.6101 35.36 36.6378 35.5402C36.6539 35.6448 36.6493 35.75 36.6132 35.852C36.5772 35.9536 36.5167 36.0329 36.4503 36.0959C36.3436 36.1973 36.1915 36.2813 36.0531 36.3576C36.0378 36.3661 36.0227 36.3744 36.0078 36.3827C35.9269 36.4282 35.9027 36.4575 35.8956 36.4691L35.8953 36.4695C35.893 36.4732 35.8837 36.4878 35.8919 36.5413C35.8994 36.5899 35.9374 36.7038 36.0313 36.9064C36.1209 37.0999 36.2499 37.3506 36.4187 37.6618C36.7562 38.2836 37.2443 39.1314 37.8748 40.217L37.8752 40.2177C38.1339 40.6661 38.3239 40.9933 38.4713 41.2063C38.4961 41.2422 38.5186 41.2732 38.5388 41.2996C38.5857 41.1693 38.6384 40.9802 38.701 40.7233C38.7761 40.4147 38.8605 40.0299 38.963 39.5631C39.0469 39.1808 39.1428 38.7435 39.2556 38.2479C38.9291 37.6404 38.6547 37.1588 38.4151 36.8004C38.1584 36.4164 37.9659 36.212 37.822 36.1301C37.7996 36.1182 37.7593 36.1054 37.6826 36.0904C37.6656 36.0871 37.6451 36.0834 37.6223 36.0793C37.5617 36.0684 37.4856 36.0547 37.4205 36.0379C37.3252 36.0134 37.2053 35.9719 37.1017 35.8854C36.9897 35.792 36.9163 35.6626 36.8914 35.5012C36.8637 35.3209 36.8988 35.145 37.022 34.9974C37.1331 34.8644 37.2941 34.7813 37.4606 34.7211C37.7912 34.6016 38.2956 34.522 38.9394 34.423C39.5767 34.325 40.0785 34.2499 40.4282 34.2649C40.6045 34.2725 40.7825 34.3034 40.9282 34.3971C41.0896 34.5009 41.1758 34.658 41.2035 34.8382C41.2196 34.9428 41.215 35.0476 41.1794 35.1491C41.144 35.2502 41.0845 35.3292 41.0193 35.3921C40.916 35.4919 40.7694 35.575 40.6383 35.6493C40.6216 35.6588 40.6052 35.6681 40.5891 35.6773L40.5858 35.6792L40.5824 35.681C40.5017 35.7242 40.4798 35.7543 40.4743 35.764C40.4717 35.7685 40.4626 35.7843 40.4707 35.8372C40.4783 35.8864 40.517 36.003 40.612 36.2102C40.7029 36.4082 40.8337 36.6654 41.0054 36.9843C41.3483 37.6215 41.8464 38.491 42.4935 39.6ZM38.65 41.4216C38.6526 41.423 38.6539 41.4241 38.6539 41.4241C38.6539 41.4241 38.6527 41.4235 38.65 41.4216ZM43.0417 40.7512C43.0417 40.7512 43.0427 40.7498 43.0447 40.7478C43.0427 40.7503 43.0417 40.7512 43.0417 40.7512ZM52.5693 41.8857L52.5683 41.8868C51.7324 42.8413 50.9564 43.1135 50.2959 43.2151C48.1444 43.5459 46.401 42.1511 46.0903 40.1304C45.7474 37.9001 47.0827 36.0316 49.2477 35.6987C50.1506 35.5599 50.9654 35.7221 51.5941 36.1669C52.224 36.6126 52.6375 37.321 52.7752 38.2161C52.8217 38.519 52.8341 38.8226 52.6333 39.0371C52.5366 39.1404 52.4139 39.1967 52.2966 39.2331C52.18 39.2693 52.0434 39.2934 51.8989 39.3156L48.6058 39.8219C48.5915 39.8241 48.5778 39.8262 48.5648 39.8282C48.4778 39.8415 48.4182 39.8507 48.3708 39.8612C48.3725 39.8833 48.3758 39.913 48.3819 39.9526C48.5267 40.8941 49.4257 41.594 50.4259 41.4402C50.9041 41.3667 51.3283 41.1202 51.5612 40.8694L51.5629 40.8677L51.7675 40.6512C51.7745 40.6433 51.7817 40.635 51.7892 40.6265C51.8477 40.5597 51.9227 40.474 52.0067 40.4026C52.1084 40.3162 52.2407 40.2345 52.4122 40.2081C52.6973 40.1643 53.0584 40.3201 53.1191 40.715C53.1583 40.9704 53.0401 41.342 52.5693 41.8857ZM51.9718 40.8377C51.9807 40.8276 51.9896 40.8174 51.9986 40.8072C52.127 40.6609 52.258 40.5116 52.4542 40.4815C52.6248 40.4552 52.8135 40.5471 52.8457 40.757C52.8659 40.8882 52.8164 41.1779 52.3602 41.7046C51.572 42.6048 50.8574 42.8489 50.2539 42.9417C48.2597 43.2484 46.6521 41.9645 46.3636 40.0883C46.0429 38.0023 47.2824 36.2807 49.2897 35.972C50.9822 35.7118 52.2456 36.5919 52.5018 38.2582C52.5966 38.8748 52.4341 38.9535 51.8569 39.0423L48.5638 39.5486C48.5499 39.5507 48.5363 39.5528 48.5231 39.5548C48.1379 39.6136 48.052 39.6268 48.1086 39.9946C48.276 41.0836 49.3134 41.8911 50.468 41.7135C51.0059 41.6308 51.4873 41.3554 51.7638 41.0577L51.9718 40.8377ZM48.2314 38.5349C48.2636 38.5335 48.3071 38.5293 48.3654 38.5204L50.5302 38.1875C50.5948 38.1776 50.6417 38.1675 50.6753 38.1582C50.5524 37.4642 49.9216 37.0276 49.2398 37.1324C48.5927 37.2319 48.1376 37.8268 48.2314 38.5349ZM53.4465 34.0708C53.2576 33.8809 53.1516 33.6378 53.1084 33.3569C53.0008 32.6574 53.4437 32.0317 54.1613 31.9214C54.9425 31.8013 55.5817 32.4394 55.7169 33.3185C55.8329 34.073 55.592 34.7876 55.2221 35.6267L54.9695 35.5153L55.2222 35.6264L55.2221 35.6267C55.1177 35.8641 55.0207 36.068 54.9226 36.2179C54.8329 36.355 54.6957 36.5219 54.4842 36.5544C54.3147 36.5805 54.152 36.5729 54.0166 36.5306C53.9046 36.4956 53.7107 36.4006 53.6773 36.1838C53.6642 36.0986 53.6829 36.0236 53.6988 35.975C53.7154 35.9243 53.7388 35.8744 53.7599 35.832C53.7759 35.7998 53.7917 35.7694 53.8075 35.7389C53.8387 35.6788 53.8704 35.6179 53.9052 35.5403L53.9051 35.5406L54.1576 35.6533L53.9052 35.5403C54.0452 35.2267 54.1355 34.9673 54.1877 34.7735C54.2139 34.6764 54.2298 34.5986 54.2379 34.5406C54.2451 34.4891 54.2447 34.4642 54.2446 34.4588C54.2445 34.4575 54.2445 34.4573 54.2447 34.4581C54.2445 34.4573 54.2444 34.4565 54.2443 34.4558C54.2462 34.4563 54.248 34.4568 54.2497 34.4573C54.252 34.458 54.2542 34.4586 54.2562 34.4592C54.269 34.4631 54.2736 34.4653 54.2736 34.4653C54.2736 34.4653 54.2714 34.4642 54.2681 34.462C54.2656 34.4603 54.2629 34.4582 54.26 34.4557C54.2572 34.4533 54.2542 34.4505 54.2513 34.4473C54.2454 34.4408 54.2416 34.4348 54.2394 34.4308C54.2384 34.4291 54.238 34.4281 54.238 34.4281C54.238 34.4281 54.2411 34.4357 54.2443 34.4558C54.2366 34.4537 54.2276 34.4513 54.2168 34.4486C54.2083 34.4465 54.1995 34.4443 54.1896 34.4419L54.1865 34.4412C54.1786 34.4393 54.17 34.4372 54.1612 34.435C54.1622 34.4352 54.1633 34.4355 54.1644 34.4357L54.2243 34.1657L54.158 34.4342C54.159 34.4345 54.1601 34.4347 54.1612 34.435C53.8776 34.3716 53.6327 34.2581 53.4465 34.0708ZM58.5058 40.5045C58.6411 40.336 58.6007 39.7244 58.4333 38.6355L57.9865 35.8167C57.9579 35.6306 57.9309 35.446 57.9046 35.2657C57.7509 34.2132 57.619 33.3091 57.3045 33.1281C57.2742 33.1059 57.1894 33.0786 56.8756 33.0463C56.6727 33.0372 56.4416 33.019 56.4013 32.7566C56.3507 32.428 56.7338 32.2446 57.0191 32.108C57.03 32.1028 57.0407 32.0977 57.0513 32.0926C57.2138 32.0139 58.1403 31.576 58.5863 31.5074C58.9406 31.4529 58.988 31.674 59.0505 32.0807C59.063 32.1619 59.0716 32.2377 59.0847 32.3531C59.0991 32.48 59.119 32.6548 59.1554 32.9375C59.1808 33.1438 59.2036 33.3372 59.2265 33.532C59.3016 34.1713 59.3785 34.825 59.5578 35.9914L59.7656 37.3428C59.7902 37.5028 59.8136 37.6566 59.836 37.804C60.0395 39.1429 60.1635 39.958 60.4062 40.1989C60.4859 40.2807 60.5687 40.2948 60.719 40.312C60.8845 40.3402 61.1348 40.3958 61.1752 40.6582C61.2494 41.1408 60.4384 41.2598 59.8586 41.3448C59.808 41.3522 59.7591 41.3594 59.7127 41.3665C59.6405 41.3776 59.5636 41.3906 59.4839 41.4041C58.8546 41.5106 58.0502 41.6467 57.9678 41.111C57.9374 40.9127 58.0406 40.8454 58.1749 40.7578C58.2005 40.7411 58.2273 40.7236 58.2545 40.7043C58.3161 40.668 58.4725 40.55 58.5058 40.5045ZM56.8551 33.3222C56.7606 33.318 56.6054 33.3104 56.4669 33.2499C56.3895 33.2161 56.3105 33.1636 56.2466 33.0824C56.1824 33.0009 56.1442 32.9042 56.1279 32.7986C56.0798 32.4857 56.2589 32.2658 56.4264 32.1323C56.5759 32.0131 56.764 31.9233 56.8966 31.8601C56.9086 31.8543 56.9201 31.8488 56.9312 31.8435C57.0158 31.8025 57.2927 31.6712 57.6063 31.5409C57.9111 31.4142 58.2835 31.2742 58.5443 31.2341C58.6586 31.2165 58.7779 31.2161 58.8912 31.2559C59.0118 31.2983 59.0996 31.377 59.1603 31.4714C59.2166 31.5588 59.2484 31.6574 59.2701 31.7464C59.2921 31.8367 59.3084 31.938 59.3238 32.0387C59.3366 32.1219 59.3461 32.2049 59.3601 32.3277C59.375 32.4583 59.3951 32.6338 59.4297 32.9022L59.4299 32.9037C59.4555 33.1116 59.4784 33.306 59.5013 33.5014C59.5764 34.1399 59.6526 34.7882 59.8311 35.9494L60.0389 37.3008C60.0638 37.4628 60.0874 37.6179 60.1099 37.7661C60.2004 38.361 60.2739 38.8446 60.3491 39.2216C60.3959 39.4566 60.4414 39.6397 60.4887 39.7764C60.5381 39.9194 60.5795 39.9813 60.601 40.0027L60.6026 40.0042L60.6042 40.0058C60.6072 40.0089 60.6092 40.0107 60.6103 40.0116C60.611 40.0122 60.6119 40.0127 60.6119 40.0127L60.6123 40.013C60.6123 40.013 60.613 40.0134 60.614 40.0139C60.6151 40.0144 60.6172 40.0153 60.6208 40.0164C60.6283 40.0188 60.6411 40.0221 60.6633 40.0258C60.6859 40.0295 60.7132 40.033 60.7504 40.0372L60.758 40.0381L60.7656 40.0394C60.8492 40.0537 60.9963 40.0804 61.1307 40.1569C61.2786 40.241 61.4132 40.3868 61.4485 40.6162C61.4842 40.8485 61.3973 41.0402 61.2527 41.178C61.1207 41.3038 60.9438 41.3834 60.7775 41.4384C60.4973 41.5311 60.1549 41.5811 59.8918 41.6195C59.8431 41.6266 59.7971 41.6333 59.7548 41.6398C59.6915 41.6496 59.6212 41.6615 59.546 41.6743C59.269 41.7213 58.9266 41.7794 58.6334 41.7787C58.445 41.7783 58.2386 41.755 58.0637 41.6659C57.8716 41.568 57.732 41.3972 57.6945 41.1531C57.6808 41.0636 57.6822 40.9734 57.7085 40.8854C57.7354 40.7957 57.7828 40.7263 57.8347 40.6724C57.8835 40.6217 57.9377 40.5835 57.9788 40.5558C57.9993 40.5421 58.0156 40.5315 58.0305 40.5218C58.0521 40.5077 58.0707 40.4956 58.0947 40.4787L58.1041 40.472L58.114 40.4662C58.1294 40.457 58.1729 40.427 58.2207 40.3897C58.2433 40.3722 58.263 40.3559 58.2776 40.3429C58.2805 40.3404 58.2829 40.3382 58.285 40.3363C58.2878 40.3279 58.2949 40.305 58.3008 40.2592C58.3105 40.1838 58.3135 40.0754 58.3068 39.9277C58.2934 39.6333 58.2434 39.2204 58.16 38.6779L58.16 38.6775L57.7131 35.8587C57.6836 35.6666 57.6561 35.4785 57.6296 35.2965C57.5665 34.8643 57.5084 34.4664 57.4393 34.1303C57.3905 33.8927 57.3391 33.7018 57.2826 33.5626C57.2546 33.4934 57.2281 33.444 57.2047 33.4105C57.1933 33.3942 57.1839 33.3834 57.1769 33.3765C57.1721 33.3718 57.1688 33.3693 57.1674 33.3683C57.1616 33.3667 57.1524 33.3644 57.139 33.3615C57.0899 33.3511 57.0038 33.3377 56.8551 33.3222ZM62.5094 39.889C62.6447 39.7204 62.6044 39.1088 62.4369 38.0199L61.9901 35.2011C61.9615 35.015 61.9345 34.8304 61.9082 34.6501C61.7546 33.5976 61.6226 32.6935 61.3081 32.5125C61.2778 32.4903 61.1931 32.4631 60.8792 32.4307C60.6764 32.4216 60.4453 32.4034 60.4049 32.141C60.3544 31.8124 60.7375 31.629 61.0228 31.4924C61.0336 31.4872 61.0444 31.4821 61.0549 31.477C61.2174 31.3983 62.1439 30.9604 62.59 30.8918C62.9442 30.8374 62.9916 31.0584 63.0542 31.4651C63.0666 31.5464 63.0752 31.6221 63.0883 31.7375C63.1027 31.8644 63.1226 32.0392 63.159 32.3219C63.1845 32.5282 63.2072 32.7217 63.2301 32.9165C63.3053 33.5557 63.3821 34.2094 63.5614 35.3759L63.7692 36.7272C63.7938 36.8873 63.8172 37.041 63.8396 37.1884C64.0432 38.5274 64.1671 39.3424 64.4098 39.5833C64.4895 39.6651 64.5723 39.6792 64.7227 39.6964C64.8882 39.7247 65.1384 39.7802 65.1788 40.0426C65.253 40.5252 64.4421 40.6442 63.8623 40.7292C63.8116 40.7366 63.7628 40.7438 63.7164 40.7509C63.6441 40.762 63.5672 40.7751 63.4875 40.7885C62.8582 40.895 62.0538 41.0311 61.9715 40.4954C61.941 40.2972 62.0443 40.2298 62.1785 40.1422C62.2042 40.1255 62.2309 40.108 62.2581 40.0888C62.3197 40.0524 62.4761 39.9344 62.5094 39.889ZM60.8588 32.7066C60.7642 32.7024 60.6091 32.6948 60.4705 32.6343C60.3931 32.6005 60.3142 32.548 60.2502 32.4668C60.186 32.3853 60.1478 32.2886 60.1316 32.1831C60.0835 31.8701 60.2625 31.6502 60.43 31.5167C60.5795 31.3976 60.7677 31.3077 60.9002 31.2445C60.9122 31.2387 60.9238 31.2332 60.9348 31.2279C61.0194 31.187 61.2963 31.0556 61.6099 30.9253C61.9147 30.7986 62.2871 30.6586 62.5479 30.6185C62.6622 30.6009 62.7815 30.6005 62.8949 30.6403C63.0154 30.6827 63.1032 30.7615 63.1639 30.8558C63.2203 30.9433 63.252 31.0418 63.2737 31.1308C63.2957 31.2211 63.312 31.3224 63.3275 31.4231C63.3403 31.5063 63.3498 31.5893 63.3638 31.7122C63.3787 31.8427 63.3987 32.0182 63.4333 32.2866L63.4335 32.2881C63.4591 32.496 63.482 32.6904 63.505 32.8858C63.58 33.5243 63.6562 34.1726 63.8348 35.3338L64.0426 36.6852C64.0675 36.8473 64.0911 37.0024 64.1136 37.1505C64.204 37.7454 64.2776 38.229 64.3527 38.6061C64.3996 38.841 64.4451 39.0241 64.4923 39.1608C64.5417 39.3038 64.5832 39.3658 64.6046 39.3871L64.6062 39.3887L64.6078 39.3903C64.6108 39.3933 64.6128 39.3951 64.614 39.396C64.6146 39.3965 64.6154 39.3971 64.6154 39.3971L64.6159 39.3974C64.6159 39.3974 64.6166 39.3978 64.6177 39.3983C64.6187 39.3988 64.6208 39.3997 64.6244 39.4008C64.632 39.4033 64.6447 39.4065 64.6669 39.4102C64.6896 39.414 64.7169 39.4174 64.754 39.4216L64.7617 39.4225L64.7692 39.4238C64.8528 39.4381 64.9999 39.4649 65.1344 39.5413C65.2822 39.6254 65.4169 39.7712 65.4521 40.0006C65.4878 40.2329 65.4009 40.4246 65.2563 40.5624C65.1243 40.6882 64.9475 40.7678 64.7812 40.8228C64.501 40.9155 64.1586 40.9655 63.8954 41.0039C63.8467 41.011 63.8008 41.0178 63.7584 41.0243C63.6952 41.034 63.6248 41.0459 63.5496 41.0587C63.2726 41.1057 62.9303 41.1638 62.637 41.1631C62.4486 41.1627 62.2423 41.1394 62.0673 41.0503C61.8753 40.9525 61.7357 40.7816 61.6981 40.5375C61.6844 40.4481 61.6858 40.3578 61.7122 40.2698C61.739 40.1801 61.7864 40.1107 61.8384 40.0568C61.8871 40.0061 61.9413 39.9679 61.9825 39.9402C62.0029 39.9265 62.0192 39.9159 62.0341 39.9062C62.0557 39.8921 62.0744 39.88 62.0983 39.8631L62.1077 39.8564L62.1176 39.8506C62.1331 39.8415 62.1766 39.8114 62.2244 39.7742C62.2469 39.7566 62.2667 39.7403 62.2812 39.7274C62.2841 39.7248 62.2866 39.7226 62.2886 39.7207C62.2914 39.7123 62.2985 39.6894 62.3044 39.6436C62.3142 39.5682 62.3172 39.4598 62.3104 39.3121C62.297 39.0177 62.2471 38.6049 62.1637 38.0623L62.1636 38.0619L61.7168 35.2431C61.6872 35.051 61.6598 34.8629 61.6332 34.6809C61.5701 34.2488 61.512 33.8508 61.443 33.5147C61.3941 33.2771 61.3428 33.0863 61.2863 32.947C61.2582 32.8778 61.2317 32.8284 61.2084 32.7949C61.197 32.7786 61.1875 32.7678 61.1805 32.7609C61.1757 32.7562 61.1725 32.7538 61.171 32.7528C61.1653 32.7511 61.1561 32.7488 61.1426 32.7459C61.0935 32.7355 61.0074 32.7221 60.8588 32.7066ZM68.8826 31.2405C68.7934 31.1472 68.6474 31.1138 68.4997 31.08C68.2766 31.029 68.0497 30.9771 68.0097 30.7166C67.9592 30.3886 68.1974 30.1908 68.7485 30.1061C68.9611 30.0734 69.1831 30.0423 69.4155 30.0098C69.6707 29.974 69.9384 29.9366 70.2199 29.8933C70.7552 29.811 71.2396 29.7161 71.6742 29.6309C72.0279 29.5617 72.3486 29.4988 72.637 29.4545C74.5788 29.1559 75.7464 29.8494 75.9723 31.3188C76.124 32.3055 75.7222 33.093 74.8073 33.5992C74.6152 33.7054 74.4005 33.7993 74.1636 33.88C74.412 33.864 74.6472 33.8641 74.8687 33.8802C76.2598 33.9809 77.1112 34.7078 77.3061 35.9754C77.5582 37.6154 76.5045 38.7981 74.3397 39.131C73.9247 39.1948 73.4998 39.2371 73.07 39.28C72.6303 39.3238 72.1855 39.3682 71.741 39.4365C71.5595 39.4644 71.3626 39.5033 71.1503 39.5451C70.9022 39.5941 70.6331 39.6472 70.3432 39.6917C69.7265 39.7865 69.3854 39.6644 69.335 39.3364C69.2951 39.0768 69.4951 38.9638 69.6925 38.8522C69.8243 38.7778 69.9549 38.704 70.0123 38.5876C70.1021 38.3858 69.9892 37.1273 69.6341 34.8182C69.2872 32.5616 69.0097 31.3686 68.8826 31.2405ZM69.7566 38.4763C69.7578 38.4688 69.7593 38.4569 69.7608 38.4396C69.7645 38.3943 69.7662 38.3298 69.7645 38.2435C69.7612 38.0715 69.7452 37.8312 69.7148 37.52C69.6541 36.8988 69.538 36.0125 69.3608 34.8602C69.1878 33.7348 69.0326 32.8784 68.9056 32.2895C68.842 31.9944 68.7863 31.7706 68.7399 31.6153C68.7166 31.5373 68.6971 31.4814 68.6817 31.4443C68.678 31.4354 68.6749 31.4285 68.6725 31.4234C68.6593 31.4145 68.6328 31.401 68.5812 31.3855C68.5471 31.3752 68.5091 31.366 68.4634 31.3554C68.4558 31.3537 68.4478 31.3519 68.4396 31.35C68.4018 31.3413 68.3587 31.3315 68.3171 31.3206C68.2183 31.2948 68.0882 31.2539 67.9756 31.1686C67.8515 31.0745 67.764 30.9386 67.7363 30.7586C67.6974 30.5056 67.7747 30.2746 67.9772 30.107C68.1573 29.958 68.4147 29.8776 68.7064 29.8328C68.9209 29.7998 69.1447 29.7685 69.3765 29.736L69.4114 29.7311C69.6563 29.6968 69.911 29.661 70.1779 29.6199C70.6575 29.5462 71.0964 29.4621 71.4984 29.3836C71.5398 29.3755 71.5809 29.3674 71.6216 29.3595C71.974 29.2904 72.3006 29.2264 72.595 29.1811C73.6007 29.0265 74.4481 29.1216 75.0847 29.4832C75.7322 29.851 76.1219 30.472 76.2456 31.2768C76.3468 31.9346 76.2259 32.5328 75.8751 33.0318C75.7119 33.2638 75.5031 33.4686 75.2529 33.6459C75.7223 33.7203 76.1353 33.8714 76.4819 34.1029C77.0871 34.507 77.4565 35.1339 77.5794 35.9334C77.7168 36.8268 77.4985 37.6201 76.9321 38.2313C76.3731 38.8345 75.5018 39.2321 74.3817 39.4043C73.9594 39.4692 73.5283 39.5122 73.101 39.5548L73.0825 39.5567C72.6467 39.6001 72.2141 39.6436 71.783 39.7099C71.6076 39.7368 71.4164 39.7745 71.2025 39.8167L71.1496 39.8271C70.9164 39.8731 70.6604 39.9228 70.3852 39.9651C70.0601 40.0151 69.7669 40.0156 69.5345 39.9333C69.4143 39.8908 69.3041 39.8238 69.2183 39.7249C69.1316 39.6251 69.0813 39.506 69.0617 39.3784C69.034 39.1983 69.0768 39.042 69.1687 38.9152C69.2518 38.8007 69.3651 38.7245 69.4516 38.6721C69.4875 38.6504 69.5251 38.6292 69.5582 38.6105C69.566 38.606 69.5737 38.6017 69.5809 38.5976C69.6213 38.5747 69.6546 38.5552 69.6838 38.5359C69.7264 38.5076 69.7469 38.488 69.7566 38.4763ZM71.1962 31.7404C71.2383 32.1853 71.3217 32.7935 71.4416 33.5733L71.4655 33.7287C71.6395 33.7138 71.8147 33.6928 71.9951 33.665C72.8042 33.5406 73.3214 33.349 73.6159 33.0813C73.8861 32.8358 74.0059 32.4903 73.9197 31.9299C73.8398 31.4102 73.6353 31.1021 73.3311 30.9312C73.0113 30.7514 72.5264 30.6914 71.8231 30.7995C71.5779 30.8372 71.4028 30.8838 71.2892 30.9318C71.2192 30.9615 71.1902 30.984 71.1804 30.9925C71.1734 31.0242 71.1653 31.0905 71.1651 31.2072C71.165 31.3412 71.1752 31.5178 71.1962 31.7404ZM71.2308 34.0221C71.4972 34.0079 71.7616 33.9807 72.0372 33.9384C73.6772 33.6862 74.3847 33.1342 74.193 31.8878C74.0155 30.7333 73.2374 30.3023 71.7811 30.5262C71.2694 30.6049 70.9798 30.73 70.9233 30.8864C70.8304 31.1559 70.9282 32.0541 71.1683 33.6153L71.2308 34.0221ZM71.692 35.2022L71.8733 36.381C71.9461 36.8548 72.0075 37.2312 72.0749 37.5227C72.1426 37.8153 72.2089 37.9856 72.2735 38.077C72.2774 38.0797 72.2885 38.0866 72.3116 38.0949C72.3542 38.1104 72.4218 38.125 72.5213 38.1323C72.7206 38.1469 73.0063 38.1295 73.3844 38.0714C74.0788 37.9646 74.5426 37.7388 74.8132 37.4433C75.0751 37.1573 75.1878 36.7709 75.1092 36.2595C75.021 35.6861 74.7769 35.347 74.3889 35.1608C73.977 34.9632 73.3571 34.915 72.4767 35.0504C72.2547 35.0845 71.9928 35.133 71.692 35.2022ZM72.0549 38.2467C72.1902 38.4274 72.6524 38.4637 73.4265 38.3447C74.8828 38.1208 75.56 37.372 75.3825 36.2175C75.1848 34.9317 74.2321 34.5007 72.4347 34.7771C72.1461 34.8214 71.7939 34.889 71.3801 34.9929L71.5999 36.423C71.7452 37.3676 71.8511 37.9691 72.0549 38.2467ZM84.5861 36.9629L84.5851 36.9641C83.7492 37.9185 82.9732 38.1908 82.3127 38.2923C80.1612 38.6231 78.4178 37.2284 78.1071 35.2076C77.7642 32.9774 79.0994 31.1088 81.2645 30.7759C82.1674 30.6371 82.9821 30.7994 83.6109 31.2442C84.2408 31.6898 84.6543 32.3982 84.7919 33.2934C84.8385 33.5963 84.8508 33.8999 84.6501 34.1144C84.5534 34.2177 84.4307 34.2739 84.3133 34.3104C84.1968 34.3466 84.0602 34.3706 83.9157 34.3929L80.6226 34.8992C80.6082 34.9014 80.5946 34.9035 80.5816 34.9055C80.4946 34.9188 80.4349 34.9279 80.3876 34.9385C80.3892 34.9605 80.3926 34.9903 80.3987 35.0299C80.5434 35.9713 81.4425 36.6712 82.4427 36.5175C82.9209 36.4439 83.3451 36.1974 83.578 35.9467L83.5796 35.945L83.7843 35.7284C83.7913 35.7205 83.7985 35.7123 83.806 35.7037C83.8644 35.637 83.9395 35.5512 84.0235 35.4799C84.1252 35.3935 84.2574 35.3118 84.4289 35.2854C84.714 35.2415 85.0751 35.3973 85.1359 35.7922C85.1751 36.0476 85.0569 36.4193 84.5861 36.9629ZM83.7806 36.1349L83.9885 35.9149C83.9975 35.9048 84.0064 35.8946 84.0153 35.8844C84.1437 35.7382 84.2747 35.5889 84.471 35.5587C84.6415 35.5325 84.8302 35.6243 84.8625 35.8343C84.8827 35.9655 84.8332 36.2551 84.377 36.7819C83.5887 37.682 82.8742 37.9262 82.2707 38.019C80.2764 38.3256 78.6689 37.0417 78.3804 35.1656C78.0597 33.0795 79.2991 31.3579 81.3065 31.0493C82.999 30.789 84.2624 31.6692 84.5186 33.3354C84.6134 33.9521 84.4509 34.0308 83.8736 34.1195L80.5805 34.6259C80.5666 34.628 80.5531 34.6301 80.5399 34.6321C80.1547 34.6909 80.0688 34.704 80.1253 35.0719C80.2928 36.1608 81.3302 36.9683 82.4847 36.7908C83.0227 36.7081 83.5041 36.4326 83.7806 36.1349ZM80.2482 33.6121C80.2803 33.6108 80.3239 33.6066 80.3821 33.5976L82.5469 33.2648C82.6116 33.2548 82.6585 33.2447 82.6921 33.2355C82.5691 32.5414 81.9384 32.1049 81.2566 32.2097C80.6095 32.3092 80.1544 32.904 80.2482 33.6121ZM36.7323 58.1845C36.8182 57.7818 36.7233 57.1652 36.5337 55.9319C35.8842 51.7073 35.6844 51.2814 35.6026 51.1865C35.5305 51.1028 35.3711 51.0639 35.2674 51.0385C35.2536 51.0351 35.2407 51.032 35.2292 51.029C35.2204 51.0271 35.2116 51.0251 35.2028 51.0232C34.9645 50.9707 34.7705 50.9279 34.7277 50.6495C34.6564 50.1858 35.2924 50.0897 36.2368 49.9471C36.3077 49.9364 36.3803 49.9254 36.4545 49.914C36.5513 49.8991 36.6471 49.8836 36.7412 49.8685C37.5529 49.7375 38.2369 49.6272 38.3074 50.0857C38.3458 50.335 38.2045 50.4641 37.9562 50.5963C37.9388 50.6061 37.9214 50.6154 37.9042 50.6246C37.8229 50.6682 37.7447 50.7101 37.6897 50.785C37.499 51.0292 37.7541 52.7762 37.8853 53.629L38.2776 56.0935C38.2839 56.1344 38.2902 56.1753 38.2966 56.216C38.4322 57.0908 38.5629 57.9335 38.1472 58.6519C37.8817 59.109 37.1894 59.8467 35.8511 60.0525C33.9225 60.349 32.8155 59.3508 32.6622 58.3537C32.5633 57.7108 32.846 57.1033 33.4888 57.0044C34.1317 56.9056 34.4637 57.4052 34.5182 57.7594C34.5383 57.8906 34.5252 58.0672 34.504 58.1914C34.502 58.2028 34.4999 58.2146 34.4976 58.2267C34.4837 58.3019 34.4674 58.3902 34.4848 58.5032C34.5594 58.9887 35.1084 59.24 35.6726 59.1533C36.3942 59.0423 36.6627 58.5175 36.7323 58.1845ZM38.1585 53.5863L38.1586 53.587L38.551 56.0515C38.5573 56.0928 38.5637 56.1343 38.5702 56.176C38.6344 56.5891 38.7011 57.0189 38.705 57.4325C38.7095 57.8938 38.637 58.3577 38.3866 58.7904L38.3864 58.7908C38.0836 59.3121 37.3229 60.106 35.8932 60.3258C33.8521 60.6396 32.5709 59.5796 32.3888 58.3957C32.3319 58.0252 32.3818 57.6473 32.5568 57.3387C32.7356 57.0232 33.0386 56.7939 33.4468 56.7311C33.8548 56.6684 34.1821 56.7972 34.4116 57.0087C34.6321 57.2119 34.7556 57.4843 34.7915 57.7174C34.818 57.8899 34.8002 58.0995 34.7766 58.2379C34.7739 58.2538 34.7713 58.2683 34.7689 58.2818C34.7558 58.3543 34.7482 58.3968 34.7581 58.4612C34.7795 58.6004 34.8678 58.7171 35.0225 58.7973C35.1807 58.8794 35.3984 58.9156 35.6305 58.8799C36.2027 58.7919 36.4073 58.3878 36.4616 58.1279L36.4619 58.1269C36.4954 57.9696 36.4973 57.7505 36.4612 57.3978C36.4254 57.0478 36.3557 56.5935 36.2604 55.9739C35.9358 53.8629 35.7245 52.7073 35.5851 52.0696C35.5152 51.7501 35.4648 51.5675 35.4293 51.4626C35.4114 51.4098 35.399 51.3819 35.3926 51.3691C35.3918 51.3686 35.3908 51.368 35.3898 51.3675C35.3772 51.3605 35.3583 51.3522 35.3322 51.3432C35.2909 51.329 35.2527 51.3197 35.2108 51.3094C35.1961 51.3058 35.1809 51.3021 35.165 51.2981C35.1564 51.2962 35.1474 51.2942 35.1382 51.2922C35.0324 51.2693 34.884 51.2371 34.7615 51.1653C34.5964 51.0687 34.4884 50.9127 34.4544 50.6916C34.4229 50.4872 34.4777 50.3022 34.6148 50.1572C34.7374 50.0277 34.9083 49.9488 35.0777 49.8933C35.3671 49.7984 35.7656 49.7383 36.1986 49.6731C36.2691 49.6625 36.3405 49.6517 36.4125 49.6406C36.5023 49.6268 36.5933 49.6121 36.6844 49.5974C37.0457 49.539 37.4081 49.4804 37.6982 49.4777C37.8807 49.476 38.0745 49.4947 38.2374 49.5745C38.4202 49.6641 38.5468 49.8229 38.5808 50.0437C38.6103 50.2358 38.5703 50.4083 38.4584 50.5536C38.3595 50.6821 38.2185 50.7698 38.0888 50.839C38.0697 50.8497 38.0494 50.8605 38.0322 50.8698C38.0255 50.8734 38.0192 50.8767 38.0137 50.8797C37.9906 50.8922 37.9731 50.9021 37.9581 50.9115C37.9383 50.924 37.927 50.9332 37.9201 50.9401C37.9181 50.9476 37.9148 50.9615 37.9114 50.9838C37.9032 51.0378 37.8983 51.1144 37.8979 51.2136C37.8971 51.4111 37.9142 51.6681 37.942 51.9518C37.9975 52.5171 38.093 53.1601 38.1585 53.5863ZM47.7545 58.0023L47.754 58.0026C46.9974 58.4095 46.5398 58.6351 46.142 58.6963C45.8922 58.7347 45.6765 58.6847 45.5259 58.5273C45.4083 58.4044 45.3671 58.2506 45.3485 58.1474C44.8217 58.7926 44.1574 58.9746 43.737 59.0392C42.7363 59.1931 42.0669 58.8171 41.7214 58.5095C41.3111 58.1482 41.0735 57.6643 40.9186 57.1521C40.7655 56.6454 40.6864 56.0854 40.6113 55.5543L40.457 54.4623C40.4195 54.1709 40.3984 54.023 40.3524 53.9289C40.3351 53.8936 40.3183 53.8761 40.2991 53.8633C40.2768 53.8484 40.2345 53.8289 40.1511 53.8163L40.1503 53.8162L39.8867 53.7754L39.8845 53.7751C39.8564 53.7703 39.834 53.7676 39.8063 53.7644C39.7885 53.7623 39.7686 53.7599 39.7435 53.7566C39.6911 53.7496 39.6185 53.7381 39.546 53.7099C39.4683 53.6797 39.3876 53.629 39.3232 53.544C39.2605 53.4614 39.2272 53.3647 39.2117 53.2639C39.2009 53.1936 39.1959 53.107 39.2197 53.0116C39.2439 52.9146 39.2929 52.8283 39.3616 52.7498C39.4894 52.6038 39.7017 52.4671 40.0103 52.3111L40.0109 52.3107C40.8702 51.8792 41.3378 51.744 41.5887 51.7054C41.7395 51.6822 41.9507 51.6768 42.1281 51.8347C42.2876 51.9767 42.3612 52.2021 42.4016 52.4646C42.4232 52.6051 42.4512 52.871 42.4843 53.1841C42.4933 53.2695 42.5027 53.3583 42.5124 53.4492C42.5585 53.8802 42.6134 54.3663 42.6759 54.7726L42.7425 55.2056C42.8318 55.7864 42.9292 56.3359 43.134 56.7197C43.2332 56.9055 43.3484 57.0337 43.4832 57.1095C43.6146 57.1834 43.7909 57.2223 44.0426 57.1836C44.3234 57.1404 44.505 57.0203 44.6304 56.8598C44.7614 56.692 44.8448 56.4617 44.8878 56.1833C44.9745 55.6209 44.884 54.9547 44.8077 54.4583L44.7048 53.7892C44.6985 53.7482 44.6929 53.71 44.6875 53.6741C44.6612 53.4966 44.6436 53.3782 44.6032 53.2856C44.5832 53.2399 44.5634 53.2168 44.545 53.2027C44.5271 53.1889 44.4931 53.1703 44.4229 53.1618L44.4218 53.1616L44.1314 53.1249L44.1286 53.1245C44.1205 53.1233 44.111 53.122 44.1001 53.1206C44.0271 53.111 43.8976 53.0939 43.7883 53.0423C43.7167 53.0085 43.6435 52.9569 43.5843 52.878C43.5254 52.7993 43.4909 52.7074 43.4757 52.6083C43.4276 52.2953 43.6067 52.0754 43.7741 51.9419C43.9236 51.8228 44.1118 51.733 44.2443 51.6697C44.2565 51.6639 44.2681 51.6584 44.2792 51.653L44.2795 51.6529C44.2993 51.6434 44.3197 51.6336 44.3407 51.6235C44.5358 51.5299 44.7795 51.4129 45.0257 51.3095C45.2943 51.1967 45.5878 51.0905 45.8396 51.0518C46.0768 51.0153 46.3182 51.0412 46.4804 51.2496C46.5481 51.3367 46.5854 51.4369 46.6099 51.5271C46.6347 51.6181 46.6519 51.7202 46.6676 51.8221C46.6913 51.976 46.7065 52.1421 46.7348 52.4523C46.7398 52.5071 46.7453 52.5665 46.7512 52.631C46.8452 53.5887 46.929 54.1336 47.0498 54.9194L47.1729 55.7197C47.1982 55.8848 47.2921 56.3207 47.3324 56.4375L47.3337 56.441L47.3348 56.4446C47.3565 56.5134 47.3691 56.5271 47.3782 56.5352C47.3902 56.5459 47.4339 56.5774 47.5737 56.6013L47.6945 56.622C47.7008 56.6229 47.7076 56.6238 47.7149 56.6248C47.7921 56.6356 47.9256 56.6542 48.0418 56.7104C48.1987 56.7864 48.3255 56.9273 48.3596 57.1488C48.4023 57.4266 48.2601 57.6306 48.125 57.7558C48.0033 57.8686 47.8549 57.9483 47.7714 57.9931C47.7654 57.9964 47.7598 57.9994 47.7545 58.0023ZM47.6513 56.8951C47.6591 56.8963 47.6671 56.8974 47.6751 56.8986C47.8487 56.9236 48.0496 56.9525 48.0862 57.1909C48.1314 57.4848 47.8137 57.6561 47.6368 57.7516C47.632 57.7541 47.6274 57.7566 47.6229 57.759C46.8539 58.1727 46.4411 58.3705 46.1 58.4229C45.7195 58.4814 45.6438 58.2513 45.6156 58.0677L45.543 57.5953C45.5389 57.5691 45.5107 57.56 45.4844 57.564C45.4601 57.5678 45.4329 57.5886 45.4059 57.6164C45.3709 57.6525 45.3365 57.7005 45.3097 57.7381C45.3088 57.7394 45.3079 57.7407 45.307 57.7419C45.3007 57.7508 45.2948 57.7591 45.2895 57.7664C45.2889 57.7672 45.2882 57.7681 45.2876 57.7689L45.2099 57.8749C44.7325 58.5258 44.1017 58.7033 43.695 58.7659C42.7897 58.905 42.2004 58.5659 41.9047 58.3025C41.1902 57.6737 41.0359 56.5827 40.8836 55.5048L40.7313 54.427L40.7283 54.4032C40.6608 53.8789 40.626 53.6085 40.1925 53.5429L39.9311 53.5025C39.8968 53.4966 39.8628 53.4926 39.8297 53.4886C39.6632 53.4688 39.5204 53.4517 39.4851 53.2219C39.4548 53.0251 39.5244 52.8666 40.135 52.5579C40.9828 52.1321 41.4208 52.011 41.6308 51.9787C41.88 51.9404 42.0516 52.008 42.1282 52.5066C42.1488 52.64 42.1758 52.8957 42.2086 53.2071C42.2598 53.6918 42.3252 54.3114 42.4026 54.8147L42.4691 55.2476C42.6446 56.3891 42.8776 57.6425 44.0847 57.4569C45.4754 57.2431 45.2323 55.4003 45.081 54.4163L44.9782 53.7472C44.9728 53.7125 44.9678 53.6781 44.9629 53.6444C44.9061 53.2564 44.8594 52.9365 44.4565 52.8873L44.1688 52.8509C44.1559 52.849 44.1429 52.8472 44.1298 52.8454C43.9617 52.8221 43.7846 52.7975 43.749 52.5663C43.6985 52.2377 44.0816 52.0542 44.3669 51.9177C44.3778 51.9125 44.3885 51.9073 44.399 51.9023C44.4189 51.8928 44.4392 51.883 44.4601 51.873C44.8726 51.675 45.4695 51.3885 45.8816 51.3251C46.2752 51.2646 46.3317 51.4574 46.3943 51.8641C46.4165 52.009 46.4308 52.1649 46.4593 52.4767C46.4644 52.5318 46.4699 52.5917 46.4759 52.6573C46.5707 53.6232 46.6554 54.1742 46.7765 54.9614L46.8995 55.7617C46.9257 55.9323 47.0226 56.3874 47.071 56.5277C47.1235 56.6942 47.1961 56.8174 47.5272 56.8739L47.6513 56.8951ZM51.9033 51.9303C51.641 51.6214 51.2656 51.2763 50.6358 51.3731C50.0323 51.4659 49.8344 51.9261 49.8909 52.2934C49.9752 52.8419 50.6382 53.0467 51.1727 53.2118C51.2519 53.2363 51.3283 53.2599 51.3996 53.2836L51.8517 53.429C52.7842 53.7288 53.4816 53.9842 53.6328 54.9682C53.8426 56.3326 52.8212 57.3761 51.483 57.5818C51.0632 57.6464 50.7375 57.6248 50.5204 57.6105C50.4119 57.6033 50.3305 57.5979 50.278 57.606C50.222 57.6146 50.1775 57.6508 50.1266 57.6923C50.0583 57.748 49.9783 57.8132 49.843 57.834C49.7905 57.8421 49.6704 57.8471 49.5493 57.7583C49.1769 57.5201 48.7643 56.6703 48.6916 56.198C48.6392 55.8568 48.73 55.5743 48.9924 55.5339C49.2982 55.4869 49.4974 55.735 49.6759 55.9573C49.6812 55.9639 49.6865 55.9705 49.6918 55.977C49.7101 55.9991 49.7285 56.0216 49.7471 56.0444C49.8289 56.1446 49.9148 56.2497 50.0167 56.3434C50.5001 56.7794 51.1137 56.7522 51.3761 56.7119C52.0846 56.603 52.2824 56.1428 52.2179 55.7229C52.1386 55.2076 51.6872 55.0667 51.169 54.9049C51.0936 54.8814 51.0166 54.8574 50.9393 54.8317L50.5154 54.6954C49.4699 54.3592 48.603 54.0493 48.4336 52.9473C48.248 51.7402 49.0887 50.832 50.2433 50.6545C50.755 50.5758 51.093 50.591 51.2697 50.6041C51.4039 50.5163 51.6128 50.3902 51.744 50.37C52.295 50.2853 52.8763 51.2703 52.965 51.8476C53.0336 52.2937 52.7793 52.3865 52.6481 52.4067C52.3534 52.452 52.1294 52.1923 51.9414 51.9743C51.9286 51.9594 51.9159 51.9447 51.9033 51.9303ZM51.197 50.3224C51.2525 50.2878 51.3152 50.2507 51.379 50.2171C51.4677 50.1703 51.5875 50.1143 51.702 50.0967C51.9309 50.0615 52.1403 50.1413 52.3088 50.2543C52.4775 50.3674 52.6266 50.5272 52.751 50.6973C52.9975 51.0341 53.1861 51.4654 53.2384 51.8056C53.2811 52.0834 53.2299 52.3088 53.0895 52.4691C52.9568 52.6205 52.7857 52.6653 52.6901 52.68C52.4262 52.7206 52.2125 52.6093 52.0592 52.4877C51.9301 52.3854 51.8159 52.2525 51.7301 52.1528C51.7177 52.1384 51.7058 52.1246 51.6947 52.1118L51.6926 52.1093C51.4476 51.821 51.1601 51.5723 50.6778 51.6464C50.4441 51.6823 50.3147 51.783 50.2442 51.8862C50.1699 51.9951 50.1456 52.1298 50.1643 52.2514C50.1919 52.431 50.3281 52.5753 50.5968 52.7077C50.7951 52.8054 51.0142 52.8731 51.2354 52.9415C51.3188 52.9673 51.4026 52.9931 51.4856 53.0208L51.4869 53.0212L51.9364 53.1657C52.3948 53.3131 52.8459 53.4635 53.1974 53.718C53.5682 53.9865 53.8195 54.3624 53.9062 54.9261C54.1454 56.4818 52.9705 57.6329 51.525 57.8552C51.1867 57.9072 50.9055 57.907 50.691 57.8974C50.6207 57.8942 50.5533 57.8898 50.4975 57.8861C50.4715 57.8844 50.448 57.8828 50.428 57.8817C50.3938 57.8797 50.368 57.8786 50.3477 57.8785C50.3434 57.8785 50.3397 57.8785 50.3366 57.8785C50.3293 57.8839 50.3224 57.8896 50.3118 57.8982C50.3024 57.9059 50.29 57.916 50.272 57.9304C50.1932 57.993 50.0722 58.0786 49.885 58.1073C49.7916 58.1217 49.5918 58.1286 49.3931 57.9866C49.1454 57.8246 48.9242 57.4998 48.7634 57.1949C48.5963 56.8778 48.4609 56.517 48.4183 56.24C48.3876 56.0402 48.3935 55.8286 48.4684 55.6474C48.5488 55.4533 48.71 55.2976 48.9504 55.2606C49.2051 55.2214 49.4094 55.3145 49.5625 55.4347C49.6949 55.5386 49.8054 55.6765 49.888 55.7797C49.8942 55.7874 49.9002 55.7949 49.906 55.8021C49.9269 55.8273 49.9469 55.8517 49.9663 55.8755C50.0467 55.9737 50.1173 56.06 50.2029 56.139C50.5929 56.4899 51.0999 56.4746 51.3341 56.4386C51.6331 56.3926 51.7853 56.28 51.8622 56.1728C51.9412 56.0626 51.9683 55.9198 51.9445 55.765C51.9159 55.5786 51.8208 55.4706 51.6427 55.3757C51.4942 55.2965 51.3208 55.2423 51.1092 55.1762C51.0295 55.1513 50.9445 55.1248 50.8533 55.0945L50.8522 55.0942L50.4308 54.9587C49.9152 54.7929 49.3961 54.6204 48.9877 54.3353C48.5616 54.0379 48.2572 53.6203 48.1602 52.9893C47.9469 51.6019 48.9269 50.5771 50.2013 50.3812C50.6611 50.3104 50.991 50.3116 51.197 50.3224ZM54.4281 49.7962L54.8955 49.2543C54.9275 49.2169 54.9611 49.1767 54.9959 49.135C55.2211 48.8651 55.5006 48.53 55.7846 48.4863C55.8896 48.4702 56.042 48.5005 56.0682 48.671L56.2599 49.9174L57.7555 49.6875C58.0048 49.6491 58.0543 49.7087 58.0926 49.958L58.1168 50.1154C58.137 50.2466 58.141 50.4474 57.8786 50.4878L56.501 50.6996C56.3567 50.7218 56.3829 50.8923 56.3889 50.9317L56.8993 54.2511C56.9961 54.8808 57.0476 55.1281 57.1788 55.2825C57.3725 55.4944 57.6369 55.4672 57.7813 55.445C57.9731 55.4155 58.1332 55.3352 58.2599 55.2717C58.2978 55.2527 58.3327 55.2352 58.3646 55.221C58.5513 55.1252 58.6391 55.0848 58.7441 55.0687C59.0196 55.0263 59.1175 55.2261 59.1336 55.3311C59.2022 55.7772 58.416 56.5159 57.4582 56.6631C56.9596 56.7398 56.4429 56.6984 56.0665 56.4339C55.5629 56.0753 55.47 55.457 55.3594 54.72C55.3508 54.6626 55.342 54.6044 55.333 54.5456L54.7823 50.9639L54.1656 51.0587C53.9295 51.095 53.8982 50.9789 53.8821 50.874L53.8579 50.7165C53.8203 50.4723 54.0458 50.2228 54.2718 49.9729C54.325 49.914 54.3783 49.8551 54.4281 49.7962ZM54.551 51.2792L54.2077 51.332C54.0514 51.356 53.8794 51.3425 53.7503 51.2193C53.6387 51.1126 53.6172 50.9717 53.6093 50.9199L53.6087 50.916L53.5845 50.7585C53.543 50.4885 53.6847 50.2548 53.8066 50.0927C53.8722 50.0055 53.9465 49.9209 54.0165 49.843C54.0343 49.8232 54.0518 49.8039 54.0688 49.785C54.1213 49.7269 54.1704 49.6726 54.2171 49.6175L54.2187 49.6156L54.6857 49.0741C54.7129 49.0424 54.7432 49.0061 54.7759 48.9669C54.8728 48.8507 54.9908 48.7092 55.1116 48.5889C55.2681 48.4329 55.4848 48.2526 55.7426 48.213C55.8335 48.199 55.9589 48.2018 56.0783 48.2606C56.2125 48.3268 56.3145 48.4532 56.3416 48.629L56.4912 49.6021L57.7135 49.4141C57.834 49.3956 58.0297 49.3738 58.1828 49.5046C58.2577 49.5686 58.297 49.6481 58.32 49.7143C58.3425 49.779 58.3558 49.8499 58.3659 49.9159L58.3901 50.0734C58.4014 50.1469 58.4192 50.2945 58.3597 50.4403C58.2882 50.6151 58.1327 50.7285 57.9206 50.7611L56.672 50.9531L57.1726 54.209C57.2214 54.5263 57.2566 54.7317 57.2939 54.8757C57.329 55.0116 57.3601 55.0673 57.3864 55.0997C57.4748 55.1929 57.5995 55.1932 57.7392 55.1717C57.8844 55.1494 57.9917 55.0958 58.1098 55.0368C58.1526 55.0154 58.1969 54.9932 58.2449 54.9716C58.4225 54.8805 58.5478 54.8191 58.7021 54.7953C58.9192 54.762 59.0998 54.8239 59.2264 54.944C59.3412 55.0529 59.3917 55.1901 59.407 55.2891C59.4375 55.4881 59.3698 55.6838 59.2738 55.847C59.1752 56.0144 59.0306 56.1763 58.8588 56.3208C58.5157 56.6094 58.0335 56.8545 57.5002 56.9365C56.9699 57.018 56.3681 56.9837 55.9075 56.6602L55.9061 56.6592C55.5691 56.4192 55.3898 56.0892 55.2789 55.7317C55.1867 55.4343 55.136 55.0956 55.0853 54.7575C55.0768 54.7008 55.0683 54.6441 55.0597 54.5876L54.551 51.2792ZM65.1328 46.9306L65.1293 46.9362C65.1293 46.9362 65.1137 46.9655 65.1037 47.0552C65.0943 47.1392 65.092 47.2536 65.0989 47.4028C65.1128 47.701 65.1619 48.1077 65.2423 48.6304L65.325 49.1683C65.3388 49.2586 65.35 49.321 65.3612 49.3661C65.368 49.3652 65.3756 49.3642 65.384 49.3629L66.4861 49.1934C66.8291 49.1407 66.978 49.0742 67.0496 49.0052C67.1058 48.951 67.1545 48.8548 67.1509 48.5937L67.1508 48.5898C67.1508 48.5531 67.1506 48.5162 67.1505 48.4795C67.15 48.3924 67.1496 48.307 67.1517 48.2311C67.1547 48.1224 67.163 48.0077 67.1909 47.9018C67.22 47.7918 67.2736 47.6779 67.3759 47.5868C67.4774 47.4964 67.6019 47.4506 67.7326 47.4304C67.9193 47.4017 68.0987 47.441 68.2492 47.5667C68.3856 47.6805 68.4744 47.8461 68.5406 48.0221C68.6722 48.3721 68.7628 48.9044 68.8683 49.5904C68.9737 50.2762 69.0468 50.8083 69.0258 51.1788C69.0153 51.3653 68.9798 51.5488 68.8829 51.6974C68.7762 51.8611 68.6168 51.9503 68.4319 51.9787C68.3012 51.9988 68.1687 51.9925 68.0447 51.9368C67.9198 51.8806 67.8344 51.788 67.7737 51.6919C67.7152 51.5992 67.6728 51.4924 67.6373 51.3896C67.6125 51.3178 67.5873 51.2362 67.5615 51.153C67.5507 51.118 67.5398 51.0826 67.5287 51.0477L67.5276 51.044C67.4526 50.7938 67.3773 50.7167 67.3074 50.6819C67.2183 50.6376 67.0564 50.6189 66.7133 50.6716L65.6244 50.839C65.6158 50.8404 65.6085 50.8417 65.6024 50.843C65.6012 50.8618 65.601 50.8901 65.6039 50.9314C65.6088 51.0029 65.621 51.094 65.6397 51.215L65.7183 51.7267C65.8299 52.4526 65.9131 52.9924 65.9968 53.3673C66.0388 53.5552 66.078 53.6878 66.1155 53.7761C66.1393 53.8322 66.156 53.8547 66.1607 53.8609C66.1947 53.8788 66.2425 53.8945 66.3152 53.9117C66.3331 53.9159 66.355 53.9207 66.3792 53.926C66.4396 53.9391 66.5143 53.9555 66.5767 53.974C66.6716 54.0021 66.7889 54.0479 66.8893 54.1389C66.9965 54.236 67.0642 54.3659 67.0886 54.5243C67.1153 54.6982 67.0812 54.8671 66.9719 55.013C66.8708 55.148 66.722 55.2407 66.5613 55.3107C66.2435 55.4491 65.7662 55.5446 65.1537 55.6388C64.5366 55.7337 64.0487 55.7901 63.7019 55.7538C63.5258 55.7354 63.3536 55.6905 63.2149 55.5875C63.0659 55.4769 62.9852 55.3217 62.9582 55.146C62.9305 54.9658 62.9732 54.8096 63.0652 54.6828C63.1483 54.5683 63.2616 54.4921 63.3481 54.4396C63.3925 54.4128 63.4396 54.3866 63.4774 54.3651C63.5178 54.3422 63.5511 54.3227 63.5803 54.3034C63.6211 54.2763 63.6417 54.2572 63.6519 54.2453C63.6527 54.2387 63.6537 54.2297 63.6546 54.2177C63.6579 54.1741 63.6592 54.1109 63.6575 54.0253C63.6539 53.8549 63.6383 53.6145 63.6086 53.3024C63.5493 52.6792 63.4354 51.786 63.2573 50.6277C63.0824 49.4905 62.9203 48.632 62.7903 48.0453C62.7252 47.7515 62.6688 47.5285 62.6235 47.374C62.6007 47.2964 62.5818 47.2396 62.5671 47.2012C62.565 47.1956 62.563 47.1907 62.5613 47.1865C62.5467 47.1784 62.5217 47.1674 62.4796 47.1549C62.4452 47.1448 62.4071 47.1358 62.3606 47.1252L62.3463 47.1219C62.3055 47.1126 62.2582 47.1018 62.2117 47.0892C62.1098 47.0617 61.9778 47.0175 61.8638 46.9247C61.74 46.824 61.6569 46.6825 61.6288 46.4999C61.6023 46.3279 61.6371 46.1597 61.7547 46.0184C61.8603 45.8913 62.0126 45.8114 62.1689 45.7533C62.4791 45.6382 62.9499 45.5604 63.5496 45.4682L67.643 44.8388C67.8869 44.8013 68.0816 44.738 68.2334 44.6803C68.286 44.6603 68.3299 44.6425 68.372 44.6253C68.3938 44.6165 68.415 44.6079 68.4368 44.5992C68.4881 44.5788 68.5619 44.5498 68.631 44.5391C68.8365 44.5075 69.0471 44.5728 69.1954 44.745L69.1977 44.7476L69.1999 44.7503C69.3312 44.9106 69.4776 45.179 69.5976 45.4528C69.7186 45.7291 69.8272 46.0443 69.8677 46.3076C69.9027 46.5351 69.8912 46.758 69.802 46.9429C69.7061 47.1416 69.5318 47.2702 69.3114 47.3041C69.0232 47.3484 68.8238 47.2036 68.6781 47.0548C68.6129 46.9883 68.5474 46.9097 68.4846 46.8342L68.4698 46.8165C68.3998 46.7326 68.3268 46.6458 68.2416 46.5564L68.2396 46.5543L68.2377 46.5522C68.1103 46.4128 67.8079 46.3131 67.2385 46.4007L66.3201 46.5419C65.9366 46.6008 65.6491 46.662 65.4443 46.7353C65.233 46.8108 65.1599 46.8818 65.136 46.9248L65.1328 46.9306ZM62.7791 47.008C62.878 47.1271 63.1796 48.3028 63.5306 50.5857C63.8877 52.9079 63.9895 54.1816 63.9087 54.3552C63.8514 54.4715 63.7207 54.5453 63.589 54.6198C63.3916 54.7313 63.1916 54.8443 63.2315 55.1039C63.3021 55.5631 63.8652 55.5571 65.1116 55.3655C66.3449 55.1759 66.8818 54.9993 66.8153 54.5663C66.7735 54.2949 66.5569 54.2478 66.3343 54.1993C66.2234 54.1752 66.111 54.1507 66.018 54.098C65.7839 53.9728 65.6669 53.2119 65.445 51.7687L65.3663 51.257C65.2917 50.7716 65.2937 50.6101 65.5824 50.5657L66.6713 50.3983C67.3667 50.2914 67.627 50.4125 67.7925 50.9646C67.8046 51.003 67.8162 51.0403 67.8273 51.0763C67.961 51.5082 68.0387 51.7594 68.3899 51.7054C68.8622 51.6327 68.8088 51.0232 68.5949 49.6325C68.3811 48.2417 68.2469 47.6312 67.7746 47.7038C67.4234 47.7578 67.4247 48.0207 67.427 48.4728C67.4272 48.5105 67.4274 48.5495 67.4274 48.5898C67.4354 49.1661 67.2234 49.3598 66.5281 49.4668L65.426 49.6362C65.1505 49.6786 65.1121 49.6039 65.0516 49.2103L64.9689 48.6724C64.8075 47.6228 64.7652 46.9981 64.8944 46.7902C65.0418 46.5258 65.504 46.3876 66.2781 46.2685L67.1965 46.1273C67.7869 46.0366 68.2158 46.1183 68.4418 46.3656C68.5395 46.4681 68.6214 46.5664 68.6949 46.6547C68.8987 46.8992 69.0379 47.0663 69.2693 47.0308C69.5317 46.9904 69.6549 46.7432 69.5943 46.3496C69.5237 45.8904 69.2009 45.1879 68.9859 44.9255C68.9042 44.8307 68.7912 44.7943 68.6731 44.8125C68.6297 44.8191 68.5658 44.8451 68.4803 44.8799C68.3071 44.9503 68.0451 45.0567 67.685 45.1121L63.5916 45.7415C62.3714 45.9291 61.8376 46.0381 61.9021 46.4579C61.9466 46.747 62.1812 46.8006 62.408 46.8523C62.5517 46.8851 62.6922 46.9172 62.7791 47.008ZM71.6889 53.2174L71.6911 53.2163C71.7716 53.174 71.8146 53.1385 71.8397 53.1091C71.8623 53.0827 71.8792 53.0511 71.8902 52.9998C71.9168 52.8759 71.9032 52.6795 71.8452 52.3022L71.587 50.6229C71.4904 49.9948 71.4242 49.6107 71.3561 49.3698C71.2954 49.1548 71.2491 49.1166 71.2368 49.1096C71.2278 49.1055 71.2054 49.0983 71.1548 49.0897C71.1452 49.088 71.1354 49.0865 71.1251 49.0849C71.1093 49.0824 71.0923 49.08 71.0735 49.0773C71.0444 49.0731 71.0111 49.0683 70.9769 49.0625C70.976 49.0623 70.9751 49.0622 70.9743 49.062L70.9704 49.0615C70.8702 49.0463 70.7239 49.0242 70.599 48.9631C70.4465 48.8884 70.3192 48.7534 70.2863 48.5397C70.248 48.2909 70.3758 48.0981 70.4938 47.9751C70.6121 47.8518 70.7638 47.7529 70.8715 47.6837L70.8723 47.6832C71.1953 47.4775 71.5544 47.3034 71.8671 47.1752C72.174 47.0494 72.4581 46.959 72.629 46.9328C72.7562 46.9132 72.8812 46.9259 72.9941 46.9822C73.1058 47.0378 73.1811 47.1237 73.2314 47.2084C73.3242 47.3648 73.3543 47.5591 73.3722 47.6758C73.4799 48.3765 73.5624 49.0668 73.6435 49.747L73.645 49.7595C73.7258 50.4369 73.8053 51.1041 73.9077 51.7702C73.9536 52.0682 73.9957 52.2823 74.0376 52.4375C74.0801 52.5952 74.1179 52.6741 74.1457 52.7144L74.1462 52.7152C74.1759 52.7581 74.1802 52.7643 74.3955 52.7987L74.3984 52.7992C74.4972 52.8161 74.6441 52.8423 74.7689 52.9259C74.9149 53.0238 74.9964 53.173 75.0248 53.3578C75.0425 53.4729 75.0397 53.6088 74.9697 53.7432C74.9013 53.8746 74.7873 53.969 74.6534 54.0412C74.3972 54.1792 73.9786 54.2819 73.3442 54.3795C73.2793 54.3895 73.2074 54.4016 73.1308 54.4146C72.8498 54.4622 72.5057 54.5206 72.2115 54.5201C72.0224 54.5198 71.8156 54.4967 71.6404 54.4076C71.448 54.3098 71.3084 54.1389 71.2708 53.8947C71.2392 53.6893 71.3033 53.5246 71.4172 53.4053C71.5005 53.3182 71.6098 53.2598 71.668 53.2287C71.6751 53.225 71.6814 53.2216 71.6868 53.2186L71.6889 53.2174ZM71.8197 53.4611C72.2173 53.2523 72.2315 52.9949 72.1185 52.2602L71.8603 50.5808C71.6687 49.3344 71.586 48.9711 71.3538 48.8591C71.2892 48.829 71.205 48.8169 71.115 48.8039C71.0841 48.7994 71.0525 48.7948 71.0208 48.7894C70.8008 48.7561 70.5939 48.7207 70.5596 48.4977C70.5213 48.2484 70.8009 48.0577 71.0209 47.9164C71.6325 47.5269 72.3955 47.2485 72.671 47.2061C72.999 47.1557 73.0606 47.4685 73.0989 47.7178C73.2066 48.4182 73.2889 49.1088 73.3707 49.7944C73.4512 50.4703 73.5313 51.1414 73.6344 51.8122C73.8151 52.9872 73.9585 53.0098 74.3216 53.067C74.3316 53.0686 74.3416 53.0702 74.3518 53.0718C74.5587 53.1071 74.7131 53.1506 74.7515 53.3998C74.7999 53.7147 74.5748 53.9105 73.3022 54.1062C73.2282 54.1175 73.1498 54.1308 73.0688 54.1445C72.4303 54.2523 71.6265 54.3882 71.5441 53.8527C71.5098 53.6292 71.6653 53.5449 71.7975 53.4732C71.805 53.4691 71.8124 53.4651 71.8197 53.4611ZM71.8361 46.4056C71.0535 46.5259 70.4879 46.095 70.3986 45.5141C70.3145 44.9672 70.7205 44.2447 71.5645 44.115C72.2138 44.0151 72.914 44.3464 73.0212 45.0437C73.1075 45.6048 72.6916 46.274 71.8361 46.4056ZM75.8746 52.8377C76.2218 52.65 76.3076 52.4219 76.1865 51.6347L75.9152 49.9574L75.9052 49.8966C75.7086 48.7014 75.6519 48.3567 75.4087 48.2356C75.3441 48.2056 75.2599 48.1934 75.1699 48.1804C75.139 48.1759 75.1074 48.1714 75.0757 48.166C74.8557 48.1326 74.6488 48.0973 74.6145 47.8743C74.5762 47.625 74.8537 47.4211 75.0758 47.293C75.6652 46.9338 76.4151 46.6573 76.6643 46.619C77.0055 46.5665 77.0609 46.84 77.0831 46.9843L77.1517 47.4304C77.1578 47.4698 77.1638 47.5091 77.2163 47.5011C77.2458 47.4965 77.2805 47.4699 77.3388 47.4017C77.3559 47.3816 77.3751 47.358 77.3968 47.3302C77.402 47.3235 77.4074 47.3166 77.4129 47.3094C77.4451 47.2677 77.4824 47.2177 77.5262 47.158C77.9258 46.613 78.3265 46.3365 78.9432 46.2417C79.6385 46.1348 80.3278 46.3377 80.794 46.7495C81.4459 47.3208 81.6134 48.2352 81.7354 49.1162L81.9865 50.8369L81.9927 50.8773C82.0696 51.3793 82.1198 51.7074 82.6182 51.8008C82.6318 51.8035 82.6457 51.806 82.6597 51.8086C82.8032 51.835 82.9638 51.8644 82.9987 52.0915C83.0767 52.5986 82.3315 52.7091 81.6191 52.8146C81.5574 52.8238 81.496 52.8329 81.4353 52.8422C80.1496 53.0399 79.8428 52.9662 79.7903 52.6251C79.7561 52.402 79.862 52.3052 80.073 52.1922C80.0864 52.1852 80.0997 52.1786 80.1128 52.172C80.2449 52.1057 80.3562 52.0498 80.4242 51.8561C80.4898 51.6714 80.4888 51.403 80.3738 50.6551C80.1035 48.8971 79.9259 48.4409 79.8261 48.2279C79.6707 47.9161 79.377 47.4912 78.6423 47.6041C78.1175 47.6848 77.7259 48.1077 77.5694 48.5749C77.4241 49.027 77.4704 49.678 77.7024 51.1868C77.8174 51.9346 77.887 52.1253 77.9556 52.2222C78.0757 52.3918 78.2281 52.4221 78.4067 52.4483C78.6267 52.4817 78.768 52.5271 78.8063 52.7764C78.8568 53.1044 78.6297 53.287 77.3571 53.4827C77.3135 53.4894 77.2689 53.4964 77.2237 53.5035C76.5332 53.612 75.6785 53.7464 75.599 53.2292C75.5647 53.0057 75.7201 52.9214 75.8524 52.8497C75.8599 52.8457 75.8673 52.8417 75.8746 52.8377ZM82.0092 49.0775L82.0093 49.0783L82.2599 50.7949L82.26 50.7959C82.3034 51.0779 82.3285 51.2398 82.3868 51.3534C82.4111 51.4007 82.4384 51.4324 82.4737 51.457C82.5107 51.483 82.5697 51.5103 82.6692 51.529L82.6721 51.5295C82.6783 51.5308 82.6863 51.5322 82.696 51.5339C82.7564 51.5444 82.879 51.5658 82.9806 51.6196C83.1322 51.6998 83.2401 51.8418 83.272 52.0495C83.3065 52.2738 83.2384 52.4679 83.0972 52.6158C82.9688 52.7502 82.7927 52.8338 82.6232 52.8914C82.3395 52.9879 81.9764 53.0415 81.6524 53.0893C81.5925 53.0982 81.5339 53.1068 81.4774 53.1155C80.8396 53.2136 80.4011 53.2527 80.1096 53.2092C79.9583 53.1867 79.8138 53.1377 79.7013 53.0341C79.5845 52.9265 79.5362 52.7916 79.517 52.6671C79.4915 52.5012 79.515 52.3424 79.6167 52.2038C79.7052 52.0832 79.8342 52.0063 79.9424 51.9484L79.9445 51.9472L79.9467 51.9461C79.9936 51.922 80.0173 51.9111 80.0487 51.8941C80.0752 51.8797 80.0918 51.8689 80.1039 51.8592C80.1209 51.8456 80.1421 51.825 80.1632 51.7646L80.1636 51.7635C80.2017 51.6563 80.2179 51.4607 80.1005 50.6972C79.8325 48.9538 79.6599 48.5254 79.5771 48.3483C79.5066 48.2075 79.4196 48.0733 79.2914 47.9822C79.1714 47.8971 78.9885 47.8307 78.6843 47.8775C78.287 47.9386 77.9649 48.2667 77.8322 48.661C77.7747 48.8408 77.749 49.0779 77.7705 49.4694C77.7921 49.8625 77.8598 50.3907 77.9757 51.1447C78.0328 51.516 78.0773 51.7392 78.1138 51.8782C78.1503 52.0166 78.1743 52.0525 78.1813 52.0624C78.2107 52.1038 78.2374 52.1218 78.2674 52.1345C78.3063 52.151 78.3564 52.1614 78.4469 52.1747L78.4481 52.1749C78.5553 52.1911 78.7056 52.2167 78.8318 52.3038C78.9786 52.4052 79.0524 52.5571 79.0797 52.7343C79.0976 52.8506 79.0959 52.9881 79.0261 53.124C78.9574 53.2577 78.8419 53.3522 78.7074 53.4235C78.4511 53.5594 78.0319 53.6587 77.3991 53.756C77.3572 53.7625 77.3136 53.7693 77.2687 53.7764C76.9496 53.8267 76.5632 53.8877 76.2376 53.8799C76.0515 53.8755 75.8518 53.8488 75.6838 53.7627C75.5001 53.6687 75.3618 53.506 75.3257 53.2712C75.2941 53.0658 75.3582 52.9012 75.4721 52.7819C75.5554 52.6947 75.6647 52.6363 75.7229 52.6053C75.73 52.6015 75.7363 52.5981 75.7417 52.5952L75.7431 52.5944C75.8764 52.5223 75.9168 52.4693 75.9397 52.387C75.972 52.2708 75.9736 52.0702 75.9134 51.6778L75.9132 51.6767L75.6423 50.0023L75.6358 49.9625C75.5359 49.3556 75.475 48.9853 75.4109 48.7482C75.352 48.5301 75.3072 48.4947 75.2902 48.4855C75.2803 48.4813 75.2577 48.4744 75.2097 48.4662C75.1854 48.462 75.1595 48.4583 75.1284 48.4538C75.0993 48.4496 75.0659 48.4448 75.0318 48.439C75.0309 48.4389 75.03 48.4387 75.0291 48.4386L75.0253 48.438C74.9251 48.4229 74.7788 48.4008 74.6539 48.3396C74.5013 48.265 74.374 48.13 74.3412 47.9163C74.3033 47.6699 74.4277 47.4745 74.5461 47.3487C74.6653 47.222 74.8165 47.1235 74.9347 47.0551C75.2446 46.8665 75.5922 46.7019 75.8935 46.5795C76.1885 46.4595 76.4636 46.37 76.6223 46.3456C76.7445 46.3269 76.8621 46.3342 76.9696 46.3754C77.0785 46.4172 77.1588 46.4868 77.2154 46.563C77.3126 46.694 77.3417 46.8488 77.354 46.9265C77.5512 46.6683 77.7593 46.4588 78.0016 46.2998C78.2667 46.1259 78.5598 46.0209 78.9011 45.9684C79.6723 45.8498 80.4453 46.0727 80.9768 46.542C81.7164 47.1906 81.8892 48.2112 82.0092 49.0775ZM89.6545 51.0127L89.6535 51.0139C88.8176 51.9683 88.0416 52.2405 87.3811 52.3421C85.2296 52.6729 83.4862 51.2781 83.1755 49.2574C82.8326 47.0272 84.1679 45.1586 86.3329 44.8257C87.2358 44.6869 88.0506 44.8492 88.6793 45.294C89.3092 45.7396 89.7227 46.448 89.8604 47.3432C89.9069 47.6461 89.9193 47.9496 89.7185 48.1642C89.6218 48.2675 89.4991 48.3237 89.3818 48.3602C89.2652 48.3964 89.1286 48.4204 88.9841 48.4426L85.691 48.949C85.6767 48.9512 85.6631 48.9533 85.65 48.9553C85.5631 48.9686 85.5034 48.9777 85.456 48.9882C85.4577 49.0103 85.461 49.0401 85.4671 49.0797C85.6119 50.0211 86.511 50.721 87.5111 50.5672C87.9893 50.4937 88.4135 50.2472 88.6464 49.9965L88.6481 49.9947L88.8528 49.7782C88.8597 49.7703 88.8669 49.7621 88.8744 49.7535C88.9329 49.6867 89.0079 49.601 89.0919 49.5297C89.1936 49.4433 89.3258 49.3615 89.4974 49.3352C89.7825 49.2913 90.1436 49.4471 90.2043 49.842C90.2435 50.0974 90.1253 50.4691 89.6545 51.0127ZM85.3166 47.6619C85.3488 47.6606 85.3923 47.6564 85.4506 47.6474L87.6154 47.3146C87.68 47.3046 87.7269 47.2945 87.7605 47.2853C87.6376 46.5912 87.0068 46.1547 86.325 46.2595C85.6779 46.359 85.2228 46.9538 85.3166 47.6619ZM92.9056 47.3426L92.9056 47.3439C92.894 47.661 92.8695 47.9316 92.8038 48.1332C92.7699 48.237 92.7194 48.3409 92.6384 48.4253C92.5527 48.5145 92.4454 48.5685 92.325 48.587C92.2046 48.6056 92.0861 48.5863 91.9775 48.5269C91.8749 48.4708 91.7955 48.3868 91.732 48.298C91.6087 48.1255 91.5042 47.8747 91.3978 47.5757L91.3973 47.5742C90.8399 45.9782 90.4373 44.3309 90.2188 42.9099C90.1445 42.4268 90.1424 42.0068 90.2915 41.6833C90.4547 41.3293 90.7685 41.1488 91.1718 41.0868C91.5751 41.0248 91.9286 41.1027 92.1906 41.3913C92.43 41.655 92.5542 42.0563 92.6285 42.5394C92.8571 44.0265 92.9567 45.734 92.9056 47.3426ZM92.7749 51.5128C92.0466 51.6248 91.3756 51.1326 91.2637 50.4044C91.1493 49.6607 91.6461 49.0048 92.3721 48.8932C93.1026 48.7808 93.7565 49.2645 93.8702 50.0036C93.9814 50.7273 93.5076 51.4001 92.7749 51.5128ZM92.6292 47.3338C92.6798 45.7413 92.5811 44.0508 92.3551 42.5814C92.2099 41.6367 91.8961 41.2552 91.2138 41.3601C90.5316 41.465 90.3469 41.9232 90.4921 42.8678C90.708 44.2717 91.1065 45.9026 91.6584 47.4831C91.8712 48.0816 92.0337 48.352 92.283 48.3137C92.5323 48.2754 92.606 47.9686 92.6292 47.3338ZM47.9624 38.607C47.9866 38.7644 48.0269 38.8522 48.4074 38.7937L50.5722 38.4609C50.9658 38.4003 50.9779 38.3045 50.9537 38.147C50.8206 37.2811 50.0375 36.73 49.1978 36.8591C48.3843 36.9842 47.8292 37.741 47.9624 38.607ZM79.9791 33.6842C80.0033 33.8416 80.0437 33.9295 80.4242 33.871L82.589 33.5381C82.9826 33.4776 82.9947 33.3817 82.9705 33.2243C82.8373 32.3584 82.0542 31.8073 81.2146 31.9364C80.4011 32.0614 79.846 32.8183 79.9791 33.6842ZM71.7941 46.1322C71.1381 46.2331 70.7345 45.8788 70.6719 45.4721C70.6114 45.0785 70.9112 44.4952 71.6065 44.3883C72.1576 44.3036 72.6712 44.5872 72.7479 45.0858C72.8084 45.4794 72.5157 46.0213 71.7941 46.1322ZM85.0476 47.734C85.0718 47.8914 85.1121 47.9792 85.4926 47.9207L87.6574 47.5879C88.051 47.5274 88.0631 47.4315 88.0389 47.2741C87.9058 46.4081 87.1227 45.857 86.283 45.9861C85.4695 46.1112 84.9144 46.8681 85.0476 47.734ZM89.587 47.3852C89.6818 48.0018 89.5193 48.0806 88.9421 48.1693L85.649 48.6756C85.6351 48.6778 85.6215 48.6798 85.6083 48.6819C85.2231 48.7407 85.1372 48.7538 85.1938 49.1217C85.3612 50.2106 86.3986 51.0181 87.5532 50.8406C88.0911 50.7579 88.5725 50.4824 88.849 50.1847L89.057 49.9647C89.0659 49.9546 89.0748 49.9444 89.0838 49.9342C89.2122 49.7879 89.3431 49.6387 89.5394 49.6085C89.71 49.5823 89.8987 49.6741 89.9309 49.8841C89.9511 50.0153 89.9016 50.3049 89.4454 50.8317C88.6572 51.7318 87.9426 51.976 87.3391 52.0688C85.3449 52.3754 83.7373 51.0915 83.4488 49.2154C83.1281 47.1293 84.3675 45.4077 86.3749 45.0991C88.0674 44.8388 89.3308 45.719 89.587 47.3852ZM92.7328 51.2395C92.1556 51.3282 91.6258 50.9396 91.537 50.3623C91.4462 49.7719 91.8368 49.2553 92.4141 49.1665C92.9914 49.0777 93.506 49.4552 93.5968 50.0456C93.6856 50.6229 93.3101 51.1507 92.7328 51.2395Z" fill="black"/>
<path d="M55.6821 33.2455C55.6233 32.1353 54.6373 31.9092 54.221 31.9313C53.8046 31.9533 53.1828 32.2308 53.117 32.9404C53.0118 34.0757 53.7056 34.3421 54.1892 34.4543C54.1471 34.7872 53.9978 35.5749 53.737 36.0627C53.4111 36.6724 54.6621 36.6199 54.8934 36.3046C55.1247 35.9892 55.7556 34.6332 55.6821 33.2455Z" fill="#F8FFF6"/>
<path fill-rule="evenodd" clip-rule="evenodd" d="M54.2284 32.0693C53.8481 32.0894 53.3117 32.3399 53.2548 32.9531C53.2051 33.4893 53.3446 33.7961 53.5306 33.9836C53.7228 34.1773 53.9847 34.2648 54.2205 34.3195L54.3421 34.3478L54.3265 34.4716C54.284 34.8077 54.1324 35.6166 53.8591 36.1278C53.8263 36.1891 53.8203 36.2293 53.8218 36.2525C53.823 36.2728 53.8302 36.2887 53.8461 36.3048C53.8855 36.3447 53.9768 36.3816 54.1172 36.3926C54.2511 36.4032 54.4029 36.3878 54.5328 36.3522C54.6697 36.3146 54.7527 36.2627 54.782 36.2227C54.8855 36.0816 55.0955 35.6791 55.2705 35.1348C55.4447 34.5931 55.5797 33.9246 55.5441 33.2527C55.5173 32.7453 55.2824 32.4509 55.0121 32.2808C54.7343 32.1059 54.4131 32.0595 54.2284 32.0693ZM52.9795 32.9276C53.0542 32.1216 53.7615 31.8171 54.2138 31.7931C54.4454 31.7809 54.8254 31.8365 55.1594 32.0467C55.5009 32.2617 55.7884 32.6354 55.8203 33.2381C55.8582 33.9539 55.7145 34.6572 55.5338 35.2194C55.3539 35.7788 55.1328 36.2121 55.005 36.3863C54.9186 36.5041 54.7585 36.577 54.606 36.6188C54.4465 36.6627 54.2625 36.6815 54.0955 36.6683C53.935 36.6557 53.7601 36.6111 53.6495 36.4992C53.5903 36.4394 53.5514 36.3618 53.5457 36.2695C53.5402 36.1801 53.5665 36.0886 53.6152 35.9974C53.8366 35.5832 53.9776 34.9284 54.035 34.5579C53.8087 34.4955 53.5441 34.3899 53.3343 34.1784C53.0787 33.9207 52.9239 33.5267 52.9795 32.9276Z" fill="black"/>
</g>
<defs>
<filter id="filter0_d" x="0.226074" y="0.210938" width="123.424" height="86.53" filterUnits="userSpaceOnUse" color-interpolation-filters="sRGB">
<feFlood flood-opacity="0" result="BackgroundImageFix"/>
<feColorMatrix in="SourceAlpha" type="matrix" values="0 0 0 0 0 0 0 0 0 0 0 0 0 0 0 0 0 0 127 0"/>
<feOffset/>
<feGaussianBlur stdDeviation="7.5"/>
<feColorMatrix type="matrix" values="0 0 0 0 0 0 0 0 0 0 0 0 0 0 0 0 0 0 0.1 0"/>
<feBlend mode="normal" in2="BackgroundImageFix" result="effect1_dropShadow"/>
<feBlend mode="normal" in="SourceGraphic" in2="effect1_dropShadow" result="shape"/>
</filter>
</defs>
</svg>
