<svg width="310" height="140" viewBox="0 0 310 140" fill="none" xmlns="http://www.w3.org/2000/svg">
<rect x="27.5" y="31.5" width="260" height="108" rx="2.5" fill="#B2C0F3" stroke="black"/>
<path d="M75.4531 76.0938H65.5938V57.4531H60.875V80H75.4531V76.0938ZM85.125 66.2656C87.1562 66.2656 88.5469 67.7344 88.6406 69.875H81.5312C81.6875 67.7812 83.125 66.2656 85.125 66.2656ZM88.7031 74.875C88.2812 76.1562 87 76.9844 85.3281 76.9844C83 76.9844 81.4844 75.3438 81.4844 72.9531V72.6719H93.0312V71.2812C93.0312 66.1875 89.9531 62.8906 85.0781 62.8906C80.125 62.8906 77 66.3594 77 71.7031C77 77.0625 80.0938 80.3594 85.25 80.3594C89.3906 80.3594 92.3906 78.1562 92.8906 74.875H88.7031ZM96.6094 59.3906V63.25H94.25V66.6875H96.6094V75.4844C96.6094 78.75 98.1406 80.0625 102.078 80.0625C103 80.0625 103.781 79.9844 104.25 79.875V76.5156C103.969 76.5625 103.547 76.5938 103.141 76.5938C101.797 76.5938 101.172 75.9844 101.172 74.7031V66.6875H104.266V63.25H101.172V59.3906H96.6094ZM110.328 66.25L112.422 57.4531H108.094L106.922 66.25H110.328ZM113.391 68.1719C113.391 70.6406 115.016 72.2969 118.188 73.0156L121.281 73.7031C122.781 74.0625 123.344 74.5312 123.344 75.375C123.344 76.4688 122.297 77.1562 120.562 77.1562C118.75 77.1562 117.641 76.3438 117.422 74.9375H112.969C113.219 78.2031 115.969 80.3594 120.438 80.3594C124.859 80.3594 127.891 78.1875 127.891 74.8906C127.891 72.3906 126.531 71.0625 123.172 70.3125L119.969 69.625C118.5 69.2812 117.781 68.7188 117.781 67.8906C117.781 66.8125 118.812 66.0938 120.391 66.0938C122.078 66.0938 123.156 66.9219 123.25 68.2656H127.453C127.391 65.0156 124.656 62.8906 120.453 62.8906C116.156 62.8906 113.391 64.9844 113.391 68.1719ZM147.016 80V61.3438H153.547V57.4531H135.781V61.3438H142.297V80H147.016ZM158.391 76.9688C156.844 76.9688 155.812 76.1875 155.812 74.9375C155.812 73.75 156.781 72.9844 158.484 72.8594L162.016 72.6406V73.8594C162.016 75.6719 160.375 76.9688 158.391 76.9688ZM156.891 80.2656C158.984 80.2656 161.062 79.2188 162 77.4375H162.094V80H166.5V68.4844C166.5 65.1094 163.703 62.8906 159.406 62.8906C154.969 62.8906 152.203 65.125 152.031 68.375H156.203C156.422 67.1406 157.5 66.2969 159.203 66.2969C160.922 66.2969 162.016 67.2031 162.016 68.7656V69.875L157.797 70.125C153.625 70.375 151.281 72.1406 151.281 75.1875C151.281 78.2031 153.703 80.2656 156.891 80.2656ZM169.562 80H174.125V57.4531H169.562V80ZM181.938 69.9688H181.875V57.4531H177.312V80H181.875V74.4688L183.062 73.1875L187.859 80H193.109L186.406 70.4375L192.797 63.25H187.625L181.938 69.9688ZM75.6406 112H80.6562L72.8125 89.4531H67.2656L59.4375 112H64.2812L66 106.531H73.9219L75.6406 112ZM69.9062 93.7656H70.0156L72.9062 103H67.0156L69.9062 93.7656ZM92.5312 112.266C96.75 112.266 99.3281 109.016 99.3281 103.625C99.3281 98.2188 96.7344 94.9844 92.5156 94.9844C90.125 94.9844 88.2656 96.1719 87.3438 98.1562H87.25V89.4531H82.6875V112H87.1875V109.125H87.2812C88.2031 111.078 90.0781 112.266 92.5312 112.266ZM90.9531 98.6406C93.2188 98.6406 94.6562 100.578 94.6562 103.625C94.6562 106.688 93.2344 108.594 90.9531 108.594C88.7344 108.594 87.2344 106.656 87.2344 103.625C87.2344 100.625 88.75 98.6406 90.9531 98.6406ZM109.391 112.359C114.453 112.359 117.688 109.125 117.688 103.609C117.688 98.1719 114.406 94.8906 109.391 94.8906C104.375 94.8906 101.094 98.1875 101.094 103.609C101.094 109.109 104.328 112.359 109.391 112.359ZM109.391 108.875C107.141 108.875 105.719 106.984 105.719 103.625C105.719 100.297 107.172 98.375 109.391 98.375C111.609 98.375 113.047 100.297 113.047 103.625C113.047 106.984 111.625 108.875 109.391 108.875ZM135.516 95.25H130.953V104.844C130.953 107.062 129.688 108.516 127.656 108.516C125.641 108.516 124.531 107.328 124.531 105.094V95.25H119.969V106.047C119.969 109.953 122.375 112.312 126 112.312C128.531 112.312 130.188 111.094 131.016 108.984H131.109V112H135.516V95.25ZM139.703 91.3906V95.25H137.344V98.6875H139.703V107.484C139.703 110.75 141.234 112.062 145.172 112.062C146.094 112.062 146.875 111.984 147.344 111.875V108.516C147.062 108.562 146.641 108.594 146.234 108.594C144.891 108.594 144.266 107.984 144.266 106.703V98.6875H147.359V95.25H144.266V91.3906H139.703ZM166.562 112.391C172.094 112.391 175.953 109.203 176.484 104.172H171.891C171.391 106.844 169.375 108.484 166.578 108.484C162.969 108.484 160.703 105.516 160.703 100.703C160.703 95.9531 163 92.9688 166.562 92.9688C169.312 92.9688 171.438 94.7812 171.875 97.5469H176.469C176.109 92.5 171.984 89.0625 166.562 89.0625C160.031 89.0625 155.891 93.4531 155.891 100.719C155.891 108 160 112.391 166.562 112.391ZM186.703 112.359C191.766 112.359 195 109.125 195 103.609C195 98.1719 191.719 94.8906 186.703 94.8906C181.688 94.8906 178.406 98.1875 178.406 103.609C178.406 109.109 181.641 112.359 186.703 112.359ZM186.703 108.875C184.453 108.875 183.031 106.984 183.031 103.625C183.031 100.297 184.484 98.375 186.703 98.375C188.922 98.375 190.359 100.297 190.359 103.625C190.359 106.984 188.938 108.875 186.703 108.875ZM197.359 112H201.922V102.641C201.922 100.281 203.234 98.9062 205.484 98.9062C206.141 98.9062 206.766 99.0156 207.141 99.1719V95.1562C206.828 95.0625 206.375 94.9844 205.844 94.9844C203.875 94.9844 202.453 96.1406 201.859 98.2656H201.766V95.25H197.359V112ZM216.141 112.359C221.203 112.359 224.438 109.125 224.438 103.609C224.438 98.1719 221.156 94.8906 216.141 94.8906C211.125 94.8906 207.844 98.1875 207.844 103.609C207.844 109.109 211.078 112.359 216.141 112.359ZM216.141 108.875C213.891 108.875 212.469 106.984 212.469 103.625C212.469 100.297 213.922 98.375 216.141 98.375C218.359 98.375 219.797 100.297 219.797 103.625C219.797 106.984 218.375 108.875 216.141 108.875ZM226.797 112H231.359V102.391C231.359 100.219 232.656 98.7188 234.703 98.7188C236.75 98.7188 237.781 99.9688 237.781 102.156V112H242.344V101.203C242.344 97.2812 240.25 94.9375 236.531 94.9375C233.953 94.9375 232.188 96.1562 231.297 98.2344H231.203V95.25H226.797V112ZM251.703 108.969C250.156 108.969 249.125 108.188 249.125 106.938C249.125 105.75 250.094 104.984 251.797 104.859L255.328 104.641V105.859C255.328 107.672 253.688 108.969 251.703 108.969ZM250.203 112.266C252.297 112.266 254.375 111.219 255.312 109.438H255.406V112H259.812V100.484C259.812 97.1094 257.016 94.8906 252.719 94.8906C248.281 94.8906 245.516 97.125 245.344 100.375H249.516C249.734 99.1406 250.812 98.2969 252.516 98.2969C254.234 98.2969 255.328 99.2031 255.328 100.766V101.875L251.109 102.125C246.938 102.375 244.594 104.141 244.594 107.188C244.594 110.203 247.016 112.266 250.203 112.266Z" fill="black"/>
<path fill-rule="evenodd" clip-rule="evenodd" d="M249.42 8.4042C236.073 4.86726 222.387 12.8194 218.85 26.1658C216.001 36.9163 220.606 47.8876 229.481 53.5972L231.773 69.3675L244.837 58.9157L273.343 66.4702C286.69 70.0071 300.376 62.055 303.913 48.7086C307.45 35.3622 299.498 21.6755 286.152 18.1386L249.42 8.4042Z" fill="#FEFFF6"/>
<path d="M229.481 53.5972L229.975 53.5253L229.943 53.3L229.751 53.1767L229.481 53.5972ZM231.773 69.3675L231.278 69.4394L231.404 70.3032L232.085 69.7579L231.773 69.3675ZM244.837 58.9157L244.965 58.4324L244.721 58.3678L244.525 58.5253L244.837 58.9157ZM219.333 26.2939C222.799 13.2144 236.212 5.42131 249.292 8.88751L249.548 7.92088C235.934 4.3132 221.974 12.4244 218.366 26.0377L219.333 26.2939ZM229.751 53.1767C221.054 47.581 216.541 36.8286 219.333 26.2939L218.366 26.0377C215.46 37.004 220.158 48.1941 229.21 54.0177L229.751 53.1767ZM232.268 69.2956L229.975 53.5253L228.986 53.6692L231.278 69.4394L232.268 69.2956ZM244.525 58.5253L231.461 68.9771L232.085 69.7579L245.149 59.3061L244.525 58.5253ZM273.471 65.9869L244.965 58.4324L244.709 59.399L273.215 66.9535L273.471 65.9869ZM303.43 48.5805C299.964 61.66 286.551 69.4531 273.471 65.9869L273.215 66.9535C286.828 70.5612 300.789 62.45 304.397 48.8367L303.43 48.5805ZM286.024 18.6219C299.103 22.0881 306.896 35.501 303.43 48.5805L304.397 48.8367C308.004 35.2233 299.893 21.2629 286.28 17.6553L286.024 18.6219ZM249.292 8.88751L286.024 18.6219L286.28 17.6553L249.548 7.92088L249.292 8.88751Z" fill="black"/>
<path d="M243.199 35.9944C244.4 36.3126 245.641 35.5626 245.962 34.3506C246.287 33.1272 245.577 31.8722 244.376 31.554C243.175 31.2358 241.937 31.9744 241.613 33.1978C241.291 34.4099 241.998 35.6762 243.199 35.9944ZM259.86 40.4097C261.061 40.7279 262.302 39.9779 262.623 38.7659C262.947 37.5425 262.237 36.2875 261.037 35.9693C259.836 35.651 258.598 36.3897 258.273 37.6131C257.952 38.8252 258.659 40.0915 259.86 40.4097ZM276.521 44.825C277.722 45.1432 278.963 44.3932 279.284 43.1812C279.608 41.9578 278.898 40.7028 277.698 40.3845C276.497 40.0663 275.258 40.805 274.934 42.0284C274.613 43.2405 275.32 44.5068 276.521 44.825Z" fill="black"/>
<path fill-rule="evenodd" clip-rule="evenodd" d="M20.618 76.7556C18.1022 75.9222 15.4165 75.8722 12.9006 76.618C11.3344 77.0521 9.87499 77.8056 8.60664 78.8336C7.33521 79.8642 6.28241 81.1489 5.50702 82.6112C4.73169 84.0733 4.24896 85.684 4.08395 87.3494C3.91895 89.0148 4.07469 90.7036 4.54109 92.3188C7.70824 103.289 18.8888 110.777 35.085 115.72C35.5537 115.863 36.0623 115.716 36.3826 115.346C47.4521 102.531 52.9215 90.2362 49.7545 79.2658C49.2882 77.6506 48.5199 76.1386 47.4928 74.8175C46.4655 73.4962 45.1986 72.3906 43.7633 71.5667C42.3279 70.7427 40.7523 70.2168 39.1273 70.0224C37.5062 69.8286 35.8697 69.9688 34.3132 70.4363C31.7868 71.1461 29.541 72.6198 27.8565 74.6659C26.6957 76.0758 25.838 77.7129 25.3232 79.4722C23.95 78.258 22.3517 77.3299 20.618 76.7556Z" fill="#CFF4C9" stroke="black" stroke-miterlimit="10" stroke-linecap="round" stroke-linejoin="round"/>
</svg>
