<svg width="281" height="308" viewBox="0 0 281 308" fill="none" xmlns="http://www.w3.org/2000/svg">
<path d="M17 178L14 166.5L12 162.5L14 151.5L11 144.5L14 143.5H101.757L101.5 146.5L104 149L102 152L103.5 160.5L110 163L111 166L119 175.5V181L113.5 189L105.5 190L103 193.5L105.5 197L103.5 207L96.5 212L93 208.5L26 209.5L23.5 207L23 190.5L20.5 188V181.5L17 178Z" fill="#CFF4C9"/>
<path d="M119 175.5L111 166H158C160 174 162.5 179.333 163.5 181V234.5L160.5 240.5L163.5 251L155.5 262L147 283.5L140 282L136.5 287.5L133 286L129.5 280.5L129 271L115.5 260L119.5 247.5L114.5 244L111.5 246.5L110 238L98.5 228.5L96.5 221.5L97.5 215L96.5 212L103.5 207L105.5 197L103 193.5L105.5 190L113.5 189L119 181V175.5Z" fill="#CFF4C9"/>
<path d="M97.5 215L96.5 212L93 208.5L26 209.5L27.5 211V214.5L31.5 218L33.5 222L36.5 225H40V228L36.5 232L40 236V239.5L44.5 240V296.5L119.5 297.5L121 300.5L116 305.5L126.5 307L130 296.5H133.5L136.5 292.5L136.5 287.5L133 286L129.5 280.5L129 271L115.5 260L119.5 247.5L114.5 244L111.5 246.5L110 238L98.5 228.5L96.5 221.5L97.5 215Z" fill="#CFF4C9"/>
<path d="M35 11H1L8.5 60V68.5L12 86V90.5L8 95L10 98.5L14 101V143.5H102L99 133.5L93 129L89.5 124L76 115V102L77.5 98L73.5 95.5V91.5L76 87L84 82.5V70L85.5 67H89.5L110.5 53H123L131 35H123L120 33.5H110.5L107.5 29L95.5 35L93 31L89.5 29L88 27H84L82 29L79.5 25.5H77.5V22L73.5 20L58.5 23.5V20L43 15.5L41.5 2.5L35 1V11Z" fill="#CFF4C9"/>
<path d="M110.5 53H123L115 71L121.5 77L153 86V89.5L159 92.5L156.5 100H161L155.5 117L158 119.5L165 111L171.5 101.5L172.5 104L166 119.5L158 149V166H111L110 163L103.5 160.5L102 152L104 149L101.5 146.5L102 143.5L99 133.5L93 129L89.5 124L76 115V102L77.5 98L73.5 95.5V91.5L76 87L84 82.5V70L85.5 67H89.5L110.5 53Z" fill="#CFF4C9"/>
<path d="M181.5 136.5C180 142.5 180.5 142.5 183.5 151.5C188.266 163.598 180.667 177.688 174.5 184H232L236.5 178.5L238 170.5L247 163L249 155C247.5 148 243.6 133.6 240 132C235.5 130 230.5 138 228.5 141C226.5 144 224 141 223.5 139C223 137 223 135.5 229.5 132C236 128.5 233 105.5 233 102C233 98.5 225.5 97 220.5 97C215.5 97 208.5 89 205 93C201.5 97 206.5 98.5 206.5 100.5C206.5 102.5 205 100.5 201 102C197 103.5 197 113 195.5 113.5C194.3 113.9 194.333 110 194.5 108C193.833 108.833 191.3 111.2 186.5 114C180.5 117.5 183 130.5 181.5 136.5Z" fill="#CFF4C9"/>
<path d="M163.5 184H208.5L208 248L200 249.5L186 264.5L182.5 260L177.5 268.5L174 265.608L169.5 270L162.5 264.5L161 269L153.5 267.5L155.5 262L163.5 251L160.5 240.5L163.5 234.5V184Z" fill="#CFF4C9"/>
<path d="M232 184L236.5 178.5L237 180L243 184L249 185L267.5 173.5L280.5 170.5V208L278 209.5L279 215C277.833 220 274.3 230.8 269.5 234C264.7 237.2 263.167 237 263 236.5V238H259.5L258 241L259.5 245L257 246.5L254.5 243.5L251 254.5L245.5 256.5L241.5 253V249.5L235.5 252L230.5 249.5L227.5 252L225 248H218.5L215 241H208L208.5 184H232Z" fill="#CFF4C9"/>
<path d="M14 143.5L11 144.5L14 151.5L12 162.5L14 166.5L17 178L20.5 181.5V188L23 190.5L23.5 207L26 209.5M14 143.5H101.757L101.5 146.5M14 143.5H102M14 143.5V101L10 98.5L8 95L12 90.5V86L8.5 68.5V60L1 11H35V1L41.5 2.5L43 15.5L58.5 20V23.5L73.5 20L77.5 22V25.5H79.5L82 29L84 27H88L89.5 29L93 31L95.5 35L107.5 29L110.5 33.5H120L123 35H131L123 53M101.5 146.5L104 149L102 152L103.5 160.5L110 163L111 166M101.5 146.5L102 143.5M111 166L119 175.5V181L113.5 189L105.5 190L103 193.5L105.5 197L103.5 207L96.5 212M111 166H158M96.5 212L93 208.5L26 209.5M96.5 212L97.5 215L96.5 221.5L98.5 228.5L110 238L111.5 246.5L114.5 244L119.5 247.5L115.5 260L129 271L129.5 280.5L133 286L136.5 287.5M26 209.5L27.5 211V214.5L31.5 218L33.5 222L36.5 225H40V228L36.5 232L40 236V239.5L44.5 240V296.5L119.5 297.5L121 300.5L116 305.5L126.5 307L130 296.5H133.5L136.5 292.5L136.5 287.5M136.5 287.5L140 282L147 283.5L155.5 262M155.5 262L163.5 251L160.5 240.5L163.5 234.5M155.5 262L153.5 267.5L161 269L162.5 264.5L169.5 270L174 265.608L177.5 268.5L182.5 260L186 264.5L200 249.5L208 248L208.5 184M163.5 234.5V181C162.5 179.333 160 174 158 166M163.5 234.5V184H208.5M158 166V149L166 119.5L172.5 104L171.5 101.5L165 111L158 119.5L155.5 117L161 100H156.5L159 92.5L153 89.5V86L121.5 77L115 71L123 53M123 53H110.5L89.5 67H85.5L84 70V82.5L76 87L73.5 91.5V95.5L77.5 98L76 102V115L89.5 124L93 129L99 133.5L102 143.5M236.5 178.5L238 170.5L247 163L249 155C247.5 148 243.6 133.6 240 132C235.5 130 230.5 138 228.5 141C226.5 144 224 141 223.5 139C223 137 223 135.5 229.5 132C236 128.5 233 105.5 233 102C233 98.5 225.5 97 220.5 97C215.5 97 208.5 89 205 93C201.5 97 206.5 98.5 206.5 100.5C206.5 102.5 205 100.5 201 102C197 103.5 197 113 195.5 113.5C194.3 113.9 194.333 110 194.5 108C193.833 108.833 191.3 111.2 186.5 114C180.5 117.5 183 130.5 181.5 136.5C180 142.5 180.5 142.5 183.5 151.5C188.266 163.598 180.667 177.688 174.5 184H232M236.5 178.5L232 184M236.5 178.5L237 180L243 184L249 185L267.5 173.5L280.5 170.5V208L278 209.5L279 215C277.833 220 274.3 230.8 269.5 234C264.7 237.2 263.167 237 263 236.5V238H259.5L258 241L259.5 245L257 246.5L254.5 243.5L251 254.5L245.5 256.5L241.5 253V249.5L235.5 252L230.5 249.5L227.5 252L225 248H218.5L215 241H208L208.5 184M232 184H208.5" stroke="black"/>
</svg>
