<svg width="228" height="237" viewBox="0 0 228 237" fill="none" xmlns="http://www.w3.org/2000/svg">
<path d="M27 109V111L13 117.821V130H87L91 134L92 139L110.5 151.5L118 146V129L120.5 113V94H118V81.5L120.5 73.5V60.5H95L87 65C84.5 67.6667 79.2 73.3 78 74.5C76.5 76 75 76.5 71 79.5C67.8 81.9 64 89.1667 62.5 92.5H31L21.5 97L24.5 101.5V105L27 109Z" fill="#B2C0F3"/>
<path d="M17.5 191V179.5H79L81 207H90.5L82 225.5V228.5L76.5 235.5V226.5L81 217.5L77.5 217L79 212L75.5 210V213L70.5 206V203.5L75 185.5L68 191V207L70.5 215L57.5 208.5L54 210L53.5 206.5L57.5 199L47.5 188.5L40 181.5L34 184L28.5 182.5L26.5 186H23.5L17.5 191Z" fill="#B2C0F3"/>
<path d="M81 207H90.5L91 202.5L86 195V191L82.5 185.5L85.5 178.5L82 178L79 179.5L81 207Z" fill="#B2C0F3"/>
<path d="M7.5 121L13 118V130H87L91 134L92 139L98.5 143.5L90 153L91.5 155L89.5 159V162L106.5 180L101.5 185.5L95 197H93L94 192L91 191L82.5 185.5L85.5 178.5L82 178L79 179.5H0.5V122.5L7.5 121Z" fill="#B2C0F3"/>
<path d="M89.5 162L106.5 180L109.5 165L105.5 162.5L108.5 161L110.5 151.5L98.5 143.5L90 153L91.5 155L89.5 159V162Z" fill="#B2C0F3"/>
<path d="M137.5 151.5L115.5 155L146 144V129H118V146L110.5 151.5L108.5 161L117.5 161.5L141 152.5L137.5 151.5Z" fill="#B2C0F3"/>
<path d="M157 141.5L146 144V129H153L157 141.5Z" fill="#B2C0F3"/>
<path d="M165 136L157 141.5L153 129H118L120.5 113L154.5 113.5L159 109.5H162.5V114L164.5 116.5L162 117L158.5 122.5L163 124L167.5 134L170 136L173.5 135L173 128L177.5 132.5L176 137.5L165.5 139.5L165 136Z" fill="#B2C0F3"/>
<path d="M150 60.5H120.5V73.5L118 81.5V94H120.5V113H133.5L137 92.5L139 90L141.5 78L148 75L150 70V60.5Z" fill="#B2C0F3"/>
<path d="M150 70V60.5L153 54.5H157.5L160.5 100L164.5 105.5L162.5 109.5H159L154.5 113.5L133.5 113L137 92.5L139 90L141.5 78L148 75L150 70Z" fill="#B2C0F3"/>
<path d="M160.5 100L157.5 54.5L159 53L162 54.5V50L167 44L172.5 38L170.5 37V31.5L175 26.5V20.5L188.5 1L192 2V6L194 8L205.5 4L212.5 10.5V45.5L218.5 47V53L220.5 57H223L226.5 65L223 71H215L211 74.5L198 79L196.5 73.5L192 80V83.5L188.5 86.5L179.5 88.5L173.5 93L172.5 96.5L164.5 105.5L160.5 100Z" fill="#B2C0F3"/>
<path d="M120.5 60.5H95L87 65C84.5 67.6667 79.2 73.3 78 74.5C76.5 76 75 76.5 71 79.5C67.8 81.9 64 89.1667 62.5 92.5H31L21.5 97L24.5 101.5V105L27 109V111L13 117.821V130M120.5 60.5V73.5L118 81.5V94H120.5V113M120.5 60.5H150M120.5 113L118 129M120.5 113L154.5 113.5M120.5 113H133.5M118 129V146L110.5 151.5M118 129H146M118 129H153M110.5 151.5L92 139M110.5 151.5L98.5 143.5M110.5 151.5L108.5 161M92 139L91 134L87 130H13M92 139L98.5 143.5M13 130V118L7.5 121L0.5 122.5V179.5H79M79 179.5H17.5V191L23.5 186H26.5L28.5 182.5L34 184L40 181.5L47.5 188.5L57.5 199L53.5 206.5L54 210L57.5 208.5L70.5 215L68 207V191L75 185.5L70.5 203.5V206L75.5 213V210L79 212L77.5 217L81 217.5L76.5 226.5V235.5L82 228.5V225.5L90.5 207M79 179.5L81 207H90.5M79 179.5L82 178L85.5 178.5L82.5 185.5M90.5 207L91 202.5L86 195V191L82.5 185.5M82.5 185.5L91 191L94 192L93 197H95L101.5 185.5L106.5 180M106.5 180L89.5 162V159L91.5 155L90 153L98.5 143.5M106.5 180L109.5 165L105.5 162.5L108.5 161M108.5 161L117.5 161.5L141 152.5L137.5 151.5L115.5 155L146 144M146 129V144M146 129H153M146 144L157 141.5M157 141.5L153 129M157 141.5L165 136L165.5 139.5L176 137.5L177.5 132.5L173 128L173.5 135L170 136L167.5 134L163 124L158.5 122.5L162 117L164.5 116.5L162.5 114V109.5M162.5 109.5H159L154.5 113.5M162.5 109.5L164.5 105.5M154.5 113.5L133.5 113M150 60.5V70L148 75L141.5 78L139 90L137 92.5L133.5 113M150 60.5L153 54.5H157.5M157.5 54.5L160.5 100L164.5 105.5M157.5 54.5L159 53L162 54.5V50L167 44L172.5 38L170.5 37V31.5L175 26.5V20.5L188.5 1L192 2V6L194 8L205.5 4L212.5 10.5V45.5L218.5 47V53L220.5 57H223L226.5 65L223 71H215L211 74.5L198 79L196.5 73.5L192 80V83.5L188.5 86.5L179.5 88.5L173.5 93L172.5 96.5L164.5 105.5" stroke="black"/>
</svg>
