<svg width="99" height="99" viewBox="0 0 99 99" fill="none" xmlns="http://www.w3.org/2000/svg">
<path d="M41.2687 3.3518L39.0237 19.0248L27.5495 8.07859L30.2933 24.0004L14.0797 16.5371L22.0618 31.4638L6.59651 28.976L18.8191 40.6686L2.60547 43.6539L17.073 50.8685L4.35155 58.3318L18.8191 60.3221L7.34483 72.2634L23.5584 69.2781L17.073 83.7072L31.5405 75.4976L29.545 92.912L40.5204 80.9707L43.5136 96.3949L50.7474 81.9658L58.2306 95.6486L60.2261 79.9756L72.1992 90.673L69.206 75.4976L84.4218 82.7121L76.6892 68.5318L92.4039 70.522L80.6802 58.3318L96.3949 54.6002L82.6757 48.1319L94.6489 40.6686L80.6802 38.4296L91.6556 27.2345L75.442 30.4687L82.6757 15.7907L67.4599 24.0004L69.206 6.08837L58.2306 18.2785L55.2373 2.60547L48.253 16.5371L41.2687 3.3518Z" fill="#78BB81"/>
<path fill-rule="evenodd" clip-rule="evenodd" d="M55.606 0L58.7576 16.4974L70.3305 3.64745L68.4876 22.5469L84.5967 13.8578L76.9535 29.362L94.1231 25.9382L82.4516 37.8398L97.1144 40.1894L84.5084 48.045L99 54.8754L82.3933 58.8177L94.7613 71.6739L78.2431 69.5826L86.4198 84.5728L70.3627 76.9617L73.5219 92.9734L60.8718 81.6744L58.7566 98.2826L50.8232 83.781L43.1912 99L40.0368 82.7502L28.4407 95.3633L30.5456 76.9999L15.2728 85.6639L22.1406 70.3887L4.97597 73.5482L17.1056 60.9285L1.85013 58.8305L15.3058 50.9387L0 43.3083L17.0959 40.1615L4.14685 27.7776L20.5428 30.4143L12.1467 14.718L29.2251 22.5771L26.323 5.74194L38.4513 17.3087L40.8275 0.724226L48.2335 14.7014L55.606 0ZM55.2303 2.69917L48.255 16.6087L41.3132 3.50767L39.0777 19.1105L27.6347 8.19723L30.3692 24.0603L14.1403 16.5921L22.1417 31.5504L6.7676 29.078L18.9271 40.7069L2.71574 43.6909L17.1302 50.8769L4.45255 58.3124L18.9174 60.3017L7.47574 72.2056L23.6184 69.2342L17.1632 83.5917L31.6108 75.3958L29.6164 92.7961L40.5667 80.8855L43.5613 96.3121L50.7894 81.8983L58.2287 95.4967L60.2128 79.9176L72.1589 90.5877L69.169 75.434L84.3696 82.6392L76.6613 68.5076L92.4255 70.5035L80.7097 58.3252L96.3855 54.6039L82.694 48.1506L94.6841 40.6789L80.6515 38.4303L91.5264 27.341L75.3887 30.559L82.6057 15.9196L67.4572 24.0905L69.2013 6.20445L58.2277 18.3891L55.2303 2.69917Z" fill="black"/>
<path d="M29.7962 51.7354L25.1573 46.8128L26.0966 46.2705L28.2608 48.6799L29.7549 50.3436L29.7794 50.3295L29.1428 48.1706L28.2363 45.0351L29.2654 44.441L31.5194 46.7985L33.0579 48.4258L33.0824 48.4116L32.4097 46.2845L31.4215 43.1962L32.3281 42.6728L34.2146 49.1844L33.1774 49.7833L30.7483 47.2546L29.3239 45.7684L29.3076 45.7778L29.8744 47.7591L30.8334 51.1366L29.7962 51.7354Z" fill="black"/>
<path d="M36.5159 47.8558L33.2247 42.1551L36.8754 40.0474L37.3469 40.8641L34.6191 42.439L35.5338 44.0234L38.0085 42.5947L38.48 43.4114L36.0054 44.8401L36.9673 46.5062L39.6951 44.9313L40.1666 45.748L36.5159 47.8558Z" fill="black"/>
<path d="M43.2873 43.9463L39.996 38.2457L40.9189 37.7128L43.7387 42.5968L46.0581 41.2576L46.5296 42.0743L43.2873 43.9463Z" fill="black"/>
<path d="M49.4571 40.5148C49.0869 40.7286 48.7131 40.8609 48.3359 40.9117C47.961 40.9539 47.5939 40.9154 47.2347 40.7961C46.8777 40.6683 46.5341 40.4565 46.2037 40.1609C45.8756 39.8566 45.5732 39.465 45.2966 38.9858C45.0199 38.5067 44.8335 38.0517 44.7372 37.6209C44.6432 37.1815 44.6317 36.778 44.7026 36.4104C44.7758 36.0342 44.9259 35.697 45.1531 35.3989C45.3826 35.0922 45.6824 34.832 46.0527 34.6182C46.4229 34.4044 46.7955 34.2764 47.1704 34.2342C47.5476 34.1834 47.9147 34.2219 48.2716 34.3498C48.6309 34.4691 48.9745 34.6808 49.3026 34.9851C49.633 35.2807 49.9365 35.6681 50.2132 36.1472C50.4898 36.6264 50.6751 37.0856 50.7691 37.525C50.8654 37.9558 50.8769 38.3593 50.8037 38.7355C50.7328 39.1032 50.5827 39.4403 50.3532 39.747C50.126 40.0451 49.8273 40.3011 49.4571 40.5148ZM48.9809 39.69C49.1986 39.5642 49.3754 39.4114 49.511 39.2314C49.6521 39.0483 49.7445 38.8498 49.788 38.636C49.8337 38.4135 49.8323 38.1784 49.7836 37.9306C49.735 37.6829 49.6352 37.4283 49.4843 37.167L48.9656 36.2686C48.8147 36.0072 48.6442 35.7935 48.4539 35.6275C48.2637 35.4615 48.0624 35.3454 47.85 35.2793C47.6399 35.2046 47.4202 35.1825 47.1911 35.2132C46.9674 35.2407 46.7467 35.3173 46.5289 35.4431C46.3057 35.572 46.1262 35.7264 45.9906 35.9063C45.8549 36.0863 45.7641 36.2875 45.7183 36.51C45.6749 36.7238 45.6774 36.9546 45.7261 37.2024C45.7748 37.4502 45.8746 37.7047 46.0255 37.9661L46.5441 38.8645C46.695 39.1258 46.8656 39.3395 47.0558 39.5055C47.2461 39.6716 47.4462 39.7919 47.6563 39.8666C47.8687 39.9328 48.0868 39.9521 48.3105 39.9246C48.5342 39.8971 48.7576 39.8189 48.9809 39.69Z" fill="black"/>
<path d="M54.1651 37.666L49.0035 33.0452L49.9591 32.4935L52.4924 34.7877L54.1854 36.4564L54.2181 36.4376L53.6276 34.1323L52.9074 30.7913L53.8385 30.2537L55.235 37.0483L54.1651 37.666Z" fill="black"/>
<path d="M57.9785 35.4643L54.6873 29.7637L58.338 27.6559L58.8095 28.4727L56.0817 30.0476L56.9964 31.632L59.4711 30.2032L59.9426 31.02L57.468 32.4487L58.4299 34.1148L61.1577 32.5399L61.6292 33.3566L57.9785 35.4643Z" fill="black"/>
<path d="M29.3288 58.3627L32.1486 63.2467L31.2257 63.7795L28.4059 58.8956L26.7072 59.8763L26.2356 59.0596L30.556 56.5652L31.0276 57.3819L29.3288 58.3627Z" fill="black"/>
<path d="M36.8172 57.2408L34.2363 58.7309L35.6698 61.2137L34.7469 61.7465L31.4556 56.0459L32.3785 55.513L33.7648 57.9142L36.3456 56.4241L34.9593 54.023L35.8822 53.4902L39.1735 59.1908L38.2506 59.7236L36.8172 57.2408Z" fill="black"/>
<path d="M40.5771 58.3804L37.2859 52.6798L40.9366 50.572L41.4081 51.3887L38.6803 52.9636L39.5951 54.5481L42.0697 53.1193L42.5412 53.936L40.0666 55.3648L41.0285 57.0309L43.7563 55.456L44.2278 56.2727L40.5771 58.3804Z" fill="black"/>
<path d="M50.5157 51.4881L50.4831 51.5069C50.5835 51.8192 50.5537 52.1449 50.3938 52.4841C50.2362 52.8146 49.9396 53.1057 49.504 53.3571C49.1665 53.552 48.8172 53.6702 48.4564 53.7115C48.0924 53.7475 47.7335 53.7042 47.3796 53.5818C47.0281 53.4508 46.6872 53.2375 46.3568 52.9419C46.0287 52.6376 45.7263 52.2459 45.4497 51.7668C45.1762 51.2931 44.9941 50.8393 44.9032 50.4053C44.8092 49.9659 44.7989 49.5581 44.872 49.1819C44.9452 48.8057 45.0981 48.467 45.3307 48.1657C45.5602 47.859 45.8628 47.5972 46.2385 47.3803C46.7503 47.0848 47.2491 46.9493 47.7351 46.9736C48.2179 46.9925 48.6736 47.1468 49.1022 47.4366L48.6055 48.3114C48.3425 48.1075 48.0496 47.9899 47.7266 47.9586C47.4005 47.9218 47.0632 48.004 46.7147 48.2052C46.2628 48.4661 45.9813 48.821 45.8702 49.2699C45.7646 49.7156 45.8642 50.2026 46.1691 50.7307L46.7067 51.6618C47.0116 52.1899 47.3835 52.5197 47.8223 52.6511C48.2666 52.7793 48.7147 52.713 49.1666 52.4521C49.3463 52.3484 49.5053 52.2276 49.6434 52.0897C49.7785 51.9464 49.8808 51.7966 49.9503 51.6403C50.022 51.4755 50.0556 51.3073 50.0509 51.1357C50.0486 50.9556 49.9955 50.7757 49.8918 50.596L49.6372 50.155L48.4611 50.834L48.0037 50.0418L50.07 48.8488L51.8241 51.887L51.0155 52.3538L50.5157 51.4881Z" fill="black"/>
<path d="M54.0299 50.6135L53.107 51.1463L49.8157 45.4457L52.274 44.0264C52.7858 43.7309 53.2783 43.6534 53.7515 43.794C54.2216 43.9292 54.609 44.2608 54.914 44.789C55.1497 45.1973 55.2509 45.5926 55.2175 45.9749C55.1864 46.3486 55.0199 46.6952 54.718 47.0147L57.3375 48.7038L56.3085 49.2979L53.8354 47.6549L52.7001 48.3104L54.0299 50.6135ZM53.7223 46.6857C53.9564 46.5506 54.1042 46.3854 54.1657 46.1901C54.2241 45.9895 54.1873 45.7748 54.0552 45.5461L53.8289 45.1541C53.6969 44.9254 53.531 44.7889 53.3311 44.7446C53.1281 44.6948 52.9096 44.7375 52.6755 44.8726L51.2054 45.7214L52.2522 47.5345L53.7223 46.6857Z" fill="black"/>
<path d="M58.4587 48.0565L55.1674 42.3559L58.8181 40.2481L59.2896 41.0648L56.5618 42.6397L57.4766 44.2242L59.9512 42.7954L60.4227 43.6121L57.9481 45.0409L58.91 46.707L61.6378 45.1321L62.1094 45.9488L58.4587 48.0565Z" fill="black"/>
<path d="M66.8608 43.2055L65.4551 41.959L63.3234 43.1897L63.7164 45.0209L62.7772 45.5632L61.4297 38.7403L62.5895 38.0707L67.8245 42.6491L66.8608 43.2055ZM62.5 39.2549L62.4591 39.2785L63.0866 42.2702L64.769 41.2988L62.5 39.2549Z" fill="black"/>
<path d="M67.4686 36.3427L70.2883 41.2266L69.3655 41.7595L66.5457 36.8755L64.847 37.8563L64.3754 37.0396L68.6958 34.5452L69.1674 35.3619L67.4686 36.3427Z" fill="black"/>
<path d="M39.4205 71.9176L38.9867 71.1662L39.7626 70.7183L37.3389 66.5204L36.563 66.9683L36.1292 66.2169L38.612 64.7835L39.0458 65.5349L38.2618 65.9875L40.6855 70.1854L41.4695 69.7328L41.9033 70.4841L39.4205 71.9176Z" fill="black"/>
<path d="M42.7785 65.7755L41.4517 64.9299L41.4272 64.944L43.9452 69.3053L43.0632 69.8145L39.7719 64.1139L40.8009 63.5197L44.4832 65.5972L45.8099 66.4428L45.8344 66.4287L43.3164 62.0674L44.1985 61.5582L47.4897 67.2588L46.4607 67.8529L42.7785 65.7755Z" fill="black"/>
<path d="M45.6021 60.7478L47.6194 59.5831C47.9842 59.3725 48.3482 59.2422 48.7114 59.1922C49.08 59.1391 49.4369 59.1726 49.7821 59.2927C50.1296 59.4043 50.4643 59.6067 50.7861 59.9C51.1048 60.1879 51.4009 60.5687 51.6743 61.0424C51.9478 61.5161 52.1311 61.9656 52.2243 62.391C52.3143 62.8109 52.3222 63.202 52.2482 63.5641C52.1765 63.9177 52.0255 64.2408 51.7952 64.5335C51.5703 64.823 51.2755 65.0731 50.9107 65.2837L48.8934 66.4484L45.6021 60.7478ZM50.4391 64.467C50.8638 64.2218 51.1298 63.8904 51.2372 63.4727C51.3445 63.055 51.2488 62.5876 50.9502 62.0703L50.4221 61.1556C50.1234 60.6383 49.7664 60.3218 49.351 60.2059C48.9357 60.09 48.5156 60.1546 48.0909 60.3998L46.9965 61.0317L49.3448 65.0989L50.4391 64.467Z" fill="black"/>
<path d="M56.7301 62.0546C56.3599 62.2683 55.9861 62.4006 55.6089 62.4514C55.234 62.4936 54.867 62.4551 54.5077 62.3358C54.1508 62.208 53.8071 61.9962 53.4767 61.7006C53.1486 61.3963 52.8462 61.0047 52.5696 60.5255C52.293 60.0464 52.1065 59.5914 52.0102 59.1606C51.9163 58.7212 51.9047 58.3177 51.9756 57.9501C52.0488 57.5739 52.199 57.2367 52.4261 56.9386C52.6556 56.6319 52.9554 56.3717 53.3257 56.1579C53.6959 55.9441 54.0685 55.8161 54.4434 55.7739C54.8206 55.7231 55.1877 55.7616 55.5446 55.8895C55.9039 56.0088 56.2476 56.2205 56.5757 56.5248C56.9061 56.8204 57.2096 57.2078 57.4862 57.6869C57.7628 58.1661 57.9481 58.6253 58.0421 59.0647C58.1384 59.4955 58.1499 59.899 58.0767 60.2752C58.0059 60.6429 57.8557 60.98 57.6262 61.2867C57.3991 61.5849 57.1004 61.8408 56.7301 62.0546ZM56.2539 61.2297C56.4717 61.1039 56.6484 60.9511 56.7841 60.7711C56.9252 60.588 57.0175 60.3895 57.061 60.1757C57.1068 59.9532 57.1053 59.7181 57.0567 59.4703C57.008 59.2226 56.9082 58.968 56.7573 58.7067L56.2386 57.8083C56.0877 57.5469 55.9172 57.3332 55.727 57.1672C55.5367 57.0012 55.3354 56.8851 55.123 56.819C54.9129 56.7443 54.6933 56.7222 54.4641 56.7529C54.2404 56.7804 54.0197 56.857 53.8019 56.9828C53.5787 57.1117 53.3992 57.2661 53.2636 57.446C53.1279 57.626 53.0372 57.8272 52.9914 58.0497C52.9479 58.2635 52.9505 58.4944 52.9991 58.7421C53.0478 58.9899 53.1476 59.2444 53.2985 59.5058L53.8172 60.4042C53.968 60.6655 54.1386 60.8792 54.3288 61.0452C54.5191 61.2113 54.7192 61.3316 54.9294 61.4064C55.1418 61.4725 55.3598 61.4918 55.5835 61.4643C55.8072 61.4368 56.0306 61.3586 56.2539 61.2297Z" fill="black"/>
<path d="M62.5444 58.6977C62.1742 58.9114 61.8004 59.0437 61.4232 59.0945C61.0483 59.1367 60.6812 59.0982 60.322 58.9789C59.965 58.8511 59.6214 58.6393 59.291 58.3437C58.9629 58.0395 58.6605 57.6478 58.3839 57.1687C58.1072 56.6895 57.9208 56.2345 57.8245 55.8037C57.7305 55.3643 57.719 54.9608 57.7899 54.5932C57.8631 54.217 58.0132 53.8798 58.2404 53.5817C58.4699 53.275 58.7697 53.0148 59.14 52.801C59.5102 52.5873 59.8828 52.4593 60.2577 52.4171C60.6349 52.3662 61.002 52.4048 61.3589 52.5326C61.7182 52.6519 62.0618 52.8637 62.3899 53.1679C62.7203 53.4635 63.0239 53.8509 63.3005 54.33C63.5771 54.8092 63.7624 55.2685 63.8564 55.7079C63.9527 56.1387 63.9642 56.5422 63.891 56.9184C63.8201 57.286 63.67 57.6231 63.4405 57.9299C63.2133 58.228 62.9146 58.4839 62.5444 58.6977ZM62.0682 57.8728C62.2859 57.7471 62.4627 57.5942 62.5983 57.4142C62.7395 57.2311 62.8318 57.0327 62.8753 56.8188C62.9211 56.5963 62.9196 56.3612 62.8709 56.1135C62.8223 55.8657 62.7225 55.6111 62.5716 55.3498L62.0529 54.4514C61.902 54.1901 61.7315 53.9764 61.5412 53.8103C61.351 53.6443 61.1497 53.5282 60.9373 53.4621C60.7272 53.3874 60.5076 53.3654 60.2784 53.396C60.0547 53.4235 59.834 53.5002 59.6162 53.6259C59.393 53.7548 59.2135 53.9092 59.0779 54.0892C58.9422 54.2691 58.8515 54.4703 58.8057 54.6928C58.7622 54.9067 58.7647 55.1375 58.8134 55.3852C58.8621 55.633 58.9619 55.8876 59.1128 56.1489L59.6314 57.0473C59.7823 57.3086 59.9529 57.5223 60.1431 57.6884C60.3334 57.8544 60.5335 57.9748 60.7436 58.0495C60.956 58.1156 61.1741 58.1349 61.3978 58.1074C61.6215 58.0799 61.8449 58.0017 62.0682 57.8728Z" fill="black"/>
<path d="M67.0199 55.9831L66.097 56.5159L62.8057 50.8153L65.264 49.396C65.7758 49.1005 66.2683 49.023 66.7415 49.1636C67.2116 49.2988 67.5991 49.6304 67.904 50.1586C68.1397 50.5669 68.2409 50.9622 68.2075 51.3445C68.1765 51.7182 68.0099 52.0648 67.708 52.3843L70.3275 54.0734L69.2985 54.6675L66.8254 53.0245L65.6902 53.68L67.0199 55.9831ZM66.7123 52.0553C66.9464 51.9202 67.0942 51.755 67.1557 51.5597C67.2141 51.3591 67.1773 51.1444 67.0453 50.9157L66.8189 50.5237C66.6869 50.295 66.521 50.1585 66.3211 50.1142C66.1182 50.0644 65.8996 50.1071 65.6655 50.2422L64.1954 51.091L65.2422 52.9041L66.7123 52.0553Z" fill="black"/>
<path d="M73.2122 52.5386C72.733 52.8153 72.2744 52.9639 71.8362 52.9846C71.4035 53.0021 70.9825 52.933 70.5732 52.7773L70.866 51.8133C71.2089 51.942 71.5363 51.9998 71.8482 51.9867C72.1655 51.9705 72.4793 51.8728 72.7897 51.6936C73.1545 51.483 73.3823 51.2426 73.4731 50.9724C73.5639 50.7021 73.5291 50.4282 73.3688 50.1505C73.2399 49.9273 73.0724 49.788 72.8663 49.7328C72.6602 49.6776 72.3722 49.7132 72.0024 49.8396L71.4441 50.0421C70.829 50.2593 70.3072 50.3174 69.8786 50.2164C69.4501 50.1153 69.1038 49.8361 68.8397 49.3788C68.6951 49.1283 68.6109 48.8756 68.5872 48.6207C68.5657 48.3573 68.6001 48.1087 68.6903 47.8752C68.7828 47.633 68.9295 47.4031 69.1306 47.1854C69.3316 46.9677 69.5845 46.7709 69.8894 46.5948C70.3196 46.3465 70.7365 46.2074 71.1403 46.1775C71.541 46.1422 71.9347 46.2016 72.3214 46.3559L72.0063 47.3001C71.7492 47.1944 71.4815 47.1457 71.2032 47.154C70.9248 47.1622 70.6277 47.2575 70.3119 47.4398C69.9853 47.6284 69.7698 47.8399 69.6656 48.0744C69.5613 48.3088 69.5815 48.5512 69.7261 48.8017C69.8644 49.0412 70.0417 49.1785 70.2578 49.2134C70.4709 49.2428 70.7498 49.1979 71.0948 49.0786L71.6624 48.8925C72.297 48.6713 72.8204 48.6159 73.2326 48.7264C73.6503 48.8337 73.9912 49.116 74.2552 49.5734C74.4093 49.8402 74.5029 50.1092 74.5361 50.3804C74.5692 50.6517 74.5416 50.9181 74.4531 51.1797C74.3669 51.4328 74.2209 51.6767 74.0153 51.9116C73.8066 52.141 73.5389 52.35 73.2122 52.5386Z" fill="black"/>
</svg>
