<svg width="230" height="169" viewBox="0 0 230 169" fill="none" xmlns="http://www.w3.org/2000/svg">
<path d="M129 0.5H33.5C33.8333 1.33333 34.5 3.6 34.5 6C34.5 8.4 33.8333 9.33333 33.5 9.5L30.5 8L28.5 10L35 16L33.5 20L35.5 25L40 28V25L35 20.5L37.5 18.5V22.5L39.5 20L42.5 25C41.8333 26.3333 40.4 29.7 40 32.5C39.6 35.3 40.1667 40 40.5 42L39 44L36.5 43L38.5 32L31.5 23L28.5 24C28.5 23.5 28.3 22.4 27.5 22C26.7 21.6 24.5 22.5 23.5 23L12 21.5L0.5 16L1 23L2.5 29C3.5 30.1667 5.7 32.8 6.5 34C7.3 35.2 7.5 39.5 7.5 41.5L10.5 49.5L15 51.5L11 53.5V56.5L14.5 58.5V61.5L13.5 62.5L11.5 58.5V66.5L14.5 69L17.5 66.5L22.5 69V71.5C23.3333 70.8333 26 70.2 30 73C34 75.8 33.6667 80.5 33 82.5C35 83.5 39.6 85.5 42 85.5C45 85.5 43.5 82.5 51 81.5C58.5 80.5 57.5 83.5 60 84C62.5 84.5 63.5 82.5 66.5 81.5C69.5 80.5 69 82 72 82.5C74.4 82.9 89.6667 77.6667 97 75H131L129 66.5V0.5Z" fill="#FFC4C4"/>
<path d="M30.5 15L27.5 10.5L25.5 13L30.5 15Z" fill="#FFC4C4"/>
<path d="M129 66.5V0.5H145.5V26L151 33L150.5 36L152.5 38.5L151.5 41C153.833 42.6667 159.6 47.4 164 53C169.5 60 170.5 55.5 174 59.5C177.5 63.5 170 69 171.5 72C173 75 172.5 78 171 81C169.8 83.4 173.167 86.3333 175 87.5L181 82L183 84.5L184.5 92L188.5 96V100.5L194 104L199.5 112.5L202.5 110.5L207 111.5L209.5 108.5L221.5 109.5L223 104L229 111.112V167.5L129 168L131 118L125.5 114.5V110.5L132.5 100.5L138 83L131 75L129 66.5Z" fill="#FFC4C4"/>
<path d="M138 83L131 75H97C89.8333 77.5 74.9 82.5 72.5 82.5C69.5 82.5 73.5 81.5 68.5 81C63.5 80.5 64 84.5 60 84C56 83.5 57.5 81 51 81.5C44.5 82 45.5 84.5 42.5 85.5C40.1 86.3 35.1667 83.8333 33 82.5C33.6667 81.1667 34.2 77.6 31 74C27.8 70.4 24 70.8333 22.5 71.5V69L15.5 71L13 70L14 74L13 75.5V95L11 102.5C11 118.5 9 131.5 8 136L6 138L5.5 145L3.5 149L6 154.5L5.5 157.5L7 165.5L9 167.5L129 168L131 118L125.5 114.5V110.5L132.5 100.5L138 83Z" fill="#FFC4C4"/>
<path d="M33.5 0.5V0C33.3341 0 33.179 0.0822993 33.086 0.219685C32.993 0.357071 32.9741 0.531649 33.0358 0.685695L33.5 0.5ZM129 66.5H128.5C128.5 66.5386 128.504 66.577 128.513 66.6145L129 66.5ZM97 75V74.5C96.9439 74.5 96.8883 74.5094 96.8353 74.5279L97 75ZM72 82.5L72.0822 82.0068L72 82.5ZM33 82.5L32.5257 82.3419C32.4522 82.5622 32.5402 82.8041 32.7379 82.9258L33 82.5ZM22.5 71.5H22C22 71.6693 22.0856 71.827 22.2275 71.9192C22.3695 72.0115 22.5484 72.0256 22.7031 71.9569L22.5 71.5ZM22.5 69H23C23 68.8106 22.893 68.6375 22.7236 68.5528L22.5 69ZM17.5 66.5L17.7236 66.0528C17.5459 65.964 17.3325 65.9887 17.1799 66.1159L17.5 66.5ZM14.5 69L14.1799 69.3841C14.3653 69.5386 14.6347 69.5386 14.8201 69.3841L14.5 69ZM11.5 66.5H11C11 66.6484 11.0659 66.7891 11.1799 66.8841L11.5 66.5ZM11.5 58.5L11.9472 58.2764C11.8435 58.069 11.6108 57.9601 11.3851 58.0134C11.1594 58.0667 11 58.2681 11 58.5H11.5ZM13.5 62.5L13.0528 62.7236C13.1247 62.8674 13.2613 62.9678 13.4199 62.9935C13.5786 63.0193 13.7399 62.9672 13.8536 62.8536L13.5 62.5ZM14.5 61.5L14.8536 61.8536C14.9473 61.7598 15 61.6326 15 61.5H14.5ZM14.5 58.5H15C15 58.3206 14.9039 58.1549 14.7481 58.0659L14.5 58.5ZM11 56.5H10.5C10.5 56.6794 10.5961 56.8451 10.7519 56.9341L11 56.5ZM11 53.5L10.7764 53.0528C10.607 53.1375 10.5 53.3106 10.5 53.5H11ZM15 51.5L15.2236 51.9472C15.3967 51.8607 15.5043 51.6821 15.4999 51.4886C15.4955 51.2952 15.3799 51.1217 15.2031 51.0431L15 51.5ZM10.5 49.5L10.0318 49.6756C10.0789 49.8011 10.1744 49.9025 10.2969 49.9569L10.5 49.5ZM7.5 41.5H7C7 41.56 7.01078 41.6194 7.03184 41.6756L7.5 41.5ZM2.5 29L2.01493 29.1213C2.03375 29.1966 2.06986 29.2665 2.12037 29.3254L2.5 29ZM1 23L0.501271 23.0356C0.503334 23.0645 0.507904 23.0932 0.514929 23.1213L1 23ZM0.5 16L0.715728 15.5489C0.555075 15.4721 0.365682 15.4865 0.218505 15.5868C0.071328 15.687 -0.011417 15.858 0.00127065 16.0356L0.5 16ZM12 21.5L11.7843 21.9511C11.8319 21.9739 11.8829 21.989 11.9353 21.9958L12 21.5ZM23.5 23L23.4353 23.4958C23.5341 23.5087 23.6345 23.4918 23.7236 23.4472L23.5 23ZM28.5 24H28C28 24.1607 28.0773 24.3116 28.2076 24.4056C28.338 24.4996 28.5056 24.5252 28.6581 24.4743L28.5 24ZM31.5 23L31.8947 22.693C31.7645 22.5257 31.543 22.4586 31.3419 22.5257L31.5 23ZM38.5 32L38.9919 32.0894C39.0174 31.9495 38.982 31.8053 38.8947 31.693L38.5 32ZM36.5 43L36.0081 42.9106C35.9655 43.1445 36.0936 43.3759 36.3143 43.4642L36.5 43ZM39 44L38.8143 44.4642C39.0242 44.5482 39.2644 44.4809 39.4 44.3L39 44ZM40.5 42L40.9 42.3C40.982 42.1907 41.0157 42.0526 40.9932 41.9178L40.5 42ZM42.5 25L42.9472 25.2236C43.0237 25.0707 43.0167 24.8893 42.9287 24.7428L42.5 25ZM39.5 20L39.9287 19.7428C39.8445 19.6024 39.6969 19.5121 39.5336 19.5011C39.3702 19.4901 39.2118 19.5598 39.1096 19.6877L39.5 20ZM37.5 22.5H37C37 22.7123 37.1341 22.9015 37.3345 22.9718C37.5349 23.0421 37.7578 22.9782 37.8904 22.8123L37.5 22.5ZM37.5 18.5H38C38 18.3078 37.8898 18.1326 37.7166 18.0493C37.5434 17.9661 37.3377 17.9895 37.1877 18.1096L37.5 18.5ZM35 20.5L34.6877 20.1096C34.573 20.2013 34.5045 20.3387 34.5002 20.4855C34.4959 20.6322 34.5564 20.7734 34.6655 20.8716L35 20.5ZM40 25H40.5C40.5 24.8583 40.4398 24.7232 40.3345 24.6284L40 25ZM40 28L39.7226 28.416C39.8761 28.5183 40.0733 28.5278 40.2359 28.4408C40.3985 28.3538 40.5 28.1844 40.5 28H40ZM35.5 25L35.0358 25.1857C35.0733 25.2796 35.1385 25.3599 35.2226 25.416L35.5 25ZM33.5 20L33.0318 19.8244C32.9881 19.9411 32.9895 20.07 33.0358 20.1857L33.5 20ZM35 16L35.4682 16.1756C35.5396 15.9852 35.4885 15.7705 35.3391 15.6326L35 16ZM28.5 10L28.1464 9.64645C28.0502 9.74267 27.9974 9.87395 28.0001 10.01C28.0028 10.146 28.0609 10.2751 28.1609 10.3674L28.5 10ZM30.5 8L30.7236 7.55279C30.5311 7.45654 30.2986 7.49427 30.1464 7.64645L30.5 8ZM33.5 9.5L33.2764 9.94721C33.4172 10.0176 33.5828 10.0176 33.7236 9.94721L33.5 9.5ZM27.5 10.5L27.916 10.2226C27.8275 10.0899 27.681 10.0074 27.5217 10.0005C27.3623 9.99355 27.2092 10.0631 27.1096 10.1877L27.5 10.5ZM30.5 15L30.3143 15.4642C30.5177 15.5456 30.7503 15.4851 30.8883 15.315C31.0263 15.145 31.0375 14.9049 30.916 14.7226L30.5 15ZM25.5 13L25.1096 12.6877C25.0107 12.8113 24.9762 12.9744 25.0165 13.1275C25.0569 13.2805 25.1673 13.4054 25.3143 13.4642L25.5 13ZM138 83L138.477 83.1499L138.561 82.8821L138.376 82.6707L138 83ZM132.5 100.5L132.91 100.787L132.954 100.724L132.977 100.65L132.5 100.5ZM125.5 110.5L125.09 110.213L125 110.342V110.5H125.5ZM125.5 114.5H125V114.774L125.232 114.922L125.5 114.5ZM131 118L131.5 118.02L131.511 117.733L131.268 117.578L131 118ZM129 168L128.998 168.5L129.003 168.5L129 168ZM229 167.5L229.003 168L229.5 167.998V167.5H229ZM229 111.112H229.5V110.93L229.382 110.79L229 111.112ZM223 104L223.382 103.678L222.768 102.95L222.518 103.868L223 104ZM221.5 109.5L221.458 109.998L221.873 110.033L221.982 109.632L221.5 109.5ZM209.5 108.5L209.542 108.002L209.282 107.98L209.116 108.18L209.5 108.5ZM207 111.5L206.892 111.988L207.189 112.054L207.384 111.82L207 111.5ZM202.5 110.5L202.608 110.012L202.4 109.966L202.223 110.084L202.5 110.5ZM199.5 112.5L199.08 112.772L199.356 113.197L199.777 112.916L199.5 112.5ZM194 104L194.42 103.728L194.361 103.637L194.268 103.578L194 104ZM188.5 100.5H188V100.774L188.232 100.922L188.5 100.5ZM188.5 96H189V95.7929L188.854 95.6464L188.5 96ZM184.5 92L184.01 92.0981L184.039 92.2465L184.146 92.3536L184.5 92ZM183 84.5L183.49 84.4019L183.466 84.2826L183.39 84.1877L183 84.5ZM181 82L181.39 81.6877L181.056 81.2701L180.662 81.6314L181 82ZM175 87.5L174.732 87.9218L175.055 88.1277L175.338 87.8686L175 87.5ZM164 53L164.393 52.6911L164 53ZM151.5 41L151.036 40.8143L150.89 41.1787L151.209 41.4069L151.5 41ZM152.5 38.5L152.964 38.6857L153.072 38.4152L152.89 38.1877L152.5 38.5ZM150.5 36L150.007 35.9178L149.97 36.138L150.11 36.3123L150.5 36ZM151 33L151.493 33.0822L151.529 32.8646L151.393 32.6911L151 33ZM145.5 26H145V26.1729L145.107 26.3089L145.5 26ZM145.5 0.5H146V0H145.5V0.5ZM9 167.5L8.64645 167.854L8.79203 167.999L8.99792 168L9 167.5ZM7 165.5L6.50856 165.592L6.53707 165.744L6.64645 165.854L7 165.5ZM5.5 157.5L5.0068 157.418L4.99225 157.505L5.00856 157.592L5.5 157.5ZM6 154.5L6.4932 154.582L6.51825 154.432L6.45518 154.293L6 154.5ZM3.5 149L3.05279 148.776L2.94611 148.99L3.04482 149.207L3.5 149ZM5.5 145L5.94721 145.224L5.99165 145.135L5.99873 145.036L5.5 145ZM6 138L5.64645 137.646L5.51456 137.778L5.50127 137.964L6 138ZM8 136L8.35355 136.354L8.45651 136.251L8.48809 136.108L8 136ZM11 102.5L10.5169 102.371L10.5 102.434V102.5H11ZM13 95L13.4831 95.1288L13.5 95.0655V95H13ZM13 75.5L12.584 75.2226L12.5 75.3486V75.5H13ZM14 74L14.416 74.2774L14.5387 74.0933L14.4851 73.8787L14 74ZM13 70L13.1857 69.5358L12.2778 69.1726L12.5149 70.1213L13 70ZM15.5 71L15.3143 71.4642L15.473 71.5277L15.6374 71.4808L15.5 71ZM31 74L31.3737 73.6678L31 74ZM42.5 85.5L42.6581 85.9743L42.5 85.5ZM33.5 1H129V0H33.5V1ZM128.5 0.5V66.5H129.5V0.5H128.5ZM128.513 66.6145L130.513 75.1145L131.487 74.8855L129.487 66.3855L128.513 66.6145ZM131 74.5H97V75.5H131V74.5ZM96.8291 74.5301C93.1667 75.8619 87.5237 77.8344 82.4992 79.4233C79.9862 80.218 77.6344 80.9146 75.765 81.3871C74.8297 81.6235 74.0227 81.8019 73.3805 81.9087C72.7176 82.019 72.2913 82.0416 72.0822 82.0068L71.9178 82.9932C72.3087 83.0584 72.8845 83.005 73.5445 82.8952C74.2252 82.782 75.062 82.5963 76.01 82.3566C77.9073 81.8771 80.2805 81.1737 82.8008 80.3767C87.8429 78.7823 93.5 76.8048 97.1709 75.4699L96.8291 74.5301ZM72.0822 82.0068C70.6791 81.7729 70.1542 81.3306 69.4736 80.9903C69.1164 80.8117 68.7299 80.6737 68.2124 80.6641C67.7106 80.6549 67.1184 80.7668 66.3419 81.0257L66.6581 81.9743C67.3816 81.7332 67.8519 81.6576 68.1939 81.664C68.5201 81.67 68.7586 81.7508 69.0264 81.8847C69.5958 82.1694 70.3209 82.7271 71.9178 82.9932L72.0822 82.0068ZM66.3419 81.0257C64.7733 81.5485 63.6984 82.3479 62.8053 82.8838C61.9114 83.4201 61.1693 83.724 60.0981 83.5097L59.9019 84.4903C61.3307 84.776 62.3386 84.3299 63.3197 83.7412C64.3016 83.1521 65.2267 82.4515 66.6581 81.9743L66.3419 81.0257ZM60.0981 83.5097C59.5915 83.4084 59.2639 83.1869 58.9274 82.8854C58.6072 82.5985 58.1916 82.1421 57.6583 81.7755C56.5106 80.9865 54.7378 80.4972 50.9339 81.0044L51.0661 81.9956C54.7622 81.5028 56.2394 82.0135 57.0917 82.5995C57.5584 82.9204 57.8303 83.2452 58.2601 83.6302C58.6736 84.0006 59.1585 84.3416 59.9019 84.4903L60.0981 83.5097ZM50.9339 81.0044C47.1012 81.5154 45.4985 82.5508 44.4713 83.5095C44.2267 83.7378 44.0139 83.9628 43.8322 84.1472C43.6444 84.3379 43.4851 84.4905 43.3184 84.6147C43.0111 84.8437 42.6485 85 42 85V86C42.8515 86 43.4264 85.7813 43.9159 85.4166C44.1477 85.2439 44.3517 85.0449 44.5447 84.8489C44.7439 84.6466 44.9295 84.4497 45.1537 84.2405C46.0015 83.4492 47.3988 82.4846 51.0661 81.9956L50.9339 81.0044ZM42 85C40.8979 85 39.2227 84.5308 37.5225 83.9057C35.8426 83.2881 34.2098 82.5459 33.2236 82.0528L32.7764 82.9472C33.7902 83.4541 35.4574 84.2119 37.1775 84.8443C38.8773 85.4692 40.7021 86 42 86V85ZM33.4743 82.6581C34.1728 80.5627 34.5506 75.5751 30.2867 72.5904L29.7133 73.4096C33.4494 76.0249 33.1605 80.4373 32.5257 82.3419L33.4743 82.6581ZM30.2867 72.5904C26.1908 69.7232 23.2643 70.2483 22.1877 71.1096L22.8123 71.8904C23.4024 71.4184 25.8092 70.6768 29.7133 73.4096L30.2867 72.5904ZM23 71.5V69H22V71.5H23ZM22.7236 68.5528L17.7236 66.0528L17.2764 66.9472L22.2764 69.4472L22.7236 68.5528ZM17.1799 66.1159L14.1799 68.6159L14.8201 69.3841L17.8201 66.8841L17.1799 66.1159ZM14.8201 68.6159L11.8201 66.1159L11.1799 66.8841L14.1799 69.3841L14.8201 68.6159ZM12 66.5V58.5H11V66.5H12ZM11.0528 58.7236L13.0528 62.7236L13.9472 62.2764L11.9472 58.2764L11.0528 58.7236ZM13.8536 62.8536L14.8536 61.8536L14.1464 61.1464L13.1464 62.1464L13.8536 62.8536ZM15 61.5V58.5H14V61.5H15ZM14.7481 58.0659L11.2481 56.0659L10.7519 56.9341L14.2519 58.9341L14.7481 58.0659ZM11.5 56.5V53.5H10.5V56.5H11.5ZM11.2236 53.9472L15.2236 51.9472L14.7764 51.0528L10.7764 53.0528L11.2236 53.9472ZM15.2031 51.0431L10.7031 49.0431L10.2969 49.9569L14.7969 51.9569L15.2031 51.0431ZM10.9682 49.3244L7.96816 41.3244L7.03184 41.6756L10.0318 49.6756L10.9682 49.3244ZM8 41.5C8 40.4875 7.94954 38.8951 7.79743 37.3994C7.72142 36.652 7.61909 35.9191 7.48232 35.2906C7.34916 34.6787 7.17142 34.1057 6.91603 33.7226L6.08397 34.2774C6.22858 34.4943 6.37584 34.9088 6.50518 35.5032C6.63091 36.0809 6.72858 36.773 6.80257 37.5006C6.95046 38.9549 7 40.5125 7 41.5H8ZM6.91603 33.7226C6.09585 32.4924 3.87389 29.8346 2.87963 28.6746L2.12037 29.3254C3.12611 30.4988 5.30415 33.1076 6.08397 34.2774L6.91603 33.7226ZM2.98507 28.8787L1.48507 22.8787L0.514929 23.1213L2.01493 29.1213L2.98507 28.8787ZM1.49873 22.9644L0.998729 15.9644L0.00127065 16.0356L0.501271 23.0356L1.49873 22.9644ZM0.284272 16.4511L11.7843 21.9511L12.2157 21.0489L0.715728 15.5489L0.284272 16.4511ZM11.9353 21.9958L23.4353 23.4958L23.5647 22.5042L12.0647 21.0042L11.9353 21.9958ZM23.7236 23.4472C24.206 23.206 24.9797 22.8679 25.7215 22.6406C26.0931 22.5267 26.4408 22.4456 26.7316 22.4143C27.0396 22.3812 27.208 22.413 27.2764 22.4472L27.7236 21.5528C27.392 21.387 26.9854 21.3813 26.6247 21.4201C26.2467 21.4607 25.8319 21.5608 25.4285 21.6844C24.6203 21.9321 23.794 22.294 23.2764 22.5528L23.7236 23.4472ZM27.2764 22.4472C27.5231 22.5706 27.7081 22.8185 27.8337 23.143C27.9585 23.4653 28 23.803 28 24H29C29 23.697 28.9415 23.2347 28.7663 22.782C28.5919 22.3315 28.2769 21.8294 27.7236 21.5528L27.2764 22.4472ZM28.6581 24.4743L31.6581 23.4743L31.3419 22.5257L28.3419 23.5257L28.6581 24.4743ZM31.1053 23.307L38.1053 32.307L38.8947 31.693L31.8947 22.693L31.1053 23.307ZM38.0081 31.9106L36.0081 42.9106L36.9919 43.0894L38.9919 32.0894L38.0081 31.9106ZM36.3143 43.4642L38.8143 44.4642L39.1857 43.5358L36.6857 42.5358L36.3143 43.4642ZM39.4 44.3L40.9 42.3L40.1 41.7L38.6 43.7L39.4 44.3ZM40.9932 41.9178C40.8288 40.9314 40.6057 39.2714 40.4736 37.5125C40.3409 35.7457 40.3029 33.915 40.495 32.5707L39.505 32.4293C39.2971 33.885 39.3425 35.8043 39.4764 37.5875C39.611 39.3786 39.8379 41.0686 40.0068 42.0822L40.9932 41.9178ZM40.495 32.5707C40.8837 29.8496 42.2893 26.5394 42.9472 25.2236L42.0528 24.7764C41.3774 26.1272 39.9163 29.5504 39.505 32.4293L40.495 32.5707ZM42.9287 24.7428L39.9287 19.7428L39.0713 20.2572L42.0713 25.2572L42.9287 24.7428ZM39.1096 19.6877L37.1096 22.1877L37.8904 22.8123L39.8904 20.3123L39.1096 19.6877ZM38 22.5V18.5H37V22.5H38ZM37.1877 18.1096L34.6877 20.1096L35.3123 20.8904L37.8123 18.8904L37.1877 18.1096ZM34.6655 20.8716L39.6655 25.3716L40.3345 24.6284L35.3345 20.1284L34.6655 20.8716ZM39.5 25V28H40.5V25H39.5ZM40.2774 27.584L35.7774 24.584L35.2226 25.416L39.7226 28.416L40.2774 27.584ZM35.9642 24.8143L33.9642 19.8143L33.0358 20.1857L35.0358 25.1857L35.9642 24.8143ZM33.9682 20.1756L35.4682 16.1756L34.5318 15.8244L33.0318 19.8244L33.9682 20.1756ZM35.3391 15.6326L28.8391 9.6326L28.1609 10.3674L34.6609 16.3674L35.3391 15.6326ZM28.8536 10.3536L30.8536 8.35355L30.1464 7.64645L28.1464 9.64645L28.8536 10.3536ZM30.2764 8.44721L33.2764 9.94721L33.7236 9.05279L30.7236 7.55279L30.2764 8.44721ZM33.7236 9.94721C34.058 9.78 34.3682 9.36154 34.593 8.76345C34.8276 8.1395 35 7.24371 35 6H34C34 7.15629 33.8391 7.92717 33.657 8.41155C33.4652 8.92179 33.2753 9.05333 33.2764 9.05279L33.7236 9.94721ZM35 6C35 3.52283 34.3156 1.19265 33.9642 0.314305L33.0358 0.685695C33.3511 1.47402 34 3.67717 34 6H35ZM27.084 10.7774L30.084 15.2774L30.916 14.7226L27.916 10.2226L27.084 10.7774ZM30.6857 14.5358L25.6857 12.5358L25.3143 13.4642L30.3143 15.4642L30.6857 14.5358ZM25.8904 13.3123L27.8904 10.8123L27.1096 10.1877L25.1096 12.6877L25.8904 13.3123ZM130.624 75.3293L137.624 83.3293L138.376 82.6707L131.376 74.6707L130.624 75.3293ZM137.523 82.8501L132.023 100.35L132.977 100.65L138.477 83.1499L137.523 82.8501ZM132.09 100.213L125.09 110.213L125.91 110.787L132.91 100.787L132.09 100.213ZM125 110.5V114.5H126V110.5H125ZM125.232 114.922L130.732 118.422L131.268 117.578L125.768 114.078L125.232 114.922ZM130.5 117.98L128.5 167.98L129.5 168.02L131.5 118.02L130.5 117.98ZM129.003 168.5L229.003 168L228.997 167L128.997 167.5L129.003 168.5ZM229.5 167.5V111.112H228.5V167.5H229.5ZM229.382 110.79L223.382 103.678L222.618 104.322L228.618 111.435L229.382 110.79ZM222.518 103.868L221.018 109.368L221.982 109.632L223.482 104.132L222.518 103.868ZM221.542 109.002L209.542 108.002L209.458 108.998L221.458 109.998L221.542 109.002ZM209.116 108.18L206.616 111.18L207.384 111.82L209.884 108.82L209.116 108.18ZM207.108 111.012L202.608 110.012L202.392 110.988L206.892 111.988L207.108 111.012ZM202.223 110.084L199.223 112.084L199.777 112.916L202.777 110.916L202.223 110.084ZM199.92 112.228L194.42 103.728L193.58 104.272L199.08 112.772L199.92 112.228ZM194.268 103.578L188.768 100.078L188.232 100.922L193.732 104.422L194.268 103.578ZM189 100.5V96H188V100.5H189ZM188.854 95.6464L184.854 91.6464L184.146 92.3536L188.146 96.3536L188.854 95.6464ZM184.99 91.9019L183.49 84.4019L182.51 84.5981L184.01 92.0981L184.99 91.9019ZM183.39 84.1877L181.39 81.6877L180.61 82.3123L182.61 84.8123L183.39 84.1877ZM180.662 81.6314L174.662 87.1314L175.338 87.8686L181.338 82.3686L180.662 81.6314ZM175.268 87.0782C174.383 86.5147 173.132 85.5255 172.257 84.4048C171.36 83.257 170.986 82.147 171.447 81.2236L170.553 80.7764C169.814 82.253 170.523 83.8097 171.468 85.0202C172.435 86.2578 173.784 87.3187 174.732 87.9218L175.268 87.0782ZM171.447 81.2236C172.988 78.1428 173.543 74.9679 171.947 71.7764L171.053 72.2236C172.457 75.0321 172.012 77.8572 170.553 80.7764L171.447 81.2236ZM171.947 71.7764C171.679 71.2408 171.78 70.5232 172.208 69.5442C172.633 68.5727 173.292 67.5293 173.937 66.3678C174.564 65.2389 175.165 64.0177 175.368 62.8009C175.576 61.5548 175.366 60.3023 174.376 59.1707L173.624 59.8293C174.384 60.6977 174.549 61.6327 174.382 62.6366C174.21 63.6698 173.686 64.7611 173.063 65.8822C172.458 66.9707 171.742 68.1148 171.292 69.1433C170.845 70.1643 170.571 71.2592 171.053 72.2236L171.947 71.7764ZM174.376 59.1707C173.46 58.1238 172.676 57.598 171.909 57.3126C171.182 57.0423 170.45 56.9941 169.839 56.8831C169.204 56.7676 168.523 56.57 167.671 55.9924C166.807 55.4066 165.75 54.4179 164.393 52.6911L163.607 53.3089C165 55.0821 166.13 56.1559 167.11 56.8201C168.102 57.4925 168.921 57.7324 169.661 57.8669C170.425 58.0059 170.943 58.0202 171.56 58.2499C172.137 58.4645 172.79 58.8762 173.624 59.8293L174.376 59.1707ZM164.393 52.6911C159.956 47.0435 154.15 42.2786 151.791 40.5931L151.209 41.4069C153.516 43.0547 159.244 47.7565 163.607 53.3089L164.393 52.6911ZM151.964 41.1857L152.964 38.6857L152.036 38.3143L151.036 40.8143L151.964 41.1857ZM152.89 38.1877L150.89 35.6877L150.11 36.3123L152.11 38.8123L152.89 38.1877ZM150.993 36.0822L151.493 33.0822L150.507 32.9178L150.007 35.9178L150.993 36.0822ZM151.393 32.6911L145.893 25.6911L145.107 26.3089L150.607 33.3089L151.393 32.6911ZM146 26V0.5H145V26H146ZM145.5 0H129V1H145.5V0ZM129.002 167.5L9.00208 167L8.99792 168L128.998 168.5L129.002 167.5ZM9.35355 167.146L7.35355 165.146L6.64645 165.854L8.64645 167.854L9.35355 167.146ZM7.49144 165.408L5.99144 157.408L5.00856 157.592L6.50856 165.592L7.49144 165.408ZM5.9932 157.582L6.4932 154.582L5.5068 154.418L5.0068 157.418L5.9932 157.582ZM6.45518 154.293L3.95518 148.793L3.04482 149.207L5.54482 154.707L6.45518 154.293ZM3.94721 149.224L5.94721 145.224L5.05279 144.776L3.05279 148.776L3.94721 149.224ZM5.99873 145.036L6.49873 138.036L5.50127 137.964L5.00127 144.964L5.99873 145.036ZM6.35355 138.354L8.35355 136.354L7.64645 135.646L5.64645 137.646L6.35355 138.354ZM8.48809 136.108C9.49633 131.571 11.5 118.535 11.5 102.5H10.5C10.5 118.465 8.50367 131.429 7.51191 135.892L8.48809 136.108ZM11.4831 102.629L13.4831 95.1288L12.5169 94.8712L10.5169 102.371L11.4831 102.629ZM13.5 95V75.5H12.5V95H13.5ZM13.416 75.7774L14.416 74.2774L13.584 73.7226L12.584 75.2226L13.416 75.7774ZM14.4851 73.8787L13.4851 69.8787L12.5149 70.1213L13.5149 74.1213L14.4851 73.8787ZM12.8143 70.4642L15.3143 71.4642L15.6857 70.5358L13.1857 69.5358L12.8143 70.4642ZM15.6374 71.4808L22.6374 69.4808L22.3626 68.5192L15.3626 70.5192L15.6374 71.4808ZM22.7031 71.9569C24.0403 71.3626 27.5956 70.9226 30.6263 74.3322L31.3737 73.6678C28.0044 69.8773 23.9597 70.3041 22.2969 71.0431L22.7031 71.9569ZM30.6263 74.3322C33.6849 77.7731 33.1318 81.1183 32.5528 82.2764L33.4472 82.7236C34.2015 81.2151 34.7151 77.4269 31.3737 73.6678L30.6263 74.3322ZM32.7379 82.9258C33.8418 83.6051 35.6454 84.5707 37.4854 85.2676C38.4055 85.6161 39.3481 85.9026 40.2253 86.0494C41.0939 86.1948 41.9461 86.2117 42.6581 85.9743L42.3419 85.0257C41.8539 85.1883 41.1894 85.1969 40.3904 85.0631C39.5998 84.9308 38.7237 84.6673 37.8396 84.3324C36.0713 83.6627 34.3249 82.7282 33.2621 82.0742L32.7379 82.9258ZM42.6581 85.9743C44.2835 85.4325 44.9416 84.4039 45.765 83.6903C46.6008 82.9659 47.8642 82.2427 51.0383 81.9985L50.9617 81.0015C47.6358 81.2573 46.1492 82.0341 45.11 82.9347C44.0584 83.8461 43.7165 84.5675 42.3419 85.0257L42.6581 85.9743ZM51.0383 81.9985C54.2168 81.754 55.3443 82.2471 56.1601 82.791C56.3825 82.9393 56.5809 83.0911 56.8133 83.261C57.0398 83.4267 57.2867 83.6003 57.5736 83.763C58.1574 84.0941 58.877 84.3635 59.938 84.4961L60.062 83.5039C59.123 83.3865 58.5301 83.1559 58.067 82.8932C57.8305 82.7591 57.6203 82.6124 57.4035 82.4538C57.1926 82.2995 56.9613 82.1232 56.7149 81.959C55.6557 81.2529 54.2832 80.746 50.9617 81.0015L51.0383 81.9985ZM59.938 84.4961C61.0281 84.6324 61.8472 84.4635 62.5361 84.1191C63.2007 83.7868 63.7243 83.2963 64.2043 82.8763C64.6986 82.4438 65.1779 82.0538 65.8159 81.7903C66.4472 81.5295 67.269 81.3794 68.4502 81.4975L68.5498 80.5025C67.231 80.3706 66.2403 80.533 65.4341 80.866C64.6346 81.1962 64.0514 81.6812 63.5457 82.1237C63.0257 82.5787 62.6118 82.9632 62.0889 83.2247C61.5903 83.474 60.9719 83.6176 60.062 83.5039L59.938 84.4961ZM68.4502 81.4975C69.6945 81.6219 70.3142 81.7731 70.6121 81.9034C70.7563 81.9665 70.7808 82.0062 70.7724 81.9951C70.753 81.9693 70.75 81.9365 70.75 81.9375C70.75 81.9465 70.7491 81.9598 70.745 81.9985C70.7419 82.0275 70.7344 82.0916 70.7344 82.1572C70.7344 82.3191 70.7803 82.5478 70.9972 82.724C71.1674 82.8623 71.3885 82.9189 71.5972 82.9504C71.8211 82.9843 72.1156 83 72.5 83V82C72.1344 82 71.8976 81.9845 71.7466 81.9617C71.5802 81.9365 71.5826 81.9111 71.6278 81.9479C71.7197 82.0225 71.7344 82.1301 71.7344 82.1572C71.7344 82.159 71.7343 82.1566 71.7351 82.1468C71.736 82.1362 71.7372 82.1247 71.7394 82.1042C71.7431 82.0695 71.75 82.0066 71.75 81.9375C71.75 81.7822 71.7157 81.5854 71.5713 81.3936C71.4379 81.2165 71.2437 81.0882 71.0129 80.9872C70.5608 80.7894 69.8055 80.6281 68.5498 80.5025L68.4502 81.4975ZM72.5 83C72.8596 83 73.4029 82.9103 74.054 82.7689C74.7184 82.6246 75.5362 82.4169 76.4652 82.1618C78.3238 81.6515 80.6465 80.9462 83.1136 80.1641C88.0487 78.5997 93.5785 76.7231 97.1647 75.4721L96.8353 74.5279C93.2549 75.7769 87.7346 77.6503 82.8114 79.2109C80.3493 79.9913 78.0407 80.6922 76.2004 81.1975C75.2799 81.4503 74.4813 81.6528 73.8417 81.7917C73.1888 81.9335 72.7404 82 72.5 82V83Z" fill="black"/>
</svg>
