<svg width="319" height="313" viewBox="0 0 319 313" fill="none" xmlns="http://www.w3.org/2000/svg">
<path d="M73 98.5L83.5 100V103L76.5 113.5L78 117.5L75 121L71 124V127H69V133L63 137.5L60 160H11V150H5.5V110L1.5 89.5L76.5 90.5L78 93.5L73 98.5Z" fill="#E5A698"/>
<path d="M13 222.5L14 225.5L20.5 224H27L33 226.5L40.5 228.5L44.5 226.5L43.5 225.5L48 223L47.5 225.5L51.5 224L54 229H56L60 232.5L64.5 230.5L64 233.5L67 232.5L75 233.5V237.5L78 235.5V231L76 228.5L81.5 231L90 235.5L91 233.5L83.5 226.5L89 222L88 218.5L85 222L81.5 220L86.5 215L82 209V205L83.5 199.5H51.5V196.5L64 174L60 168.5V160H11V181C11.3333 181.167 12.2 181.8 13 183C13.8 184.2 17.3333 194.167 19 199L17.5 204.5V214L13 222.5Z" fill="#E5A698"/>
<path d="M50 228H45.5L49 230L50 228Z" fill="#E5A698"/>
<path d="M60 168.5V160L63 137.5L69 133V127H71V124L75 121L76 120H111L104 180L105.5 213.5H90L86.5 215L82 209V205L83.5 199.5H51.5V196.5L64 174L60 168.5Z" fill="#E5A698"/>
<path d="M104 180L105.5 213.5H111L112.5 207L115 215L123 213.5L119 200H162.5L160 197L162.5 188L160 183L164.5 175.5L160 163L151.5 120H111L104 180Z" fill="#E5A698"/>
<path d="M160 197L162.5 200L164.5 206.5L206.5 208.5L211.5 213L214 203L222 206.5V197H224V188H227L232.5 179.5L227 178L222 159.5L202 142L198 130.5L190 127L194.5 120H151.5L160 163L164.5 175.5L160 183L162.5 188L160 197Z" fill="#E5A698"/>
<path d="M227 178L232.5 179.5L233 174L236.5 170.5L240 171L246 168.5L248.5 164L252.5 162.5V160H257L262 149.5L267 144.5H270.5L251 124.5H232.5V122L228.5 117H205.5L195.5 120H194.5L190 127L198 130.5L202 142L222 159.5L227 178Z" fill="#E5A698"/>
<path d="M164.5 206.5L162.5 200H119L123 213.5L124.5 212.5L126.5 208L129.5 210L128.5 212H136L137.5 209L141.5 210.5L143.5 213.5L151.5 216.5L157 223L157.5 225.5H167L176.5 218.5H181.5L184.5 221.5L193 230.5L195.5 235L199.5 237.5L201.5 245V251L200 252.5V256.5L199.5 260L202 263L204 261L202 267.5L208.5 281L211 279L211.5 281L212 286L216 288.5L217.5 296.5L224.5 300.5L226.5 304V311.5L238.5 310.5L245 296.5L246 278L238.5 262L235 251.5L232 244V239.5L223.5 221.5L222 206.5L214 203L211.5 213L206.5 208.5L164.5 206.5Z" fill="#E5A698"/>
<path d="M237.5 251L235 245L239.5 247.5L237.5 251Z" fill="#E5A698"/>
<path d="M165 41L157 42.5L143 57.5L139.5 53L134.5 61.5L131 58.6077L126.5 63L119.5 57.5L118 62L110.5 60.5L104 76.5L97 75L93.5 80.5V85.5L90.5 89.5H111.5L110.5 87H184.5L198.5 81.5L201 75.5L212.5 67.5L207.5 65L202.5 55V49.5L198.5 46V42.5L192.5 45L187.5 42.5L184.5 45L182 41H175.5L172 34H165V41Z" fill="#E5A698"/>
<path d="M235 2.5L237.5 1V20.5H254.5V32L260.5 27H263.5L265.5 23.5L271 25L277 22.5L284.5 29.5L283 35L274 27V34L263.5 44L260.5 42.5L257.5 49.5L251 45.5L248 54L241.5 63V68.5L218 75L212.5 67.5L207.5 65L202.5 55V49.5L208 47.5L211.5 36.5L214 39.5L216.5 38L215 34L216.5 31H220V29.5C220.167 30 221.7 30.2 226.5 27C231.3 23.8 234.833 13 236 8L235 2.5Z" fill="#E5A698"/>
<path d="M283 35L284.5 29.5L294.5 40L290.5 47.5L291 51L294.5 49.5L296.5 50.5V53L302.5 55L304 58.5L308.5 60.5L307 68.5L310 72L307 75.5L308.5 78.5L307 81H312.191L314 84L313.5 88L184.5 87L198.5 81.5L201 75.5L212.5 67.5L218 75L241.5 68.5V63L248 54L251 45.5L257.5 49.5L260.5 42.5L263.5 44L274 34V27L283 35Z" fill="#E5A698"/>
<path d="M313.5 88L218 87.5L212 97H202.5L196.5 104.5L181.5 109L178.5 115.5H174V120H195.5L205.5 117H228.5L232.5 122V124.5H251L270.5 144.5L272 142.5H281L282.5 140.5L283 137L287 130.5H290L291 128.5H294.5V127.5H302.5L306.5 123H299V121.5L296 121L297 118L300.5 121.5L304.5 118V113.5L303 112L304.5 109.5L307.5 113.5H312V109.5L317.5 109L318 103.5L311.5 100.5H303L311 97V94.5L316 98L312 90L313.5 88Z" fill="#E5A698"/>
<path d="M174 115.5V120H76L78 117.5L76.5 113.5L83.5 103V100L87 89.5H111.5L110.5 87H164.5L218 87.5L212 97H202.5L196.5 104.5L181.5 109L178.5 115.5H174Z" fill="#E5A698"/>
<path d="M83.5 100L73 98.5L78 93.5L76.5 90.5L1.5 89.5L5.5 110V150H11V160M83.5 100V103L76.5 113.5L78 117.5M83.5 100L87 89.5H111.5M78 117.5L75 121M78 117.5L76 120M75 121L71 124V127H69V133L63 137.5L60 160M75 121L76 120M60 160H11M60 160V168.5L64 174L51.5 196.5V199.5H83.5L82 205V209L86.5 215M11 160V181C11.3333 181.167 12.2 181.8 13 183C13.8 184.2 17.3333 194.167 19 199L17.5 204.5V214L13 222.5L14 225.5L20.5 224H27L33 226.5L40.5 228.5L44.5 226.5L43.5 225.5L48 223L47.5 225.5L51.5 224L54 229H56L60 232.5L64.5 230.5L64 233.5L67 232.5L75 233.5V237.5L78 235.5V231L76 228.5L81.5 231L90 235.5L91 233.5L83.5 226.5L89 222L88 218.5L85 222L81.5 220L86.5 215M86.5 215L90 213.5H105.5M105.5 213.5L104 180L111 120M105.5 213.5H111L112.5 207L115 215L123 213.5M111 120H76M111 120H151.5M76 120H174M123 213.5L119 200H162.5M123 213.5L124.5 212.5L126.5 208L129.5 210L128.5 212H136L137.5 209L141.5 210.5L143.5 213.5L151.5 216.5L157 223L157.5 225.5H167L176.5 218.5H181.5L184.5 221.5L193 230.5L195.5 235L199.5 237.5L201.5 245V251L200 252.5V256.5L199.5 260L202 263L204 261L202 267.5L208.5 281L211 279L211.5 281L212 286L216 288.5L217.5 296.5L224.5 300.5L226.5 304V311.5L238.5 310.5L245 296.5L246 278L238.5 262L235 251.5L232 244V239.5L223.5 221.5L222 206.5M162.5 200L160 197L162.5 188L160 183L164.5 175.5L160 163L151.5 120M162.5 200L164.5 206.5L206.5 208.5L211.5 213L214 203L222 206.5M151.5 120H194.5M222 206.5V197H224V188H227L232.5 179.5M232.5 179.5L227 178L222 159.5L202 142L198 130.5L190 127L194.5 120M232.5 179.5L233 174L236.5 170.5L240 171L246 168.5L248.5 164L252.5 162.5V160H257L262 149.5L267 144.5H270.5M194.5 120H195.5M270.5 144.5L251 124.5H232.5V122L228.5 117H205.5L195.5 120M270.5 144.5L272 142.5H281L282.5 140.5L283 137L287 130.5H290L291 128.5H294.5V127.5H302.5L306.5 123H299V121.5L296 121L297 118L300.5 121.5L304.5 118V113.5L303 112L304.5 109.5L307.5 113.5H312V109.5L317.5 109L318 103.5L311.5 100.5H303L311 97V94.5L316 98L312 90L313.5 88M195.5 120H174M202.5 49.5L198.5 46V42.5L192.5 45L187.5 42.5L184.5 45L182 41H175.5L172 34H165V41L157 42.5L143 57.5L139.5 53L134.5 61.5L131 58.6077L126.5 63L119.5 57.5L118 62L110.5 60.5L104 76.5L97 75L93.5 80.5V85.5L90.5 89.5H111.5M202.5 49.5V55L207.5 65L212.5 67.5M202.5 49.5L208 47.5L211.5 36.5L214 39.5L216.5 38L215 34L216.5 31H220V29.5C220.167 30 221.7 30.2 226.5 27C231.3 23.8 234.833 13 236 8L235 2.5L237.5 1V20.5H254.5V32L260.5 27H263.5L265.5 23.5L271 25L277 22.5L284.5 29.5M212.5 67.5L201 75.5L198.5 81.5L184.5 87M212.5 67.5L218 75L241.5 68.5V63L248 54L251 45.5L257.5 49.5L260.5 42.5L263.5 44L274 34V27L283 35L284.5 29.5M184.5 87H110.5M184.5 87L313.5 88M110.5 87L111.5 89.5M110.5 87H164.5L218 87.5M284.5 29.5L294.5 40L290.5 47.5L291 51L294.5 49.5L296.5 50.5V53L302.5 55L304 58.5L308.5 60.5L307 68.5L310 72L307 75.5L308.5 78.5L307 81H312.191L314 84L313.5 88M313.5 88L218 87.5M218 87.5L212 97H202.5L196.5 104.5L181.5 109L178.5 115.5H174V120M45.5 228H50L49 230L45.5 228ZM235 245L237.5 251L239.5 247.5L235 245Z" stroke="black"/>
</svg>
