<svg width="104" height="89" viewBox="0 0 104 89" fill="none" xmlns="http://www.w3.org/2000/svg">
<path fill-rule="evenodd" clip-rule="evenodd" d="M19.8402 1.51234C18.7725 1.22938 17.6776 1.86555 17.3946 2.93327L5.61093 47.3984C5.32797 48.4661 5.96414 49.561 7.03185 49.844L14.6235 51.8558L17.1262 69.0714L32.6673 56.6376L88.229 71.3621C89.2967 71.645 90.3916 71.0088 90.6746 69.9411L102.458 25.476C102.741 24.4083 102.105 23.3134 101.037 23.0304L19.8402 1.51234Z" fill="#92D3FF"/>
<path d="M19.8402 1.51234L19.9683 1.02902L19.8402 1.51234ZM7.03185 49.844L7.15994 49.3606L7.03185 49.844ZM14.6235 51.8558L15.1183 51.7839L15.0707 51.4571L14.7515 51.3725L14.6235 51.8558ZM17.1262 69.0714L16.6314 69.1433L16.7569 70.0071L17.4385 69.4618L17.1262 69.0714ZM32.6673 56.6376L32.7953 56.1543L32.5517 56.0897L32.3549 56.2472L32.6673 56.6376ZM101.037 23.0304L100.909 23.5138L101.037 23.0304ZM17.878 3.06135C18.0902 2.26056 18.9114 1.78344 19.7122 1.99565L19.9683 1.02902C18.6337 0.675325 17.265 1.47054 16.9113 2.80518L17.878 3.06135ZM6.09424 47.5264L17.878 3.06135L16.9113 2.80518L5.12761 47.2703L6.09424 47.5264ZM7.15994 49.3606C6.35915 49.1484 5.88203 48.3272 6.09424 47.5264L5.12761 47.2703C4.77392 48.6049 5.56913 49.9736 6.90377 50.3273L7.15994 49.3606ZM14.7515 51.3725L7.15994 49.3606L6.90377 50.3273L14.4954 52.3391L14.7515 51.3725ZM17.621 68.9994L15.1183 51.7839L14.1287 51.9277L16.6314 69.1433L17.621 68.9994ZM32.3549 56.2472L16.8138 68.6809L17.4385 69.4618L32.9796 57.028L32.3549 56.2472ZM88.3571 70.8787L32.7953 56.1543L32.5392 57.1209L88.1009 71.8454L88.3571 70.8787ZM90.1913 69.813C89.979 70.6138 89.1578 71.091 88.3571 70.8787L88.1009 71.8454C89.4355 72.1991 90.8042 71.4038 91.1579 70.0692L90.1913 69.813ZM101.975 25.348L90.1913 69.813L91.1579 70.0692L102.942 25.6041L101.975 25.348ZM100.909 23.5138C101.71 23.726 102.187 24.5472 101.975 25.348L102.942 25.6041C103.295 24.2695 102.5 22.9008 101.165 22.5471L100.909 23.5138ZM19.7122 1.99565L100.909 23.5138L101.165 22.5471L19.9683 1.02902L19.7122 1.99565Z" fill="black"/>
<g style="mix-blend-mode:hard-light">
<g opacity="0.8">
<path opacity="0.8" d="M69.7413 32.6218C68.6564 32.7895 67.5526 32.7938 66.4664 32.6346C67.744 32.2771 68.8497 31.4706 69.5804 30.3632C68.3744 30.6799 67.1233 30.7893 65.8806 30.6867C65.3196 29.6021 64.4135 28.735 63.3053 28.2222C62.1971 27.7094 60.9497 27.58 59.7598 27.8544C58.57 28.1287 57.5052 28.7912 56.7334 29.7375C55.9616 30.6838 55.5267 31.86 55.4972 33.0808C53.4121 32.4091 51.4918 31.3062 49.861 29.8436C48.2302 28.3811 46.9256 26.5916 46.0318 24.5917C45.0408 25.5795 44.4627 26.9073 44.4149 28.3057C44.367 29.7041 44.853 31.0684 45.7741 32.1216C44.9377 31.8691 44.1742 31.4195 43.5476 30.8107L43.5217 30.9072C43.1934 32.1334 43.2992 33.4353 43.8214 34.5923C44.3435 35.7492 45.2497 36.69 46.3864 37.255C45.5483 37.2594 44.7203 37.0729 43.965 36.7097C44.0206 37.8679 44.4402 38.9791 45.1641 39.8849C45.8879 40.7908 46.8791 41.4453 47.9965 41.7551C45.2955 42.9042 42.2494 42.9366 39.5245 41.8454C41.4158 43.921 43.831 45.4491 46.5166 46.2692C49.2022 47.0894 52.0591 47.1715 54.7873 46.5067C57.5155 45.8419 60.0145 44.4549 62.0218 42.4913C64.029 40.5277 65.4706 38.0598 66.1952 35.3469C66.2573 35.115 66.3194 34.8832 66.379 34.6611C67.6198 34.1868 68.7659 33.4947 69.7632 32.6173L69.7413 32.6218Z" fill="black"/>
</g>
</g>
</svg>
